<svg width="93" height="93" viewBox="0 0 93 93" fill="none" xmlns="http://www.w3.org/2000/svg">
<g clip-path="url(#clip0_2095_2262)">
<path d="M32.6599 72.9116L18.7853 80.4797C17.9711 80.9236 17.2394 81.4693 16.5586 82.0642C24.6478 88.8848 35.0902 92.9996 46.4993 92.9996C57.8243 92.9996 68.1999 88.9462 76.2663 82.2186C75.5223 81.5904 74.7152 81.0254 73.8203 80.5797L58.9631 73.152C57.0434 72.1921 55.8309 70.2304 55.8309 68.0843V62.2552C56.2485 61.7796 56.7258 61.169 57.2364 60.4478C59.2614 57.5876 60.7932 54.4414 61.8549 51.1408C63.7605 50.553 65.1642 48.793 65.1642 46.7014V40.4791C65.1642 39.1105 64.5554 37.8874 63.6096 37.0311V28.0364C63.6096 28.0364 65.4573 14.0391 46.5011 14.0391C27.5449 14.0391 29.3926 28.0364 29.3926 28.0364V37.0311C28.445 37.8874 27.8379 39.1105 27.8379 40.4791V46.7014C27.8379 48.3403 28.6995 49.7826 29.9892 50.6161C31.5439 57.3841 35.6148 62.2552 35.6148 62.2552V67.9405C35.6131 70.011 34.4795 71.9184 32.6599 72.9116Z" fill="#F3F6FC"/>
<path d="M47.2948 0.0069244C21.618 -0.431755 0.445608 20.0282 0.00692898 45.705C-0.242241 60.2639 6.2467 73.3488 16.5785 82.0505C17.254 81.4609 17.9787 80.9204 18.7842 80.4818L32.6587 72.9137C34.4783 71.9205 35.6119 70.0131 35.6119 67.939V62.2538C35.6119 62.2538 31.5392 57.3827 29.9863 50.6147C28.6983 49.7812 27.835 48.3406 27.835 46.6999V40.4777C27.835 39.109 28.4439 37.886 29.3897 37.0297V28.035C29.3897 28.035 27.5419 14.0376 46.4982 14.0376C65.4544 14.0376 63.6067 28.035 63.6067 28.035V37.0297C64.5542 37.886 65.1613 39.109 65.1613 40.4777V46.6999C65.1613 48.7916 63.7576 50.5515 61.8519 51.1394C60.7903 54.44 59.2585 57.5862 57.2335 60.4464C56.7229 61.1676 56.2456 61.7782 55.828 62.2538V68.0829C55.828 70.2289 57.0405 72.1925 58.9602 73.1506L73.8174 80.5783C74.7087 81.024 75.5142 81.5872 76.2564 82.2137C86.2758 73.8577 92.749 61.3641 92.9894 47.2948C93.4316 21.618 72.9733 0.445604 47.2948 0.0069244Z" fill="#E7EDF8"/>
</g>
<defs>
<clipPath id="clip0_2095_2262">
<rect width="93" height="93" fill="white"/>
</clipPath>
</defs>
</svg>
