<svg width="20" height="20" viewBox="0 0 20 20" fill="none" xmlns="http://www.w3.org/2000/svg">
<path d="M19.375 11.0156H0.625C0.301406 11.0156 0.0390625 11.278 0.0390625 11.6016V12.3828C0.0390625 13.5675 1.00285 14.5312 2.1875 14.5312H8.45887L6.2616 16.4844H5.70312C4.51848 16.4844 3.55469 17.4482 3.55469 18.6328V19.4141C3.55469 19.7377 3.81703 20 4.14062 20H15.8594C16.183 20 16.4453 19.7377 16.4453 19.4141V18.6328C16.4453 17.4482 15.4815 16.4844 14.2969 16.4844H13.7384L11.5411 14.5312H17.8125C18.9971 14.5312 19.9609 13.5675 19.9609 12.3828V11.6016C19.9609 11.278 19.6986 11.0156 19.375 11.0156ZM14.2969 17.6562C14.8354 17.6562 15.2734 18.0943 15.2734 18.6328V18.8281H4.72656V18.6328C4.72656 18.0943 5.16465 17.6562 5.70312 17.6562H14.2969ZM11.9745 16.4844H8.02551L10 14.7293L11.9745 16.4844ZM18.7891 12.3828C18.7891 12.9213 18.351 13.3594 17.8125 13.3594H2.1875C1.64902 13.3594 1.21094 12.9213 1.21094 12.3828V12.1875H18.7891V12.3828Z" fill="#104CBA"/>
<path d="M13.125 8.20312H18.5938C18.9173 8.20312 19.1797 7.94078 19.1797 7.61719V6.44531C19.1797 5.20457 18.4952 4.12129 17.4844 3.55145C17.8101 3.17473 18.0078 2.68438 18.0078 2.14844C18.0078 0.963789 17.044 0 15.8594 0C14.6747 0 13.7109 0.963789 13.7109 2.14844C13.7109 2.68438 13.9087 3.17473 14.2344 3.55145C13.2236 4.12129 12.5391 5.20457 12.5391 6.44531V7.61719C12.5391 7.94078 12.8014 8.20312 13.125 8.20312ZM15.8594 1.17188C16.3979 1.17188 16.8359 1.60996 16.8359 2.14844C16.8359 2.68691 16.3979 3.125 15.8594 3.125C15.3209 3.125 14.8828 2.68691 14.8828 2.14844C14.8828 1.60996 15.3209 1.17188 15.8594 1.17188ZM13.7109 6.44531C13.7109 5.26066 14.6747 4.29688 15.8594 4.29688C17.044 4.29688 18.0078 5.26066 18.0078 6.44531V7.03125H13.7109V6.44531Z" fill="#104CBA"/>
<path d="M1.40625 8.20312H6.875C7.19859 8.20312 7.46094 7.94078 7.46094 7.61719V6.44531C7.46094 5.20457 6.77641 4.12129 5.76562 3.55145C6.09133 3.17473 6.28906 2.68438 6.28906 2.14844C6.28906 0.963789 5.32527 0 4.14062 0C2.95598 0 1.99219 0.963789 1.99219 2.14844C1.99219 2.68438 2.18992 3.17473 2.51562 3.55145C1.50484 4.12129 0.820312 5.20457 0.820312 6.44531V7.61719C0.820312 7.94078 1.08266 8.20312 1.40625 8.20312ZM4.14062 1.17188C4.6791 1.17188 5.11719 1.60996 5.11719 2.14844C5.11719 2.68691 4.6791 3.125 4.14062 3.125C3.60215 3.125 3.16406 2.68691 3.16406 2.14844C3.16406 1.60996 3.60215 1.17188 4.14062 1.17188ZM1.99219 6.44531C1.99219 5.26066 2.95598 4.29688 4.14062 4.29688C5.32527 4.29688 6.28906 5.26066 6.28906 6.44531V7.03125H1.99219V6.44531Z" fill="#104CBA"/>
</svg>
