<svg width="20" height="20" viewBox="0 0 20 20" fill="none" xmlns="http://www.w3.org/2000/svg">
<path d="M18.2422 4.76562H16.4453V2.96875C16.4453 2.64516 16.183 2.38281 15.8594 2.38281H14.0625V0.585938C14.0625 0.262344 13.8002 0 13.4766 0H1.75781C1.43422 0 1.17188 0.262344 1.17188 0.585938V14.6484C1.17188 14.972 1.43422 15.2344 1.75781 15.2344H3.55469V17.0312C3.55469 17.3548 3.81703 17.6172 4.14062 17.6172H5.9375V19.4141C5.9375 19.7377 6.19984 20 6.52344 20H18.2422C18.5658 20 18.8281 19.7377 18.8281 19.4141V5.35156C18.8281 5.02797 18.5658 4.76562 18.2422 4.76562ZM2.34375 14.0625V1.17188H12.8906V14.0625H2.34375ZM4.72656 16.4453V15.2344H13.4766C13.8002 15.2344 14.0625 14.972 14.0625 14.6484V3.55469H15.2734V16.4453H4.72656ZM17.6562 18.8281H7.10938V17.6172H15.8594C16.183 17.6172 16.4453 17.3548 16.4453 17.0312V5.9375H17.6562V18.8281Z" fill="#104CBA"/>
<path d="M11.1328 4.6875H4.10156C3.77797 4.6875 3.51562 4.94984 3.51562 5.27344V12.3047C3.51562 12.6283 3.77797 12.8906 4.10156 12.8906H11.1328C11.4564 12.8906 11.7188 12.6283 11.7188 12.3047V5.27344C11.7188 4.94984 11.4564 4.6875 11.1328 4.6875ZM5.85938 11.7188H4.6875V10.5469H5.85938V11.7188ZM5.85938 9.375H4.6875V8.20312H5.85938V9.375ZM5.85938 7.03125H4.6875V5.85938H5.85938V7.03125ZM8.20312 11.7188H7.03125V10.5469H8.20312V11.7188ZM8.20312 9.375H7.03125V8.20312H8.20312V9.375ZM8.20312 7.03125H7.03125V5.85938H8.20312V7.03125ZM10.5469 11.7188H9.375V10.5469H10.5469V11.7188ZM10.5469 9.375H9.375V8.20312H10.5469V9.375ZM10.5469 7.03125H9.375V5.85938H10.5469V7.03125Z" fill="#104CBA"/>
<path d="M5.66406 3.51562H9.57031C9.89391 3.51562 10.1562 3.25328 10.1562 2.92969C10.1562 2.60609 9.89391 2.34375 9.57031 2.34375H5.66406C5.34047 2.34375 5.07812 2.60609 5.07812 2.92969C5.07812 3.25328 5.34047 3.51562 5.66406 3.51562Z" fill="#104CBA"/>
</svg>
