<svg width="26" height="26" viewBox="0 0 26 26" fill="none" xmlns="http://www.w3.org/2000/svg">
<path d="M9.20866 24.9154C10.5088 24.9231 11.7976 24.6727 13.0003 24.1787C14.2018 24.6769 15.4914 24.9275 16.792 24.9154C20.7407 24.9154 23.8337 22.8083 23.8337 20.1173V15.6301C23.8337 12.9391 20.7407 10.832 16.792 10.832C16.6089 10.832 16.4291 10.8407 16.2503 10.8504V5.77612C16.2503 3.14036 13.1574 1.08203 9.20866 1.08203C5.25991 1.08203 2.16699 3.14036 2.16699 5.77612V20.2213C2.16699 22.857 5.25991 24.9154 9.20866 24.9154ZM21.667 20.1173C21.667 21.362 19.665 22.7487 16.792 22.7487C13.919 22.7487 11.917 21.362 11.917 20.1173V19.1152C13.3841 20.0075 15.0753 20.4626 16.792 20.4271C18.5087 20.4626 20.1999 20.0075 21.667 19.1152V20.1173ZM16.792 12.9987C19.665 12.9987 21.667 14.3854 21.667 15.6301C21.667 16.8749 19.665 18.2605 16.792 18.2605C13.919 18.2605 11.917 16.8738 11.917 15.6301C11.917 14.3864 13.919 12.9987 16.792 12.9987ZM9.20866 3.2487C12.0817 3.2487 14.0837 4.5812 14.0837 5.77612C14.0837 6.97103 12.0817 8.30462 9.20866 8.30462C6.33566 8.30462 4.33366 6.97212 4.33366 5.77612C4.33366 4.58012 6.33566 3.2487 9.20866 3.2487ZM4.33366 9.18753C5.80684 10.0624 7.49565 10.5071 9.20866 10.4713C10.9217 10.5071 12.6105 10.0624 14.0837 9.18753V11.1895C12.903 11.4871 11.8202 12.0871 10.942 12.9304C10.3724 13.0537 9.79144 13.1169 9.20866 13.1189C6.33566 13.1189 4.33366 11.7864 4.33366 10.5915V9.18753ZM4.33366 14.0029C5.80716 14.877 7.49581 15.3213 9.20866 15.2856C9.40149 15.2856 9.58782 15.2618 9.77741 15.252C9.76127 15.3775 9.75223 15.5037 9.75033 15.6301V17.8889C9.56833 17.8997 9.39283 17.9344 9.20866 17.9344C6.33566 17.9344 4.33366 16.6019 4.33366 15.4059V14.0029ZM4.33366 18.8173C5.80684 19.6922 7.49565 20.1369 9.20866 20.101C9.39066 20.101 9.56941 20.087 9.75033 20.0783V20.1173C9.76583 21.0395 10.1202 21.9237 10.7459 22.6014C10.239 22.6971 9.72449 22.7464 9.20866 22.7487C6.33566 22.7487 4.33366 21.4162 4.33366 20.2213V18.8173Z" fill="#104CBA"/>
</svg>
