<svg width="26" height="26" viewBox="0 0 26 26" fill="none" xmlns="http://www.w3.org/2000/svg">
<path d="M22.75 4.33203C22.75 4.04471 22.6359 3.76916 22.4327 3.566C22.2295 3.36283 21.954 3.2487 21.6667 3.2487H18.4167V2.16536C18.4167 1.87805 18.3025 1.6025 18.0994 1.39933C17.8962 1.19617 17.6206 1.08203 17.3333 1.08203H8.66667C8.37935 1.08203 8.1038 1.19617 7.90063 1.39933C7.69747 1.6025 7.58333 1.87805 7.58333 2.16536V3.2487H4.33333C4.04602 3.2487 3.77047 3.36283 3.5673 3.566C3.36414 3.76916 3.25 4.04471 3.25 4.33203V23.832C3.25 24.1194 3.36414 24.3949 3.5673 24.5981C3.77047 24.8012 4.04602 24.9154 4.33333 24.9154H21.6667C21.954 24.9154 22.2295 24.8012 22.4327 24.5981C22.6359 24.3949 22.75 24.1194 22.75 23.832V4.33203ZM9.75 3.2487H16.25V5.41537H9.75V3.2487ZM20.5833 22.7487H5.41667V5.41537H7.58333V6.4987C7.58333 6.78602 7.69747 7.06157 7.90063 7.26473C8.1038 7.4679 8.37935 7.58203 8.66667 7.58203H17.3333C17.6206 7.58203 17.8962 7.4679 18.0994 7.26473C18.3025 7.06157 18.4167 6.78602 18.4167 6.4987V5.41537H20.5833V22.7487Z" fill="#104CBA"/>
<path d="M12.9997 18.418H8.66634C8.37902 18.418 8.10347 18.5321 7.90031 18.7353C7.69714 18.9384 7.58301 19.214 7.58301 19.5013C7.58301 19.7886 7.69714 20.0642 7.90031 20.2673C8.10347 20.4705 8.37902 20.5846 8.66634 20.5846H12.9997C13.287 20.5846 13.5625 20.4705 13.7657 20.2673C13.9689 20.0642 14.083 19.7886 14.083 19.5013C14.083 19.214 13.9689 18.9384 13.7657 18.7353C13.5625 18.5321 13.287 18.418 12.9997 18.418Z" fill="#104CBA"/>
<path d="M17.333 14.082H8.66634C8.37902 14.082 8.10347 14.1962 7.90031 14.3993C7.69714 14.6025 7.58301 14.878 7.58301 15.1654C7.58301 15.4527 7.69714 15.7282 7.90031 15.9314C8.10347 16.1346 8.37902 16.2487 8.66634 16.2487H17.333C17.6203 16.2487 17.8959 16.1346 18.099 15.9314C18.3022 15.7282 18.4163 15.4527 18.4163 15.1654C18.4163 14.878 18.3022 14.6025 18.099 14.3993C17.8959 14.1962 17.6203 14.082 17.333 14.082Z" fill="#104CBA"/>
<path d="M17.333 9.75H8.66634C8.37902 9.75 8.10347 9.86414 7.90031 10.0673C7.69714 10.2705 7.58301 10.546 7.58301 10.8333C7.58301 11.1207 7.69714 11.3962 7.90031 11.5994C8.10347 11.8025 8.37902 11.9167 8.66634 11.9167H17.333C17.6203 11.9167 17.8959 11.8025 18.099 11.5994C18.3022 11.3962 18.4163 11.1207 18.4163 10.8333C18.4163 10.546 18.3022 10.2705 18.099 10.0673C17.8959 9.86414 17.6203 9.75 17.333 9.75Z" fill="#104CBA"/>
</svg>
