<svg width="26" height="26" viewBox="0 0 26 26" fill="none" xmlns="http://www.w3.org/2000/svg">
<path d="M23.2592 7.85931C23.7617 7.59256 24.1532 7.14391 24.3455 6.60156H25.2383C25.659 6.60156 26 6.26052 26 5.83984C26 5.41917 25.659 5.07812 25.2383 5.07812H24.3455C24.0311 4.19153 23.1844 3.55469 22.1914 3.55469C21.1984 3.55469 20.3517 4.19153 20.0373 5.07812H18.4537C18.1819 4.67289 17.7838 4.35932 17.3164 4.19352V2.28516C17.3164 1.02512 16.2913 0 15.0312 0H9.95312C8.69309 0 7.66797 1.02512 7.66797 2.28516V3.80859C7.66797 4.26562 7.77903 4.69691 7.97443 5.07812H5.96273C5.6483 4.19153 4.80162 3.55469 3.80859 3.55469C2.81557 3.55469 1.96889 4.19153 1.65445 5.07812H0.761719C0.341047 5.07812 0 5.41917 0 5.83984C0 6.26052 0.341047 6.60156 0.761719 6.60156H1.65445C1.84681 7.14391 2.23829 7.59251 2.74071 7.85931L0.0701289 13.6456C0.023918 13.7457 0 13.8546 0 13.9648C0 16.0649 1.70854 17.7734 3.80859 17.7734C5.90865 17.7734 7.61719 16.0649 7.61719 13.9648C7.61719 13.8546 7.59327 13.7457 7.54706 13.6456L4.87642 7.85931C5.3789 7.59256 5.77037 7.14391 5.96268 6.60156H7.66797V8.57919C7.66797 9.83917 8.23057 11.0178 9.19141 11.808V13.7552C8.89576 13.8598 8.68359 14.1411 8.68359 14.4726V25.2382C8.68359 25.6589 9.02464 25.9999 9.44531 25.9999H16.5547C16.9754 25.9999 17.3164 25.6589 17.3164 25.2382V14.4727C17.3164 14.1412 17.1042 13.8599 16.8086 13.7552V11.8066L17.7227 11.1211C18.4222 10.5964 18.8398 9.76117 18.8398 8.88672V6.60156H20.0373C20.2296 7.14391 20.6211 7.59251 21.1236 7.85931L18.4529 13.6457C18.4067 13.7457 18.3828 13.8546 18.3828 13.9648C18.3828 16.0649 20.0913 17.7734 22.1914 17.7734C24.2915 17.7734 26 16.0649 26 13.9648C26 13.8546 25.9761 13.7457 25.9299 13.6456L23.2592 7.85931ZM3.80859 5.07812C4.22861 5.07812 4.57031 5.41983 4.57031 5.83984C4.57031 6.25986 4.22861 6.60156 3.80859 6.60156C3.38858 6.60156 3.04688 6.25986 3.04688 5.83984C3.04688 5.41983 3.38858 5.07812 3.80859 5.07812ZM3.80859 16.25C2.81562 16.25 1.96899 15.6132 1.65455 14.7266H5.96268C5.6482 15.6132 4.80157 16.25 3.80859 16.25ZM5.66495 13.2031H1.95223L3.80859 9.18095L5.66495 13.2031ZM9.19141 2.28516C9.19141 1.86514 9.53311 1.52344 9.95312 1.52344H15.0312C15.4513 1.52344 15.793 1.86514 15.793 2.28516V4.0625H13C12.2925 4.0625 11.6803 4.4782 11.3945 5.07812H10.4609C9.76092 5.07812 9.19141 4.50861 9.19141 3.80859V2.28516ZM15.793 24.4766H10.207V15.2344H15.793V24.4766ZM17.3164 8.88672C17.3164 9.28418 17.1266 9.66387 16.8086 9.90234L15.5898 10.8164C15.398 10.9603 15.2852 11.186 15.2852 11.4258V13.7109H10.7148V11.4258C10.7148 11.1711 10.5875 10.9333 10.3756 10.792C9.63407 10.2977 9.19141 9.47045 9.19141 8.57924V6.60156H11.3291C11.6616 7.77243 12.7396 8.63281 14.0156 8.63281H14.5234C14.9441 8.63281 15.2852 8.29177 15.2852 7.87109C15.2852 7.45042 14.9441 7.10938 14.5234 7.10938H14.0156C13.3156 7.10938 12.7461 6.53986 12.7461 5.83984C12.7461 5.69984 12.86 5.58594 13 5.58594H16.5547C16.9747 5.58594 17.3164 5.92764 17.3164 6.34766V8.88672ZM22.1914 5.07812C22.6114 5.07812 22.9531 5.41983 22.9531 5.83984C22.9531 6.25986 22.6114 6.60156 22.1914 6.60156C21.7714 6.60156 21.4297 6.25986 21.4297 5.83984C21.4297 5.41983 21.7714 5.07812 22.1914 5.07812ZM22.1914 9.18095L24.0478 13.2031H20.335L22.1914 9.18095ZM22.1914 16.25C21.1984 16.25 20.3518 15.6132 20.0374 14.7266H24.3455C24.031 15.6132 23.1844 16.25 22.1914 16.25Z" fill="#104CBA"/>
</svg>
