<svg width="26" height="26" viewBox="0 0 26 26" fill="none" xmlns="http://www.w3.org/2000/svg">
<path d="M15.4839 11.15L11.8493 14.7835L10.441 13.6114C10.2187 13.4448 9.941 13.37 9.66518 13.4024C9.38935 13.4347 9.13648 13.5717 8.95879 13.7852C8.7811 13.9986 8.69216 14.2721 8.71033 14.5492C8.72851 14.8263 8.85241 15.0859 9.05645 15.2743L11.2231 17.0791C11.4308 17.2521 11.6956 17.3412 11.9656 17.329C12.2355 17.3168 12.4912 17.2041 12.6824 17.013L17.0157 12.6797C17.213 12.4754 17.3222 12.2017 17.3198 11.9177C17.3173 11.6336 17.2034 11.3619 17.0025 11.1611C16.8017 10.9602 16.5299 10.8463 16.2459 10.8438C15.9618 10.8413 15.6882 10.9505 15.4839 11.1479V11.15Z" fill="#104CBA"/>
<path d="M17.017 1.40053C16.8133 1.19739 16.5377 1.08292 16.25 1.08203H4.33333C4.04602 1.08203 3.77047 1.19617 3.5673 1.39933C3.36414 1.6025 3.25 1.87805 3.25 2.16536V23.832C3.25 24.1193 3.36414 24.3949 3.5673 24.5981C3.77047 24.8012 4.04602 24.9154 4.33333 24.9154H21.6667C21.954 24.9154 22.2295 24.8012 22.4327 24.5981C22.6359 24.3949 22.75 24.1193 22.75 23.832V7.58203C22.75 7.43952 22.7218 7.29841 22.6672 7.1668C22.6125 7.03518 22.5324 6.91564 22.4315 6.81503L17.017 1.40053ZM17.3333 4.78053L19.0515 6.4987H17.3333V4.78053ZM20.5833 22.7487H5.41667V3.2487H15.1667C15.2663 9.73786 14.1147 8.55703 20.5833 8.66536V22.7487Z" fill="#104CBA"/>
</svg>
