<svg width="20" height="20" viewBox="0 0 20 20" fill="none" xmlns="http://www.w3.org/2000/svg">
<g clip-path="url(#clip0_3243_278)">
<path d="M19.9822 9.12446V14.1546H18.4225V11.8292L13.8025 16.4639L11.8807 14.5648L6.62205 20L5.50111 18.9155L11.8557 12.3475L13.7942 14.2629L17.3616 10.6842H14.9131V9.12446H19.9822ZM8.98607 13.2188V12.0196C9.31837 11.9008 9.62466 11.7065 9.88416 11.4447C10.336 10.9888 10.5848 10.3915 10.5848 9.76263C10.5848 9.15293 10.3313 8.62043 9.83129 8.17996C9.46537 7.85756 9.0173 7.62403 8.58397 7.39818L8.56291 7.38723C7.82714 7.00373 7.5823 6.80268 7.5823 6.36821C7.5823 6.07607 7.87787 5.81006 8.20242 5.81006C8.5215 5.81006 8.7911 6.06005 8.7911 6.35597H10.3508C10.3508 5.4514 9.76574 4.67835 8.94707 4.38091V3.11947H7.38734V4.41039C6.59573 4.73135 6.02257 5.49846 6.02257 6.36821C6.02257 7.82196 7.16149 8.41564 7.84192 8.77032L7.86306 8.78132C8.65295 9.19301 9.02506 9.42401 9.02506 9.76263C9.02506 10.2064 8.64066 10.5957 8.20242 10.5957C7.76822 10.5957 7.38734 10.2022 7.38734 9.75362H5.8276C5.8276 10.7821 6.50655 11.6841 7.42633 12.0177V13.2188H8.98607ZM7.34916 14.7622C4.09738 14.3406 1.57732 11.5534 1.57732 8.18862C1.57732 4.53345 4.55103 1.55974 8.2062 1.55974C11.651 1.55974 14.49 4.20107 14.8055 7.56472H16.3712C16.0514 3.33986 12.5115 0 8.2062 0C3.69099 0 0.0175781 3.67341 0.0175781 8.18862C0.0175781 11.9623 2.58377 15.1474 6.06257 16.092L7.34916 14.7622ZM12.1835 19.9646H13.7433V18.5981L12.1835 17.0569V19.9646ZM9.06405 19.9646H10.6238V18.107L9.06405 19.7191V19.9646ZM18.4225 19.9646H19.9822V15.7143H18.4225V19.9646ZM15.303 19.9646H16.8627V15.6077L15.303 17.1675V19.9646Z" fill="#104CBA"/>
</g>
<defs>
<clipPath id="clip0_3243_278">
<rect width="20" height="20" fill="white"/>
</clipPath>
</defs>
</svg>
