<svg width="20" height="20" viewBox="0 0 20 20" fill="none" xmlns="http://www.w3.org/2000/svg">
<path d="M8.82812 7.5H13.5156C13.8392 7.5 14.1016 7.23766 14.1016 6.91406C14.1016 6.59047 13.8392 6.32812 13.5156 6.32812H8.82812C8.50453 6.32812 8.24219 6.59047 8.24219 6.91406C8.24219 7.23766 8.50453 7.5 8.82812 7.5Z" fill="#104CBA"/>
<path d="M17.4219 0H4.53125C3.13121 0 1.99219 1.13902 1.99219 2.53906V17.4609C1.99219 18.861 3.13121 20 4.53125 20H17.4219C17.7455 20 18.0078 19.7377 18.0078 19.4141V0.585938C18.0078 0.262344 17.7455 0 17.4219 0ZM4.33594 18.8139C3.6743 18.7189 3.16406 18.1485 3.16406 17.4609V4.67691C3.50742 4.89727 3.90684 5.03703 4.33594 5.06988V18.8139ZM16.8359 18.8281H5.50781V5.07812H16.8359V18.8281ZM16.8359 3.90625H4.53125C3.77738 3.90625 3.16406 3.29293 3.16406 2.53906C3.16406 1.7852 3.77738 1.17188 4.53125 1.17188H16.8359V3.90625Z" fill="#104CBA"/>
</svg>
