<svg width="26" height="26" viewBox="0 0 26 26" fill="none" xmlns="http://www.w3.org/2000/svg">
<path d="M15.167 7.58203H6.50033C6.21301 7.58203 5.93746 7.69617 5.73429 7.89933C5.53113 8.1025 5.41699 8.37805 5.41699 8.66536C5.41699 8.95268 5.53113 9.22823 5.73429 9.4314C5.93746 9.63456 6.21301 9.7487 6.50033 9.7487H15.167C15.4543 9.7487 15.7299 9.63456 15.933 9.4314C16.1362 9.22823 16.2503 8.95268 16.2503 8.66536C16.2503 8.37805 16.1362 8.1025 15.933 7.89933C15.7299 7.69617 15.4543 7.58203 15.167 7.58203Z" fill="#104CBA"/>
<path d="M15.167 11.918H6.50033C6.21301 11.918 5.93746 12.0321 5.73429 12.2353C5.53113 12.4384 5.41699 12.714 5.41699 13.0013C5.41699 13.2886 5.53113 13.5642 5.73429 13.7673C5.93746 13.9705 6.21301 14.0846 6.50033 14.0846H15.167C15.4543 14.0846 15.7299 13.9705 15.933 13.7673C16.1362 13.5642 16.2503 13.2886 16.2503 13.0013C16.2503 12.714 16.1362 12.4384 15.933 12.2353C15.7299 12.0321 15.4543 11.918 15.167 11.918Z" fill="#104CBA"/>
<path d="M10.8337 16.25H6.50033C6.21301 16.25 5.93746 16.3641 5.73429 16.5673C5.53113 16.7705 5.41699 17.046 5.41699 17.3333C5.41699 17.6207 5.53113 17.8962 5.73429 18.0994C5.93746 18.3025 6.21301 18.4167 6.50033 18.4167H10.8337C11.121 18.4167 11.3965 18.3025 11.5997 18.0994C11.8029 17.8962 11.917 17.6207 11.917 17.3333C11.917 17.046 11.8029 16.7705 11.5997 16.5673C11.3965 16.3641 11.121 16.25 10.8337 16.25Z" fill="#104CBA"/>
<path d="M23.833 11.9154H20.583V4.33203C20.583 3.47008 20.2406 2.64343 19.6311 2.03393C19.0216 1.42444 18.195 1.08203 17.333 1.08203H4.33301C3.47105 1.08203 2.6444 1.42444 2.03491 2.03393C1.42542 2.64343 1.08301 3.47008 1.08301 4.33203V21.6654C1.08301 22.5273 1.42542 23.354 2.03491 23.9635C2.6444 24.573 3.47105 24.9154 4.33301 24.9154H21.6663C22.5283 24.9154 23.355 24.573 23.9644 23.9635C24.5739 23.354 24.9163 22.5273 24.9163 21.6654V12.9987C24.9163 12.7114 24.8022 12.4358 24.599 12.2327C24.3959 12.0295 24.1203 11.9154 23.833 11.9154ZM18.4163 22.7487H4.33301C4.04569 22.7487 3.77014 22.6346 3.56698 22.4314C3.36381 22.2282 3.24968 21.9527 3.24968 21.6654V4.33203C3.24968 4.04471 3.36381 3.76916 3.56698 3.566C3.77014 3.36283 4.04569 3.2487 4.33301 3.2487H17.333C17.6203 3.2487 17.8959 3.36283 18.099 3.566C18.3022 3.76916 18.4163 4.04471 18.4163 4.33203V22.7487ZM22.7497 21.6654C22.7497 21.9527 22.6355 22.2282 22.4324 22.4314C22.2292 22.6346 21.9537 22.7487 21.6663 22.7487H20.583V14.082H22.7497V21.6654Z" fill="#104CBA"/>
</svg>
