<svg width="26" height="26" viewBox="0 0 26 26" fill="none" xmlns="http://www.w3.org/2000/svg">
<g clip-path="url(#clip0_3206_2480)">
<path d="M25.2383 0H0.761719C0.341047 0 0 0.341047 0 0.761719V4.02528C0 4.44595 0.341047 4.787 0.761719 4.787H1.63175V19.5271C1.63175 19.9478 1.9728 20.2888 2.39347 20.2888H12.2383V21.3381C11.291 21.657 10.6065 22.5531 10.6065 23.6066C10.6065 24.9263 11.6802 26 13 26C14.3198 26 15.3935 24.9263 15.3935 23.6065C15.3935 22.5531 14.709 21.657 13.7617 21.338V20.2888H23.6065C24.0272 20.2888 24.3682 19.9477 24.3682 19.5271V4.787H25.2383C25.659 4.787 26 4.44595 26 4.02528V0.761719C26 0.341047 25.659 0 25.2383 0V0ZM13 24.4766C12.5203 24.4766 12.13 24.0863 12.13 23.6065C12.13 23.1268 12.5203 22.7365 13 22.7365C13.4797 22.7365 13.87 23.1268 13.87 23.6065C13.87 24.0863 13.4797 24.4766 13 24.4766ZM22.8448 18.7653H3.15519V4.787H22.8448V18.7653H22.8448ZM24.4766 3.26356H1.52344V1.52344H24.4766V3.26356Z" fill="#104CBA"/>
<path d="M10.5527 12.2401C10.1321 12.2401 9.79102 12.5811 9.79102 13.0018V16.2653C9.79102 16.686 10.1321 17.0271 10.5527 17.0271H20.3434C20.764 17.0271 21.1051 16.686 21.1051 16.2653V11.37C21.1051 10.9494 20.764 10.6083 20.3434 10.6083H17.8415V9.73828C17.8415 9.31761 17.5005 8.97656 17.0798 8.97656H13.8162C13.3956 8.97656 13.0545 9.31761 13.0545 9.73828V12.2401H10.5527ZM11.3145 13.7635H13.0546V15.5036H11.3145V13.7635ZM19.5816 12.1318V15.5036H17.8415V12.1318H19.5816ZM14.578 10.4999H16.3181V15.5036H14.578V10.4999Z" fill="#104CBA"/>
<path d="M5.65723 8.05078H11.3684C11.7891 8.05078 12.1302 7.70973 12.1302 7.28906C12.1302 6.86839 11.7891 6.52734 11.3684 6.52734H5.65723C5.23655 6.52734 4.89551 6.86839 4.89551 7.28906C4.89551 7.70973 5.23655 8.05078 5.65723 8.05078Z" fill="#104CBA"/>
<path d="M5.65723 11.3125H8.10488C8.52555 11.3125 8.8666 10.9715 8.8666 10.5508C8.8666 10.1301 8.52555 9.78906 8.10488 9.78906H5.65723C5.23655 9.78906 4.89551 10.1301 4.89551 10.5508C4.89551 10.9715 5.23655 11.3125 5.65723 11.3125Z" fill="#104CBA"/>
</g>
<defs>
<clipPath id="clip0_3206_2480">
<rect width="26" height="26" fill="white"/>
</clipPath>
</defs>
</svg>
