<svg width="26" height="26" viewBox="0 0 26 26" fill="none" xmlns="http://www.w3.org/2000/svg">
<path d="M5.38281 10.6641H22.6484C23.0691 10.6641 23.4102 10.323 23.4102 9.90234V0.761719C23.4102 0.341047 23.0691 0 22.6484 0H5.38281C4.96214 0 4.62109 0.341047 4.62109 0.761719V9.90234C4.62109 10.323 4.96214 10.6641 5.38281 10.6641ZM21.8867 9.14062H20.4943C20.7242 8.49245 21.2385 7.97809 21.8867 7.7482V9.14062ZM21.8867 1.52344V2.91586C21.2385 2.68597 20.7242 2.17161 20.4943 1.52344H21.8867ZM6.14453 1.52344H7.53695C7.30707 2.17161 6.7927 2.68597 6.14453 2.91586V1.52344ZM6.14453 4.49368C7.63466 4.18996 8.81105 3.01356 9.11478 1.52344H18.9165C19.2202 3.01356 20.3966 4.18996 21.8868 4.49368V6.17038C20.3966 6.47405 19.2202 7.6505 18.9165 9.14062H9.11478C8.81111 7.6505 7.63466 6.4741 6.14453 6.17038V4.49368ZM6.14453 7.7482C6.7927 7.97809 7.30707 8.49245 7.53695 9.14062H6.14453V7.7482Z" fill="#104CBA"/>
<path d="M14.0156 7.61719C15.2757 7.61719 16.3008 6.59207 16.3008 5.33203C16.3008 4.072 15.2757 3.04688 14.0156 3.04688C12.7556 3.04688 11.7305 4.072 11.7305 5.33203C11.7305 6.59207 12.7556 7.61719 14.0156 7.61719ZM14.0156 4.57031C14.4356 4.57031 14.7773 4.91202 14.7773 5.33203C14.7773 5.75204 14.4356 6.09375 14.0156 6.09375C13.5956 6.09375 13.2539 5.75204 13.2539 5.33203C13.2539 4.91202 13.5956 4.57031 14.0156 4.57031Z" fill="#104CBA"/>
<path d="M9.44531 6.09375C9.866 6.09375 10.207 5.75272 10.207 5.33203C10.207 4.91135 9.866 4.57031 9.44531 4.57031C9.02463 4.57031 8.68359 4.91135 8.68359 5.33203C8.68359 5.75272 9.02463 6.09375 9.44531 6.09375Z" fill="#104CBA"/>
<path d="M18.5859 6.09375C19.0066 6.09375 19.3477 5.75272 19.3477 5.33203C19.3477 4.91135 19.0066 4.57031 18.5859 4.57031C18.1653 4.57031 17.8242 4.91135 17.8242 5.33203C17.8242 5.75272 18.1653 6.09375 18.5859 6.09375Z" fill="#104CBA"/>
<path d="M25.809 17.5681C25.3438 16.2899 23.8832 15.6848 22.6504 16.2596L18.0981 18.382C17.9643 17.4277 17.2321 16.6255 16.2318 16.4492L14.1587 16.0836C13.4261 15.9544 12.7429 15.6766 12.1281 15.2577C10.3413 14.0403 8.06152 13.755 6.02961 14.4945L4.46235 15.065L4.39146 14.8702C4.2476 14.4749 3.81047 14.271 3.41514 14.415L0.551992 15.457C0.251062 15.5666 0.0507812 15.8526 0.0507812 16.1729V25.2394C0.0507812 25.6601 0.391828 26.0011 0.8125 26.0011H4.11247C4.20134 26.0011 4.28949 25.9856 4.37298 25.9552L7.23607 24.9131C7.54284 24.8014 7.73337 24.5131 7.73652 24.2049L14.2445 25.0993C14.4194 25.1234 14.5942 25.1353 14.7683 25.1353C15.3802 25.1353 15.9813 24.9877 16.531 24.6996L24.7064 20.4149C25.735 19.8759 26.2062 18.6593 25.809 17.5681ZM3.9782 24.4777H1.57422V16.7062L3.22039 16.107L5.9993 23.742L3.9782 24.4777ZM23.9993 19.0655L15.8239 23.3502C15.4002 23.5722 14.9259 23.6551 14.4519 23.5901L7.20251 22.5938L4.98337 16.4965L6.55063 15.9261C8.12084 15.3546 9.88259 15.5739 11.2647 16.5129C12.0387 17.0387 12.9071 17.4098 13.8285 17.5723L15.9673 17.9494C16.3816 18.0225 16.6582 18.4175 16.5852 18.8318C16.5121 19.2461 16.1171 19.5227 15.7028 19.4497L10.8587 18.5955C10.4327 18.5202 10.0263 18.8155 9.97069 19.2499C9.91859 19.6567 10.2115 20.0283 10.6154 20.0996L15.4382 20.9499C16.1498 21.0754 16.8421 20.8566 17.3454 20.4137L23.2942 17.6403C23.7171 17.4432 24.218 17.6507 24.3775 18.0891C24.5137 18.4634 24.352 18.8807 23.9993 19.0655Z" fill="#104CBA"/>
</svg>
