<svg width="16" height="20" viewBox="0 0 16 20" fill="none" xmlns="http://www.w3.org/2000/svg">
<path d="M0.5 0V20H12.813L15.5 17.313V0L0.5 0ZM1.67188 1.17188H14.3281V16.0156H11.5156V18.8281H1.67188V1.17188ZM12.6875 18.4682V17.1875H13.9682L12.6875 18.4682Z" fill="#104CBA"/>
<path d="M9.17188 4.6875H13.1562V5.85938H9.17188V4.6875Z" fill="#104CBA"/>
<path d="M9.17188 7.03125H13.1562V8.20312H9.17188V7.03125Z" fill="#104CBA"/>
<path d="M2.84375 4.6875H6.82812V5.85938H2.84375V4.6875Z" fill="#104CBA"/>
<path d="M2.84375 7.03125H6.82812V8.20312H2.84375V7.03125Z" fill="#104CBA"/>
<path d="M2.84375 14.1406H9.17188V15.3125H2.84375V14.1406Z" fill="#104CBA"/>
<path d="M2.84375 16.4844H6.82812V17.6562H2.84375V16.4844Z" fill="#104CBA"/>
<path d="M4.25 2.34375H5.42188V3.51562H4.25V2.34375Z" fill="#104CBA"/>
<path d="M10.5781 2.34375H11.75V3.51562H10.5781V2.34375Z" fill="#104CBA"/>
<path d="M13.1562 9.375H2.84375V12.9688H13.1562V9.375ZM11.9844 11.7969H4.01562V10.5469H11.9844V11.7969Z" fill="#104CBA"/>
</svg>
