<svg width="20" height="20" viewBox="0 0 20 20" fill="none" xmlns="http://www.w3.org/2000/svg">
<g clip-path="url(#clip0_3268_31)">
<path d="M15.6495 10.1735L16.2124 8.83236C16.3376 8.53396 16.1972 8.19053 15.8988 8.06533C15.6004 7.9401 15.257 8.08053 15.1318 8.37885L14.5589 9.744C14.545 9.77107 14.5327 9.79896 14.5236 9.82803L13.9608 11.169C13.8356 11.4674 13.976 11.8108 14.2744 11.936C14.3485 11.9671 14.4253 11.9818 14.5009 11.9818C14.7298 11.9818 14.9473 11.8468 15.0414 11.6225L15.6144 10.2572C15.6282 10.2302 15.6404 10.2024 15.6495 10.1735Z" fill="#104CBA"/>
<path d="M19.5601 10C19.5601 7.73199 17.8634 5.85301 15.6728 5.56512V0.585938C15.6728 0.262344 15.4104 0 15.0868 0H4.58166C4.42623 0 4.2772 0.0617578 4.16732 0.17168L0.611543 3.72793C0.501699 3.83777 0.439941 3.98684 0.439941 4.14219V19.4141C0.439941 19.7377 0.702285 20 1.02588 20H15.0868C15.4104 20 15.6728 19.7377 15.6728 19.4141V14.4349C17.8634 14.147 19.5601 12.268 19.5601 10ZM3.99572 2.00066V3.55582H2.4408L3.99572 2.00066ZM1.61182 18.8281V4.72766H4.58166C4.90525 4.72766 5.16759 4.46531 5.16759 4.14172V1.17188H14.5009V5.56512C12.3102 5.85301 10.6136 7.73199 10.6136 10C10.6136 12.268 12.3102 14.147 14.5009 14.4349V18.8281H1.61182ZM15.0868 13.3014C13.2665 13.3014 11.7854 11.8204 11.7854 10C11.7854 8.17957 13.2665 6.69859 15.0868 6.69859C16.9072 6.69859 18.3882 8.17957 18.3882 10C18.3882 11.8204 16.9072 13.3014 15.0868 13.3014Z" fill="#104CBA"/>
<path d="M13.4673 8.61328C13.1608 8.61328 12.8672 8.88277 12.8814 9.19922C12.8956 9.51668 13.1388 9.78516 13.4673 9.78516C13.7738 9.78516 14.0674 9.51566 14.0532 9.19922C14.039 8.88176 13.7958 8.61328 13.4673 8.61328Z" fill="#104CBA"/>
<path d="M16.7065 10.2148C16.4001 10.2148 16.1064 10.4843 16.1206 10.8008C16.1348 11.1182 16.3781 11.3867 16.7065 11.3867C17.013 11.3867 17.3067 11.1172 17.2925 10.8008C17.2783 10.4833 17.035 10.2148 16.7065 10.2148Z" fill="#104CBA"/>
<path d="M3.75928 7.07031H10.2921C10.6157 7.07031 10.878 6.80797 10.878 6.48438C10.878 6.16078 10.6157 5.89844 10.2921 5.89844H3.75928C3.43568 5.89844 3.17334 6.16078 3.17334 6.48438C3.17334 6.80797 3.43564 7.07031 3.75928 7.07031Z" fill="#104CBA"/>
<path d="M3.75928 9.41406H9.00291C9.3265 9.41406 9.58885 9.15172 9.58885 8.82812C9.58885 8.50453 9.3265 8.24219 9.00291 8.24219H3.75928C3.43568 8.24219 3.17334 8.50453 3.17334 8.82812C3.17334 9.15172 3.43564 9.41406 3.75928 9.41406Z" fill="#104CBA"/>
<path d="M3.75928 11.7578H9.00291C9.3265 11.7578 9.58885 11.4955 9.58885 11.1719C9.58885 10.8483 9.3265 10.5859 9.00291 10.5859H3.75928C3.43568 10.5859 3.17334 10.8483 3.17334 11.1719C3.17334 11.4955 3.43564 11.7578 3.75928 11.7578Z" fill="#104CBA"/>
<path d="M10.878 13.5156C10.878 13.192 10.6157 12.9297 10.2921 12.9297H3.75928C3.43568 12.9297 3.17334 13.192 3.17334 13.5156C3.17334 13.8392 3.43568 14.1016 3.75928 14.1016H10.2921C10.6157 14.1016 10.878 13.8392 10.878 13.5156Z" fill="#104CBA"/>
<path d="M12.7279 16.4453H10.0234C9.69984 16.4453 9.4375 16.7077 9.4375 17.0312C9.4375 17.3548 9.69984 17.6172 10.0234 17.6172H12.7279C13.0514 17.6172 13.3138 17.3548 13.3138 17.0312C13.3138 16.7077 13.0515 16.4453 12.7279 16.4453Z" fill="#104CBA"/>
</g>
<defs>
<clipPath id="clip0_3268_31">
<rect width="20" height="20" fill="white"/>
</clipPath>
</defs>
</svg>
