<svg width="20" height="20" viewBox="0 0 20 20" fill="none" xmlns="http://www.w3.org/2000/svg">
<g clip-path="url(#clip0_3243_280)">
<path d="M17.4965 2.05801H15.8485V0.597695C15.8485 0.267773 15.5807 0 15.2508 0H2.50346C2.17314 0 1.90576 0.267773 1.90576 0.597695V17.3443C1.90576 17.6743 2.17311 17.942 2.50346 17.942H4.15146V19.4024C4.15146 19.7323 4.41924 20.0001 4.74916 20.0001H17.4965C17.8268 20.0001 18.0942 19.7323 18.0942 19.4024V2.6557C18.0942 2.32578 17.8268 2.05801 17.4965 2.05801ZM4.15146 2.6557V16.7466H3.10115V1.19535H14.6531V2.05801H4.74916C4.41924 2.05801 4.15146 2.32578 4.15146 2.6557ZM16.8988 18.8046H5.34682C5.34682 18.5223 5.34682 3.50043 5.34682 3.2534C6.26408 3.2534 16.4437 3.2534 16.8988 3.2534V18.8046Z" fill="#104CBA"/>
<path d="M13.1575 8.57418H10.8955V6.31254C10.8955 5.98262 10.6277 5.71484 10.2978 5.71484C8.3916 5.71484 6.84082 7.26562 6.84082 9.17184C6.84082 11.0784 8.3916 12.6296 10.2978 12.6296C12.2044 12.6296 13.7552 11.0784 13.7552 9.17184C13.7552 8.84195 13.4879 8.57418 13.1575 8.57418ZM10.2979 11.4343C9.0507 11.4343 8.03621 10.4194 8.03621 9.17184C8.03621 8.13187 8.74227 7.25328 9.70016 6.99031V9.17184C9.70016 9.50215 9.96793 9.76953 10.2979 9.76953H12.4798C12.2172 10.7282 11.3386 11.4343 10.2979 11.4343Z" fill="#104CBA"/>
<path d="M11.9478 4.0625C11.6175 4.0625 11.3501 4.32984 11.3501 4.6602V7.51949C11.3501 7.84941 11.6174 8.11719 11.9478 8.11719C13.2515 8.11719 13.492 8.11719 14.8075 8.11719C15.1374 8.11719 15.4052 7.84941 15.4052 7.51949C15.4052 5.59797 13.8378 4.0625 11.9478 4.0625ZM12.5455 6.9218V5.33793C13.3133 5.54832 13.9189 6.15395 14.1297 6.9218H12.5455Z" fill="#104CBA"/>
<path d="M15.189 13.9531C14.8457 13.9531 8.19512 13.9531 6.91313 13.9531C6.58281 13.9531 6.31543 14.2209 6.31543 14.5508C6.31543 14.8811 6.58277 15.1485 6.91313 15.1485C7.56438 15.1485 14.8441 15.1485 15.189 15.1485C15.5189 15.1485 15.7867 14.8812 15.7867 14.5508C15.7867 14.2209 15.5189 13.9531 15.189 13.9531Z" fill="#104CBA"/>
<path d="M15.189 16.2383C14.8457 16.2383 8.19512 16.2383 6.91313 16.2383C6.58188 16.2383 6.31543 16.507 6.31543 16.836C6.31543 17.1663 6.58277 17.4337 6.91313 17.4337H15.189C15.5189 17.4337 15.7867 17.1663 15.7867 16.836C15.7867 16.5061 15.5189 16.2383 15.189 16.2383Z" fill="#104CBA"/>
</g>
<defs>
<clipPath id="clip0_3243_280">
<rect width="20" height="20" fill="white"/>
</clipPath>
</defs>
</svg>
