<svg width="26" height="26" viewBox="0 0 26 26" fill="none" xmlns="http://www.w3.org/2000/svg">
<path d="M22.7902 0H3.20898C2.78831 0 2.44727 0.341047 2.44727 0.761719V25.2383C2.44727 25.659 2.78831 26 3.20898 26H22.7902C23.2109 26 23.552 25.659 23.552 25.2383V0.761719C23.552 0.341047 23.2109 0 22.7902 0ZM22.0285 24.4766H3.9707V1.52344H22.0285V24.4766Z" fill="#104CBA"/>
<path d="M17.0791 5.60156H19.5268C19.9474 5.60156 20.2885 5.26052 20.2885 4.83984C20.2885 4.41917 19.9474 4.07812 19.5268 4.07812H17.0791C16.6584 4.07812 16.3174 4.41917 16.3174 4.83984C16.3174 5.26052 16.6584 5.60156 17.0791 5.60156Z" fill="#104CBA"/>
<path d="M6.47266 16.2109H8.92031C9.34098 16.2109 9.68203 15.8699 9.68203 15.4492C9.68203 15.0285 9.34098 14.6875 8.92031 14.6875H6.47266C6.05198 14.6875 5.71094 15.0285 5.71094 15.4492C5.71094 15.8699 6.05198 16.2109 6.47266 16.2109Z" fill="#104CBA"/>
<path d="M10.5521 12.944C13.2215 12.944 15.3932 10.7723 15.3932 8.10285C15.3932 5.43348 13.2215 3.26172 10.5521 3.26172C7.8827 3.26172 5.71094 5.43348 5.71094 8.10285C5.71094 10.7723 7.88265 12.944 10.5521 12.944ZM13.7805 7.34113H11.3138V4.87438C12.5323 5.1619 13.4931 6.12258 13.7805 7.34113ZM9.79035 4.87438V8.10285C9.79035 8.52352 10.1314 8.86457 10.5521 8.86457H13.7805C13.4353 10.3279 12.1193 11.4206 10.5521 11.4206C8.72272 11.4206 7.23437 9.93224 7.23437 8.10285C7.23437 6.53564 8.32703 5.21964 9.79035 4.87438Z" fill="#104CBA"/>
<path d="M12.2382 15.4492V17.9511H9.73633C9.31566 17.9511 8.97461 18.2921 8.97461 18.7128V21.9763C8.97461 22.397 9.31566 22.7381 9.73633 22.7381H19.527C19.9476 22.7381 20.2887 22.397 20.2887 21.9763V17.081C20.2887 16.6604 19.9476 16.3193 19.527 16.3193H17.0251V15.4492C17.0251 15.0285 16.6841 14.6875 16.2634 14.6875H12.9999C12.5792 14.6875 12.2382 15.0285 12.2382 15.4492ZM10.498 19.4745H12.2382V21.2146H10.498V19.4745ZM18.7652 17.8427V21.2146H17.0251V17.8427H18.7652ZM13.7616 16.2109H15.5017V21.2146H13.7616V16.2109Z" fill="#104CBA"/>
</svg>
