<svg width="33" height="33" viewBox="0 0 33 33" fill="none" xmlns="http://www.w3.org/2000/svg">
<path d="M26.2324 14.502H19.4648V16.4356H26.2324C29.2962 16.4356 31.8906 14.3889 32.7212 11.5911C31.1266 13.3762 28.8087 14.502 26.2324 14.502Z" fill="white"/>
<path d="M19.3838 4.83398C19.2669 4.14021 19.0267 3.48782 18.6861 2.90039C17.6817 1.16789 15.8067 0 13.6641 0C10.7949 0 8.40598 2.09402 7.9443 4.83398H0V6.76758H7.86328V13.5352C7.86328 19.0733 12.1187 23.6354 17.5312 24.1255V12.5684H26.2324C29.9641 12.5684 33 9.53242 33 5.80078V4.83398H19.3838ZM13.6641 6.76758H11.7305V4.83398H13.6641V6.76758Z" fill="white"/>
<path d="M20.4316 18.3691H19.4648V26.2324C19.4648 29.9641 22.5008 33 26.2324 33H27.1992V25.1367C27.1992 21.4051 24.1633 18.3691 20.4316 18.3691Z" fill="white"/>
</svg>
