<svg width="213" height="219" viewBox="0 0 213 219" fill="none" xmlns="http://www.w3.org/2000/svg">
<path d="M95.8504 153.653C92.3004 153.653 90.5254 151.887 88.7504 150.121L47.9254 88.3065C47.9254 86.5403 46.1504 86.5403 46.1504 84.7742C46.1504 81.2419 47.9254 79.4758 51.4754 77.7097C97.6254 61.8145 129.575 38.8548 154.425 3.53226C156.2 1.76613 157.975 0 161.525 0C163.3 0 166.85 1.76613 166.85 3.53226L211.225 65.3468C211.225 67.1129 213 68.879 213 68.879C213 70.6452 213 72.4113 211.225 74.1774C163.3 118.331 156.2 123.629 97.6254 151.887C97.6254 153.653 95.8504 153.653 95.8504 153.653ZM161.525 7.06452C136.675 42.3871 102.95 67.1129 55.0254 83.0081L95.8504 144.823C150.875 118.331 159.75 113.032 205.9 68.879L161.525 7.06452Z" fill="#F3F6FC" fill-opacity="0.32"/>
<path d="M108.275 128.931L106.5 127.164C102.95 123.632 99.4004 123.632 95.8504 125.398L92.3004 127.164L72.7754 97.1402L76.3254 95.3741C79.8754 93.608 79.8754 91.8419 79.8754 88.3096C79.8754 86.5435 79.8754 86.5435 79.8754 84.7773L78.1004 83.0112L81.6504 81.2451C110.05 68.8822 131.35 52.987 149.1 33.5596L150.875 30.0273L154.425 33.5596C156.2 35.3257 159.75 37.0919 161.525 37.0919C163.3 37.0919 165.075 35.3257 166.85 35.3257L170.4 33.5596L189.925 60.0515L188.15 61.8177C186.375 63.5838 184.6 65.3499 184.6 67.1161C184.6 68.8822 186.375 70.6483 186.375 72.4144L188.15 74.1806L186.375 75.9467C157.975 100.673 143.775 111.269 110.05 128.931H108.275ZM99.4004 116.568C102.95 116.568 106.5 118.334 110.05 120.1C140.225 104.205 154.425 95.3741 177.5 74.1806C175.725 72.4144 175.725 68.8822 175.725 67.1161C175.725 63.5838 177.5 60.0515 179.275 58.2854L166.85 42.3902C161.525 44.1564 156.2 44.1564 152.65 42.3902C134.9 61.8177 113.6 75.9467 86.9754 86.5435C88.7504 86.5435 88.7504 88.3096 88.7504 88.3096C88.7504 91.8419 86.9754 97.1402 85.2004 98.9064L95.8504 116.568C95.8504 116.568 97.6254 116.568 99.4004 116.568Z" fill="#F3F6FC" fill-opacity="0.32"/>
<path d="M131.35 90.0695C135.271 90.0695 138.45 86.9066 138.45 83.0049C138.45 79.1033 135.271 75.9404 131.35 75.9404C127.429 75.9404 124.25 79.1033 124.25 83.0049C124.25 86.9066 127.429 90.0695 131.35 90.0695Z" fill="#F3F6FC" fill-opacity="0.32"/>
<path d="M65.675 218.997C63.9 218.997 60.35 217.231 60.35 215.465L19.525 153.65C19.525 151.884 17.75 150.118 17.75 150.118C17.75 146.586 19.525 144.82 23.075 143.053C37.275 137.755 47.925 132.457 60.35 127.158L63.9 134.223C51.475 139.521 39.05 144.82 24.85 150.118L65.675 211.932C122.475 183.674 129.575 178.376 175.725 135.989L166.85 123.626L172.175 120.094L181.05 132.457C181.05 134.223 182.825 135.989 182.825 135.989C182.825 137.755 182.825 139.521 181.05 141.287C134.9 185.441 126.025 190.739 69.225 218.997C67.45 218.997 67.45 218.997 65.675 218.997Z" fill="#F3F6FC" fill-opacity="0.32"/>
<path d="M78.1 194.277L76.325 192.511C74.55 188.979 69.225 188.979 65.675 190.745L62.125 192.511L44.375 164.253L47.925 162.487C49.7 160.721 51.475 158.955 51.475 155.423C51.475 153.656 51.475 153.656 51.475 151.89L49.7 148.358L53.25 146.592C60.35 143.06 65.675 141.294 71 137.761L74.55 144.826C69.225 146.592 63.9 150.124 58.575 151.89V153.656C58.575 157.189 56.8 162.487 55.025 164.253L65.675 181.914C71 180.148 76.325 181.914 79.875 185.447C111.825 169.552 124.25 160.721 149.1 135.995L154.425 141.294C129.575 167.785 115.375 176.616 81.65 194.277H78.1Z" fill="#F3F6FC" fill-opacity="0.32"/>
<path d="M42.5996 60.0415L51.4746 54.7432L55.0246 61.8077L46.1496 67.1061L42.5996 60.0415Z" fill="#F3F6FC" fill-opacity="0.32"/>
<path d="M65.6746 54.7558L60.3496 49.4574L90.5246 30.03L97.6246 38.8606L106.5 14.1348H81.6496L88.7496 24.7316L65.6746 37.0945L62.1246 31.7961L78.0996 22.9655L74.5496 19.4332C74.5496 17.6671 72.7746 15.901 72.7746 14.1348C72.7746 10.6026 76.3246 7.07031 79.8746 7.07031H106.5C110.05 7.07031 113.6 10.6026 113.6 14.1348V15.901L106.5 42.3929C104.725 45.9252 102.95 47.6913 99.3996 47.6913C97.6246 47.6913 94.0746 45.9252 94.0746 44.159L90.5246 40.6268L65.6746 54.7558Z" fill="#F3F6FC" fill-opacity="0.32"/>
<path d="M40.8262 44.1568L49.7012 38.8584L53.2512 45.9229L44.3762 51.2213L40.8262 44.1568Z" fill="#F3F6FC" fill-opacity="0.32"/>
<path d="M21.2988 56.522L30.1738 51.2236L35.4988 56.522L24.8488 61.8204L21.2988 56.522Z" fill="#F3F6FC" fill-opacity="0.32"/>
<path d="M33.725 127.159H7.1C3.55 127.159 0 123.626 0 120.094V118.328L7.1 93.6021C8.875 90.0699 10.65 88.3037 14.2 88.3037C17.75 88.3037 19.525 88.3037 21.3 90.0699L24.85 93.6021L39.05 84.7715L42.6 91.836L21.3 104.199L14.2 95.3683L7.1 120.094H31.95L26.625 111.263L40.825 102.433L44.375 109.497L37.275 113.03L39.05 116.562C40.825 118.328 40.825 120.094 40.825 120.094C40.825 123.626 37.275 127.159 33.725 127.159Z" fill="#F3F6FC" fill-opacity="0.32"/>
<path d="M161.524 181.908H154.424V188.973H161.524V181.908Z" fill="#F3F6FC" fill-opacity="0.32"/>
<path d="M147.326 192.515H138.451V199.579H145.551V192.515H147.326Z" fill="#F3F6FC" fill-opacity="0.32"/>
<path d="M175.725 171.317H168.625V178.382H175.725V171.317Z" fill="#F3F6FC" fill-opacity="0.32"/>
<path d="M186.375 157.192H179.275V164.257H186.375V157.192Z" fill="#F3F6FC" fill-opacity="0.32"/>
<path d="M197.024 143.05H189.924V150.114H197.024V143.05Z" fill="#F3F6FC" fill-opacity="0.32"/>
</svg>
