<svg width="413" height="342" viewBox="0 0 413 342" fill="none" xmlns="http://www.w3.org/2000/svg">
<g clip-path="url(#clip0_1965_134)">
<path opacity="0.1" d="M385.731 188.977C369.867 214.601 372.84 249.51 379.807 277.034C382.138 286.25 384.824 295.979 382.831 306.293C380.393 318.904 371.505 328.808 362.511 334.479C346.113 344.793 327.389 344.507 313.754 333.723C301.979 324.409 294.225 308.163 282.203 299.349C262.101 284.593 234.497 293.536 210.529 307.326C193.58 317.059 174.924 329.444 159.257 322.432C148.236 317.507 141.362 303.615 138.155 288.497C136.606 281.198 135.67 273.225 132.12 267.664C130.007 264.359 127.103 262.147 124.092 260.332C96.6127 243.787 59.4331 257.62 32.9331 238.884C15.034 226.235 4.85913 200.107 1.51455 172.168C-1.83003 144.229 0.920049 114.334 4.363 84.9008C6.81369 63.9745 10.1283 41.5876 21.1287 24.569C32.7663 6.56806 51.1101 -1.48217 67.0546 0.226105C82.9991 1.93438 96.8436 12.0217 108.776 24.3512C123.69 39.7598 137.141 59.439 156.443 64.4101C169.59 67.7967 183.948 63.8763 197.929 61.6598C221.273 57.9528 244.292 59.0162 267.148 60.4085C289.029 61.7409 311.042 63.3979 331.43 71.0852C345.857 76.5303 356.93 87.8646 370.393 95.2358C379.17 100.04 389.071 100.651 397.248 107.057C407.321 114.949 416.037 129.517 412.004 147.932C408.159 165.45 394.148 175.379 385.731 188.977Z" fill="#104CBA" fill-opacity="0.65"/>
<path d="M284.199 131.058C284.199 131.058 327.396 94.9149 337.003 76.6919C346.609 58.4689 358.836 42.7656 358.836 42.7656" stroke="#535461" stroke-width="2" stroke-miterlimit="10"/>
<path d="M353.157 83.5054L334.471 79.2988C334.471 79.2988 338.88 98.9781 353.157 83.5054Z" fill="#104CBA"/>
<path d="M324.604 63.416L335.357 79.4951C335.357 79.4951 314.335 81.0112 324.604 63.416Z" fill="#104CBA"/>
<path d="M360.509 68.3899L343.431 65.4004C343.431 65.4004 354.157 81.693 360.509 68.3899Z" fill="#104CBA"/>
<path d="M335.237 54.0195L343.649 65.0208C343.649 65.0208 328.757 66.4301 335.237 54.0195Z" fill="#104CBA"/>
<path d="M352.263 51.8301C352.263 51.8301 366.804 52.5219 368.515 53.9099C370.226 55.2979 366.347 63.4335 360.817 62.1053C355.287 60.7771 352.263 51.8301 352.263 51.8301Z" fill="#104CBA"/>
<path d="M346.45 38.8496C346.45 38.8496 352.391 49.6587 352.168 51.7172C351.946 53.7756 343.114 56.0861 341.331 48.3006C339.547 40.5152 346.45 38.8496 346.45 38.8496Z" fill="#104CBA"/>
<path d="M364.925 47.1069C365.597 44.9805 364.416 42.7123 362.286 42.0408C360.157 41.3693 357.885 42.5487 357.213 44.6752C356.54 46.8016 357.721 49.0697 359.851 49.7413C361.981 50.4128 364.252 49.2333 364.925 47.1069Z" fill="#FFD037"/>
<path d="M358.594 42.9506C359.267 40.8242 358.086 38.556 355.956 37.8845C353.827 37.213 351.555 38.3925 350.883 40.5189C350.21 42.6453 351.391 44.9135 353.521 45.585C355.65 46.2565 357.922 45.077 358.594 42.9506Z" fill="#FFD037"/>
<path d="M326.623 14.1797H82.5752V297.125H326.623V14.1797Z" fill="url(#paint0_linear_1965_134)"/>
<path d="M323.783 17.4707H85.4199V293.822H323.783V17.4707Z" fill="#F3F6FC"/>
<path d="M160.073 48.6211H99.8154V53.4128H160.073V48.6211Z" fill="#104CBA" fill-opacity="0.15"/>
<path d="M202.732 60.3359H99.8154V65.1276H202.732V60.3359Z" fill="#104CBA" fill-opacity="0.15"/>
<path d="M312.367 44.043H269.602V80.8904H312.367V44.043Z" fill="white"/>
<path d="M312.141 44.2571V80.6775H269.799V44.2571H312.141ZM312.568 43.8301H269.371V81.1045H312.568V43.8301Z" fill="#104CBA" fill-opacity="0.15"/>
<path d="M269.174 44.043H226.409V80.8904H269.174V44.043Z" fill="white"/>
<path d="M268.943 44.2571V80.6775H226.602V44.2571H268.943ZM269.371 43.8301H226.174V81.1045H269.371V43.8301Z" fill="#104CBA" fill-opacity="0.15"/>
<path d="M312.367 81.3184H269.602V118.166H312.367V81.3184Z" fill="white"/>
<path d="M312.141 81.5306V117.951H269.799V81.5306H312.141ZM312.568 81.1035H269.371V118.378H312.568V81.1035Z" fill="#104CBA" fill-opacity="0.15"/>
<path d="M269.174 81.3184H226.409V118.166H269.174V81.3184Z" fill="white"/>
<path d="M268.943 81.5306V117.951H226.602V81.5306H268.943ZM269.371 81.1035H226.174V118.378H269.371V81.1035Z" fill="#104CBA" fill-opacity="0.15"/>
<path d="M225.982 81.3184H183.217V118.166H225.982V81.3184Z" fill="white"/>
<path d="M225.768 81.5306V117.951H183.426V81.5306H225.768ZM226.195 81.1035H182.998V118.378H226.195V81.1035Z" fill="#104CBA" fill-opacity="0.15"/>
<path d="M182.789 81.3184H140.023V118.166H182.789V81.3184Z" fill="white"/>
<path d="M182.575 81.5306V117.951H140.233V81.5306H182.575ZM183.003 81.1035H139.806V118.378H183.003V81.1035Z" fill="#104CBA" fill-opacity="0.15"/>
<path d="M139.595 81.3184H96.8301V118.166H139.595V81.3184Z" fill="white"/>
<path d="M139.382 81.5306V117.951H97.04V81.5306H139.382ZM139.81 81.1035H96.6123V118.378H139.81V81.1035Z" fill="#104CBA" fill-opacity="0.15"/>
<path d="M312.367 118.588H269.602V155.435H312.367V118.588Z" fill="white"/>
<path d="M312.141 118.806V155.226H269.799V118.806H312.141ZM312.568 118.379H269.371V155.653H312.568V118.379Z" fill="#104CBA" fill-opacity="0.15"/>
<path d="M269.174 118.588H226.409V155.435H269.174V118.588Z" fill="white"/>
<path d="M268.943 118.806V155.226H226.602V118.806H268.943ZM269.371 118.379H226.174V155.653H269.371V118.379Z" fill="#104CBA" fill-opacity="0.15"/>
<path d="M225.982 118.588H183.217V155.435H225.982V118.588Z" fill="white"/>
<path d="M225.768 118.806V155.226H183.426V118.806H225.768ZM226.195 118.379H182.998V155.653H226.195V118.379Z" fill="#104CBA" fill-opacity="0.15"/>
<path d="M182.789 118.588H140.023V155.435H182.789V118.588Z" fill="white"/>
<path d="M182.575 118.806V155.226H140.233V118.806H182.575ZM183.003 118.379H139.806V155.653H183.003V118.379Z" fill="#104CBA" fill-opacity="0.15"/>
<path d="M139.595 118.588H96.8301V155.435H139.595V118.588Z" fill="white"/>
<path d="M139.382 118.806V155.226H97.04V118.806H139.382ZM139.81 118.379H96.6123V155.653H139.81V118.379Z" fill="#104CBA" fill-opacity="0.15"/>
<path d="M312.367 155.861H269.602V192.709H312.367V155.861Z" fill="white"/>
<path d="M312.141 156.076V192.496H269.799V156.076H312.141ZM312.568 155.648H269.371V192.923H312.568V155.648Z" fill="#104CBA" fill-opacity="0.15"/>
<path d="M269.174 155.861H226.409V192.709H269.174V155.861Z" fill="white"/>
<path d="M268.943 156.076V192.496H226.602V156.076H268.943ZM269.371 155.648H226.174V192.923H269.371V155.648Z" fill="#104CBA" fill-opacity="0.15"/>
<path d="M225.982 155.861H183.217V192.709H225.982V155.861Z" fill="white"/>
<path d="M225.768 156.076V192.496H183.426V156.076H225.768ZM226.195 155.648H182.998V192.923H226.195V155.648Z" fill="#104CBA" fill-opacity="0.15"/>
<path d="M182.789 155.861H140.023V192.709H182.789V155.861Z" fill="white"/>
<path d="M182.575 156.076V192.496H140.233V156.076H182.575ZM183.003 155.648H139.806V192.923H183.003V155.648Z" fill="#104CBA" fill-opacity="0.15"/>
<path d="M139.595 155.861H96.8301V192.709H139.595V155.861Z" fill="white"/>
<path d="M139.382 156.076V192.496H97.04V156.076H139.382ZM139.81 155.648H96.6123V192.923H139.81V155.648Z" fill="#104CBA" fill-opacity="0.15"/>
<path d="M312.367 193.133H269.602V229.98H312.367V193.133Z" fill="white"/>
<path d="M312.141 193.351V229.767H269.799V193.351H312.141ZM312.568 192.924H269.371V230.194H312.568V192.924Z" fill="#104CBA" fill-opacity="0.15"/>
<path d="M269.174 193.133H226.409V229.98H269.174V193.133Z" fill="white"/>
<path d="M268.943 193.351V229.767H226.602V193.351H268.943ZM269.371 192.924H226.174V230.194H269.371V192.924Z" fill="#104CBA" fill-opacity="0.15"/>
<path d="M225.982 193.133H183.217V229.98H225.982V193.133Z" fill="white"/>
<path d="M225.768 193.351V229.767H183.426V193.351H225.768ZM226.195 192.924H182.998V230.194H226.195V192.924Z" fill="#104CBA" fill-opacity="0.15"/>
<path d="M182.789 193.133H140.023V229.98H182.789V193.133Z" fill="white"/>
<path d="M182.575 193.351V229.767H140.233V193.351H182.575ZM183.003 192.924H139.806V230.194H183.003V192.924Z" fill="#104CBA" fill-opacity="0.15"/>
<path d="M139.595 193.133H96.8301V229.98H139.595V193.133Z" fill="white"/>
<path d="M139.382 193.351V229.767H97.04V193.351H139.382ZM139.81 192.924H96.6123V230.194H139.81V192.924Z" fill="#104CBA" fill-opacity="0.15"/>
<path d="M312.367 230.408H269.602V267.256H312.367V230.408Z" fill="white"/>
<path d="M312.141 230.62V267.041H269.799V230.62H312.141ZM312.568 230.193H269.371V267.468H312.568V230.193Z" fill="#104CBA" fill-opacity="0.15"/>
<path d="M269.174 230.408H226.409V267.256H269.174V230.408Z" fill="white"/>
<path d="M268.943 230.62V267.041H226.602V230.62H268.943ZM269.371 230.193H226.174V267.468H269.371V230.193Z" fill="#104CBA" fill-opacity="0.15"/>
<path d="M225.982 230.408H183.217V267.256H225.982V230.408Z" fill="white"/>
<path d="M225.768 230.62V267.041H183.426V230.62H225.768ZM226.195 230.193H182.998V267.468H226.195V230.193Z" fill="#104CBA" fill-opacity="0.15"/>
<path d="M182.789 230.408H140.023V267.256H182.789V230.408Z" fill="white"/>
<path d="M182.575 230.62V267.041H140.233V230.62H182.575ZM183.003 230.193H139.806V267.468H183.003V230.193Z" fill="#104CBA" fill-opacity="0.15"/>
<path d="M139.595 230.408H96.8301V267.256H139.595V230.408Z" fill="white"/>
<path d="M139.382 230.62V267.041H97.04V230.62H139.382ZM139.81 230.193H96.6123V267.468H139.81V230.193Z" fill="#104CBA" fill-opacity="0.15"/>
<path d="M102.472 89.3549C103.818 89.3549 104.91 88.265 104.91 86.9206C104.91 85.5762 103.818 84.4863 102.472 84.4863C101.126 84.4863 100.034 85.5762 100.034 86.9206C100.034 88.265 101.126 89.3549 102.472 89.3549Z" fill="#FC6681"/>
<path d="M108.562 89.3549C109.908 89.3549 111 88.265 111 86.9206C111 85.5762 109.908 84.4863 108.562 84.4863C107.215 84.4863 106.124 85.5762 106.124 86.9206C106.124 88.265 107.215 89.3549 108.562 89.3549Z" fill="#FFD037"/>
<path d="M188.558 125.443C189.904 125.443 190.996 124.353 190.996 123.009C190.996 121.664 189.904 120.574 188.558 120.574C187.212 120.574 186.12 121.664 186.12 123.009C186.12 124.353 187.212 125.443 188.558 125.443Z" fill="#104CBA"/>
<path d="M194.653 125.443C195.999 125.443 197.091 124.353 197.091 123.009C197.091 121.664 195.999 120.574 194.653 120.574C193.306 120.574 192.215 121.664 192.215 123.009C192.215 124.353 193.306 125.443 194.653 125.443Z" fill="#104CBA"/>
<path d="M318.907 195.183C320.253 195.183 321.344 194.093 321.344 192.749C321.344 191.404 320.253 190.314 318.907 190.314C317.56 190.314 316.469 191.404 316.469 192.749C316.469 194.093 317.56 195.183 318.907 195.183Z" fill="#104CBA"/>
<path d="M320.126 192.347C321.473 192.347 322.564 191.257 322.564 189.913C322.564 188.568 321.473 187.479 320.126 187.479C318.78 187.479 317.688 188.568 317.688 189.913C317.688 191.257 318.78 192.347 320.126 192.347Z" fill="#104CBA"/>
<path d="M321.345 189.913C322.692 189.913 323.783 188.824 323.783 187.479C323.783 186.135 322.692 185.045 321.345 185.045C319.999 185.045 318.907 186.135 318.907 187.479C318.907 188.824 319.999 189.913 321.345 189.913Z" fill="#104CBA"/>
<path d="M275.864 89.3549C277.21 89.3549 278.302 88.265 278.302 86.9206C278.302 85.5762 277.21 84.4863 275.864 84.4863C274.517 84.4863 273.426 85.5762 273.426 86.9206C273.426 88.265 274.517 89.3549 275.864 89.3549Z" fill="#104CBA"/>
<path d="M281.954 89.3549C283.301 89.3549 284.392 88.265 284.392 86.9206C284.392 85.5762 283.301 84.4863 281.954 84.4863C280.608 84.4863 279.517 85.5762 279.517 86.9206C279.517 88.265 280.608 89.3549 281.954 89.3549Z" fill="#104CBA"/>
<path d="M288.048 89.3549C289.395 89.3549 290.486 88.265 290.486 86.9206C290.486 85.5762 289.395 84.4863 288.048 84.4863C286.702 84.4863 285.61 85.5762 285.61 86.9206C285.61 88.265 286.702 89.3549 288.048 89.3549Z" fill="#104CBA"/>
<path d="M294.139 89.3549C295.485 89.3549 296.577 88.265 296.577 86.9206C296.577 85.5762 295.485 84.4863 294.139 84.4863C292.793 84.4863 291.701 85.5762 291.701 86.9206C291.701 88.265 292.793 89.3549 294.139 89.3549Z" fill="#104CBA"/>
<path d="M275.864 164.771C277.21 164.771 278.302 163.681 278.302 162.337C278.302 160.992 277.21 159.902 275.864 159.902C274.517 159.902 273.426 160.992 273.426 162.337C273.426 163.681 274.517 164.771 275.864 164.771Z" fill="#104CBA"/>
<path d="M281.954 164.771C283.301 164.771 284.392 163.681 284.392 162.337C284.392 160.992 283.301 159.902 281.954 159.902C280.608 159.902 279.517 160.992 279.517 162.337C279.517 163.681 280.608 164.771 281.954 164.771Z" fill="#104CBA"/>
<path d="M288.048 164.771C289.395 164.771 290.486 163.681 290.486 162.337C290.486 160.992 289.395 159.902 288.048 159.902C286.702 159.902 285.61 160.992 285.61 162.337C285.61 163.681 286.702 164.771 288.048 164.771Z" fill="#104CBA"/>
<path d="M294.139 164.771C295.485 164.771 296.577 163.681 296.577 162.337C296.577 160.992 295.485 159.902 294.139 159.902C292.793 159.902 291.701 160.992 291.701 162.337C291.701 163.681 292.793 164.771 294.139 164.771Z" fill="#104CBA"/>
<path d="M145.515 125.443C146.861 125.443 147.953 124.353 147.953 123.009C147.953 121.664 146.861 120.574 145.515 120.574C144.169 120.574 143.077 121.664 143.077 123.009C143.077 124.353 144.169 125.443 145.515 125.443Z" fill="#FFD037"/>
<path d="M102.472 162.341C103.818 162.341 104.91 161.251 104.91 159.907C104.91 158.563 103.818 157.473 102.472 157.473C101.126 157.473 100.034 158.563 100.034 159.907C100.034 161.251 101.126 162.341 102.472 162.341Z" fill="#FC6681"/>
<path d="M316.803 198.855C319.476 200.431 323.646 201.456 328.928 198.069L328.877 205.568C329.253 210.693 335.622 229.446 335.622 229.446L340.112 244.863C343.33 255.754 344.992 267.045 345.048 278.401C345.048 282.163 345.399 286.041 346.481 288.958C348.872 295.411 345.54 303.726 344.094 306.822C341.661 307.643 339.187 308.338 336.682 308.906C336.457 308.958 336.235 309.025 336.019 309.107L335.989 309.064C335.989 309.064 329.249 311.733 326.255 311.366C324.022 311.093 322.624 313.873 324.373 315.918C322.722 316.346 321.029 316.649 319.887 316.508C316.893 316.141 315.392 321.282 321.011 322.752C326.631 324.221 358.473 322.752 358.473 322.752C359.369 322.304 360.09 321.572 360.524 320.671C360.957 319.769 361.079 318.75 360.868 317.772C363.315 317.678 364.842 317.605 364.842 317.605C364.842 317.605 370.462 315.043 364.842 308.052L364.542 308.278L363.341 304.746V299.976C363.341 299.976 370.457 265.811 368.212 261.771C365.967 257.73 364.842 237.159 364.842 237.159L365.603 214.75C367.635 210.565 368.674 204.005 369.2 198.876C369.964 196.429 370.446 193.903 370.637 191.347C370.727 190.143 370.8 188.879 370.847 187.568C370.866 184.692 370.394 181.834 369.452 179.116C371.591 176.041 375.068 171.288 377.938 168.478C382.433 164.07 381.308 158.924 381.308 158.924L379.435 146.432L374.94 125.126C375.504 119.215 374.268 115.812 372.904 113.89C373.229 111.981 373.532 110.072 373.759 108.154C374.756 99.8156 374.311 91.3681 372.446 83.1794C371.796 80.3223 370.911 77.3926 368.905 75.2274C366.634 72.776 362.947 71.2813 362.1 68.0697C361.891 67.2711 361.882 66.4213 361.578 65.6525C360.757 63.5514 358.157 62.7869 355.881 62.5136C351.827 62.0225 345.963 61.6595 342.067 63.2396C339.347 64.35 335.6 67.4078 334.112 70.6877C333.256 72.1952 332.859 73.7796 333.222 75.2701C333.366 75.8193 333.583 76.3465 333.868 76.8374C333.288 78.4084 332.992 80.07 332.995 81.7445C333.009 84.6228 333.89 87.4304 335.524 89.8016C337.158 92.1728 339.469 93.9979 342.157 95.0391C342.247 95.3209 342.328 95.5985 342.396 95.8718C342.566 96.5299 342.689 97.1992 342.764 97.8748C342.691 99.156 342.61 100.476 342.55 101.778C342.507 101.958 342.462 102.134 342.413 102.308C339.192 103.732 336.05 105.332 333.004 107.099C335.254 110.405 332.628 124.366 332.628 124.366C327.008 127.671 321.388 136.123 327.384 144.938C333.38 153.752 330.006 163.302 330.006 163.302L329.069 177.664V177.689L328.881 180.564H328.954L328.881 181.653L329.044 181.683V182.853C326.413 183.818 322.568 185.765 320.276 189.365C319.192 191.137 317.872 192.753 316.354 194.17C316.005 194.471 315.733 194.852 315.562 195.28C315.39 195.707 315.324 196.17 315.368 196.628C315.412 197.087 315.565 197.528 315.815 197.916C316.064 198.303 316.403 198.625 316.803 198.855ZM362.036 160.692C361.811 158.207 362.271 155.708 363.366 153.466C364.247 153.483 365.13 153.493 366.014 153.496C366.103 154.115 366.21 154.705 366.339 155.243C367.1 158.48 364.059 160.03 362.032 160.688L362.036 160.692Z" fill="url(#paint1_linear_1965_134)"/>
<path d="M362.776 303.072L364.217 307.39L359.512 312.088L344.013 315.688L332.837 314.607L333.56 310.648C333.773 309.797 334.217 309.021 334.844 308.406C335.47 307.79 336.254 307.359 337.11 307.159C341.703 306.083 350.462 303.623 352.301 300.211L362.776 303.072Z" fill="#DB8B8B"/>
<path opacity="0.1" d="M362.776 303.072L364.217 307.39L359.512 312.088L344.013 315.688L332.837 314.607L333.56 310.648C333.773 309.797 334.217 309.021 334.844 308.406C335.47 307.79 336.254 307.359 337.11 307.159C341.703 306.083 350.462 303.623 352.301 300.211L362.776 303.072Z" fill="#2B3E62" fill-opacity="0.45"/>
<path d="M336.46 313.511L338.624 310.632L336.46 307.297C336.46 307.297 329.972 309.91 327.089 309.552C324.207 309.193 322.765 314.249 328.171 315.672C333.577 317.094 364.218 315.672 364.218 315.672C364.218 315.672 369.624 313.152 364.218 306.314L359.513 309.915C359.513 309.915 351.583 314.232 347.619 313.515L336.46 313.511Z" fill="#2E3037"/>
<path d="M326.726 319.622L337.901 320.703L353.401 317.102L358.106 312.405L357.725 311.26L357.186 309.654L356.647 308.091L346.194 305.213C345.66 306.083 344.927 306.815 344.056 307.348C340.66 309.667 334.561 311.341 330.981 312.178C330.836 312.214 330.693 312.258 330.553 312.311C329.795 312.565 329.114 313.006 328.571 313.593C328.028 314.179 327.642 314.893 327.448 315.668L326.726 319.622Z" fill="#DB8B8B"/>
<path opacity="0.1" d="M326.726 319.622L337.901 320.702L353.401 317.102L358.106 312.404L357.725 311.26L353.422 314.565C353.422 314.565 345.493 318.883 341.528 318.165H330.331L332.495 315.287L330.553 312.298C329.795 312.552 329.114 312.993 328.571 313.579C328.028 314.166 327.642 314.88 327.448 315.654L326.726 319.622Z" fill="#2B3E62" fill-opacity="0.45"/>
<path d="M330.33 318.55L332.494 315.671L330.33 312.336C330.33 312.336 323.842 314.949 320.959 314.591C318.077 314.232 316.635 319.288 322.041 320.711C327.447 322.133 358.088 320.711 358.088 320.711C358.088 320.711 363.494 318.191 358.088 311.354L353.383 314.954C353.383 314.954 345.453 319.271 341.489 318.554L330.33 318.55Z" fill="#2E3037"/>
<path d="M339.343 109.786C339.343 109.786 356.647 111.584 354.124 104.388C353.418 102.347 353.235 100.162 353.589 98.0328C354.038 95.3925 355.084 92.889 356.647 90.7129L340.425 93.2326C341.397 94.8557 342.137 96.6065 342.623 98.4343C344.556 106.066 339.343 109.786 339.343 109.786Z" fill="#DB8B8B"/>
<path d="M368.901 191.852C368.901 191.852 368.542 207.328 364.936 214.888L364.213 236.843C364.213 236.843 365.295 257.001 367.459 260.96C369.624 264.919 362.755 298.392 362.755 298.392V304.153C362.755 304.153 351.207 308.471 347.974 303.432L351.22 260.597L349.778 201.209L368.901 191.852Z" fill="#474463"/>
<path opacity="0.1" d="M368.901 191.852C368.901 191.852 368.542 207.328 364.936 214.888L364.213 236.843C364.213 236.843 365.295 257.001 367.459 260.96C369.624 264.919 362.755 298.392 362.755 298.392V304.153C362.755 304.153 351.207 308.471 347.974 303.432L351.22 260.597L349.778 201.209L368.901 191.852Z" fill="#2B3E62" fill-opacity="0.45"/>
<path d="M376.112 142.18L378.276 147.941L380.077 160.181C380.32 161.886 380.152 163.624 379.588 165.251C379.023 166.879 378.078 168.348 376.83 169.538C372.506 173.855 366.737 182.854 366.737 182.854L359.894 162.354C359.894 162.354 366.737 161.274 365.663 156.593C364.59 151.913 364.936 143.243 364.936 143.243L376.112 142.18Z" fill="#FC6681"/>
<path opacity="0.05" d="M376.112 142.18L378.276 147.941L380.077 160.181C380.32 161.886 380.152 163.624 379.588 165.251C379.023 166.879 378.078 168.348 376.83 169.538C372.506 173.855 366.737 182.854 366.737 182.854L359.894 162.354C359.894 162.354 366.737 161.274 365.663 156.593C364.59 151.913 364.936 143.243 364.936 143.243L376.112 142.18Z" fill="#2B3E62" fill-opacity="0.45"/>
<path opacity="0.1" d="M344.072 307.353C348.696 314.613 355.894 310.5 357.168 309.68L356.647 308.091L346.194 305.213C345.665 306.083 344.938 306.816 344.072 307.353Z" fill="#2B3E62" fill-opacity="0.45"/>
<path d="M329.612 205.889C329.972 210.929 336.1 229.284 336.1 229.284L340.424 244.389C343.523 255.07 345.122 266.128 345.176 277.248C345.176 280.934 345.514 284.734 346.558 287.592C349.44 295.509 343.675 306.31 343.675 306.31C348.722 315.308 357.361 309.188 357.361 309.188V303.431C357.361 303.431 364.204 272.115 362.408 265.999C360.612 259.883 359.885 243.322 359.885 243.322V213.427C365.659 207.682 369.17 200.054 369.777 191.937C369.863 190.758 369.931 189.52 369.978 188.234C370.269 180.12 364.709 170.592 362.536 167.201C362.015 166.381 361.681 165.92 361.681 165.92L329.852 178.527L329.779 178.557V179.787V182.507L329.612 205.889Z" fill="#474463"/>
<path opacity="0.1" d="M340.424 93.2283C341.396 94.8514 342.136 96.6023 342.622 98.43C344.384 99.0976 346.262 99.406 348.146 99.337C350.029 99.2681 351.88 98.8232 353.588 98.0285C354.038 95.3897 355.084 92.8878 356.646 90.7129L340.424 93.2283Z" fill="#2B3E62" fill-opacity="0.45"/>
<path d="M347.635 98.6223C355.4 98.6223 361.694 92.3374 361.694 84.5846C361.694 76.8318 355.4 70.5469 347.635 70.5469C339.871 70.5469 333.577 76.8318 333.577 84.5846C333.577 92.3374 339.871 98.6223 347.635 98.6223Z" fill="#DB8B8B"/>
<path opacity="0.1" d="M329.612 182.495L329.766 182.525C344.881 185.63 363.858 169.896 363.858 169.896C363.349 169.04 362.91 168.145 362.545 167.219C362.023 166.399 361.689 165.938 361.689 165.938L329.86 178.545L329.779 179.804L329.612 182.495Z" fill="#2B3E62" fill-opacity="0.45"/>
<path d="M333.577 109.423C333.577 109.423 353.764 97.1835 360.252 102.223L369.264 113.754C369.264 113.754 375.033 115.552 373.968 127.07L378.275 147.94L365.299 151.182C365.299 151.182 357.729 158.382 363.858 168.82C363.858 168.82 344.753 184.655 329.612 181.418L330.694 164.502C330.694 164.502 333.94 155.145 328.171 146.506C322.401 137.866 327.812 129.589 333.218 126.348C333.218 126.344 335.737 112.665 333.577 109.423Z" fill="#FC6681"/>
<path d="M332.494 182.854C332.494 182.854 324.924 184.293 321.319 190.054C320.278 191.782 319.01 193.362 317.546 194.752C317.217 195.05 316.962 195.42 316.801 195.834C316.641 196.248 316.578 196.693 316.62 197.135C316.661 197.576 316.805 198.003 317.04 198.379C317.276 198.756 317.595 199.072 317.974 199.304C320.835 201.012 325.502 202.076 331.395 197.241C341.506 188.973 332.494 182.854 332.494 182.854Z" fill="#DB8B8B"/>
<path opacity="0.1" d="M343.671 116.264C343.671 116.264 350.882 115.543 352.682 134.261C354.483 152.979 357.387 157.297 357.387 157.297C357.387 157.297 359.188 167.017 354.864 172.774C350.54 178.531 342.247 190.771 342.247 190.771C342.247 190.771 333.235 193.29 331.435 184.292L342.61 163.417C342.61 163.417 344.411 156.217 340.087 151.177C335.763 146.138 332.495 112.664 343.671 116.264Z" fill="#2B3E62" fill-opacity="0.45"/>
<path d="M342.935 115.184C342.935 115.184 350.146 114.463 351.946 133.181C353.747 151.899 356.651 156.217 356.651 156.217C356.651 156.217 358.451 165.937 354.127 171.694C349.803 177.451 341.51 189.691 341.51 189.691C341.51 189.691 332.499 192.21 330.698 183.212L341.874 162.337C341.874 162.337 343.675 155.136 339.351 150.097C335.027 145.058 331.772 111.584 342.935 115.184Z" fill="#FC6681"/>
<path opacity="0.1" d="M336.999 128.68C336.999 128.68 336.28 139.826 339.514 145.959C342.747 152.092 342.76 159.997 339.514 164.323" fill="#2B3E62" fill-opacity="0.45"/>
<path opacity="0.1" d="M335.197 115.005C335.197 115.005 338.08 112.126 346.373 111.763C354.666 111.4 358.267 108.885 358.267 108.885" fill="#2B3E62" fill-opacity="0.45"/>
<path opacity="0.1" d="M355.248 66.4474C357.438 66.7164 359.953 67.4681 360.731 69.5223C361.022 70.2782 361.031 71.111 361.232 71.8925C362.049 75.0357 365.594 76.5006 367.78 78.905C369.709 81.0403 370.56 83.8974 371.201 86.6947C373.001 94.7162 373.435 102.983 372.484 111.149C371.783 117.128 370.346 122.995 369.944 128.991C369.542 134.987 370.277 141.295 373.558 146.335C374.969 148.5 376.834 150.405 377.835 152.788C375.769 154.462 372.916 154.701 370.252 154.791C367.152 154.896 364.052 154.896 360.949 154.791C359.324 154.735 357.626 154.628 356.223 153.808C355.185 153.145 354.331 152.23 353.743 151.148C351.968 148.158 351.523 144.528 351.604 141.043C351.686 137.558 352.233 134.091 352.297 130.601C352.331 128.701 352.182 126.681 351.087 125.126C350.296 124.003 349.094 123.247 348.067 122.338C344.218 118.921 342.884 113.446 342.755 108.3C342.627 103.154 343.478 97.9991 343.042 92.8701C342.871 90.8628 342.118 88.4499 340.142 88.0613C339.518 87.9374 338.859 88.0613 338.26 87.8221C336.673 87.2114 336.827 84.9779 336.374 83.3422C335.865 81.5058 334.296 80.0879 333.855 78.2174C332.816 73.8613 338.367 68.6639 342.007 67.1478C345.706 65.6018 351.348 65.9691 355.248 66.4474Z" fill="#2B3E62" fill-opacity="0.45"/>
<path d="M355.608 65.7299C357.798 65.9989 360.312 66.7506 361.091 68.8048C361.382 69.5607 361.39 70.3934 361.591 71.175C362.408 74.3182 365.954 75.783 368.139 78.1874C370.068 80.3228 370.919 83.1799 371.561 85.9771C373.361 93.9987 373.794 102.266 372.844 110.431C372.142 116.41 370.705 122.278 370.303 128.274C369.901 134.27 370.637 140.578 373.917 145.617C375.329 147.782 377.194 149.687 378.194 152.07C376.129 153.744 373.276 153.983 370.611 154.073C367.512 154.178 364.411 154.178 361.309 154.073C359.684 154.018 357.986 153.911 356.583 153.091C355.544 152.427 354.691 151.512 354.102 150.43C352.327 147.441 351.882 143.811 351.964 140.326C352.045 136.841 352.592 133.373 352.657 129.884C352.691 127.984 352.541 125.963 351.446 124.409C350.655 123.286 349.453 122.53 348.427 121.62C344.577 118.204 343.243 112.729 343.115 107.582C342.986 102.436 343.838 97.2816 343.401 92.1525C343.23 90.1453 342.477 87.7324 340.501 87.3438C339.877 87.2199 339.218 87.3438 338.62 87.1046C337.033 86.4939 337.187 84.2603 336.733 82.6247C336.225 80.7883 334.655 79.3704 334.214 77.4999C333.175 73.1438 338.727 67.9463 342.366 66.4303C346.066 64.88 351.707 65.2473 355.608 65.7299Z" fill="#472727"/>
</g>
<defs>
<linearGradient id="paint0_linear_1965_134" x1="204.601" y1="297.121" x2="204.601" y2="14.1797" gradientUnits="userSpaceOnUse">
<stop stop-color="#808080" stop-opacity="0.25"/>
<stop offset="0.54" stop-color="#808080" stop-opacity="0.12"/>
<stop offset="1" stop-color="#808080" stop-opacity="0.1"/>
</linearGradient>
<linearGradient id="paint1_linear_1965_134" x1="-120435" y1="210906" x2="-120435" y2="51012.5" gradientUnits="userSpaceOnUse">
<stop stop-color="#F3F6FC"/>
<stop offset="0.54" stop-color="#808080" stop-opacity="0.12"/>
<stop offset="1" stop-color="#808080" stop-opacity="0.1"/>
</linearGradient>
<clipPath id="clip0_1965_134">
<rect width="413" height="342" fill="white"/>
</clipPath>
</defs>
</svg>
