<svg width="284" height="413" viewBox="0 0 284 413" fill="none" xmlns="http://www.w3.org/2000/svg">
<rect width="283.729" height="412.825" rx="15" fill="white"/>
<rect x="24.1162" y="34.0469" width="48.2339" height="4.25593" rx="2.12797" fill="#CACACA"/>
<rect x="24.1162" y="24.1211" width="48.2339" height="4.25593" rx="2.12797" fill="#CACACA"/>
<rect x="211.379" y="92.2109" width="48.2339" height="4.25593" rx="2.12797" fill="#CACACA"/>
<rect x="24.1162" y="43.9805" width="48.2339" height="4.25593" rx="2.12797" fill="#CACACA"/>
<rect x="24.1162" y="53.9062" width="61.0017" height="4.25593" rx="2.12797" fill="#CACACA"/>
<rect x="198.61" y="82.2852" width="61.0017" height="4.25593" rx="2.12797" fill="#CACACA"/>
<rect x="211.379" y="305.012" width="48.2339" height="4.25593" rx="2.12797" fill="#CACACA"/>
<rect x="211.379" y="295.074" width="48.2339" height="4.25593" rx="2.12797" fill="#CACACA"/>
<rect x="211.379" y="314.934" width="48.2339" height="4.25593" rx="2.12797" fill="#CACACA"/>
<rect x="198.61" y="324.871" width="61.0017" height="4.25593" rx="2.12797" fill="#CACACA"/>
<rect x="24.1162" y="130.516" width="61.0017" height="5.67458" rx="2.83729" fill="#CACACA"/>
<rect x="24.1162" y="160.309" width="235.495" height="5.67458" rx="2.83729" fill="#CACACA"/>
<rect x="24.1162" y="174.492" width="235.495" height="5.67458" rx="2.83729" fill="#CACACA"/>
<rect x="24.1162" y="202.871" width="140.446" height="5.67458" rx="2.83729" fill="#CACACA"/>
<rect x="24.1162" y="202.871" width="140.446" height="5.67458" rx="2.83729" fill="#CACACA"/>
<rect x="181.586" y="202.871" width="78.0254" height="5.67458" rx="2.83729" fill="#CACACA"/>
<rect x="24.1162" y="217.051" width="235.495" height="5.67458" rx="2.83729" fill="#CACACA"/>
<rect x="24.1162" y="231.238" width="157.47" height="5.67458" rx="2.83729" fill="#CACACA"/>
<rect x="24.1162" y="188.676" width="48.2339" height="5.67458" rx="2.83729" fill="#CACACA"/>
</svg>
