<svg width="875" height="763" viewBox="0 0 875 763" fill="none" xmlns="http://www.w3.org/2000/svg">
<rect width="875" height="763" fill="url(#paint0_linear_3183_3)"/>
<circle cx="447.5" cy="381.5" r="305.5" fill="#104CBA" fill-opacity="0.15"/>
<circle cx="222.5" cy="451.5" r="128.5" fill="#5DDDD3" fill-opacity="0.11"/>
<circle cx="665.5" cy="166.5" r="56.5" fill="#5DDDD3" fill-opacity="0.11"/>
<g clip-path="url(#clip0_3183_3)">
<path d="M355.015 471.292C358.091 454.565 363.804 438.34 372.278 423.276C374.664 419.008 377.3 414.834 380.094 410.786C381.412 408.872 378.116 407.114 376.798 408.997C366.754 423.527 359.221 439.564 354.576 456.259C353.289 460.904 352.222 465.611 351.437 470.382C351.28 471.292 351.688 472.233 352.724 472.484C353.634 472.704 354.827 472.202 355.015 471.292Z" fill="#2B3E62"/>
<path d="M393.151 415.399C395.756 417.628 397.074 420.735 398.173 423.779C399.523 427.45 400.558 431.216 401.406 435.014C403.07 442.483 403.854 450.077 404.356 457.703C404.639 462.128 404.827 466.522 405.016 470.947C405.11 473.238 408.97 473.238 408.876 470.947C408.217 455.036 407.558 438.78 402.096 423.528C400.747 419.699 399.146 415.713 395.756 413.014C395.003 412.418 393.904 412.324 393.151 413.014C392.492 413.642 392.429 414.772 393.151 415.399Z" fill="#2B3E62"/>
<path d="M398.927 401.905H347.325C343.653 401.905 340.64 404.667 340.64 408.056C340.64 411.446 343.621 414.49 347.294 414.49L407.307 416.655C410.728 416.655 414.558 412.042 415.374 408.998L430.848 351.756C431.79 348.241 429.435 344.664 425.606 343.848C421.871 343.032 418.105 345.134 417.163 348.555L403.164 398.861C402.662 400.65 400.935 401.905 398.927 401.905Z" fill="#2B3E62"/>
<path d="M381.852 263.915L377.175 263.758L376.736 268.12L372.091 268.151L371.18 272.262L367.696 272.859L368.01 274.585L372.624 273.8L373.534 269.909L378.337 269.877L378.776 265.609L383.014 265.735L381.852 263.915Z" fill="#4175DF"/>
<path d="M325.197 343.814L324.507 346.293L328.399 347.894L327.802 351.691L330.533 353.354L329.686 354.735L326.045 352.507L326.61 348.929L322.529 347.266L323.628 343.5L325.197 343.814Z" fill="#BED1F9"/>
<path d="M431.979 331.199L428.4 331.983L426.14 329.002L422.186 330.163L420.773 326.272L416.253 327.37L414.464 323.949L409.944 324.294L410.101 326.02L413.46 325.738L415.343 329.378L419.675 328.311L421.15 332.266L425.513 330.979L427.71 333.897L431.037 333.176L432.073 335.372L433.642 334.619L431.979 331.199Z" fill="#BED1F9"/>
<path d="M336.968 342.184L339.165 340.74L338.223 339.297L334.676 341.619L336.905 345.573L334.582 348.366L336.026 351.442L334.111 352.98L335.179 354.298L338.16 351.944L336.591 348.618L338.976 345.762L336.968 342.184Z" fill="#BED1F9"/>
<path d="M287.256 395.422H355.618V372.889H287.256V395.422Z" fill="#BED1F9"/>
<path d="M258.913 459.477H310.044V371.605H258.913V459.477Z" fill="#FAE0B2"/>
<path d="M352.548 470.719H359.768V368.443H352.548V470.719Z" fill="#2B3E62"/>
<path d="M280.167 470.742H285.346V459.256H280.167V470.742Z" fill="#184655"/>
<path d="M251.398 470.723H256.577V459.425H251.398V470.723Z" fill="#184655"/>
<path d="M295.034 366.536C295.159 366.536 295.285 366.536 295.411 366.505C296.478 366.254 297.168 365.061 296.98 363.806C296.98 363.806 288.505 314.912 287.846 314.661C287.626 314.567 287.124 313.594 287.124 313.594C287.03 313.594 286.904 313.625 286.81 313.625C285.743 313.876 285.053 315.069 285.241 316.324L293.119 364.685C293.276 365.752 294.124 366.536 295.034 366.536Z" fill="#4175DF"/>
<path d="M312.266 318.113L320.113 365.25L295.787 365.595L287.093 313.531L309.221 314.755C310.885 314.849 312.046 316.826 312.266 318.113Z" fill="#7C9AF2"/>
<path d="M354.2 364.246C354.2 364.277 354.2 364.309 354.2 364.34C354.2 365.847 353.321 367.071 352.222 367.102L321.337 367.165C320.238 367.165 319.359 365.941 319.359 364.434C319.359 364.372 319.359 364.309 319.359 364.246H354.2Z" fill="#355389"/>
<path d="M345.254 364.246C345.254 364.277 345.254 364.309 345.254 364.34C345.254 365.878 343.936 367.102 342.304 367.102L296.038 367.196C294.406 367.196 293.057 365.972 293.057 364.434C293.057 364.372 293.057 364.309 293.057 364.246H345.254Z" fill="#4175DF"/>
<path d="M335.712 449.576C333.829 453.059 329.246 464.576 329.058 465.455C328.995 465.706 328.367 466.554 328.147 466.711C322.215 467.307 317.884 464.106 314.588 460.967C317.695 461.187 322.466 460.371 323.157 460.277C324.977 459.963 324.758 454.471 325.793 448.32C327.363 449.042 333.389 447.473 335.712 449.576Z" fill="#F7A491"/>
<path d="M329.089 465.39C328.587 467.305 326.547 470.882 326.17 470.788C325.699 470.663 308.185 464.386 306.678 461.876C305.737 460.338 310.539 460.244 314.4 460.463C317.664 463.57 328.053 465.893 329.089 465.39Z" fill="#2B3E62"/>
<path d="M392.272 400.304L351.531 402.658L336.685 454.063L324.883 451.74C324.883 451.74 331.506 398.547 335.366 394.091C345.881 381.946 382.668 383.389 382.668 383.389L392.272 400.304Z" fill="#4175DF"/>
<path d="M360.854 452.337C360.697 454.722 360.163 457.578 360.258 460.339C360.32 462.191 361.011 464.45 361.105 464.796C361.168 465.047 360.917 466.082 360.791 466.302C355.644 469.315 350.37 468.216 346.07 466.741C348.989 465.643 351.03 463.446 351.752 462.662C353.007 461.312 352.097 457.264 350.465 451.238C352.254 451.27 357.841 451.395 360.854 452.337Z" fill="#F7A491"/>
<path d="M388.067 379.778C388.067 379.778 350.087 380.5 340.514 394.465C333.358 404.916 351.155 456.477 351.155 456.477L361.858 454.5C361.858 454.5 359.378 419.571 357.62 408.023C357.307 406.077 355.925 400.302 355.925 400.302C355.925 400.302 360.665 401.715 369.485 402.28C381.601 403.064 399.241 402.844 403.07 400.867C409.661 397.447 412.423 388.157 409.504 382.101C406.617 376.075 388.067 379.778 388.067 379.778Z" fill="#7C9AF2"/>
<path d="M361.104 464.73C361.764 465.954 362.109 470.693 361.701 470.756C361.23 470.85 341.11 471.98 338.694 470.317C337.218 469.312 342.492 468.214 346.101 466.77C350.37 468.245 360.885 466.049 361.104 464.73Z" fill="#2B3E62"/>
<path d="M358.876 354.484C358.876 354.484 347.827 357.246 342.272 359.003C336.748 360.761 329.685 361.263 329.685 361.263L323.722 364.401L336.465 364.778L366.126 362.142L368.638 355.238L358.876 354.484Z" fill="#EF7F7F"/>
<path d="M367.194 332.111L361.92 332.864C361.92 332.864 360.037 333.241 358.531 341.526C357.024 349.811 354.89 354.236 354.89 354.236L367.853 359.382C377.269 346.327 383.766 330.855 367.194 332.111Z" fill="#E8605D"/>
<path d="M366.848 324.607C363.49 325.203 363.27 327.934 363.27 327.934L359.817 342.338C359.817 342.338 359.503 348.427 360.194 350.78C361.544 355.331 364.306 357.12 368.826 358.657C374.789 360.697 377.175 365.844 379.748 368.857C384.206 374.066 380.596 380.311 380.596 380.311L411.858 384.705C411.858 384.705 412.266 378.617 405.204 361.45C399.052 346.512 384.3 321.532 366.848 324.607Z" fill="#FA7167"/>
<path d="M377.991 326.334C374.162 322.129 364.401 327.338 367.445 341.304C367.477 341.398 368.575 356.053 367.633 357.905C367.068 359.035 353.478 358.47 345.285 360.196C345.285 360.196 336.403 356.901 333.264 356.681C330.941 356.524 325.448 358.282 325.448 358.282C325.448 358.282 318.355 363.523 319.359 364.37C320.709 365.562 324.067 360.384 326.861 360.384C326.861 360.384 321.745 364.339 323.314 364.433C324.883 364.527 327.081 363.334 328.21 362.989C329.34 362.644 333.546 364.746 337.25 365.186C337.878 365.249 340.295 365.123 343.088 365.5C345.945 365.876 349.177 366.912 352.944 367.1C363.082 367.571 374.57 368.701 377.426 365.845C379.561 363.679 384.457 333.427 377.991 326.334Z" fill="#FB9390"/>
<path d="M379.718 357.186C373.535 356.37 367.32 354.047 367.32 354.047C367.32 354.047 366.818 341.777 366.755 341.306C366.347 334.904 366.598 329.726 369.297 326.399C370.647 324.736 372.091 324.328 373.817 324.328C375.418 324.328 377.678 324.956 378.839 326.462C383.171 331.985 381.507 348.022 380.157 356.872L380.095 357.249L379.718 357.186Z" fill="#E8605D"/>
<path d="M364.055 300.851C364.526 296.708 364.526 281.017 374.068 281.331C383.61 281.645 383.672 292.158 391.425 279.511C398.581 267.774 411.827 275.368 410.603 285.065C411.984 285.191 413.302 285.662 414.526 286.478C418.701 289.239 419.705 295.077 416.786 299.501C416.316 300.192 416.347 301.008 415.782 301.541C416.064 305.935 414.432 310.58 410.258 314.816C398.927 326.396 392.743 310.768 386.623 310.391C380.534 310.015 383.515 315.412 377.677 318.049C371.808 320.716 367.853 318.959 361.324 307.441L359.755 304.303C359.755 304.272 363.584 304.993 364.055 300.851Z" fill="#4175DF"/>
<path d="M358.562 297.997C365.279 302.673 366.755 314.63 360.571 320.341C356.554 324.044 348.644 324.704 344.218 321.032C337.093 315.069 336.277 308.322 338.82 303.018C342.084 296.177 353.007 294.137 358.562 297.997Z" fill="#4175DF"/>
<path d="M360.634 314.191C360.634 314.191 362.705 320.625 369.987 324.328C370.897 324.799 359.818 342.593 359.818 342.373C359.786 340.992 361.732 332.99 361.261 331.985C359.974 329.286 352.441 316.984 352.441 316.984L360.634 314.191Z" fill="#FB9390"/>
<path d="M356.459 315.635L352.441 317.016C352.441 317.016 355.737 322.414 358.342 326.839C359.253 326.085 360.069 324.987 360.728 323.481C361.764 321.064 361.921 318.585 361.544 316.2C360.885 315.007 360.634 314.191 360.634 314.191L356.459 315.635Z" fill="#EF7F7F"/>
<path d="M345.724 302.138C345.724 302.138 349.302 300.631 353.226 302.075C357.118 303.55 364.149 313.027 360.539 321.344C356.93 329.66 348.298 325.518 344.469 320.245C340.608 314.973 336.779 307.002 345.724 302.138Z" fill="#FB9390"/>
<path d="M361.262 306.845C358.186 301.479 354.765 298.341 350.025 299.565C345.254 300.788 340.985 301.604 340.671 307.191L340.326 308.132C340.326 308.132 347.231 304.774 350.088 307.41C352.944 310.046 358.939 310.925 359.755 312.745C360.54 314.565 362.517 317.892 362.517 317.892L362.863 315.821C362.863 315.821 364.369 312.212 361.262 306.845Z" fill="#4175DF"/>
<path d="M353.979 310.141C354.638 311.804 356.082 312.777 357.244 312.275C358.405 311.804 358.813 310.047 358.154 308.384C357.495 306.72 356.051 305.747 354.89 306.25C353.76 306.72 353.352 308.446 353.979 310.141Z" fill="#FB9390"/>
<path d="M230.859 459.477H314.005V371.605H230.859V459.477Z" fill="#BED1F9"/>
<path d="M312.84 470.785H319.714V369.67H312.84V470.785Z" fill="#2B3E62"/>
<path d="M229.042 471.523H232.935V370.409H229.042V471.523Z" fill="#184655"/>
<path d="M215.968 373.315H364.808C366.535 373.315 367.916 371.935 367.916 370.209V370.177C367.916 368.451 366.535 367.07 364.808 367.07H215.968C214.241 367.07 212.86 368.451 212.86 370.177V370.209C212.86 371.903 214.273 373.315 215.968 373.315Z" fill="#2B3E62"/>
<path d="M703.733 472.203C703.733 471.168 703.231 470.32 702.603 470.32H191.517C190.763 470.32 190.136 471.168 190.136 472.203C190.136 473.239 190.763 474.086 191.517 474.086H702.603C703.231 474.086 703.733 473.239 703.733 472.203Z" fill="#4175DF"/>
<path d="M476.831 274.964L478.432 267.714C478.432 267.714 483.674 271.041 486.718 275.779C489.763 280.518 491.207 293.165 492.085 293.636C492.964 294.107 502.6 279.263 504.295 276.909C506.367 274.022 507.152 270.695 508.47 268.153C509.788 265.611 514.371 264.764 516.128 265.078C517.886 265.392 513.743 272.798 513.743 272.798C513.743 272.798 503.291 290.969 499.807 300.917C496.323 310.865 485.431 315.604 483.674 314.192C481.916 312.717 476.831 274.964 476.831 274.964Z" fill="#EF7F7F"/>
<path d="M508.596 269.503C508.596 269.503 509.035 267.589 510.196 267.212C511.358 266.835 513.398 267.181 513.555 267.212C513.68 267.243 515.94 266.051 515.94 266.051L514.057 269.534C514.057 269.534 510.416 273.834 509.192 272.233C507.968 270.601 508.596 269.503 508.596 269.503Z" fill="#FB9390"/>
<path d="M516.599 266.207C516.599 266.207 517.917 272.923 517.572 274.335C517.227 275.747 516.411 274.994 516.254 274.68C515.595 273.425 515.155 269.126 515.155 269.126L516.599 266.207Z" fill="#F48C7F"/>
<path d="M513.743 271.763C513.743 271.763 514.371 275.936 515.03 276.407C515.438 276.721 515.972 276.533 516.16 275.685C516.348 274.838 515.313 269.723 515.313 269.723L513.743 271.763Z" fill="#F48C7F"/>
<path d="M509.914 283.593L507.717 282.526L517.007 263.477C518.2 264.073 518.702 265.516 518.137 266.74L509.914 283.593Z" fill="#2B3E62"/>
<path d="M486.561 245.086C487.879 239.123 489.166 233.129 485.714 226.57C482.92 221.266 478.086 218.222 472.468 217.563C456.617 215.68 460.007 230.493 437.816 233.694C430.911 234.698 424.539 235.64 418.764 239.06C408.374 245.243 404.451 255.16 411.356 271.322C428.211 310.895 469.612 277.316 474.728 269.501C478.526 263.758 485.714 248.946 486.561 245.086Z" fill="#2B3E62"/>
<path d="M423.095 495.141C423.095 495.141 421.965 506.595 419.046 508.729C416.127 510.832 412.266 518.615 414.212 522.852C414.809 524.17 416.033 524.923 417.414 525.362C421.494 526.617 425.826 524.515 427.583 520.592C428.556 518.427 429.404 515.508 429.561 511.836C430 502.516 432.888 497.777 432.888 497.777L423.095 495.141Z" fill="#FB9390"/>
<path d="M467.729 499.852C467.729 499.852 468.639 511.432 467.886 515.198C467.477 517.206 465.28 521.349 466.285 523.263C467.289 525.146 468.451 525.617 468.451 525.617L494.785 526.025C496.229 526.056 495.287 525.115 494.126 524.267C492.242 522.886 490.704 521.945 484.647 519.026C484.239 518.838 482.826 517.928 482.292 517.614C480.974 516.798 479.656 515.543 478.526 514.288C476.643 512.185 476.454 501.986 476.454 501.986L467.729 499.852Z" fill="#FB9390"/>
<path d="M488.319 346.043C488.319 346.043 491.646 364.842 489.449 377.144C487.283 389.446 476.831 503.647 476.831 503.647L465.218 504.306C465.218 504.306 462.77 456.604 463.209 449.983C463.648 443.361 467.101 432.251 467.101 432.251L465.94 393.745L480.598 343.156L488.319 346.043Z" fill="#92B5F9"/>
<path d="M454.169 342.088C454.169 342.088 445.035 355.834 442.838 367.195C440.672 378.555 444.439 413.515 440.233 428.391C437.973 436.456 429.373 448.915 428.055 459.334C426.736 469.753 421.62 497.056 421.62 497.056L433.234 499.347L460.227 431.152L481.382 369.517L486.812 337.789L454.169 342.088Z" fill="#BED1F9"/>
<path d="M461.577 263.914C461.577 263.914 453.573 264.824 448.771 270.034C443.968 275.243 456.524 317.139 457.371 323.761C458.25 330.382 450.246 345.854 450.246 345.854C450.246 345.854 480.19 351.377 488.319 346.011C488.319 346.011 489.198 298.309 488.319 293.571C487.44 288.832 480.19 269.563 478.432 267.68C476.706 265.797 461.577 263.914 461.577 263.914Z" fill="#7C9AF2"/>
<path d="M450.245 273.958C451.03 271.636 453.667 270.506 455.927 271.479C459.034 272.828 463.303 275.339 465.374 279.701C468.858 286.95 481.068 311.931 484.835 312.872C488.601 313.814 504.013 286.982 504.013 286.982C504.013 286.982 503.573 282.243 504.891 279.544C506.21 276.845 510.133 274.021 510.698 274.962C511.295 275.904 508.532 278.289 508.532 278.759C508.532 279.23 509.694 279.544 511.295 278.603C512.895 277.661 513.743 275.747 513.743 275.747C513.743 275.747 516.348 280.517 513.617 284.785C510.855 289.053 509.694 290.779 509.694 290.779C509.694 290.779 491.834 330.415 485.305 330.886C479.185 331.325 444.125 292.442 450.245 273.958Z" fill="#FB9390"/>
<path d="M465.626 247.755C465.626 247.755 465.563 248.1 465.438 248.728C464.904 251.646 462.832 261.281 461.42 263.917C459.725 267.118 467.227 277.317 474.446 276.093C476.612 275.717 472.625 266.71 472.814 265.768C473.19 263.948 473.661 261.438 474.195 258.896C474.477 257.452 474.76 255.977 475.042 254.628C475.827 250.736 476.455 247.535 476.455 247.535L465.626 247.755Z" fill="#FB9390"/>
<path d="M465.437 248.728C465.563 248.132 465.625 247.755 465.625 247.755L476.454 247.473C476.454 247.473 475.826 250.674 475.042 254.565C474.759 255.946 474.477 257.39 474.194 258.833C472.531 258.582 470.773 257.766 469.015 256.26C467.101 254.597 465.845 252.588 465.092 250.454C465.249 249.764 465.343 249.167 465.437 248.728Z" fill="#EF7F7F"/>
<path d="M472.122 222.021C472.122 222.021 467.697 222.648 464.495 226.76C461.294 230.902 457.841 243.675 465.782 250.61C473.723 257.546 481.57 249.7 482.763 241.353C483.956 233.036 483.704 221.738 472.122 222.021Z" fill="#FB9390"/>
<path d="M485.306 238.527C484.364 240.379 482.764 241.383 481.759 240.818C480.755 240.222 480.692 238.276 481.634 236.425C482.575 234.573 484.176 233.569 485.18 234.134C486.216 234.73 486.279 236.676 485.306 238.527Z" fill="#FB9390"/>
<path d="M473.472 221.833C473.472 221.833 466.661 233.978 461.764 234.543C456.899 235.108 456.24 241.572 456.24 241.572C456.24 241.572 457.998 226.697 462.8 223.841C467.665 220.954 473.472 221.833 473.472 221.833Z" fill="#2B3E62"/>
<path d="M463.366 237.427C463.774 239.592 462.958 241.569 461.576 241.852C460.195 242.134 458.752 240.628 458.344 238.462C457.936 236.297 458.752 234.32 460.133 234.037C461.514 233.755 462.958 235.293 463.366 237.427Z" fill="#FB9390"/>
<path d="M428.368 518.522C422.028 519.684 417.822 515.98 415.625 513.219C414.024 516.357 413.019 520.248 414.212 522.822C415.248 525.081 418.104 525.709 420.49 525.803C423.032 525.897 425.386 524.579 426.642 522.382C427.269 521.347 427.866 520.06 428.368 518.522Z" fill="#2B3E62"/>
<path d="M482.324 517.643C475.356 519.432 470.208 518.208 467.321 517.047C466.567 519.15 465.594 521.786 466.128 523.292C466.756 525.144 467.666 525.583 468.482 525.583C474.854 525.74 491.803 525.991 496.637 526.054C497.327 526.054 497.673 525.269 497.265 524.767C496.04 523.323 482.858 517.957 482.324 517.643Z" fill="#2B3E62"/>
<path d="M194.624 247.159C205.641 231.624 230.217 238.811 230.908 257.86C230.908 258.08 230.908 258.3 230.939 258.519C231.441 281.052 214.304 286.92 219.671 303.051C225.07 319.213 241.423 307.162 247.794 333.586C254.166 360.011 232.414 374.666 234.36 390.326C236.307 405.986 245.629 416.436 245.126 436.835C244.75 451.993 217.223 499.004 217.223 499.004C217.223 499.004 180.499 458.866 179.526 431.94C178.585 406.394 196.884 408.779 197.857 384.803C198.83 360.827 163.079 357.625 180.499 327.498C184.172 321.159 193.619 314.977 193.619 301.262C193.619 287.548 181.221 266.679 191.014 252.305C192.207 250.642 193.431 248.885 194.624 247.159Z" fill="#BED1F9"/>
<path d="M234.392 390.391C232.446 374.731 254.166 360.075 247.826 333.651C241.454 307.227 225.101 319.278 219.702 303.116C214.303 286.954 231.441 281.085 230.97 258.584C230.97 258.364 230.97 258.144 230.939 257.925C230.5 246.219 221.083 239.001 211.322 238.781L211.29 239.378C211.29 239.378 197.574 294.862 206.708 322.918C215.841 350.974 223.029 352.951 218.447 390.799C213.864 428.646 217.254 499.131 217.254 499.131C217.254 499.131 244.781 452.12 245.158 436.962C245.628 416.47 236.338 406.051 234.392 390.391Z" fill="#7C9AF2"/>
<path d="M240.544 517.11H180.907C173.312 509.955 168.698 500.101 168.854 489.274C168.949 483.813 170.016 479.043 172.307 474.367L249.207 475.246C251.341 479.985 252.471 485.226 252.377 490.686C252.22 501.011 247.732 510.3 240.544 517.11Z" fill="#F47458"/>
<path d="M232.949 397.103C232.949 397.103 265.404 387.374 266.722 387.594C268.009 387.845 262.893 398.641 263.552 402.156C263.772 403.285 235.774 419.291 229.559 418.098C222.779 416.811 196.727 394.404 193.934 389.54C190.827 384.111 185.397 370.553 189.006 365.469C190.67 363.147 194.656 360.04 197.449 360.699C208.467 363.304 220.362 382.855 232.949 397.103Z" fill="#4175DF"/>
<path d="M234.738 434.322C234.519 433.349 227.802 417.689 227.456 416.088C222.968 395.219 205.768 364.715 197.795 360.761C196.508 360.102 187.312 360.07 187.312 360.07L192.082 362.424C197.513 367.382 203.57 373.094 207.431 379.496C218.636 398.012 226.295 440.692 227.299 440.63C228.429 440.535 235.209 436.456 234.738 434.322Z" fill="#7C9AF2"/>
<path d="M224.066 434.887C208.31 425.723 205.83 404.101 199.176 392.458C191.015 378.241 178.993 376.672 158.277 402.469C132.885 434.071 145.817 497.683 180.877 518.082L264.933 517.894C282.259 511.649 289.949 502.516 296.164 487.296C323.816 419.603 259.126 455.286 224.066 434.887Z" fill="#BED1F9"/>
<path d="M261.355 505.121C261.355 505.121 260.759 515.477 260.759 515.509C260.539 516.827 259.691 520.059 259.691 521.283C259.691 525.771 279.685 517.486 275.197 515.477C274.789 515.289 272.027 512.904 271.901 511.398C271.682 509.044 271.807 505.309 271.807 505.309L261.355 505.121Z" fill="#FB9390"/>
<path d="M274.914 515.261C274.914 515.261 270.237 516.642 267.82 516.987C265.404 517.332 262.265 514.445 260.538 515.23C259.157 515.857 258.624 520.502 258.435 522.855C258.373 523.609 258.938 524.236 259.691 524.268C265.215 524.55 286.214 525.523 291.675 523.954C294.5 523.138 284.519 518.462 274.914 515.261Z" fill="#2B3E62"/>
<path d="M317.507 494.734C317.507 494.734 312.83 496.114 310.413 496.46C307.997 496.805 304.858 493.918 303.132 494.702C301.75 495.33 301.217 499.974 301.029 502.328C300.966 503.081 301.625 503.897 302.378 503.991C308.499 504.588 328.838 505.027 334.3 503.427C337.093 502.611 327.112 497.935 317.507 494.734Z" fill="#2B3E62"/>
<path d="M297.827 486.355C297.827 486.355 303.446 494.263 303.979 495.99C304.513 497.747 317.539 499.002 317.539 494.734C317.539 494.671 313.49 491.408 312.36 489.901C310.445 487.391 306.019 479.043 306.019 479.043L297.827 486.355Z" fill="#FB9390"/>
<path d="M176.828 314.191C176.828 314.191 170.488 309.891 167.82 317.423C167.82 317.423 164.241 316.325 162.703 320.028C162.703 320.028 156.551 319.557 157.054 328.501C157.054 328.501 153.978 328.595 154.354 332.204C154.731 335.813 157.054 337.759 157.054 337.759C157.054 337.759 155.673 339.359 157.148 342.435C158.403 345.04 160.757 344.977 160.757 344.977C160.757 344.977 162.389 349.496 164.712 350.437C167.035 351.379 169.64 350.124 169.64 350.124C169.64 350.124 170.927 352.477 173.218 351.724C175.51 350.971 177.926 348.115 180.783 348.523C183.639 348.962 190.23 346.389 190.23 346.389C190.23 346.389 197.136 341.274 193.118 333.962C193.118 333.962 196.351 329.442 191.863 325.865C191.863 325.865 192.93 318.49 186.935 315.571C180.94 312.653 176.828 314.191 176.828 314.191Z" fill="#2B3E62"/>
<path d="M277.362 426.164C272.089 423.559 216.753 432.189 216.753 432.189L210.13 421.613L188.535 426.509C188.535 426.509 182.414 433.539 182.163 436.708C181.347 446.908 186.024 464.043 191.297 465.706C210.067 471.637 250.432 459.523 256.081 458.205C256.081 458.205 255.862 467.338 257.588 486.01C258.279 493.385 259.157 501.513 259.974 508.637C264.901 508.637 269.861 508.543 274.789 507.884C274.789 507.884 282.635 428.737 277.362 426.164Z" fill="#FA7167"/>
<path d="M312.423 485.227C302.975 461.313 282.416 414.428 274.977 413.11C265.216 411.384 216.753 432.19 216.753 432.19L265.937 431.155C265.937 431.155 266.22 431.625 268.354 441.95C270.018 449.984 288.537 478.26 299.083 493.951C303.917 491.754 308.75 489.714 312.423 485.227Z" fill="#E8605D"/>
<path d="M187.531 360.258C187.531 360.258 175.29 360.133 173.972 360.415C172.685 360.698 175.007 410.376 176.577 428.923C178.178 447.471 180.72 450.232 180.72 450.232C180.72 450.232 198.172 450.295 210.256 446.498C222.811 442.543 225.793 427.951 225.793 427.951C225.793 427.951 214.43 394.622 209.879 384.297C206.96 377.676 201.153 370.269 195.253 364.212C191.925 360.792 187.531 360.258 187.531 360.258Z" fill="white"/>
<path d="M184.079 351.22L186.527 357.936C186.527 357.936 190.796 367.413 188.536 369.924C186.276 372.435 174.443 360.29 174.443 360.29L171.492 342.59L184.079 351.22Z" fill="#FB9390"/>
<path d="M172.465 348.302C176.012 353.794 182.101 356.273 186.15 356.869L184.079 351.189L171.523 342.559L172.465 348.302Z" fill="#EF7F7F"/>
<path d="M173.657 322.822C178.68 319.746 185.302 322.069 187.374 327.498C188.284 329.852 189.289 332.864 190.073 336.191C191.988 344.225 189.571 353.012 185.899 353.797C182.226 354.612 170.958 351.631 168.07 340.239C166.25 333.241 168.384 326.054 173.657 322.822Z" fill="#FB9390"/>
<path d="M170.958 340.582C171.366 342.371 170.487 344.065 169.044 344.379C167.6 344.693 166.093 343.532 165.685 341.743C165.277 339.954 166.156 338.26 167.6 337.946C169.075 337.632 170.55 338.793 170.958 340.582Z" fill="#FB9390"/>
<path d="M174.442 360.23C174.442 360.23 160.224 359.665 156.991 362.647C154.919 364.561 159.094 383.579 159.094 383.579C159.094 383.579 170.676 405.766 172.371 418.759C175.164 440.319 177.738 453.562 178.837 454.284C185.24 456.575 206.364 452.213 207.243 449.733C216.91 422.179 174.442 360.23 174.442 360.23Z" fill="#7C9AF2"/>
<path d="M243.181 405.922L252.629 366.066C252.88 365.03 253.79 364.309 254.858 364.309H271.995C273.502 364.309 274.6 365.721 274.192 367.196L263.772 406.393C263.521 407.366 262.642 408.056 261.637 408.087L245.473 408.715C243.997 408.778 242.836 407.366 243.181 405.922Z" fill="#2B3E62"/>
<path d="M258.843 404.887C258.121 405.012 256.929 405.295 256.081 405.577C255.171 405.891 254.261 405.922 253.476 406.079C251.907 406.393 250.745 406.675 250.777 406.581C250.808 406.487 250.463 406.33 251.279 406.016C252.283 405.64 254.543 405.295 255.956 404.636C256.772 404.259 258.467 403.569 258.467 403.569C258.467 403.569 260.884 402.062 260.852 401.905C260.632 400.995 258.686 401.591 257.682 402.25C256.835 402.345 255.014 403.098 255.014 403.098C255.014 403.098 251.059 403.882 250.934 403.317C250.902 403.098 253.256 402.313 255.485 401.246C257.556 400.242 259.471 398.861 259.346 398.453C259.126 397.731 256.709 398.641 256.709 398.641C256.709 398.641 255.045 399.363 254.48 399.552C253.821 399.771 251.781 400.336 251.781 400.336C251.781 400.336 244.593 401.905 244.531 401.372C244.468 400.838 244.876 399.426 245.284 399.175C245.692 398.924 246.696 398.861 247.104 398.61C247.512 398.359 247.858 397.7 247.575 397.166C247.324 396.664 244.844 397.104 244.844 397.104C244.844 397.104 242.836 397.48 241.768 398.39C238.033 401.529 238.724 401.999 238.222 402.376C237.657 402.847 227.801 403.914 227.801 403.914C227.801 403.914 198.861 407.272 197.292 407.397L198.296 417.032C200.023 417.22 233.419 411.383 236.872 410.692C236.872 410.692 241.235 411.351 243.997 411.665C246.759 411.979 249.553 411.1 250.337 411.069C250.463 411.069 253.099 410.818 256.27 409.688C259 408.715 255.987 408.433 255.987 408.433C255.987 408.433 250.588 409.374 250.588 408.935C250.588 408.621 253.57 408.276 256.615 407.209C257.399 406.926 258.184 406.675 258.875 406.424C260.758 405.765 260.884 404.479 258.843 404.887Z" fill="#FB9390"/>
<path d="M192.961 402.72C192.961 402.72 226.734 402.469 228.052 402.72C229.339 402.971 229.685 411.632 230.344 415.116C230.563 416.246 194.75 420.263 188.535 419.07C181.755 417.783 164.681 399.017 160.726 392.709C157.399 387.405 150.336 373.879 152.094 367.979C153.161 364.402 158.685 360.385 161.699 361.295C173.689 364.998 192.961 402.72 192.961 402.72Z" fill="#92B5F9"/>
<path d="M269.484 386.809C270.144 386.557 270.865 386.934 270.991 387.624C271.117 388.315 271.117 389.162 270.583 389.696C269.516 390.763 262.359 391.547 262.359 390.48C262.359 389.664 267.224 387.687 269.484 386.809Z" fill="#FB9390"/>
<path d="M271.054 389.917C271.054 389.917 271.87 392.553 271.274 392.616C270.646 392.679 262.956 393.746 262.58 392.836C262.203 391.926 270.05 389.415 271.054 389.917Z" fill="#FB9390"/>
<path d="M271.368 392.897C271.368 392.897 271.65 394.058 271.085 394.78C270.489 395.502 263.301 395.533 262.956 394.403C262.61 393.273 271.054 392.018 271.368 392.897Z" fill="#FB9390"/>
<path d="M269.735 395.597C269.735 395.597 269.892 396.507 269.578 396.946C269.264 397.386 263.96 397.668 263.238 396.633C262.547 395.566 268.919 394.53 269.735 395.597Z" fill="#FB9390"/>
<path d="M666.665 268.998C674.041 268.59 678.215 277.44 673.225 282.9C672.346 283.873 671.844 285.16 671.812 286.509L671.718 291.091C671.687 292.347 670.682 293.382 669.427 293.445L666.633 293.602C665.378 293.665 664.279 292.755 664.091 291.531C663.463 286.98 663.557 285.254 661.674 283.591C656.118 278.695 659.289 269.437 666.665 268.998Z" fill="#BED1F9"/>
<path d="M669.772 288.142C669.395 284.439 669.144 280.359 669.081 278.821C667.732 278.978 666.351 278.916 665.001 278.57C665.472 281.615 665.848 284.69 666.131 287.766L665.723 287.797C665.409 284.69 665.032 281.552 664.561 278.445C663.745 278.225 662.835 277.911 662.396 277.19C662.176 276.876 662.113 276.436 662.239 276.06C662.521 275.056 663.714 275.056 664.342 275.872C664.75 276.405 664.813 277.158 664.938 278.1C666.288 278.445 667.7 278.539 669.081 278.351C669.081 277.566 669.175 276.844 669.615 276.217C671.09 274.051 673.601 278.006 669.489 278.696C669.521 279.888 669.772 284.094 670.18 288.017L669.772 288.142ZM669.929 276.562C669.584 277.064 669.489 277.723 669.458 278.413C670.337 278.257 670.933 277.943 671.184 277.472C671.655 276.656 670.745 275.369 669.929 276.562ZM662.961 275.809C662.553 276.028 662.521 276.656 662.772 277.033C663.118 277.598 663.902 277.849 664.561 278.068C664.436 277.315 664.373 276.625 664.059 276.185C663.777 275.84 662.992 275.777 662.961 275.809Z" fill="white"/>
<path d="M671.843 286.418C671.843 286.449 671.843 286.481 671.843 286.543L671.749 291.125C671.718 292.381 670.713 293.416 669.458 293.479L666.664 293.636C665.409 293.699 664.31 292.789 664.122 291.565C663.84 289.525 663.714 288.081 663.463 286.92L671.843 286.418Z" fill="#7C9AF2"/>
<path d="M671.184 264.606L672.439 260.244C672.565 259.836 672.314 259.396 671.906 259.271C671.497 259.145 671.058 259.396 670.933 259.804L669.677 264.166C669.551 264.574 669.803 265.014 670.211 265.139C670.65 265.265 671.089 265.014 671.184 264.606Z" fill="#DDE8FE"/>
<path d="M677.933 272.954L682.484 271.511C682.892 271.385 683.143 270.946 682.986 270.506C682.86 270.098 682.421 269.847 681.982 270.004L677.43 271.448C677.022 271.573 676.771 272.013 676.928 272.452C677.054 272.829 677.524 273.08 677.933 272.954Z" fill="#DDE8FE"/>
<path d="M685.685 286.104C685.905 285.728 685.811 285.257 685.434 285.006C684.053 284.127 682.578 283.405 681.04 282.809C680.632 282.652 680.161 282.84 680.004 283.248C679.847 283.656 680.036 284.127 680.444 284.284C681.888 284.849 683.269 285.539 684.555 286.355C684.964 286.575 685.434 286.481 685.685 286.104Z" fill="#DDE8FE"/>
<path d="M659.727 266.926C660.104 266.738 660.261 266.236 660.073 265.859C659.1 264.008 658.346 262.062 657.781 260.053C657.656 259.645 657.216 259.394 656.808 259.489C656.4 259.614 656.149 260.053 656.243 260.461C656.84 262.564 657.656 264.635 658.66 266.581C658.849 266.989 659.319 267.146 659.727 266.926Z" fill="#DDE8FE"/>
<path d="M656.275 273.957C656.306 273.517 655.992 273.141 655.553 273.109L650.405 272.733C649.966 272.701 649.589 273.015 649.558 273.454C649.526 273.894 649.84 274.27 650.28 274.302L655.427 274.678C655.867 274.71 656.243 274.396 656.275 273.957Z" fill="#DDE8FE"/>
<path d="M651.221 288.517C651.284 288.517 651.347 288.486 651.41 288.455C652.979 287.607 654.454 286.603 655.804 285.442C656.149 285.159 656.181 284.657 655.898 284.312C655.616 283.967 655.113 283.936 654.768 284.218C653.513 285.285 652.132 286.258 650.656 287.042C650.28 287.262 650.123 287.733 650.343 288.109C650.531 288.423 650.876 288.58 651.221 288.517Z" fill="#DDE8FE"/>
<path d="M717.607 382.823C699.998 360.197 689.483 361.358 682.107 373.503C676.112 383.42 673.57 402.061 659.665 409.718C628.748 426.728 588.289 420.828 604.454 469.063C608.974 482.557 615.942 481.49 619.175 481.584L697.832 481.522C728.749 464.481 739.201 410.566 717.607 382.823Z" fill="#BED1F9"/>
<path d="M701.034 340.802C702.855 331.952 698.68 323.196 690.739 319.901C690.802 314.88 688.793 309.827 685.372 306.375C678.623 299.565 664.687 296.646 659.696 305.308C653.136 309.042 653.544 313.656 655.491 320.999C649.119 327.621 651.441 338.448 660.732 344.097C660.575 351.503 660.387 362.707 666.853 365.876C668.391 366.63 670.839 367.697 671.153 368.042C670.745 367.665 675.955 382.164 692.089 375.542C708.567 368.701 711.769 349.652 701.034 340.802Z" fill="#2B3E62"/>
<path d="M632.608 400.522C633.895 399.235 636.187 398.105 636.061 397.917C635.527 397.164 629.878 403.001 630.254 401.338C630.474 400.427 634.492 395.657 635.936 395.469C637.317 395.281 646.325 393.868 646.325 393.868L667.104 380.06C667.104 380.06 668.139 363.741 663.714 352.726C668.547 351.251 669.489 350.937 674.417 351.314C677.242 362.486 680.286 381.284 676.614 386.745C675.076 389.036 648.051 397.948 648.051 397.948C648.051 397.948 642.213 400.145 641.114 400.208C640.298 400.271 638.007 400.082 636.909 400.239C634.398 400.616 631.259 404.382 631.039 403.942C630.882 403.691 631.29 401.808 632.608 400.522Z" fill="#EF7F7F"/>
<path d="M661.171 351.441C663.117 347.832 665.126 344.976 665.126 344.976C667.135 341.367 672.376 339.547 672.376 339.547C672.376 339.547 674.134 339.578 676.143 339.672C676.269 340.018 676.394 340.237 676.52 340.331C677.273 340.896 681.604 340.175 684.398 342.057C693.751 350.123 691.178 389.131 690.424 401.465L667.041 401.559C667.041 401.559 665.503 375.198 659.696 368.388C655.678 363.68 658.252 356.807 661.171 351.441Z" fill="#FA7167"/>
<path d="M654.737 488.77C654.485 488.299 651.221 480.485 648.585 476.97C644.724 471.917 611.39 426.004 612.771 414.864C613.368 409.999 627.806 405.857 629.532 405.543C638.729 406.767 629.061 414.675 635.967 421.203C631.478 422.741 628.842 424.655 629.815 425.91C633.707 430.963 654.329 471.666 655.239 472.2C659.225 474.553 660.794 473.455 660.794 473.455C660.794 473.455 659.884 496.364 657.97 495.642C656.055 494.921 657.593 493.979 654.737 488.77Z" fill="#EF7F7F"/>
<path d="M662.49 473.611L658.63 496.678C657.751 499.659 656.307 499.628 655.93 499.22C655.177 498.404 654.8 492.221 654.706 488.738C656.432 483.403 656.275 473.329 655.208 472.199C657.845 472.231 662.459 473.078 662.49 473.611Z" fill="#FA7167"/>
<path d="M648.711 417.06C643.532 408.492 643.814 409.559 634.806 405.699C631.196 407.143 619.143 414.706 617.605 416.118L636.815 430.052C636.156 428.483 642.841 420.763 648.711 417.06Z" fill="#FB9390"/>
<path d="M674.009 326.334C674.009 326.334 675.578 337.569 676.677 340.299C677.775 343.03 670.65 348.867 664.749 350.624C658.817 352.382 666.57 344.599 666.319 341.68C666.068 338.761 665 324.953 665 324.953L674.009 326.334Z" fill="#FB9390"/>
<path d="M665.284 328.907C665.095 326.616 664.97 324.953 664.97 324.953L674.009 326.334C674.009 326.334 674.229 327.652 674.48 329.504C670.839 331.638 667.544 330.979 665.284 328.907Z" fill="#EF7F7F"/>
<path d="M671.184 305.809C671.184 305.809 674.731 306.625 676.96 309.982C679.157 313.34 680.663 323.257 673.413 327.871C666.162 332.484 660.544 325.956 660.45 319.586C660.356 313.215 661.705 304.679 671.184 305.809Z" fill="#FB9390"/>
<path d="M658.786 317.58C659.414 319.118 660.638 320.091 661.517 319.714C662.395 319.337 662.646 317.8 662.019 316.262C661.391 314.724 660.167 313.751 659.288 314.128C658.378 314.505 658.158 316.042 658.786 317.58Z" fill="#FB9390"/>
<path d="M677.053 318.867C676.52 320.53 677.022 322.162 678.12 322.507C679.25 322.852 680.569 321.817 681.102 320.154C681.636 318.49 681.134 316.858 680.035 316.513C678.905 316.137 677.587 317.204 677.053 318.867Z" fill="#FB9390"/>
<path d="M649.746 402.247C653.732 401.871 666.978 400.521 666.978 400.521L690.456 397.352C690.456 397.352 694.599 407.268 694.756 413.482C695.039 424.372 685.026 433.536 676.457 433.002C671.372 432.688 642.495 432.061 636.877 429.958C635.716 421.108 634.366 411.505 628.402 405.103C637.976 403.848 644.316 402.749 649.746 402.247Z" fill="#4175DF"/>
<path d="M649.463 484.284C648.836 483.625 643.657 448.382 640.549 433.601C639.796 430.055 637.536 426.979 634.335 425.253L617.574 416.121C611.767 421.425 638.854 481.02 641.334 487.265C643.029 491.565 644.128 500.446 644.222 500.98C645.603 507.068 643.814 507.601 645.54 508.857C647.266 510.143 655.05 487.893 655.05 487.893C655.05 487.893 652.853 487.799 649.463 484.284Z" fill="#FB9390"/>
<path d="M654.486 403.788C654.486 404.667 653.67 405.389 652.665 405.389L624.228 405.451C623.224 405.451 622.219 404.573 621.874 403.506L622.408 403.851C622.408 402.972 623.224 402.25 624.228 402.25L652.665 402.188C653.67 402.188 654.486 402.909 654.486 403.788Z" fill="#2B3E62"/>
<path d="M624.511 404.887C624.668 404.887 624.856 404.887 625.013 404.855C626.488 404.667 627.461 403.726 627.179 402.753L616.318 365.188C616.036 364.215 614.623 363.587 613.148 363.776C611.673 363.964 610.7 364.905 610.982 365.878L621.843 403.443C622.094 404.291 623.255 404.887 624.511 404.887Z" fill="#2B3E62"/>
<path d="M632.891 399.799C634.523 398.983 637.034 398.607 636.971 398.387C636.689 397.508 629.47 402.122 630.317 400.647C630.788 399.831 636.187 395.751 637.599 396.033C638.98 396.284 647.957 397.728 647.957 397.728L671.09 389.38C671.09 389.38 675.515 375.007 674.731 363.176C679.784 363.27 683.3 364.117 687.882 366C687.098 377.486 684.178 396.316 679 400.364C676.802 402.09 648.365 402.184 648.365 402.184C648.365 402.184 642.119 402.467 641.083 402.184C640.267 401.965 638.164 401.086 637.066 400.898C634.555 400.49 630.411 403.094 630.349 402.624C630.286 402.279 631.227 400.615 632.891 399.799Z" fill="#FB9390"/>
<path d="M673.13 350.624C673.444 346.984 673.883 343.343 677.618 341.743C679.91 340.77 682.672 341.115 684.743 342.465C687.223 344.065 688.196 346.952 688.51 349.777C689.232 356.179 689.577 362.832 689.138 369.266C684.555 367.351 678.309 368.387 673.255 368.261C672.094 362.644 672.69 355.363 673.13 350.624Z" fill="#E8605D"/>
<path d="M636.344 396.347C632.389 397.352 632.609 397.289 632.452 397.383C629.658 399.14 629.878 399.894 634.178 398.073C634.272 398.042 634.398 398.011 634.523 398.011L636.564 398.042C637.348 398.042 637.725 397.069 637.129 396.567C636.909 396.347 636.595 396.285 636.344 396.347Z" fill="#FB9390"/>
<path d="M644.065 499.694C644.065 499.694 644.222 502.487 643.281 504.715C642.339 506.943 638.761 507.79 639.608 508.952C640.487 510.113 647.424 508.952 647.424 508.952L655.459 489.337C655.773 488.616 655.585 487.768 654.988 487.235C654.015 486.388 652.258 485.195 649.464 484.348C649.495 484.348 649.935 496.65 644.065 499.694Z" fill="#FA7167"/>
<path d="M510.384 354.233C515.281 352.821 515.406 353.699 516.034 353.511C516.756 353.291 522.688 345.257 522.688 345.257C522.688 345.257 540.328 321.721 541.238 320.434L546.794 289.993L563.492 289.867C563.492 289.867 556.524 322.756 555.834 324.357C555.143 325.989 527.208 354.735 524.823 357.34C524.823 357.34 523.285 361.576 522.249 364.213C521.182 366.849 518.922 368.763 518.514 369.453C518.451 369.548 516.913 371.744 514.214 373.878C511.891 375.699 513.115 372.843 513.115 372.843C513.115 372.843 516.693 368.638 516.285 368.386C515.971 368.198 514.151 370.615 511.608 372.686C510.949 373.219 510.321 373.722 509.694 374.192C508.124 375.448 506.775 374.789 508.187 373.188C508.689 372.623 509.537 371.744 510.227 371.18C510.981 370.583 511.483 369.767 512.016 369.171C513.115 367.979 513.931 367.131 513.868 367.1C513.774 367.068 513.806 366.66 513.084 367.194C512.236 367.853 510.761 369.642 509.411 370.489C508.658 370.96 507.12 372.09 507.12 372.09C507.12 372.09 504.452 373.314 504.295 373.188C503.542 372.466 505.048 371.085 506.21 370.583C506.712 369.861 508.375 368.763 508.375 368.763C508.375 368.763 511.106 365.719 510.635 365.311C510.447 365.123 508.501 366.786 506.335 368.073C504.326 369.297 502.035 370.175 501.69 369.799C501.094 369.171 503.165 367.571 503.165 367.571C503.165 367.571 504.672 366.535 505.174 366.158C505.739 365.719 507.277 364.244 507.277 364.244C507.277 364.244 512.393 358.846 511.891 358.47C511.42 358.093 509.819 357.622 509.38 357.811C508.94 358.03 508.375 358.878 507.936 359.097C507.497 359.317 506.681 359.191 506.304 358.658C505.927 358.124 507.591 356.21 507.591 356.21C507.591 356.21 508.972 354.641 510.384 354.233Z" fill="#EF7F7F"/>
<path d="M538.131 506.973L538.727 517.486C538.947 518.804 539.794 522.099 539.794 523.323C539.794 527.873 519.518 519.463 524.069 517.423C524.477 517.235 526.643 515.854 526.768 514.316C526.988 511.931 527.49 507.098 527.49 507.098L538.131 506.973Z" fill="#FB9390"/>
<path d="M524.132 517.424C524.132 517.424 528.903 518.805 531.32 519.15C533.768 519.495 536.97 516.577 538.696 517.361C540.579 518.24 540.391 526.807 540.391 526.807C540.391 526.807 514.998 528.314 507.811 525.991C505.017 525.081 514.402 520.656 524.132 517.424Z" fill="#2B3E62"/>
<path d="M582.796 507.977L583.392 518.49C583.612 519.808 584.459 523.103 584.459 524.327C584.459 528.877 564.183 520.467 568.734 518.427C569.142 518.239 571.936 515.822 572.061 514.284C572.281 511.899 572.155 508.102 572.155 508.102L582.796 507.977Z" fill="#FB9390"/>
<path d="M568.796 518.428C568.796 518.428 573.567 519.809 575.984 520.154C578.433 520.499 581.634 517.58 583.36 518.365C585.244 519.244 585.338 527.089 585.338 527.089C585.338 527.089 558.187 529.066 551.784 527.215C548.928 526.368 559.066 521.66 568.796 518.428Z" fill="#2B3E62"/>
<path d="M550.686 356.367L542.117 360.07L524.101 446.121L524.822 510.644L539.261 510.989C539.261 510.989 545.978 454.563 545.978 450.17C545.978 445.776 577.114 373.628 577.114 373.628L550.686 356.367Z" fill="#4175DF"/>
<path d="M557.277 361.106C557.277 361.106 563.586 427.418 563.586 438.59C563.586 449.762 568.702 512.339 568.702 512.339L583.172 512.245C583.172 512.245 584.208 493.164 585.777 465.14C586.029 460.746 585.464 451.896 585.777 447.346C588.037 414.645 592.494 383.827 590.36 371.62C590.015 369.643 589.387 364.527 588.132 363.209C578.652 353.386 557.277 361.106 557.277 361.106Z" fill="#4175DF"/>
<path d="M539.638 308.758L557.152 307.597C557.152 307.597 558.031 291.937 558.031 284.468C558.031 275.399 560.793 262.03 559.726 262.281C556.681 262.971 551.471 265.764 549.023 269.154C540.579 280.859 539.638 308.758 539.638 308.758Z" fill="#92B5F9"/>
<path d="M581.132 261.938C581.132 261.938 591.113 263.318 593.75 265.264C596.7 267.429 599.996 272.294 599.996 272.294C599.996 272.294 587.724 330.289 587.692 340.049C587.661 347.612 590.36 366.128 590.36 366.128C590.36 366.128 553.291 368.481 539.229 362.927C539.229 362.927 543.655 340.865 543.655 335.09C543.655 329.316 548.96 276.656 550.152 272.984C551.251 269.658 553.26 263.664 560.04 262.189C566.851 260.714 581.132 261.938 581.132 261.938Z" fill="#BED1F9"/>
<path d="M578.402 246.309L580.882 262.502C580.882 262.502 571.842 281.771 566.443 280.108C561.923 278.696 564.717 261.655 564.717 261.655C564.717 261.655 567.197 252.491 566.443 247.909C565.721 243.327 578.402 246.309 578.402 246.309Z" fill="#FB9390"/>
<path d="M566.443 247.909C565.689 243.327 578.402 246.309 578.402 246.309L578.621 247.658C578.245 248.568 577.805 249.322 577.24 249.918C574.415 252.962 569.958 254.782 566.129 254.908C566.506 252.428 566.757 249.792 566.443 247.909Z" fill="#EF7F7F"/>
<path d="M580.504 223.4C580.85 223.275 583.392 241.853 578.59 246.969C573.819 252.084 564.497 253.747 561.138 249.73C557.434 245.274 557.623 225.315 565.062 220.074C572.5 214.801 580.504 223.4 580.504 223.4Z" fill="#FB9390"/>
<path d="M567.917 210.125C573.661 211.286 577.397 214.769 578.746 216.276C581.351 216.589 584.898 218.002 588.571 224.027C593.059 231.433 589.763 239.624 584.522 243.673C579.28 247.689 579.343 252.366 579.343 252.366L578.526 249.949C577.93 248.129 577.679 246.183 577.867 244.3C577.993 243.139 578.244 241.915 578.715 240.879C579.97 238.181 576.015 236.392 574.885 234.164C574.038 232.438 573.975 228.515 572.626 225.659L571.025 223.494C571.025 223.494 567.29 220.606 563.68 221.422C560.008 222.207 560.541 208.618 567.917 210.125Z" fill="#2B3E62"/>
<path d="M575.105 237.428C575.074 239.687 576.11 241.539 577.428 241.57C578.746 241.602 579.845 239.781 579.876 237.522C579.908 235.262 578.872 233.411 577.553 233.379C576.267 233.348 575.168 235.168 575.105 237.428Z" fill="#FB9390"/>
<path d="M555.646 320.907L555.395 322.288C555.269 323.01 554.61 323.48 553.888 323.355L525.231 318.396C524.509 318.271 524.038 317.612 524.164 316.89L524.415 315.509C524.54 314.787 525.2 314.317 525.922 314.442L554.579 319.401C555.3 319.526 555.771 320.217 555.646 320.907Z" fill="#2B3E62"/>
<path d="M596.292 269.407C592.934 269.312 589.952 291.5 592.086 293.665C594.221 295.862 594.629 323.165 594.629 323.165L562.896 322.38C562.268 321.972 555.645 317.516 554.672 316.543C553.668 315.508 548.834 316.041 547.547 317.453C546.26 318.866 550.403 317.704 551.533 318.489C552.663 319.242 550.686 321.188 550.686 321.188C550.686 321.188 542.651 322.349 541.081 320.686C539.512 319.022 535.337 316.198 534.772 317.861C534.49 318.709 536.624 321.313 537.848 322.412C536.342 321.282 534.521 320.058 533.894 320.278C532.764 320.654 533.234 322.098 533.831 322.537C534.459 322.977 540.83 327.841 541.835 328.186C542.808 328.531 557.654 328.877 560.228 329.441C560.228 329.441 602.068 338.95 604.453 338.386C606.525 337.852 608.628 324.483 608.628 314.221C608.596 303.927 606.807 269.689 596.292 269.407Z" fill="#FB9390"/>
<path d="M591.93 264.355C591.93 264.355 597.768 265.705 603.826 272.484C609.319 278.666 612.771 313.25 612.771 313.25L593.782 316.325L592.275 299.598L587.19 291.941L591.93 264.355Z" fill="#BED1F9"/>
<path d="M269.578 334.622H226.357C221.241 334.622 217.098 330.48 217.098 325.364V312.215C217.098 307.1 221.241 302.957 226.357 302.957H269.578C274.694 302.957 278.837 307.1 278.837 312.215V325.364C278.837 330.48 274.694 334.622 269.578 334.622Z" fill="#BED1F9"/>
<path d="M236.777 330.23L256.332 361.236L248.234 330.23H236.777Z" fill="#BED1F9"/>
</g>
<defs>
<linearGradient id="paint0_linear_3183_3" x1="1010" y1="651" x2="160" y2="309" gradientUnits="userSpaceOnUse">
<stop stop-color="#1E95C8"/>
<stop offset="1" stop-color="#104CBA"/>
</linearGradient>
<clipPath id="clip0_3183_3">
<rect width="584" height="318" fill="white" transform="translate(145 210)"/>
</clipPath>
</defs>
</svg>
