<svg width="408" height="353" viewBox="0 0 408 353" fill="none" xmlns="http://www.w3.org/2000/svg">
<path d="M237.148 302.367C238.027 302.367 238.797 302.257 239.457 302.147C242.755 301.708 245.943 302.257 249.242 302.477C250.891 302.587 252.32 302.367 253.969 302.257C255.179 302.147 256.388 302.257 257.377 301.378C257.927 300.939 258.367 300.06 258.147 299.401C257.817 298.413 256.608 297.974 255.508 297.754C252.87 297.205 250.341 296.656 247.702 296.107C246.603 295.887 244.624 295.447 244.404 294.13C244.294 293.471 244.624 292.482 244.734 291.823C244.844 291.054 244.844 290.176 244.954 289.407C245.064 287.869 245.504 286.441 243.635 286.331C241.656 286.222 239.567 286.112 237.588 286.002C237.368 286.002 237.148 286.002 237.038 286.112C236.708 286.222 236.598 286.661 236.488 286.99C236.158 288.089 235.939 289.187 235.609 290.285C235.169 292.043 234.729 293.69 234.509 295.448C234.289 296.656 234.289 297.974 234.179 299.182C234.069 299.951 233.85 300.719 234.509 301.378C235.059 302.147 236.158 302.367 237.148 302.367Z" fill="#A1B8E3"/>
<path d="M252.21 309.177C252.32 309.727 252.54 310.056 252.98 310.276C253.75 310.715 255.179 310.605 256.058 310.715C257.488 310.935 259.027 311.154 260.456 311.045C261.556 310.935 262.655 310.715 263.754 310.605C266.833 310.495 270.131 311.704 273.21 310.825C274.309 310.495 276.068 309.836 276.398 308.628C276.838 306.981 275.409 305.992 274.089 305.663C272.44 305.224 270.571 305.004 268.812 304.894C268.042 304.894 267.383 304.894 266.723 304.674C264.964 304.235 264.304 302.807 264.634 301.16C265.184 298.963 265.624 296.767 266.173 294.57C262.545 294.021 258.917 294.68 255.289 295.229C255.069 295.229 254.849 295.339 254.629 295.449C254.519 295.558 254.519 295.778 254.409 295.888C253.86 298.304 254.079 300.501 253.31 302.807C252.98 304.125 251.881 307.31 252.21 309.177Z" fill="#A1B8E3"/>
<path d="M151.722 171.887C152.382 171.668 153.151 171.558 153.921 171.338C155.24 171.009 156.12 170.35 157.109 169.361C157.769 168.702 158.319 168.153 159.198 167.823C161.727 166.725 163.046 168.922 162.057 171.118C161.287 172.876 160.188 174.633 158.429 175.402C156.56 176.39 154.691 176.39 152.932 177.708C152.492 178.038 148.094 181.772 148.204 181.992C147.324 181.003 145.565 178.697 145.675 177.269C146.885 176.939 147.764 176.061 148.534 174.962C149.194 173.974 149.853 172.766 150.953 172.107C151.173 172.107 151.392 171.997 151.722 171.887Z" fill="white" stroke="#A1B8E3" stroke-miterlimit="10"/>
<path d="M114.012 228.889H112.033V271.284H114.012V228.889Z" fill="#A1B8E3"/>
<path d="M96.2007 280.182C96.2007 273.921 107.305 271.285 112.802 271.285C119.399 271.285 129.404 273.701 129.404 280.182" stroke="#A1B8E3" stroke-width="2" stroke-miterlimit="10"/>
<path d="M113.022 281.938V271.504" stroke="#A1B8E3" stroke-width="2" stroke-miterlimit="10"/>
<path d="M132.152 281.718C132.152 283.256 130.943 284.464 129.403 284.464C127.864 284.464 126.655 283.256 126.655 281.718C126.655 280.181 127.864 278.973 129.403 278.973C130.943 278.973 132.152 280.291 132.152 281.718Z" fill="#A1B8E3"/>
<path d="M115.661 281.718C115.661 283.256 114.451 284.464 112.912 284.464C111.373 284.464 110.164 283.256 110.164 281.718C110.164 280.181 111.373 278.973 112.912 278.973C114.451 278.973 115.661 280.291 115.661 281.718Z" fill="#A1B8E3"/>
<path d="M99.169 281.718C99.169 283.256 97.9597 284.464 96.4205 284.464C94.8813 284.464 93.6719 283.256 93.6719 281.718C93.6719 280.181 94.8813 278.973 96.4205 278.973C97.9597 278.973 99.169 280.291 99.169 281.718Z" fill="#A1B8E3"/>
<path d="M111.153 214.721V183.529C111.153 178.147 106.755 173.754 101.368 173.754H90.5936C85.2063 173.754 80.8086 178.147 80.8086 183.529V218.456C80.8086 226.144 87.0754 232.514 94.8814 232.514H111.043H130.063C130.943 232.514 131.712 231.745 131.712 230.867C131.712 229.988 130.943 229.219 130.063 229.219H125.666C117.64 229.109 111.153 222.629 111.153 214.721Z" fill="white" stroke="#A1B8E3" stroke-miterlimit="10"/>
<path d="M179.318 273.043C179.537 273.482 179.867 273.921 180.197 274.361C181.187 275.789 183.275 276.997 185.035 276.777C186.904 276.557 188.773 275.898 190.642 275.898C191.301 275.898 192.071 276.118 192.621 276.557C194.82 278.644 189.542 280.621 188.113 281.06C184.815 282.049 181.516 283.037 178.328 284.026C177.668 284.246 177.119 284.355 176.459 284.246C175.14 284.026 174.59 283.147 174.15 282.049C173.71 280.621 173.161 279.193 172.501 277.875C171.621 275.569 170.852 273.262 170.302 270.846C170.192 270.187 169.972 269.418 170.192 268.759C170.522 267.771 171.512 267.002 172.501 267.002C172.941 267.002 173.381 267.112 173.82 267.222C176.899 268.32 177.778 270.407 179.318 273.043Z" fill="white" stroke="#A1B8E3" stroke-miterlimit="10"/>
<path d="M160.628 222.85C160.738 220.653 160.408 218.457 159.638 216.48C158.429 213.294 156.01 210.549 152.712 209.45C150.843 208.791 148.974 208.791 146.995 208.682C138.639 208.352 130.393 208.132 122.037 207.803C114.781 207.583 106.425 213.404 106.645 221.312C106.755 226.255 110.164 231.307 115.441 231.417C115.551 231.417 115.661 231.417 115.771 231.417C123.687 231.417 131.603 231.527 139.409 231.527C144.906 231.527 152.162 233.833 157.219 230.758C157.879 230.318 158.539 229.769 159.088 229.11C159.638 228.341 159.858 227.353 160.078 226.474C160.518 225.376 160.628 224.058 160.628 222.85Z" fill="#104CBA"/>
<path d="M128.194 220.213C135.78 224.387 121.707 231.416 114.451 231.526H101.698C94.3315 231.526 88.6144 227.791 88.3945 220.543V198.576L116.65 198.686C116.65 198.576 119.948 215.71 128.194 220.213Z" fill="#A1B8E3"/>
<path d="M155.79 223.618C149.853 219.664 125.995 213.843 122.697 212.635C116.21 210.109 109.174 209.011 102.247 209.999C96.4203 210.768 90.2635 211.756 88.8342 218.346C87.5149 224.277 91.2529 230.098 97.1899 231.416C97.2998 231.416 97.4098 231.416 97.6297 231.526L152.491 242.4C152.601 242.4 152.711 242.509 152.821 242.509C153.151 242.619 153.371 242.619 153.701 242.619C157.989 243.059 161.507 240.642 162.386 236.249C163.486 231.307 160.847 226.913 155.79 223.618Z" fill="#3C66B4"/>
<path d="M148.424 275.678C148.424 277.326 148.644 278.753 150.183 280.181C152.382 282.268 155.68 282.488 157.989 284.355C158.209 284.574 158.429 284.684 158.539 284.904C158.758 285.343 158.539 286.002 158.099 286.332C156.01 288.309 151.392 286.332 148.974 286.002C146.005 285.453 143.037 284.904 140.068 284.355C139.299 284.245 138.749 283.476 138.859 282.707L140.618 274.25L140.838 273.042C141.277 270.955 143.256 269.637 145.345 270.077C147.104 270.516 148.424 272.163 148.424 274.031C148.424 274.47 148.424 275.129 148.424 275.678Z" fill="white" stroke="#A1B8E3" stroke-miterlimit="10"/>
<path d="M117.859 167.163C117.64 165.955 117.42 164.747 117.2 163.429C118.079 168.811 118.959 174.083 119.728 179.464C120.498 184.517 121.048 189.679 122.587 194.511C123.137 196.159 123.906 199.124 125.775 199.783C128.194 200.662 129.733 200.223 132.042 200.333C133.032 200.333 134.131 200.333 135.121 200.113C137.869 199.344 139.628 196.708 140.838 194.182C142.157 191.326 143.586 189.459 146.115 187.592C147.874 186.274 149.633 184.846 151.282 183.418C151.942 182.869 153.371 181.881 153.701 181.112C154.031 180.233 153.481 179.904 152.821 179.355C150.842 177.378 148.644 175.511 146.775 173.314C144.906 175.071 143.036 176.719 141.167 178.476C139.848 179.684 138.529 180.892 137.209 182.1C136.55 182.65 133.032 185.066 133.142 185.615C132.812 181.441 132.372 177.158 130.943 173.314C130.833 172.875 130.613 172.435 130.503 171.886C130.393 171.227 130.613 170.568 130.723 170.019C131.382 166.724 130.943 163.209 129.513 160.134C127.974 156.949 126.105 155.082 122.807 153.983C120.828 153.324 118.739 152.665 116.65 152.336C116.32 152.336 115.88 152.336 115.771 152.665C115.771 152.775 115.771 152.885 115.771 153.105L117.859 167.163ZM119.399 172.545C119.509 172.545 119.619 172.545 119.728 172.435L119.399 172.545ZM119.069 172.545C119.069 172.545 119.069 172.545 119.179 172.545H119.069Z" fill="white" stroke="#A1B8E3" stroke-miterlimit="10"/>
<path d="M180.087 270.846C175.25 260.851 171.842 250.417 168.103 239.873C166.344 234.821 164.475 229.768 161.177 225.485C159.638 223.508 158.209 221.97 155.79 221.421C153.481 220.982 151.172 221.202 148.863 221.751C147.654 222.08 146.445 222.739 145.235 222.959C143.586 223.288 140.947 222.959 140.288 225.046C139.958 226.034 140.178 227.023 140.398 228.011C140.728 229.549 141.277 231.196 141.937 232.624C142.707 234.601 143.806 236.358 144.466 238.445C145.015 239.983 145.345 241.52 145.895 243.058C146.884 245.474 148.534 247.451 150.623 248.989C151.942 249.868 153.371 250.637 154.251 251.954C154.91 252.943 154.91 253.822 155.35 254.92C156.34 257.556 157.549 260.412 159.968 261.949C160.627 262.389 161.287 262.608 161.837 263.267C162.167 263.707 162.386 264.146 162.496 264.585C163.046 266.013 163.596 267.551 164.585 268.759C165.465 269.857 166.564 270.736 167.444 271.724C168.323 272.823 168.543 274.141 169.203 275.459C169.313 275.788 180.197 271.065 180.087 270.846Z" fill="#3C66B4"/>
<path d="M107.525 152.447C106.096 152.557 104.666 152.777 103.237 152.887C98.7293 153.326 93.8918 153.985 90.2637 156.841C86.0858 160.245 83.4472 166.286 84.3267 171.668C84.8764 174.633 85.756 177.489 86.0858 180.454C87.1852 190.449 87.9549 200.334 88.3946 210.329C93.2321 210.109 98.0696 210.109 102.907 209.78C108.844 209.45 115.551 209.23 121.158 207.034C121.817 198.796 124.016 190.669 123.906 182.431C123.796 178.368 123.796 174.304 123.686 170.35" fill="white"/>
<path d="M107.525 152.447C106.096 152.557 104.666 152.777 103.237 152.887C98.7293 153.326 93.8918 153.985 90.2637 156.841C86.0858 160.245 83.4472 166.286 84.3267 171.668C84.8764 174.633 85.756 177.489 86.0858 180.454C87.1852 190.449 87.9549 200.334 88.3946 210.329C93.2321 210.109 98.0696 210.109 102.907 209.78C108.844 209.45 115.551 209.23 121.158 207.034C121.817 198.796 124.016 190.669 123.906 182.431C123.796 178.368 123.796 174.304 123.686 170.35" stroke="#A1B8E3" stroke-miterlimit="10"/>
<path d="M159.418 249.1C159.528 248.88 159.638 248.661 159.748 248.331C159.968 247.892 160.078 247.343 160.298 246.793C161.837 240.862 163.926 234.492 163.266 228.122C162.716 222.521 162.716 215.491 157.329 212.087C152.821 209.231 146.555 207.474 142.707 212.087C141.937 213.075 141.277 214.283 140.948 215.491C138.529 224.168 142.597 231.637 141.387 239.654C141.057 241.741 140.838 243.718 141.277 245.805C141.387 246.464 141.607 247.123 141.717 247.782C141.937 249.429 141.387 251.077 140.948 252.724C140.508 254.482 140.068 256.239 140.178 257.996C140.288 259.863 140.838 261.621 140.838 263.488C140.838 264.806 140.618 266.124 140.288 267.442C139.958 269.089 138.309 272.604 140.508 273.263C141.827 273.702 143.476 273.592 144.796 273.922C145.235 274.032 148.644 274.91 150.403 275.46C150.952 275.679 151.392 275.24 151.502 274.801C151.832 272.384 152.931 269.858 153.591 267.552C154.471 264.586 155.24 261.511 155.9 258.545C156.23 257.118 156.559 255.58 156.999 254.262C157.659 252.505 158.648 250.747 159.418 249.1Z" fill="#104CBA"/>
<path d="M118.629 140.914L116.87 130.59L110.163 132.127C105.986 133.116 103.347 137.29 104.336 141.573L104.886 144.099C105.106 145.088 105.546 146.076 106.205 146.845L104.886 153.105C104.227 156.071 106.096 158.926 109.064 159.476C112.032 160.025 114.891 157.938 115.221 154.973L116.32 147.833C118.299 146.186 119.289 143.55 118.629 140.914Z" fill="white" stroke="#A1B8E3" stroke-miterlimit="10"/>
<path d="M120.498 195.61C123.686 196.269 125.885 197.587 128.634 199.015C131.053 200.333 131.492 202.639 128.304 203.188C126.545 203.518 124.786 203.847 123.027 203.408C121.268 202.969 120.718 201.98 119.509 200.772C118.519 199.783 116.87 200.223 115.441 199.674C114.891 199.454 114.341 199.015 114.121 198.465C113.901 197.916 114.121 197.257 114.341 196.708C114.561 196.159 114.781 195.72 115.111 195.39C115.88 194.621 117.09 194.731 118.079 194.951C118.959 195.28 119.728 195.39 120.498 195.61Z" fill="white" stroke="#A1B8E3" stroke-miterlimit="10"/>
<path d="M117.31 132.347C116.21 133.226 114.891 133.775 113.462 133.995C112.142 134.215 110.823 134.215 109.614 134.544C106.315 135.642 106.755 139.267 107.085 142.013C107.195 143.001 106.315 146.296 104.886 145.747C104.006 145.747 103.897 144.429 103.677 143.88C103.237 142.781 102.797 141.683 102.357 140.585C102.028 139.816 101.808 139.047 101.808 138.169C101.918 136.96 102.797 135.972 103.017 134.764C103.237 133.885 103.017 132.897 103.237 132.018C103.457 130.81 104.226 129.711 105.326 129.052C106.865 128.064 108.734 128.393 110.273 127.625C111.153 127.185 111.812 126.307 112.582 125.758C113.791 124.879 115.331 124.549 116.76 124.769C117.969 124.989 119.179 125.758 119.618 126.966C120.058 128.064 119.728 129.272 119.179 130.261C118.629 131.029 118.079 131.798 117.31 132.347Z" fill="#3C66B4"/>
<path d="M108.514 140.805C108.844 142.013 108.075 143.221 106.865 143.441C105.656 143.77 104.446 143.001 104.227 141.793C103.897 140.585 104.666 139.377 105.876 139.157C107.085 138.937 108.294 139.596 108.514 140.805Z" fill="white"/>
<path d="M84.4366 166.945C83.8869 171.448 83.7769 175.952 83.557 180.455C83.2272 185.397 83.4471 190.34 84.8764 195.172C85.3161 196.71 85.8659 198.138 86.8553 199.346C90.4835 203.629 99.6088 201.872 104.666 201.872C108.844 201.872 112.912 201.872 117.09 201.872C117.2 201.652 117.2 201.433 117.31 201.323C117.639 199.675 118.739 195.611 119.069 193.964C116.43 193.744 113.791 193.525 111.263 193.305C108.954 193.085 106.755 192.975 104.446 192.756C102.577 192.646 99.8287 192.975 99.6088 190.669C99.4988 189.79 99.6088 188.912 99.279 188.143C98.7292 186.935 97.4099 186.386 97.0801 185.068C96.8602 184.189 97.3 182.981 97.3 182.102C97.4099 180.674 98.0696 179.466 98.6193 178.148C99.6088 175.952 100.268 173.645 100.708 171.339C100.598 171.339 100.488 171.339 100.268 171.339" fill="white"/>
<path d="M84.4366 166.945C83.8869 171.448 83.7769 175.952 83.557 180.455C83.2272 185.397 83.4471 190.34 84.8764 195.172C85.3161 196.71 85.8659 198.138 86.8553 199.346C90.4835 203.629 99.6088 201.872 104.666 201.872C108.844 201.872 112.912 201.872 117.09 201.872C117.2 201.652 117.2 201.433 117.31 201.323C117.639 199.675 118.739 195.611 119.069 193.964C116.43 193.744 113.791 193.525 111.263 193.305C108.954 193.085 106.755 192.975 104.446 192.756C102.577 192.646 99.8287 192.975 99.6088 190.669C99.4988 189.79 99.6088 188.912 99.279 188.143C98.7292 186.935 97.4099 186.386 97.0801 185.068C96.8602 184.189 97.3 182.981 97.3 182.102C97.4099 180.674 98.0696 179.466 98.6193 178.148C99.6088 175.952 100.268 173.645 100.708 171.339C100.598 171.339 100.488 171.339 100.268 171.339" stroke="#A1B8E3" stroke-miterlimit="10"/>
<path d="M174.261 201.433H126.325C126.325 200.554 127.095 199.785 127.974 199.785H174.261V201.433Z" fill="#104CBA"/>
<path d="M182.396 199.785H134.461L143.037 174.524C143.366 173.645 144.246 173.096 145.235 173.096H188.443C189.982 173.096 191.082 174.414 190.642 175.842L182.396 199.785Z" fill="#104CBA"/>
<path d="M181.627 201.432H134.351V199.785L182.506 197.588V200.663C182.396 201.103 182.067 201.432 181.627 201.432Z" fill="#104CBA"/>
<path d="M163.156 187.044C162.167 187.044 161.287 186.275 161.947 185.177C162.167 184.738 162.717 184.518 163.266 184.408C163.266 184.408 163.266 184.408 163.376 184.408H163.486C165.025 184.848 164.915 187.044 163.156 187.044Z" fill="#E7EDF8"/>
<path d="M133.362 185.287C133.252 185.617 133.032 185.946 132.812 186.276C132.592 186.605 132.372 186.935 132.152 187.264C132.042 187.484 131.822 187.703 131.712 187.923" fill="white"/>
<path d="M133.362 185.287C133.252 185.617 133.032 185.946 132.812 186.276C132.592 186.605 132.372 186.935 132.152 187.264C132.042 187.484 131.822 187.703 131.712 187.923" stroke="#A1B8E3" stroke-miterlimit="10"/>
<path d="M111.153 147.615C112.582 149.482 114.561 150.8 115.88 152.777C115.99 151.569 116.21 150.361 116.32 149.043C116.43 148.384 116.65 147.725 116.76 147.176C114.781 147.615 113.132 148.164 111.153 147.615Z" fill="#A1B8E3"/>
<path d="M113.462 143C113.572 143.659 114.012 144.208 114.671 144.318C115.331 144.428 115.991 144.208 116.43 143.769C116.87 143.33 117.09 142.671 116.98 142.012C116.98 142.012 116.87 142.012 116.87 142.122" fill="#A1B8E3"/>
<path d="M106.645 140.475C106.315 140.365 105.875 140.475 105.656 140.804C105.436 141.134 105.326 141.573 105.546 141.793C105.766 142.122 106.095 142.342 106.535 142.232" fill="#A1B8E3"/>
<path d="M140.728 245.914C140.508 243.608 140.728 241.411 141.388 239.215C141.827 237.567 142.377 236.139 142.047 234.492C141.717 232.844 141.388 231.526 142.047 229.879" stroke="white" stroke-miterlimit="10"/>
<path d="M161.837 214.062C165.685 223.838 162.387 234.711 159.638 244.815C157.879 251.405 156.34 258.105 155.13 264.805" stroke="white" stroke-miterlimit="10"/>
<path d="M88.9445 196.488C88.8346 196.928 88.9445 197.367 89.1644 197.696C89.2743 197.916 89.3843 198.026 89.6042 198.136C90.0439 198.355 90.5936 198.355 91.1434 198.246" fill="#A1B8E3"/>
<path d="M113.572 175.731L113.681 175.621L113.572 175.731Z" fill="#A1B8E3"/>
<path d="M214.609 68.9748C218.253 68.9748 221.206 66.0244 221.206 62.3848C221.206 58.7453 218.253 55.7949 214.609 55.7949C210.966 55.7949 208.013 58.7453 208.013 62.3848C208.013 66.0244 210.966 68.9748 214.609 68.9748Z" fill="#A1B8E3"/>
<path d="M347.641 68.9748C351.284 68.9748 354.238 66.0244 354.238 62.3848C354.238 58.7453 351.284 55.7949 347.641 55.7949C343.998 55.7949 341.044 58.7453 341.044 62.3848C341.044 66.0244 343.998 68.9748 347.641 68.9748Z" fill="#A1B8E3"/>
<path d="M81.578 68.9748C85.2213 68.9748 88.1747 66.0244 88.1747 62.3848C88.1747 58.7453 85.2213 55.7949 81.578 55.7949C77.9348 55.7949 74.9814 58.7453 74.9814 62.3848C74.9814 66.0244 77.9348 68.9748 81.578 68.9748Z" fill="#A1B8E3"/>
<path d="M105.106 59.9689V59.7492C105.106 46.8989 94.6611 36.4648 81.7978 36.4648C68.9344 36.4648 58.4897 46.8989 58.4897 59.7492V59.9689H105.106Z" fill="#104CBA"/>
<path d="M370.839 59.9689V59.7492C370.839 46.8989 360.395 36.4648 347.531 36.4648C334.668 36.4648 324.223 46.8989 324.223 59.7492V59.9689H370.839Z" fill="#104CBA"/>
<path d="M347.971 0V36.3544" stroke="#A1B8E3" stroke-width="2" stroke-miterlimit="10"/>
<path d="M237.807 59.9689V59.7492C237.807 46.8989 227.363 36.4648 214.499 36.4648C201.636 36.4648 191.191 46.8989 191.191 59.7492V59.9689H237.807Z" fill="#104CBA"/>
<path d="M214.939 0V36.3544" stroke="#A1B8E3" stroke-width="2" stroke-miterlimit="10"/>
<path d="M82.7871 0V36.3544" stroke="#A1B8E3" stroke-width="2" stroke-miterlimit="10"/>
<path d="M315.098 186.385C315.098 187.484 315.208 188.033 314.218 188.362C313.229 188.802 311.69 188.692 310.59 188.911C308.281 189.351 305.973 190.01 303.884 191.328C300.475 193.524 296.298 193.964 292.669 196.27C292.12 196.6 291.46 197.039 290.8 197.259C289.921 197.478 289.041 197.368 288.162 197.368C285.633 197.259 282.884 197.918 281.015 199.785C280.356 200.444 279.916 201.322 280.356 202.201C280.576 202.64 281.015 202.86 281.455 203.08C284.534 204.508 287.832 203.519 290.91 202.421C293.439 201.432 296.627 201.213 299.266 200.993C303.774 200.663 308.391 200.883 312.789 200.004C315.208 199.455 317.627 198.906 319.825 197.808C321.804 196.819 324.333 195.831 325.323 193.634C325.542 193.195 325.652 192.755 325.762 192.316C326.642 189.021 327.412 185.726 328.291 182.431C328.951 179.905 328.841 177.269 328.731 174.743C328.621 172.546 328.291 170.35 327.631 168.373C327.082 166.835 326.642 164.858 325.762 163.54C324.883 162.222 323.344 161.234 321.694 161.124C318.396 160.794 315.318 162.881 315.538 166.396C315.758 170.569 314.438 174.743 315.318 178.917C315.428 179.466 315.538 179.905 315.538 180.454C315.538 181.003 315.428 181.443 315.318 181.992C315.098 183.09 315.098 184.738 315.098 186.385Z" fill="white" stroke="#A1B8E3" stroke-miterlimit="10"/>
<path d="M304.433 261.731C305.752 263.708 306.742 265.575 306.302 268.211C305.752 272.055 302.674 274.581 301.795 278.316C301.685 278.645 301.685 278.975 301.795 279.414C302.014 280.073 302.674 280.622 303.334 280.842C306.962 281.83 310.15 276.449 312.239 274.362C314.768 271.726 317.406 269.2 319.935 266.564C320.595 265.905 320.485 264.587 319.715 263.818L311.14 254.812L309.82 253.494C307.731 251.297 304.543 251.077 302.784 252.945C301.245 254.592 301.355 257.448 302.894 259.644C303.444 260.413 303.993 261.072 304.433 261.731Z" fill="#A1B8E3"/>
<path d="M333.234 268.205H335.213V225.81H333.234V268.205Z" fill="#A1B8E3"/>
<path d="M351.159 277.107C351.159 270.847 340.055 268.211 334.557 268.211C327.961 268.211 317.956 270.627 317.956 277.107" stroke="#A1B8E3" stroke-width="2" stroke-miterlimit="10"/>
<path d="M334.338 278.754V268.32" stroke="#A1B8E3" stroke-width="2" stroke-miterlimit="10"/>
<path d="M315.098 278.535C315.098 280.073 316.307 281.281 317.846 281.281C319.385 281.281 320.595 280.073 320.595 278.535C320.595 276.997 319.385 275.789 317.846 275.789C316.307 275.899 315.098 277.107 315.098 278.535Z" fill="#A1B8E3"/>
<path d="M331.589 278.535C331.589 280.073 332.799 281.281 334.338 281.281C335.877 281.281 337.087 280.073 337.087 278.535C337.087 276.997 335.877 275.789 334.338 275.789C332.799 275.899 331.589 277.107 331.589 278.535Z" fill="#A1B8E3"/>
<path d="M348.081 278.535C348.081 280.073 349.29 281.281 350.829 281.281C352.368 281.281 353.578 280.073 353.578 278.535C353.578 276.997 352.368 275.789 350.829 275.789C349.29 275.899 348.081 277.107 348.081 278.535Z" fill="#A1B8E3"/>
<path d="M336.097 211.538V180.345C336.097 174.964 340.495 170.57 345.882 170.57H356.656C362.044 170.57 366.441 174.964 366.441 180.345V215.272C366.441 222.96 360.175 229.33 352.369 229.33H336.207H317.187C316.307 229.33 315.538 228.562 315.538 227.683C315.538 226.804 316.307 226.035 317.187 226.035H321.584C329.72 225.926 336.097 219.446 336.097 211.538Z" fill="white" stroke="#A1B8E3" stroke-miterlimit="10"/>
<path d="M301.465 271.614C301.025 273.921 300.475 275.898 298.386 277.545C295.308 279.962 291.35 279.632 288.162 281.719C287.832 281.939 287.612 282.158 287.392 282.488C287.062 283.147 287.172 284.025 287.502 284.575C289.481 287.76 295.418 286.112 298.386 286.112C302.015 286.002 305.753 286.002 309.381 285.893C310.37 285.893 311.14 284.904 311.14 283.806V271.395V269.528C311.14 266.452 309.051 264.146 306.522 264.256C304.323 264.366 302.454 266.452 302.015 269.198C301.795 270.077 301.685 270.846 301.465 271.614Z" fill="#A1B8E3"/>
<path d="M329.28 158.488L329.061 159.147L329.28 158.488Z" fill="#6188CE"/>
<path d="M322.025 192.975C322.025 193.085 321.915 193.195 321.915 193.414L322.025 192.975C322.025 192.865 322.025 192.865 322.025 192.975Z" fill="#6188CE"/>
<path d="M314.658 166.286L315.758 156.73L314.658 166.286Z" fill="#6188CE"/>
<path d="M316.197 156.841C317.077 154.315 318.506 151.898 320.925 150.69C321.695 150.361 322.464 150.031 323.234 149.812C325.213 149.153 327.302 148.494 329.391 148.164C329.72 148.164 330.16 148.164 330.27 148.494C330.27 148.603 330.27 148.713 330.27 148.933C330.16 149.482 330.49 149.921 330.38 150.471C330.27 151.13 330.05 151.898 329.83 152.557C329.501 153.985 329.061 155.413 329.281 156.951C329.501 159.147 328.291 161.014 328.291 163.101C328.181 163.431 327.192 168.373 327.192 168.373L314.658 166.286C315.098 163.101 315.098 159.806 316.197 156.841Z" fill="#A1B8E3"/>
<path d="M285.083 218.566C284.973 217.358 285.083 216.04 285.523 214.503C286.402 211.757 289.151 209.89 291.9 209.011C294.758 208.242 297.727 208.242 300.585 208.132C306.412 207.913 312.239 206.046 318.066 206.375C319.605 206.485 321.035 206.814 322.574 206.814C326.532 206.705 329.83 203.3 333.788 203.08C335.107 202.97 336.427 203.3 337.636 203.629C339.615 204.288 341.704 205.277 343.023 206.814C345.772 210 345.552 214.832 343.903 218.676C343.243 220.214 342.474 221.752 341.264 222.96C339.615 224.717 337.416 225.706 335.217 226.365C332.689 227.243 330.6 227.133 327.851 227.133C321.914 227.133 315.977 227.024 310.04 227.024C305.643 227.024 301.355 227.573 296.957 227.243C291.68 226.694 285.633 223.948 285.083 218.566Z" fill="#3C66B4"/>
<path d="M289.371 210.439C291.57 208.791 294.099 208.022 297.067 209.121C298.606 209.67 299.926 210.658 300.915 211.866C306.192 217.907 307.292 227.902 308.831 235.48C309.711 239.874 310.59 244.267 311.25 248.77C311.47 250.088 313.669 261.401 312.899 261.73C312.129 262.06 299.926 263.268 300.036 263.487C297.727 257.337 294.868 251.296 292.999 245.036C291.9 241.521 290.141 238.226 288.711 234.821C287.062 230.867 285.523 226.474 284.753 222.191C283.984 217.358 285.523 213.294 289.371 210.439Z" fill="#3C66B4"/>
<path d="M322.244 219.225C322.134 219.445 321.914 219.665 321.804 219.774C318.066 225.705 328.071 227.133 331.699 227.133H344.452C351.819 227.133 357.536 223.399 357.756 216.15V194.184C352.478 194.184 347.311 194.184 342.034 194.184C338.845 194.184 335.437 193.744 332.249 194.184C330.05 194.513 330.27 193.964 329.39 196.161C328.181 198.906 328.841 203.3 328.291 206.265C327.631 210.109 326.422 213.843 324.003 216.919C323.453 217.907 322.794 218.566 322.244 219.225Z" fill="#104CBA"/>
<path d="M310.81 237.567C310.04 237.238 308.941 235.81 308.061 236.03C307.182 236.249 306.522 237.787 306.192 238.446C305.203 240.313 304.653 242.4 303.334 244.047C303.224 244.157 303.114 244.377 302.894 244.377C302.454 244.487 302.015 244.267 301.685 243.938C299.046 241.521 298.826 236.799 298.606 233.504C298.277 228.012 301.135 222.411 305.863 219.445C307.402 218.457 309.161 217.798 310.81 217.029C316.197 214.612 321.475 211.757 326.422 208.462C328.621 207.034 330.6 206.046 333.019 205.167C337.087 203.629 341.484 203.08 345.772 203.849C351.049 204.728 356.217 205.716 357.866 213.185C359.185 219.006 356.876 224.278 353.028 225.705C352.918 225.705 352.808 225.705 352.808 225.815L316.637 237.897C316.527 237.897 316.527 238.007 316.417 238.007C316.197 238.116 315.977 238.116 315.867 238.226C314.108 238.556 312.349 238.226 310.81 237.567Z" fill="#104CBA"/>
<path d="M322.794 152.997C323.124 152.118 323.563 151.35 324.223 150.8C327.521 147.725 332.799 147.835 337.086 147.725C339.835 147.615 342.694 147.725 345.332 148.164C348.301 148.604 350.5 149.812 353.028 151.02C354.458 151.789 355.997 152.448 357.206 153.656C359.955 156.292 360.504 160.356 360.614 164.09C360.724 167.824 357.426 206.266 357.646 206.266C352.808 206.046 347.971 206.046 343.133 205.716C340.605 205.607 338.186 205.497 335.767 205.277C334.448 205.167 333.019 205.277 331.699 205.167C330.16 204.948 330.38 204.398 329.28 203.739C328.731 203.41 328.291 203.63 327.961 203.19C327.631 202.861 327.851 201.433 327.741 200.994C327.631 199.346 327.631 197.809 327.411 196.161C327.192 194.404 326.752 192.646 326.642 190.779C326.312 186.276 326.092 181.663 325.103 177.16C324.223 173.206 322.794 169.252 321.914 165.298C321.365 162.552 321.145 159.587 321.694 156.841C322.024 155.523 322.354 154.205 322.794 152.997Z" fill="#A1B8E3"/>
<path d="M340.495 141.575C341.044 140.806 340.934 140.916 341.154 139.927L343.573 129.713L329.281 126.418L327.521 136.742C326.862 139.378 327.851 141.904 329.72 143.552L330.82 150.691C331.259 153.656 334.008 155.743 336.977 155.194C339.945 154.645 341.924 151.789 341.154 148.824L340.495 141.575Z" fill="white" stroke="#A1B8E3" stroke-miterlimit="10"/>
<path d="M330.6 145.417C332.249 145.307 334.118 144.648 334.558 142.891C334.558 143.001 334.228 143.111 334.118 143.111C333.238 143.44 332.359 143.44 331.479 143.33C330.93 143.33 330.27 143.221 329.83 142.891L329.72 142.781C329.72 142.781 329.61 142.781 329.61 142.891C329.5 143.111 329.5 143.55 329.72 143.77C329.94 143.989 330.05 144.099 330.16 144.319C330.27 144.539 330.27 144.868 330.27 145.088C330.16 145.198 330.38 145.307 330.6 145.417Z" fill="#A1B8E3"/>
<path d="M328.511 128.615C329.501 128.944 330.6 129.164 331.59 129.493C333.019 129.823 334.558 130.152 335.987 130.592C339.835 131.69 338.956 135.534 339.066 138.829C339.066 139.708 339.176 140.806 339.835 141.245C341.924 142.673 342.364 138.28 342.914 137.291C343.244 136.742 343.573 136.303 343.793 135.754C344.233 134.546 343.793 133.228 344.013 132.019C344.123 131.47 344.233 130.921 344.343 130.372C344.563 127.956 342.364 125.869 340.385 124.88C338.846 124.112 337.197 123.013 336.207 121.585C336.097 121.366 335.877 121.036 335.657 120.926C335.438 120.817 335.328 120.707 335.108 120.597C333.898 120.158 332.579 120.377 331.59 121.146C331.26 121.366 331.04 121.695 330.71 121.805C330.16 122.025 329.501 121.915 328.951 121.805C328.071 121.695 327.192 122.025 326.532 122.574C325.873 123.123 325.543 124.112 325.982 124.88C326.202 125.32 326.642 125.759 326.862 126.198C327.412 127.297 327.082 128.175 328.291 128.505C328.291 128.505 328.401 128.615 328.511 128.615Z" fill="#3C66B4"/>
<path d="M337.526 137.29C337.307 138.059 337.856 138.937 338.626 139.157C339.395 139.377 340.275 138.827 340.495 138.059C340.715 137.29 340.165 136.411 339.395 136.191C338.516 135.972 337.746 136.521 337.526 137.29Z" fill="white"/>
<path d="M303.554 222.739C302.234 224.826 301.355 227.242 300.805 229.658C299.816 233.502 298.936 237.346 299.486 241.3C299.706 242.399 299.926 243.607 300.036 244.705C300.146 246.792 299.486 248.769 299.486 250.856C299.486 252.284 299.816 253.711 300.146 255.139C300.915 258.764 301.135 262.168 300.915 265.793C300.915 267.001 300.805 268.099 300.805 269.308C300.805 270.296 300.915 271.614 300.475 272.383C301.905 272.602 303.224 272.712 304.653 272.932C307.292 273.261 309.821 273.591 312.459 273.811C313.229 273.92 314.988 274.25 315.648 273.811C316.197 273.371 316.307 271.944 316.417 271.394C317.627 266.562 318.616 261.619 317.627 256.677C317.407 255.798 317.187 254.92 317.077 254.041C316.967 252.943 317.077 251.734 317.187 250.636C317.846 246.023 318.946 241.52 319.496 236.797C320.155 231.965 320.595 227.022 320.925 222.08C321.585 213.403 309.711 216.259 305.643 219.883C304.983 220.762 304.213 221.64 303.554 222.739Z" fill="#104CBA"/>
<path d="M267.601 114.885C267.492 114.885 267.382 114.885 267.272 114.885C267.272 114.994 267.601 114.885 267.601 114.885Z" fill="#A1B8E3"/>
<path d="M344.013 157.828C342.474 159.256 340.055 160.464 338.296 161.563C336.757 160.135 334.888 159.146 332.909 158.487C331.809 158.158 330.6 157.938 329.501 157.609C324.553 155.741 320.705 152.007 315.538 150.36C313.009 149.481 310.15 148.932 308.391 146.845C306.193 144.319 305.863 140.585 304.214 137.729C303.554 136.631 302.564 135.642 301.355 136.85C300.366 137.839 300.695 139.596 300.915 140.804C301.245 142.562 301.575 144.429 302.015 146.186C302.564 148.822 302.894 149.701 305.203 151.019C307.512 152.337 309.931 153.874 311.69 155.851C312.899 157.169 313.889 158.597 314.988 159.915C318.946 164.528 324.883 167.054 329.281 171.228C331.37 173.205 333.678 175.951 336.977 175.072C338.076 174.742 350.39 171.557 349.95 170.788C348.411 168.153 347.311 165.626 346.212 162.771C345.552 161.123 344.673 159.586 344.013 157.828Z" fill="white" stroke="#A1B8E3" stroke-miterlimit="10"/>
<path d="M357.536 165.297C355.777 168.043 353.029 170.239 349.95 171.228L357.536 165.297Z" fill="#A1B8E3"/>
<path d="M357.536 165.297C355.777 168.043 353.029 170.239 349.95 171.228" stroke="white" stroke-miterlimit="10"/>
<path d="M259.357 122.133V122.242V122.133Z" fill="white"/>
<path d="M259.357 122.133V122.242" stroke="#A1B8E3" stroke-miterlimit="10"/>
<path d="M310.7 191.327H256.828C255.949 191.327 255.069 190.668 254.849 189.789L248.143 158.817C247.923 157.609 248.802 156.4 250.122 156.4H303.994C304.873 156.4 305.753 157.059 305.973 157.938L312.679 188.911C312.899 190.119 312.02 191.327 310.7 191.327Z" fill="#A1B8E3"/>
<path d="M281.236 200.113L282.335 187.372C282.445 186.164 281.456 185.176 280.246 185.176C279.147 185.176 278.267 185.945 278.157 187.043L277.058 200.113H269.362V201.431H289.262V200.113H281.236Z" fill="#A1B8E3"/>
<path d="M272.11 163.539C272 162.221 269.911 162.221 270.021 163.539C270.131 164.967 270.351 166.395 270.461 167.823C270.571 169.141 272.66 169.141 272.55 167.823C272.44 166.285 272.22 164.857 272.11 163.539Z" fill="white"/>
<path d="M276.288 163.539C276.178 162.221 274.089 162.221 274.199 163.539C274.309 164.967 274.529 166.395 274.639 167.823C274.749 169.141 276.838 169.141 276.728 167.823C276.618 166.285 276.398 164.857 276.288 163.539Z" fill="white"/>
<path d="M280.356 163.539C280.246 162.221 278.157 162.221 278.267 163.539C278.377 164.967 278.597 166.395 278.707 167.823C278.817 169.141 280.906 169.141 280.796 167.823C280.686 166.285 280.576 164.857 280.356 163.539Z" fill="white"/>
<path d="M284.534 163.539C284.424 162.221 282.335 162.221 282.445 163.539C282.555 164.967 282.775 166.395 282.885 167.823C282.995 169.141 285.084 169.141 284.974 167.823C284.864 166.285 284.754 164.857 284.534 163.539Z" fill="white"/>
<path d="M288.712 163.539C288.602 162.221 286.513 162.221 286.623 163.539C286.733 164.967 286.953 166.395 287.063 167.823C287.173 169.141 289.261 169.141 289.152 167.823C289.042 166.285 288.822 164.857 288.712 163.539Z" fill="white"/>
<path d="M323.454 191.658C323.564 192.647 323.564 193.745 322.904 194.294C322.464 194.624 321.914 194.733 321.365 194.843" fill="#A1B8E3"/>
<path d="M333.898 171.338C334.008 171.997 334.558 172.656 335.328 172.766C335.987 172.876 336.757 172.656 337.197 171.997" fill="#A1B8E3"/>
<path d="M205.045 127.954C205.375 127.844 205.594 127.624 205.704 127.295C205.814 127.295 204.935 127.954 205.045 127.954Z" fill="#A1B8E3"/>
<path d="M388.43 201.322H52.9927V205.057H388.43V201.322Z" fill="#A1B8E3"/>
<path d="M384.912 289.298H382.383L361.494 202.092H364.133L384.912 289.298Z" fill="#A1B8E3"/>
<path d="M361.824 289.298H359.295L338.406 202.092H340.934L361.824 289.298Z" fill="#A1B8E3"/>
<path d="M57.3906 289.298H60.0293L80.8086 202.092H78.2799L57.3906 289.298Z" fill="#A1B8E3"/>
<path d="M80.4785 289.298H83.1172L103.896 202.092H101.368L80.4785 289.298Z" fill="#A1B8E3"/>
<path d="M257.817 238.335C256.718 233.063 247.153 233.393 242.755 232.734C236.928 231.745 230.991 230.757 225.164 229.658C223.845 229.439 222.416 229.219 221.206 229.988C220.547 230.427 220.107 231.086 219.667 231.635C217.908 234.161 216.479 236.907 215.929 239.763C215.489 242.618 216.149 245.804 218.348 247.671C220.327 249.318 223.075 249.758 225.714 250.087C227.363 250.307 228.902 250.636 230.441 250.966C231.321 251.076 232.31 250.966 233.08 251.515C235.389 253.052 234.729 256.787 234.18 259.093C233.63 261.4 232.86 263.706 233.41 265.903C233.52 266.452 233.85 267.001 233.96 267.66C234.07 268.429 233.96 269.198 233.85 269.967C233.08 274.03 231.651 278.424 233.3 282.268C233.52 282.707 233.74 283.146 233.85 283.696C233.96 284.135 233.85 284.574 233.85 284.904C233.52 287.65 233.19 290.395 232.86 293.141C232.86 293.141 242.315 293.58 242.975 293.58C244.074 293.58 246.493 294.02 247.483 293.361C249.022 292.482 249.352 287.869 249.572 286.222C249.901 283.805 250.121 281.389 250.561 279.083C251.441 274.799 253.2 270.735 253.969 266.452C254.409 264.365 254.189 262.059 254.629 259.972C254.959 258.215 255.399 256.457 255.728 254.59C256.498 250.197 257.158 245.913 257.927 241.52C258.147 240.532 258.257 239.543 258.147 238.555C257.927 238.445 257.817 238.335 257.817 238.335Z" fill="#3C66B4"/>
<path d="M256.058 262.828C255.728 263.597 255.509 264.256 255.179 265.025C254.519 266.892 253.749 268.759 253.639 270.626C253.53 272.603 254.079 274.47 254.079 276.447C254.189 279.742 252.43 282.598 252.43 285.893C252.43 287.101 252.76 288.309 252.87 289.517C252.98 290.725 252.76 291.933 252.65 293.141C252.43 295.118 252.1 297.095 251.88 298.963C251.66 300.61 251.111 301.599 252.98 301.818C257.817 302.258 262.545 301.599 267.382 301.269C267.602 301.269 267.822 301.269 267.932 301.049C268.042 300.94 268.042 300.83 268.152 300.61C269.911 293.8 271.56 287.32 272.44 280.291C272.55 279.632 272.55 279.083 272.88 278.424C273.209 277.655 273.869 277.106 274.309 276.557C275.518 275.019 275.628 273.372 276.068 271.614C276.618 269.857 277.167 268.21 277.607 266.452C278.487 262.169 279.476 257.885 280.356 253.712C281.125 250.197 282.005 247.012 280.136 243.607C279.476 242.509 278.597 241.63 277.607 240.861C269.141 234.052 258.367 229.988 247.483 229.659C243.415 229.549 238.247 229.219 236.818 225.485C236.268 224.057 236.378 222.41 236.158 220.982C235.499 216.589 228.572 215.49 225.054 216.698C220.217 218.236 218.677 224.277 218.128 229.329C217.688 233.503 217.358 237.676 218.568 241.74C220.327 247.671 225.274 252.284 230.991 254.81C235.499 256.787 240.336 257.446 245.174 257.776C248.912 257.995 252.54 257.336 256.168 256.897C258.807 256.567 258.367 257.336 257.487 259.533C256.828 260.521 256.498 261.73 256.058 262.828Z" fill="#104CBA"/>
<path d="M223.515 152.887C223.625 153.546 223.735 154.205 223.845 154.864C224.064 156.182 224.174 157.609 223.295 158.598C222.745 159.147 222.085 159.477 221.536 160.026C220.766 160.795 220.766 162.113 220.876 163.101C221.096 164.419 221.096 165.517 221.206 166.835C221.316 168.153 221.866 169.471 221.866 170.899C221.756 173.535 219.777 175.292 217.248 175.183C215.709 175.073 214.06 174.853 213.07 173.645C212.63 173.096 212.41 172.327 212.3 171.558C211.091 166.066 209.772 160.355 211.201 154.973C211.751 152.996 212.41 150.58 213.62 148.933C214.499 147.725 215.489 146.077 216.588 145.089C217.688 144.21 219.337 143.88 220.546 144.759C221.316 145.308 221.646 146.297 221.975 147.175C222.635 148.933 223.185 150.91 223.515 152.887Z" fill="white" stroke="#A1B8E3" stroke-miterlimit="10"/>
<path d="M237.368 175.511C237.698 173.534 238.797 171.667 240.556 170.569C242.425 169.471 244.404 168.372 246.493 167.603C246.823 167.494 247.043 167.384 247.373 167.274C252.87 165.297 258.587 164.089 263.974 161.892C269.911 159.476 275.738 156.51 281.565 153.874C285.523 152.007 289.261 150.14 292.78 147.504C295.748 145.308 294.759 140.804 296.188 137.839C296.847 136.521 297.947 135.203 299.046 136.96C300.036 138.608 299.706 140.804 300.036 142.672C300.256 144.539 300.476 146.296 299.706 148.053C299.156 149.261 298.057 150.25 297.067 151.129C296.078 152.007 295.088 152.886 294.209 153.765C293.109 154.753 292.01 155.851 290.801 156.73C287.062 159.476 283.544 162.441 280.136 165.626C276.728 168.702 273.649 171.887 269.801 174.413C266.063 176.829 261.775 178.916 257.488 180.014C257.378 180.014 257.378 180.014 257.268 180.124C252.98 181.332 249.022 182.98 244.514 182.541C240.996 181.991 236.708 179.575 237.368 175.511Z" fill="white" stroke="#A1B8E3" stroke-miterlimit="10"/>
<path d="M234.839 219.664C234.839 219.773 223.075 220.432 221.976 220.432C219.887 220.542 217.138 221.201 215.049 220.872C213.73 220.652 213.18 219.224 211.531 219.554C210.542 219.773 209.442 220.103 208.783 219.444C208.343 219.005 208.233 218.346 208.233 217.687C208.013 213.293 207.793 208.9 207.463 204.397C207.243 200.772 202.736 199.784 200.097 198.136C198.338 197.038 196.469 195.83 194.71 194.732C198.118 187.483 202.736 181.222 208.233 175.511C213.95 169.47 218.128 168.921 226.484 168.921C233.3 168.811 240.117 167.933 246.713 166.285C248.252 171.887 250.011 177.488 251.441 183.089C247.593 185.176 242.865 186.714 238.687 188.142C237.478 188.581 236.049 189.13 235.389 190.338C234.839 191.217 234.839 192.315 234.839 193.414C234.949 201.981 234.839 210.877 234.839 219.664Z" fill="#A1B8E3"/>
<path d="M381.503 347.729H361.384" stroke="#A1B8E3" stroke-miterlimit="10"/>
<path d="M366.221 297.205C366.221 296.986 366.221 296.766 366.331 296.656C366.661 294.46 368.42 292.812 369.52 291.055C370.619 289.297 371.279 287.211 371.389 285.014C371.609 281.06 371.389 275.898 373.148 272.273C374.687 268.979 378.425 267.111 380.294 264.036C381.284 262.279 381.613 260.302 382.163 258.325C382.933 255.25 384.032 252.064 386.231 249.648C387.88 247.781 389.969 246.353 392.058 244.925C394.037 243.607 396.126 242.18 398.435 241.411C401.403 240.312 404.812 239.983 406.131 243.058C407.23 245.584 406.681 249.099 405.471 251.405C404.482 253.492 402.833 255.14 401.293 256.787C398.655 259.753 396.126 262.938 394.037 266.233C393.377 267.111 392.828 268.1 392.718 269.198C392.608 270.297 392.938 271.285 393.048 272.383C393.707 277.765 391.508 282.158 387.331 285.453C384.032 288.089 381.943 289.517 381.174 294.02C380.624 296.766 380.404 299.731 378.865 302.148C378.205 303.136 377.436 303.905 376.666 304.784C373.917 308.079 372.158 312.252 371.719 316.536C371.499 318.732 371.059 323.565 367.651 322.577C363.473 321.368 363.913 309.067 365.232 306.212C365.782 305.003 366.551 303.795 366.771 302.477C366.881 300.83 366.111 298.963 366.221 297.205Z" fill="#A1B8E3"/>
<path d="M349.07 304.345C348.191 303.686 347.421 302.917 346.871 301.929C345.552 299.183 347.531 297.426 347.751 294.79C347.861 292.483 345.882 291.056 344.673 289.408C343.133 287.431 342.694 284.466 343.793 282.159C344.233 281.171 345.002 280.072 344.783 278.974C344.673 278.205 344.123 277.546 343.683 276.777C342.474 274.8 342.364 272.164 343.573 270.078C344.233 268.869 345.222 267.881 345.442 266.563C345.662 265.684 345.442 264.806 345.332 263.927C344.783 261.071 344.343 258.216 344.453 255.36C344.563 254.152 344.783 252.834 345.442 251.736C346.102 250.857 347.201 250.088 348.411 250.418C349.62 250.747 349.84 251.736 350.28 252.724C351.489 255.58 351.819 258.106 352.369 261.181C352.479 261.73 352.589 262.28 352.918 262.719C353.248 263.158 353.798 263.488 354.348 263.817C357.646 265.904 360.285 269.419 360.175 273.263C360.175 275.569 359.295 277.656 359.185 279.963C359.185 280.512 359.295 281.171 359.625 281.61C359.955 282.049 360.504 282.269 360.944 282.489C362.373 283.148 363.693 284.246 364.352 285.674C365.122 287.321 364.902 289.188 364.352 290.946C363.803 292.703 362.923 294.241 362.374 295.888C362.264 296.327 362.154 296.767 362.154 297.206C362.264 298.304 363.143 298.744 363.693 299.513C364.352 300.391 364.353 300.94 364.682 301.819C365.562 304.345 366.441 306.322 366.002 309.068C365.892 310.166 365.562 311.155 365.452 312.253C365.232 314.45 365.782 316.537 366.112 318.733C366.331 320.161 366.881 323.456 365.452 324.444C364.243 325.323 362.374 323.895 361.384 323.236C358.086 321.259 355.667 319.722 355.117 315.768C354.787 312.912 355.117 309.617 353.248 307.311C352.039 306.212 350.5 305.444 349.07 304.345Z" fill="#104CBA"/>
<path d="M371.059 306.102C371.828 304.015 372.928 301.929 374.357 300.171C375.347 298.853 376.446 297.645 377.326 296.217C378.755 294.021 379.524 291.385 380.844 289.078C382.933 285.564 387.111 283.587 390.959 285.564C392.278 286.223 393.487 287.321 394.587 288.309C395.796 289.408 397.115 290.616 398.105 291.934C400.194 294.68 401.403 297.865 402.503 301.05C403.822 304.784 405.251 308.628 406.571 312.363C407.23 314.12 408.769 318.293 407.23 320.051C405.801 321.808 402.613 319.282 401.953 317.854C401.513 316.866 400.853 316.097 400.084 315.438C399.094 314.669 397.665 314.12 397.115 312.912C396.456 311.704 396.566 309.946 395.356 309.287C395.026 309.068 394.587 309.068 394.257 308.958C393.157 308.628 392.498 307.64 391.948 306.651C390.629 304.455 389.639 302.038 388.32 299.952C387.44 300.171 386.671 302.917 386.011 303.686C385.132 304.894 384.032 305.992 382.823 306.871C380.954 308.189 378.645 309.068 377.436 311.045C376.776 312.143 376.446 313.351 376.116 314.669C375.566 316.426 373.917 321.479 371.279 320.6C369.41 320.051 369.52 316.866 369.52 315.438C369.3 312.363 369.849 309.177 371.059 306.102Z" fill="#104CBA"/>
<path d="M385.241 316.756H345.992V321.698H349.18L351.709 336.196C352.918 342.896 358.745 347.838 365.672 347.838C372.488 347.838 378.425 342.896 379.634 336.196L382.163 321.698H385.351V316.756H385.241Z" fill="#A1B8E3"/>
<path d="M348.081 322.137H383.263" stroke="white" stroke-miterlimit="10"/>
<path d="M222.746 230.537C225.934 230.867 229.122 231.306 232.201 231.635C237.918 232.294 244.075 233.283 247.923 237.347C250.341 239.983 251.551 243.497 251.991 247.012C252.32 250.527 251.991 254.151 251.551 257.666" stroke="white" stroke-width="2" stroke-miterlimit="10"/>
<path d="M216.259 256.348H214.28V298.743H216.259V256.348Z" fill="#A1B8E3"/>
<path d="M198.448 307.639C198.448 301.378 209.552 298.742 215.049 298.742C221.646 298.742 231.651 301.158 231.651 307.639" stroke="#A1B8E3" stroke-width="2" stroke-miterlimit="10"/>
<path d="M215.269 309.397V298.963" stroke="#A1B8E3" stroke-width="2" stroke-miterlimit="10"/>
<path d="M234.4 309.177C234.4 310.715 233.19 311.923 231.651 311.923C230.112 311.923 228.902 310.715 228.902 309.177C228.902 307.64 230.112 306.432 231.651 306.432C233.19 306.432 234.4 307.75 234.4 309.177Z" fill="#A1B8E3"/>
<path d="M217.908 309.177C217.908 310.715 216.698 311.923 215.159 311.923C213.62 311.923 212.411 310.715 212.411 309.177C212.411 307.64 213.62 306.432 215.159 306.432C216.698 306.432 217.908 307.75 217.908 309.177Z" fill="#A1B8E3"/>
<path d="M201.416 309.177C201.416 310.715 200.207 311.923 198.668 311.923C197.128 311.923 195.919 310.715 195.919 309.177C195.919 307.64 197.128 306.432 198.668 306.432C200.207 306.432 201.416 307.75 201.416 309.177Z" fill="#A1B8E3"/>
<path d="M228.352 240.422V203.958C228.352 197.697 222.525 192.535 215.379 192.535H201.196C194.05 192.535 188.223 197.697 188.223 203.958V244.705C188.223 253.712 196.579 261.07 206.694 261.07H228.023H253.09C254.299 261.07 255.289 260.192 255.289 259.093C255.289 257.995 254.299 257.116 253.09 257.116H247.373C236.818 257.226 228.352 249.648 228.352 240.422Z" fill="white" stroke="#A1B8E3" stroke-miterlimit="10"/>
<path d="M203.725 142.673C201.746 142.782 199.877 142.892 198.118 143.551C194.6 144.759 192.951 147.395 191.191 150.361C189.432 153.326 186.354 155.084 184.045 157.61C179.867 162.333 179.318 169.911 182.726 175.183C183.825 176.94 185.364 178.368 187.014 179.686C196.249 186.715 211.311 181.663 216.698 171.888C219.557 166.726 218.457 160.356 217.248 154.534C216.588 151.349 217.028 148.823 220.326 147.176C221.206 146.736 222.086 146.517 222.855 145.968C224.834 144.65 225.494 141.904 224.614 139.817C223.735 137.62 221.536 136.192 219.227 135.973C218.237 135.863 217.248 135.973 216.259 136.302C214.06 137.181 212.85 139.597 210.871 140.915C208.892 142.453 206.254 142.563 203.725 142.673Z" fill="white" stroke="#A1B8E3" stroke-miterlimit="10"/>
<path d="M264.634 172.656C264.524 172.656 264.524 172.876 264.634 172.986C265.074 173.645 265.843 173.974 266.613 173.864C267.382 173.755 268.042 173.425 268.592 172.876" fill="#A1B8E3"/>
<path d="M43.3176 297.863C45.9562 297.644 48.9247 297.863 51.7832 298.632C51.7832 293.909 51.6733 289.077 51.3434 284.244C51.2335 281.059 50.0241 278.093 46.286 277.544C44.0872 277.215 42.3281 277.874 41.6684 279.741C40.1292 284.134 42.2181 292.701 43.3176 297.863Z" fill="white" stroke="#A1B8E3" stroke-miterlimit="10"/>
<path d="M32.2132 259.752C32.543 262.827 31.9933 266.232 31.8834 269.417C31.7734 272.931 33.4226 275.677 33.8624 279.082C34.1922 282.267 34.3021 285.672 34.1922 288.967C34.1922 289.077 34.3021 289.187 34.4121 289.187H55.1914C55.3013 289.187 55.4113 289.077 55.4113 288.967C55.6312 286.88 55.851 285.013 55.851 285.013C56.1809 281.938 56.1809 279.521 55.4113 276.556C55.0814 275.348 54.7516 274.03 54.5317 272.822C54.2019 270.845 53.8721 268.758 53.7621 266.781C53.4323 263.705 53.4323 260.63 53.2124 257.555C52.9925 254.589 52.4428 251.624 51.8931 248.659C50.3539 239.762 48.8147 230.756 46.6158 221.969C45.5164 217.576 44.307 213.183 42.8777 208.79C41.1186 203.627 39.0297 198.685 36.2811 194.072C34.632 191.216 32.653 188.141 29.3547 187.153C26.716 186.384 23.8575 185.944 21.2189 187.043C17.7007 188.471 15.062 191.326 12.0936 193.743C11.6538 195.61 11.324 197.587 10.8842 199.454C10.0046 203.957 11.214 209.229 13.4129 213.293C14.1825 214.83 15.2819 216.148 15.9416 217.796C16.9311 220.102 17.151 222.738 17.9206 225.154C18.6902 227.571 19.8995 229.767 21.1089 231.964C25.6166 240.311 31.1138 250.196 32.2132 259.752Z" fill="#3C66B4"/>
<path d="M62.3381 189.461C62.7779 191.438 62.448 193.964 63.7673 195.721C65.0867 197.478 68.9347 198.028 70.9137 198.796C71.3534 198.906 71.7932 199.126 72.123 199.455C72.8927 200.334 72.233 201.762 71.1336 202.201C70.1441 202.641 68.9347 202.421 67.8353 202.201C65.3066 201.652 62.6679 201.103 60.1392 200.444C59.5895 200.334 59.0398 200.224 58.6 199.895C57.2807 199.126 56.8409 197.478 56.621 196.051C55.1918 185.397 45.1869 178.258 41.7787 168.263C40.8991 165.737 40.3494 162.991 39.7997 160.355C39.0301 156.511 38.2605 152.557 37.4909 148.713C36.9412 145.967 35.292 143.441 36.9412 140.695C38.2605 138.609 41.119 137.62 43.4278 138.499C47.1659 139.926 48.4852 143.99 49.5846 147.395C51.2338 152.008 52.5531 156.291 52.2233 161.344C52.1133 162.662 52.0034 164.09 52.4432 165.298C52.9929 166.725 54.0923 167.714 55.0818 168.812C58.2702 172.656 58.8199 177.819 59.9193 182.541C60.469 184.958 61.6784 187.044 62.2281 189.461C62.3381 189.351 62.3381 189.351 62.3381 189.461Z" fill="white" stroke="#A1B8E3" stroke-miterlimit="10"/>
<path d="M5.82715 302.366C8.57573 302.147 11.4343 302.366 14.0729 303.135C15.2823 298.522 16.3817 293.909 17.4811 289.296C18.1408 286.221 17.701 283.475 14.1828 282.816C12.0939 282.487 10.1149 283.146 9.01551 284.903C6.15698 289.186 5.93709 297.424 5.82715 302.366Z" fill="white" stroke="#A1B8E3" stroke-miterlimit="10"/>
<path d="M27.9258 308.079C25.9468 309.287 23.5281 309.507 21.3292 309.397C21.1093 309.397 20.8895 309.397 20.6696 309.397C17.1514 309.397 13.6332 309.287 10.115 309.068C8.68574 308.958 7.03658 308.848 5.82721 307.969C4.39794 306.981 4.61783 305.224 4.94766 303.686C5.27749 302.368 5.38743 301.05 5.49738 299.622C7.14653 300.171 9.01557 300.611 10.7747 300.501C11.7642 300.391 12.6437 300.171 13.5232 299.732C13.963 299.512 14.4028 299.293 14.7326 298.963C14.9525 298.853 15.5022 298.084 15.8321 298.194C16.0519 298.194 16.2718 298.853 16.3818 299.073C16.6017 299.512 17.0414 299.842 17.3713 300.171C18.0309 300.83 18.9105 301.379 19.79 301.709C20.6696 302.038 21.5491 302.148 22.3187 302.258C23.5281 302.478 24.7375 302.697 26.0568 303.027C26.8264 303.247 27.596 303.466 28.2557 303.906C28.9153 304.345 29.465 305.004 29.465 305.773C29.465 306.651 28.9153 307.42 28.2557 307.969C28.1457 308.079 28.0358 308.079 27.9258 308.079Z" fill="#A1B8E3"/>
<path d="M64.5367 302.807C64.3168 303.796 63.1074 304.565 62.1179 304.894C57.3904 306.322 52.333 305.004 47.3855 305.333C46.1761 305.443 44.9667 305.663 43.7574 305.333C41.0088 304.674 41.1187 301.27 41.7784 299.183C42.1082 298.194 42.548 297.096 42.3281 296.108C44.527 296.547 46.7258 296.657 48.9247 296.217C49.8043 296.108 50.5739 295.888 51.2335 295.449C51.5633 295.229 51.8932 295.009 52.223 295.119C52.4429 295.229 52.5528 295.449 52.6628 295.668C53.6523 297.316 55.1915 297.975 56.8406 298.853C57.6102 299.183 58.16 299.622 58.9296 299.842C59.919 300.061 60.9085 300.281 61.898 300.501C62.9975 300.72 64.3168 301.16 64.6466 302.258C64.5367 302.368 64.5367 302.588 64.5367 302.807Z" fill="#104CBA"/>
<path d="M30.5643 229.988C30.0146 224.936 29.9046 219.884 29.5748 214.722C29.3549 209.889 28.6952 205.057 27.9256 200.224C27.5958 198.467 27.8157 196.819 27.266 195.172C26.4964 192.975 25.6168 190.669 24.4074 188.692C22.6483 185.726 20.0097 183.09 16.7114 181.992C14.5125 181.223 11.9838 181.223 10.0049 182.431C8.02587 183.639 6.92643 185.616 5.93694 187.593C5.38723 188.801 4.72757 190.01 4.17785 191.218C2.85853 193.854 1.53921 196.6 0.769604 199.455C0 202.311 -0.32983 205.386 0.549717 208.242C1.09943 210.109 2.08892 211.097 2.96847 212.635C4.06791 214.612 4.72757 216.809 4.72757 219.005C4.83751 220.653 4.50768 222.19 4.50768 223.838C4.39774 227.462 5.0574 231.087 6.04689 234.492C6.37672 235.919 6.81649 237.237 6.92644 238.665C6.92644 239.873 6.81649 240.972 6.70655 242.18C6.48666 245.365 7.14632 248.55 7.25627 251.735C7.47615 255.03 6.81649 257.556 5.60711 260.522C4.83751 262.499 4.39774 264.476 4.39774 266.562C4.39774 269.748 4.94745 272.933 3.95796 276.008C3.62813 276.887 3.2983 277.765 2.85853 278.754C1.31932 282.598 0.659661 286.772 0 290.835C0 291.055 0.109943 291.275 0.32983 291.275C1.75909 291.494 6.70655 292.483 7.14632 292.483C11.654 293.032 15.7219 291.494 20.1196 292.483C20.3395 292.483 20.5594 292.373 20.5594 292.263C23.9677 282.927 26.4964 273.482 28.3654 263.707C28.9151 260.851 28.4753 258.215 28.5853 255.469C28.5853 254.481 28.9151 252.833 29.2449 251.845C30.7842 246.353 32.1035 241.191 31.2239 235.37C31.004 233.613 30.6742 231.746 30.5643 229.988Z" fill="#104CBA"/>
<path d="M37.3809 136.301C35.292 134.434 32.6533 133.226 30.0147 132.676C29.0252 132.457 28.0357 132.457 27.0462 132.676C26.3866 132.896 25.8369 133.226 25.2871 133.555C21.2192 136.081 17.811 139.596 15.7221 143.989C14.0729 147.614 13.1934 151.458 12.4238 155.412C11.984 157.718 7.80614 185.506 6.48682 185.176C8.13597 185.615 9.78512 185.945 11.3243 186.604C13.6331 187.483 15.832 188.361 18.1408 189.35C22.6485 191.217 26.9363 193.304 31.6639 194.402C32.3235 193.963 32.7633 193.414 33.2031 192.535C34.3025 190.119 35.182 187.373 35.5119 184.737C37.0511 175.072 37.7107 164.747 40.2394 155.302C41.3389 151.018 42.1085 146.186 40.8991 141.902C40.4593 139.706 39.14 137.839 37.3809 136.301Z" fill="#A1B8E3"/>
<path d="M34.3021 188.911C35.5115 189.46 36.7209 190.01 37.9303 190.559C43.6473 193.195 49.0346 196.49 53.982 200.334C52.5527 201.652 51.2334 203.409 51.1235 205.386C51.0135 207.363 52.5527 209.56 54.5317 209.45C55.6312 208.132 55.851 206.265 56.6207 204.727C57.7201 202.75 60.9084 202.86 61.678 201.322C62.4477 199.785 60.6886 197.698 59.809 196.599C57.3903 193.414 53.5422 191.547 51.0135 188.472C50.134 187.374 49.4743 186.056 48.7047 184.847C47.3854 182.98 45.7363 181.333 43.7573 180.125C39.9093 177.708 38.5899 174.304 36.7209 170.35C36.1712 169.141 35.6215 167.933 35.2916 166.615C34.8519 164.968 34.8519 163.211 34.632 161.453C34.3021 159.037 33.3126 156.621 32.2132 154.424C31.2237 152.337 30.1243 150.36 28.4751 148.823C26.826 147.285 24.5172 146.296 22.3183 146.626C19.5697 147.065 17.4808 149.591 16.7112 152.227C15.9416 154.863 16.1615 157.719 16.4913 160.575C16.8211 163.211 17.151 165.956 18.4703 168.373C19.6797 170.679 21.4388 172.546 22.7581 174.853C23.9675 176.94 24.6271 179.246 25.7266 181.552C27.5956 185.506 30.784 187.374 34.3021 188.911Z" fill="white" stroke="#A1B8E3" stroke-miterlimit="10"/>
<path d="M32.6533 134.874C32.1036 135.643 31.6638 136.521 31.334 137.4C30.0146 142.233 31.8837 148.164 33.8627 152.447C34.6323 154.095 34.8521 156.73 36.7212 157.609C37.9306 158.158 38.8101 157.28 39.7996 156.73C41.009 156.071 42.3283 155.632 43.5377 154.973C46.2863 153.545 48.9249 152.118 51.4536 150.47C50.0243 143.88 46.9459 137.18 41.009 133.885C39.1399 132.787 36.8311 132.128 34.8521 133.007C33.9726 133.446 33.203 134.105 32.6533 134.874Z" fill="#A1B8E3"/>
<path d="M25.3967 130.26C25.9464 128.503 26.3862 126.746 26.4961 124.879C26.716 122.792 26.716 120.595 27.4856 118.508C28.695 115.433 32.9828 113.456 36.1712 114.225C40.5689 115.323 39.2496 122.792 38.9198 126.087C38.6999 127.734 37.4905 128.833 36.6109 130.26C35.1817 132.457 34.9618 136.191 34.7419 138.827C34.7419 139.157 34.7419 139.486 34.522 139.706C34.3021 140.035 33.9723 140.035 33.6425 140.145C31.8834 140.585 30.0143 140.914 28.1453 140.914C25.7265 140.914 21.8785 140.035 23.0879 136.96C23.8575 134.544 24.7371 132.457 25.3967 130.26Z" fill="white" stroke="#A1B8E3" stroke-miterlimit="10"/>
<path d="M37.7108 108.733C36.3914 108.624 34.9622 109.063 33.9727 109.942C33.5329 110.381 33.2031 110.82 32.6534 111.04C32.4335 111.15 32.1036 111.15 31.7738 111.26C29.1352 111.699 26.8264 113.346 25.3971 115.543C25.0673 116.092 24.8474 116.531 24.7374 117.19C24.6275 117.63 24.7374 118.179 24.8474 118.618C24.9573 119.717 25.1772 120.815 25.507 121.803C25.617 122.243 25.8369 122.792 25.8369 123.231C25.8369 123.671 25.8369 124 25.9468 124.439C26.3866 126.087 28.0357 125.318 28.6954 124.22C29.2451 123.341 29.5749 122.353 29.9048 121.474C30.3446 120.266 31.0042 119.058 31.9937 118.289C32.9832 117.52 34.3025 117.3 35.5119 117.081C36.8312 116.861 38.7002 116.641 39.5798 115.653C40.6792 114.554 41.4488 113.017 41.3389 111.479C41.3389 111.15 41.2289 110.71 41.0091 110.381C40.7892 110.051 40.4593 109.722 40.1295 109.502C39.3599 108.953 38.4804 108.733 37.7108 108.733Z" fill="#3C66B4"/>
<path d="M31.2241 120.924C30.7843 119.936 29.5749 119.606 28.5854 120.155C27.486 120.704 26.9363 122.242 27.1562 123.45C27.3761 124.439 28.4755 125.207 29.355 124.658C29.7948 124.548 30.2346 124.329 30.4545 123.999C31.334 123.121 31.7738 121.912 31.2241 120.924Z" fill="white"/>
<path d="M29.4649 122.133C29.3549 121.583 28.5853 121.803 28.6953 122.352C28.8052 122.792 28.6953 123.121 29.0251 123.451C29.245 123.67 29.4649 123.56 29.5748 123.341C29.6848 122.901 29.5748 122.462 29.4649 122.133Z" fill="#A1B8E3"/>
<path d="M29.2451 181.332C29.1351 181.662 29.1351 181.991 29.2451 182.321C29.355 182.87 29.9047 183.309 30.3445 183.529C30.4544 183.529 30.5644 183.638 30.6743 183.638C31.0042 183.638 31.334 183.529 31.5539 183.309" fill="#A1B8E3"/>
<path d="M14.0729 152.995C13.963 153.874 13.853 154.753 13.853 155.851C14.0729 159.695 14.9525 163.429 15.832 167.054C17.9209 165.077 20.7795 164.088 23.528 163.319C26.4965 162.441 29.355 161.562 32.3235 160.574C33.2031 160.354 34.0826 159.915 34.3025 159.146C34.4124 158.816 34.3025 158.597 34.3025 158.267C33.7528 152.776 29.6849 142.781 22.6485 143.989C20.4496 144.318 18.6905 145.856 17.1513 147.394C15.5022 149.041 14.5127 150.908 14.0729 152.995Z" fill="#A1B8E3"/>
<path d="M28.1453 145.527C27.9255 145.417 27.8155 145.637 27.9255 145.857C29.5746 147.614 31.0039 149.481 31.9934 151.678C33.0928 154.094 33.7525 156.73 34.632 159.256C34.7419 159.476 34.9618 159.366 34.9618 159.146C34.3022 154.314 32.2133 148.603 28.1453 145.527Z" fill="white"/>
<path d="M33.0928 128.063C33.2027 128.283 33.3127 128.612 33.4226 128.722C33.6425 129.052 33.7524 129.491 33.8624 129.93C34.4121 131.578 35.0718 133.115 35.0718 134.873C35.0718 133.665 35.7314 132.676 36.0612 131.578C36.501 130.479 37.1607 129.491 37.7104 128.503C38.0402 128.063 38.1502 127.185 37.4905 127.734C37.0507 128.063 36.611 128.283 36.0612 128.283C35.1817 128.393 34.0823 128.173 33.0928 128.063C33.0928 127.953 33.0928 127.953 33.0928 128.063Z" fill="#A1B8E3"/>
<path d="M34.9619 123.451C34.9619 123.671 34.9619 123.781 35.0719 124C35.2917 124.33 35.5116 124.549 35.8415 124.769C36.1713 124.989 36.5011 124.989 36.8309 124.879C37.2707 124.769 37.6006 124.33 37.7105 123.891C37.7105 123.781 37.7105 123.671 37.7105 123.671" fill="#A1B8E3"/>
<path d="M81.2481 307.859C81.358 306.211 81.468 304.784 81.468 303.905C81.468 302.367 81.468 300.83 81.2481 299.292C80.9183 297.205 80.0387 295.228 79.2691 293.141C77.62 288.638 76.5205 283.806 77.51 279.193C78.1697 276.117 79.8188 273.152 80.4785 270.077C80.9183 267.77 80.9183 265.464 81.358 263.157C81.6879 261.29 84.1066 255.139 86.9651 257.446C87.4049 257.775 87.7348 258.434 87.9546 258.984C88.7242 261.18 89.274 263.487 90.3734 265.464C91.5828 267.66 93.4518 269.418 94.3314 271.724C95.2109 273.921 95.101 276.447 94.8811 278.753C94.0015 286.991 91.2529 294.789 92.3524 303.246C92.5723 304.674 92.9021 316.316 90.8132 316.316C90.1535 318.183 88.9441 321.149 86.7453 321.698C80.6984 323.016 80.9183 313.79 81.2481 307.859Z" fill="#104CBA"/>
<path d="M60.249 322.137C57.8302 324.334 56.0711 327.189 52.5529 327.738C48.0453 328.507 45.8464 324.224 47.3856 320.38C48.485 317.854 50.5739 315.877 52.5529 313.9C54.6419 311.593 56.5109 309.067 57.9402 306.321C59.0396 304.234 60.0291 302.038 61.8981 300.72C63.1075 299.841 64.6467 299.402 66.076 298.962C68.9345 298.194 72.0129 297.315 74.8714 298.303C76.6305 298.853 78.1698 300.171 79.4891 301.489C87.2951 309.287 86.6354 319.281 84.8763 329.276C84.7663 330.155 84.4365 331.253 83.6669 331.692C82.3476 332.351 80.9183 330.924 80.3686 329.496C79.2692 326.091 79.9288 323.016 77.73 320.05C75.8609 317.634 72.5626 315.657 71.5731 312.691C71.2433 311.813 71.1334 310.824 70.5836 310.055C70.0339 309.287 68.7146 309.067 68.1649 309.836C67.945 310.275 67.945 310.824 68.055 311.264C68.2748 314.449 66.8456 317.634 64.2069 319.501C63.1075 320.27 62.0081 320.819 61.0186 321.588C60.6887 321.698 60.4689 321.917 60.249 322.137Z" fill="#A1B8E3"/>
<path d="M85.8658 311.923C85.8658 311.483 85.8658 311.044 85.8658 310.605C86.4155 305.882 93.0121 305.223 96.2005 303.136C99.2789 301.159 101.258 296.876 105.216 301.049C107.195 303.026 108.404 306.651 108.844 309.287C109.614 314.449 110.273 319.721 111.043 324.883C111.153 326.091 111.373 327.299 110.823 328.288C109.833 330.265 106.865 330.374 105.106 329.056C102.687 327.519 101.808 323.455 100.818 321.039C100.378 319.831 99.9386 318.622 100.049 317.414C100.158 315.877 101.038 314.449 100.818 312.911C100.708 312.472 100.378 311.923 99.9386 311.923C99.8286 311.923 99.6088 312.032 99.4988 312.142C97.2999 313.57 96.6403 315.767 95.321 317.744C93.8917 319.831 92.7923 319.611 91.2531 321.149C87.8448 324.224 88.9442 331.143 87.7349 335.207C87.405 336.305 86.4155 337.514 85.536 336.855C85.2062 336.635 84.9863 336.196 84.8763 335.756C83.7769 331.143 83.7769 326.311 84.8763 321.698C85.3161 319.721 86.0857 317.854 86.0857 315.877C86.1957 314.559 85.8658 313.241 85.8658 311.923Z" fill="#104CBA"/>
<path d="M100.488 326.859H68.3848V330.923H70.9135L73.0024 342.785C73.9919 348.277 78.8294 352.34 84.4365 352.34C90.0436 352.34 94.8811 348.277 95.8706 342.785L97.9595 330.923H100.488V326.859Z" fill="#A1B8E3"/>
<path d="M70.0337 331.252H98.8389" stroke="white" stroke-miterlimit="10"/>
<path d="M77.73 352.451H107.964" stroke="#A1B8E3" stroke-miterlimit="10"/>
<path d="M339.175 136.961C339.395 136.961 339.725 137.071 339.835 137.29C339.945 137.51 339.945 137.84 339.835 137.949C339.725 138.169 339.505 138.169 339.285 138.279" fill="#A1B8E3"/>
<path d="M328.731 138.607C328.731 138.827 328.731 139.047 328.841 139.157C329.061 139.486 329.281 139.706 329.61 139.816C329.94 139.925 330.38 139.925 330.82 139.816C331.15 139.706 331.48 139.376 331.699 138.937C331.699 138.937 331.699 138.937 331.589 138.937" fill="#A1B8E3"/>
</svg>
