<svg width="243" height="235" viewBox="0 0 243 235" fill="none" xmlns="http://www.w3.org/2000/svg">
<g clip-path="url(#clip0_1182_4711)">
<path d="M125.328 234.999C190.317 234.999 243 231.215 243 226.546C243 221.878 190.317 218.093 125.328 218.093C60.3401 218.093 7.65674 221.878 7.65674 226.546C7.65674 231.215 60.3401 234.999 125.328 234.999Z" fill="#E7EDF8"/>
<path d="M1.7063 128.957L0.614746 119.598L0.0034526 119.67L1.095 129.029L1.7063 128.957Z" fill="#104CBA"/>
<path d="M2.66275 137.155L2.1123 132.435L1.501 132.507L2.05145 137.226L2.66275 137.155Z" fill="#104CBA"/>
<path d="M42.876 100.512L42.1489 98.4676C41.1181 95.5688 38.2282 93.7674 35.1806 94.125L6.21872 97.5225C2.6062 97.9466 0.0199894 101.228 0.442715 104.851L8.68585 175.551C8.97536 178.036 11.2192 179.816 13.6968 179.525L117.317 167.368C119.795 167.078 121.568 164.827 121.279 162.342L114.153 101.225C113.863 98.7394 111.619 96.9604 109.142 97.2508L48.9705 104.31C46.3047 104.623 43.7773 103.048 42.876 100.512Z" fill="#737CD2"/>
<path d="M56.2135 69.3555L16.0049 77.3958L27.0477 132.963L67.2563 124.922L56.2135 69.3555Z" fill="#104CBA"/>
<path opacity="0.7" d="M56.2135 69.3555L16.0049 77.3958L27.0477 132.963L67.2563 124.922L56.2135 69.3555Z" fill="white"/>
<g opacity="0.4">
<path opacity="0.4" d="M50.8406 82.7328L26.0717 87.6846C24.8705 87.925 23.7028 87.1426 23.4632 85.9377C23.2235 84.7327 24.0035 83.5614 25.2047 83.321L49.9736 78.3692C51.1748 78.1288 52.3425 78.9112 52.5821 80.1161C52.8218 81.321 52.0418 82.4924 50.8406 82.7328Z" fill="#104CBA"/>
<path opacity="0.4" d="M52.6663 91.9204L27.8974 96.8723C26.6962 97.1127 25.5285 96.3303 25.2889 95.1254C25.0492 93.9204 25.8292 92.7491 27.0304 92.5087L51.7993 87.5569C53.0005 87.3165 54.1682 88.0989 54.4078 89.3038C54.6467 90.5095 53.8675 91.6808 52.6663 91.9204Z" fill="#104CBA"/>
<path opacity="0.4" d="M54.492 101.109L29.7231 106.061C28.5219 106.301 27.3542 105.519 27.1146 104.314C26.8749 103.109 27.6549 101.938 28.8561 101.697L53.6249 96.7454C54.8261 96.505 55.9938 97.2874 56.2335 98.4923C56.4724 99.6972 55.6932 100.869 54.492 101.109Z" fill="#104CBA"/>
<path opacity="0.4" d="M56.3176 110.297L31.5488 115.248C30.3476 115.489 29.1799 114.706 28.9402 113.502C28.7006 112.297 29.4806 111.125 30.6818 110.885L55.4506 105.933C56.6518 105.693 57.8195 106.475 58.0592 107.68C58.2981 108.886 57.5188 110.057 56.3176 110.297Z" fill="#104CBA"/>
<path opacity="0.4" d="M51.3733 120.839L33.374 124.437C32.1728 124.677 31.0051 123.895 30.7654 122.69C30.5258 121.485 31.3058 120.314 32.5069 120.073L50.5063 116.475C51.7074 116.235 52.8752 117.017 53.1148 118.222C53.3537 119.427 52.5745 120.598 51.3733 120.839Z" fill="#104CBA"/>
</g>
<path d="M75.1693 66.8448L34.3252 70.4147L39.2281 126.86L80.0722 123.29L75.1693 66.8448Z" fill="#104CBA"/>
<path opacity="0.8" d="M75.1693 66.8448L34.3252 70.4147L39.2281 126.86L80.0722 123.29L75.1693 66.8448Z" fill="white"/>
<g opacity="0.4">
<path opacity="0.4" d="M68.3747 79.5472L43.2144 81.7465C41.9946 81.8533 40.9191 80.9477 40.8127 79.7234C40.7063 78.4998 41.6091 77.4211 42.8296 77.3143L67.9899 75.115C69.2105 75.0082 70.2852 75.9138 70.3916 77.1381C70.498 78.3625 69.5945 79.4405 68.3747 79.5472Z" fill="#104CBA"/>
<path opacity="0.4" d="M69.1857 88.8813L44.0254 91.0813C42.8056 91.1881 41.7302 90.2825 41.6238 89.0582C41.5173 87.8346 42.4201 86.7559 43.6406 86.6491L68.801 84.449C70.0208 84.3423 71.0962 85.2478 71.2026 86.4722C71.3083 87.6958 70.4055 88.7745 69.1857 88.8813Z" fill="#104CBA"/>
<path opacity="0.4" d="M69.9963 98.2146L44.8359 100.414C43.6161 100.521 42.5407 99.6151 42.4343 98.3908C42.3279 97.1664 43.2306 96.0884 44.4512 95.9817L69.6115 93.7824C70.8313 93.6756 71.9067 94.5812 72.0132 95.8055C72.1196 97.0291 71.2161 98.1078 69.9963 98.2146Z" fill="#104CBA"/>
<path opacity="0.4" d="M70.8078 107.548L45.6475 109.747C44.4277 109.854 43.3523 108.948 43.2458 107.724C43.1394 106.5 44.0422 105.422 45.2627 105.315L70.423 103.116C71.6428 103.009 72.7183 103.914 72.8247 105.139C72.9304 106.362 72.0276 107.441 70.8078 107.548Z" fill="#104CBA"/>
<path opacity="0.4" d="M64.7421 117.483L46.4585 119.081C45.2387 119.188 44.1633 118.282 44.0569 117.058C43.9504 115.834 44.8532 114.756 46.0737 114.649L64.3573 113.051C65.5771 112.944 66.6526 113.849 66.759 115.074C66.8647 116.297 65.9619 117.376 64.7421 117.483Z" fill="#104CBA"/>
</g>
<path d="M52.1248 101.821L51.5942 99.8203C50.8418 96.9842 48.1484 95.2276 45.1007 95.5852L16.1396 98.9827C12.5271 99.4067 9.66624 102.626 9.75034 106.173L11.3936 175.378C11.4517 177.811 13.5065 179.547 15.9841 179.256L119.605 167.1C122.082 166.809 124.044 164.601 123.986 162.169L122.565 102.344C122.507 99.9107 120.452 98.175 117.975 98.4654L57.8033 105.525C55.1382 105.837 52.7827 104.301 52.1248 101.821Z" fill="#104CBA"/>
<path opacity="0.3" d="M52.1248 101.821L51.5942 99.8203C50.8418 96.9842 48.1484 95.2276 45.1007 95.5852L16.1396 98.9827C12.5271 99.4067 9.66624 102.626 9.75034 106.173L11.3936 175.378C11.4517 177.811 13.5065 179.547 15.9841 179.256L119.605 167.1C122.082 166.809 124.044 164.601 123.986 162.169L122.565 102.344C122.507 99.9107 120.452 98.175 117.975 98.4654L57.8033 105.525C55.1382 105.837 52.7827 104.301 52.1248 101.821Z" fill="#104CBA"/>
<path d="M148.586 56.2386C148.037 59.0128 147.446 61.7399 146.787 64.4678C146.139 67.1941 145.476 69.916 144.754 72.6245L143.655 76.682L143.511 77.2008C143.445 77.424 143.371 77.6495 143.284 77.8809C143.109 78.3438 142.887 78.8283 142.555 79.3225C142.231 79.813 141.772 80.3296 141.166 80.7394C140.563 81.1515 139.813 81.4143 139.133 81.4755C137.747 81.5845 136.752 81.1657 135.942 80.7685C135.134 80.3393 134.476 79.8481 133.874 79.3329C132.676 78.2826 131.733 77.1777 130.845 75.9078L132.914 74.0399C133.924 74.8096 135.046 75.595 136.112 76.1698C136.643 76.4617 137.177 76.7044 137.644 76.8357C138.102 76.9851 138.5 76.9649 138.504 76.8888C138.515 76.8611 138.431 76.8604 138.393 76.8649C138.35 76.8641 138.359 76.8462 138.393 76.7394C138.426 76.6387 138.481 76.4789 138.528 76.2803L138.699 75.4584L139.568 71.38L141.316 63.2277C141.882 60.5111 142.49 57.7877 143.081 55.0986L148.586 56.2386Z" fill="#FFC3BD"/>
<path d="M146.098 47.7079C139.749 52.5836 140.004 61.7705 140.004 61.7705L151.359 64.4939C151.359 64.4939 154.843 55.2569 153.43 51.8743C151.955 48.3447 149.671 44.9636 146.098 47.7079Z" fill="#737CD2"/>
<path d="M133.499 74.1855L129.323 69.9982L127.071 76.5498C127.071 76.5498 130.596 78.4587 133.97 76.6596L133.499 74.1855Z" fill="#FFC3BD"/>
<path d="M123.546 69.3517L122.779 74.529L127.072 76.5499L129.324 69.9974L123.546 69.3517Z" fill="#FFC3BD"/>
<path d="M182.89 221.037L176.504 221.663L169.859 206.416L176.245 205.79L182.89 221.037Z" fill="#FFC3BD"/>
<path d="M224.029 198.496L219.233 203.013L208.877 191.597L213.674 187.08L224.029 198.496Z" fill="#FFC3BD"/>
<path d="M217.018 200.846L220.622 194.332C220.753 194.095 221.024 193.994 221.274 194.089L226.823 196.208C227.398 196.428 227.648 197.168 227.336 197.71C226.041 199.96 225.302 200.98 223.717 203.845C222.742 205.607 220.843 209.649 219.496 212.083C218.179 214.463 215.679 213.311 216.022 212.176C217.562 207.09 217.273 204.258 216.838 202.013C216.759 201.609 216.827 201.193 217.018 200.846Z" fill="#737CD2"/>
<path d="M175.656 219.684H183.498C183.783 219.684 184.041 219.882 184.118 220.162L185.823 226.387C186 227.033 185.526 227.626 184.866 227.632C182.102 227.658 180.792 227.645 177.343 227.645C175.221 227.645 169.731 227.645 166.801 227.645C163.935 227.645 163.336 224.739 164.522 224.475C169.839 223.295 172.903 221.667 174.544 220.115C174.841 219.834 175.238 219.684 175.656 219.684Z" fill="#737CD2"/>
<path opacity="0.2" d="M169.862 206.42L173.286 214.279H179.948L176.251 205.794L169.862 206.42Z" fill="#104CBA"/>
<path opacity="0.2" d="M213.678 187.082L208.88 191.601L214.22 197.483L219.018 192.964L213.678 187.082Z" fill="#104CBA"/>
<path d="M148.014 46.7627C148.014 46.7627 145.144 48.0296 154.772 86.2519C165.387 85.3307 176.358 84.3796 181.523 83.9309C180.132 73.0485 179.539 66.3155 182.81 43.4511C182.81 43.4511 177.1 42.7142 171.321 42.9352C166.801 43.1084 163.101 43.2838 159.175 43.9893C153.999 44.921 148.014 46.7627 148.014 46.7627Z" fill="#737CD2"/>
<path d="M171.321 42.7486C171.321 42.7486 172.839 42.7755 174.632 42.7755C175.708 44.4432 172.207 51.7325 166.416 56.5066C165.021 52.155 161.766 49.746 161.766 49.746L171.321 42.7486Z" fill="white"/>
<path d="M159.178 43.8938C159.178 43.8938 158.502 43.9901 156.882 44.3604C155.806 46.0282 153.981 53.139 157.157 56.7687C158.396 52.2887 161.766 49.746 161.766 49.746L159.178 43.8938Z" fill="white"/>
<path d="M168.935 29.3205C168.507 33.3078 168.361 40.5575 171.321 42.936C171.321 42.936 168.16 46.173 161.766 49.7459C157.115 46.5216 159.175 43.9901 159.175 43.9901C163.443 42.5679 163.051 39.3339 162.029 36.3537L168.935 29.3205Z" fill="#FFC3BD"/>
<path d="M161.658 49.7661C161.658 49.7661 165.581 45.4825 167.605 46.3052C169.63 47.1278 168.066 48.5963 167.885 49.9744C167.705 51.3525 168.673 55.0308 165.957 54.0752C163.241 53.1196 161.658 49.7661 161.658 49.7661Z" fill="#104CBA"/>
<path d="M161.499 49.6788C161.499 49.6788 159.648 46.3925 157.646 46.8307C155.645 47.2689 156.836 48.4238 157.013 49.6593C157.241 51.248 155.572 54.2879 157.987 53.4294C160.336 52.5948 161.499 49.6788 161.499 49.6788Z" fill="#104CBA"/>
<g opacity="0.2">
<path opacity="0.2" d="M160.481 48.9666C160.501 49.8848 160.634 50.5179 160.856 50.8972C161.279 50.2208 161.496 49.6818 161.496 49.6818C161.496 49.6818 161.137 49.0383 160.551 48.3611C160.495 48.5112 160.476 48.7083 160.481 48.9666Z" fill="#104CBA"/>
<path opacity="0.2" d="M163.085 48.3813C162.247 49.1226 161.66 49.7639 161.66 49.7639C161.66 49.7639 161.926 50.323 162.425 51.0576C162.757 50.7754 163.03 50.2588 163.15 49.3608C163.219 48.8964 163.184 48.5911 163.085 48.3813Z" fill="#104CBA"/>
</g>
<path d="M161.608 51.1136C161.055 51.1159 160.712 50.506 160.672 49.0629C160.631 47.6206 161.738 48.4216 161.738 48.4216C161.738 48.4216 163.208 47.6504 162.959 49.4048C162.765 50.768 162.181 51.1114 161.608 51.1136Z" fill="#104CBA"/>
<path opacity="0.2" d="M166.12 32.1902L162.033 36.3499C162.277 37.0554 162.481 37.7736 162.594 38.4806C164.238 38.0946 166.618 36.3805 166.644 34.6165C166.656 33.737 166.296 32.5844 166.12 32.1902Z" fill="#104CBA"/>
<path d="M162.618 15.8528C162.618 15.8528 158.166 22.0573 157.43 24.842C154.393 26.6135 153.78 17.8737 155.39 12.4822C160.38 15.6012 162.618 15.8528 162.618 15.8528Z" fill="#737CD2"/>
<path d="M172.432 23.0913C170.773 29.4593 170.208 32.1902 166.313 34.8591C160.456 38.8732 153.02 35.4377 152.749 28.7008C152.504 22.6374 155.256 13.2414 162.049 11.9171C168.741 10.6121 174.089 16.7233 172.432 23.0913Z" fill="#FFC3BD"/>
<path d="M175.883 20.5501C175.883 20.5501 172.693 25.7334 172.264 27.988C169.95 29.5676 168.972 22.6554 169.95 18.2792C171.013 14.418 175.883 20.5501 175.883 20.5501Z" fill="#737CD2"/>
<path d="M174.611 16.9391C173.692 17.6401 172.711 15.0488 173.634 13.0653C171.868 13.175 169.746 12.1246 170.198 10.418C166.726 11.5856 165.437 8.03953 165.837 5.58565C166.321 2.61963 168.914 1.96491 170.437 2.74803C170.468 1.41471 173.8 -1.37513 175.079 0.806273C177.454 -0.0343349 181.278 0.224716 181.202 3.14967C182.772 3.19895 187.403 4.98095 185.697 9.15935C187.74 9.28104 188.848 11.8887 187.711 13.8566C190.33 15.3975 189.359 18.0731 188.362 19.01C189.305 20.9801 186.437 23.9111 184.916 23.5587C183.754 25.3474 181.973 26.6897 180.809 25.1645C178.549 26.8173 176.016 24.7218 176.589 23.107C174.027 22.6845 171.441 18.4464 174.611 16.9391Z" fill="#737CD2"/>
<path d="M178.085 17.7233C179.923 16.6186 180.062 13.4606 178.395 10.6697C176.728 7.87886 173.886 6.51201 172.048 7.61678C170.21 8.72154 170.072 11.8796 171.739 14.6704C173.406 17.4613 176.247 18.8281 178.085 17.7233Z" fill="#104CBA"/>
<path d="M162.916 15.072C162.814 15.873 160.618 15.6655 159.987 14.256C159.082 15.2094 156.946 15.7051 156.216 14.6666C154.983 16.9921 152.507 16.3837 151.858 15.2661C151.209 14.1485 150.793 12.0881 152.076 11.6812C151.328 11.0347 151.554 8.01268 153.506 8.39193C154.325 6.78163 156.569 4.95111 158.205 6.37476C159.093 5.59687 162.652 4.07541 164.114 6.92497C165.303 5.93953 167.406 6.60769 167.911 8.12018C170.23 7.51175 171.233 9.27434 171.224 10.2269C172.871 10.6786 172.979 13.5296 171.945 14.1396C172.334 15.5796 172.128 17.1235 170.616 16.9966C170.325 18.9331 167.736 19.234 167.123 18.1776C165.477 19.2847 162.043 17.4042 162.916 15.072Z" fill="#737CD2"/>
<path d="M159 9.58862C160.884 6.97199 167.749 5.88801 173.695 9.80661C179.054 13.3385 178.707 21.5363 174.447 21.1003C170.187 20.6643 165.97 15.6498 165.97 15.6498L159 9.58862Z" fill="#737CD2"/>
<path d="M172.956 28.8405C172.331 30.0528 171.207 30.8628 170.137 31.1861C168.527 31.6721 167.688 30.2357 168.108 28.6941C168.485 27.3063 169.778 25.381 171.408 25.5698C173.013 25.755 173.67 27.4541 172.956 28.8405Z" fill="#FFC3BD"/>
<path d="M154.773 86.2527C154.773 86.2527 145.722 126.414 151.764 154.729C155.81 173.692 170.404 212.001 170.404 212.001L181.814 211.706C181.814 211.706 170.766 171.504 168.482 155.695C164.575 128.65 174.361 84.5528 174.361 84.5528L154.773 86.2527Z" fill="#104CBA"/>
<path opacity="0.2" d="M165.209 94.3624L170.914 103.388C169.463 112.747 168.018 124.454 167.65 135.718C159.626 121.31 163.425 101.99 165.209 94.3624Z" fill="#104CBA"/>
<path d="M168.795 212.594L182.89 212.233L182.074 207.889L167.693 208.573L168.795 212.594Z" fill="#737CD2"/>
<path d="M160.621 85.8249C160.621 85.8249 165.93 128.417 177.44 151.67C186.736 170.452 211.543 197.188 211.543 197.188L217.885 190.634C217.885 190.634 201.129 161.577 194.22 149.1C177.279 118.509 191.124 95.1634 181.522 83.9309L160.621 85.8249Z" fill="#104CBA"/>
<path d="M210.901 198.066L219.085 190.062L216.37 186.356L207.69 195.046L210.901 198.066Z" fill="#737CD2"/>
<path d="M181.788 82.3221L183.201 84.6192C183.311 84.7976 183.108 85.0067 182.798 85.0336L154.744 87.4673C154.503 87.4882 154.293 87.3874 154.265 87.2359L153.817 84.8551C153.785 84.6901 153.983 84.5311 154.246 84.508L181.336 82.1579C181.534 82.1414 181.717 82.2079 181.788 82.3221Z" fill="#104CBA"/>
<path opacity="0.5" d="M181.788 82.3221L183.201 84.6192C183.311 84.7976 183.108 85.0067 182.798 85.0336L154.744 87.4673C154.503 87.4882 154.293 87.3874 154.265 87.2359L153.817 84.8551C153.785 84.6901 153.983 84.5311 154.246 84.508L181.336 82.1579C181.534 82.1414 181.717 82.2079 181.788 82.3221Z" fill="white"/>
<path d="M178.411 85.6764L179.137 85.6137C179.281 85.601 179.385 85.5166 179.367 85.4263L178.757 82.3356C178.74 82.2453 178.607 82.181 178.462 82.1937L177.736 82.2564C177.592 82.2691 177.489 82.3535 177.506 82.4438L178.116 85.5353C178.135 85.6248 178.267 85.6891 178.411 85.6764Z" fill="#104CBA"/>
<path d="M156.805 87.5509L157.531 87.4882C157.675 87.4755 157.779 87.3911 157.761 87.3008L157.151 84.2094C157.133 84.119 157.001 84.0548 156.857 84.0675L156.131 84.1302C155.987 84.1429 155.883 84.2273 155.901 84.3176L156.51 87.409C156.528 87.4994 156.661 87.5636 156.805 87.5509Z" fill="#104CBA"/>
<path d="M167.608 86.614L168.334 86.5513C168.478 86.5386 168.582 86.4542 168.564 86.3639L167.954 83.2725C167.937 83.1821 167.804 83.1179 167.66 83.1306L166.934 83.1933C166.79 83.206 166.686 83.2904 166.704 83.3807L167.314 86.4722C167.332 86.5625 167.464 86.6259 167.608 86.614Z" fill="#104CBA"/>
<path d="M160.877 23.6978C161.219 23.7652 161.579 23.3945 161.682 22.8698C161.785 22.3451 161.591 21.8651 161.249 21.7977C160.907 21.7302 160.547 22.1009 160.444 22.6256C160.341 23.1503 160.535 23.6303 160.877 23.6978Z" fill="#737CD2"/>
<path d="M154.961 22.5265C155.303 22.5939 155.663 22.2232 155.766 21.6984C155.869 21.1737 155.675 20.6937 155.333 20.6263C154.991 20.5589 154.631 20.9296 154.528 21.4543C154.425 21.979 154.619 22.459 154.961 22.5265Z" fill="#737CD2"/>
<path d="M155.482 20.6935L154.297 20.082C154.297 20.082 154.749 21.1936 155.482 20.6935Z" fill="#737CD2"/>
<path d="M157.803 23.0152C157.803 23.0152 156.473 25.0995 155.282 25.9969C155.846 26.78 157.078 26.7158 157.078 26.7158L157.803 23.0152Z" fill="#ED847E"/>
<path d="M159.497 29.2175C161.35 29.2175 162.426 28.1328 162.478 28.0798C162.528 28.0282 162.527 27.9454 162.476 27.8954C162.425 27.8453 162.343 27.8461 162.292 27.8976C162.278 27.9118 160.872 29.319 158.57 28.8644C158.496 28.8487 158.431 28.8972 158.418 28.9667C158.403 29.0376 158.45 29.1063 158.52 29.1197C158.866 29.1884 159.192 29.2175 159.497 29.2175Z" fill="#737CD2"/>
<path d="M165.237 20.8383C165.283 20.8383 165.33 20.8263 165.372 20.8002C165.495 20.7255 165.534 20.565 165.46 20.4411C164.579 18.9786 163.162 18.9137 163.102 18.9122C162.95 18.9181 162.839 19.0197 162.834 19.163C162.828 19.3071 162.941 19.428 163.084 19.434C163.133 19.4362 164.283 19.4982 165.015 20.7121C165.062 20.7927 165.149 20.8383 165.237 20.8383Z" fill="#737CD2"/>
<path d="M154.128 18.736C154.171 18.736 154.214 18.7256 154.255 18.7024C155.5 18.0051 156.552 18.5441 156.562 18.5501C156.69 18.6173 156.847 18.568 156.914 18.4404C156.981 18.3127 156.932 18.1552 156.804 18.088C156.751 18.0596 155.488 17.4124 154.001 18.2463C153.875 18.3165 153.83 18.4762 153.9 18.6016C153.948 18.6875 154.037 18.736 154.128 18.736Z" fill="#737CD2"/>
<path d="M183.947 49.5593C184.451 50.0535 184.801 50.4365 185.198 50.8785C185.578 51.3115 185.942 51.7489 186.297 52.1931C187.008 53.08 187.679 53.9901 188.316 54.924C189.567 56.806 190.688 58.7739 191.645 60.8277C192.616 62.8754 193.367 65.0299 193.965 67.2248C194.251 68.3267 194.511 69.4361 194.698 70.5618C194.956 71.7436 195.056 73.657 194.19 75.2807C193.772 76.0922 193.161 76.7686 192.526 77.268C191.887 77.772 191.224 78.1213 190.582 78.3879C189.293 78.9089 188.069 79.1314 186.885 79.2703C184.52 79.5181 182.285 79.4293 180.092 79.1814C175.708 78.6835 171.524 77.754 167.365 76.4685L168.046 73.7608C170.07 74.0952 172.155 74.411 174.214 74.6238C176.274 74.8627 178.336 75.0336 180.369 75.0784C182.395 75.1068 184.417 75.0814 186.251 74.7552C187.158 74.5947 188.021 74.3535 188.677 74.0288C189.345 73.6996 189.693 73.3218 189.774 73.0538C189.827 72.912 189.864 72.7522 189.866 72.5126C189.867 72.3946 189.853 72.2557 189.838 72.1117C189.806 71.9579 189.789 71.822 189.721 71.5488C189.512 70.588 189.237 69.6406 188.944 68.7015C188.345 66.8232 187.557 65.0083 186.681 63.2353C185.803 61.4622 184.777 59.7564 183.642 58.1319C183.084 57.3129 182.498 56.5141 181.883 55.7452C181.577 55.36 181.263 54.983 180.945 54.6179C180.644 54.2626 180.282 53.8594 180.035 53.6041L183.947 49.5593Z" fill="#FFC3BD"/>
<path d="M169.737 74.1713L164.52 71.3987L164.286 78.3251C164.286 78.3251 167.971 78.5588 170.134 76.8582L169.737 74.1713Z" fill="#FFC3BD"/>
<path d="M160.597 111.401L164.903 64.5103L155.71 57.4495L127.651 54.8568L122.779 107.906L160.597 111.401Z" fill="#104CBA"/>
<path opacity="0.8" d="M160.597 111.401L164.903 64.5103L155.71 57.4495L127.651 54.8568L122.779 107.906L160.597 111.401Z" fill="white"/>
<path d="M164.903 64.5103L155.71 57.4495L158.12 65.9003L164.903 64.5103Z" fill="#104CBA"/>
<path opacity="0.4" d="M158.04 74.2281C157.881 75.9541 156.359 77.224 154.638 77.065L134.171 75.1762C132.45 75.0172 131.184 73.4898 131.342 71.7638C131.5 70.0378 133.023 68.7679 134.744 68.9269L155.211 70.8157C156.932 70.9747 158.198 72.5028 158.04 74.2281Z" fill="#104CBA"/>
<path opacity="0.4" d="M151.067 82.7006C150.909 84.4266 149.386 85.6965 147.666 85.5375L133.362 84.2176C131.643 84.0586 130.376 82.5311 130.534 80.8059C130.693 79.0799 132.216 77.81 133.936 77.969L148.239 79.2889C149.96 79.4472 151.226 80.9753 151.067 82.7006Z" fill="#104CBA"/>
<path d="M161.339 71.813L162.122 76.988L164.286 78.3251L164.519 71.3994L161.339 71.813Z" fill="#FFC3BD"/>
<path d="M182.81 43.4518C186.089 44.0334 190.685 53.469 190.685 53.469L182.418 60.9687C182.418 60.9687 175.842 53.775 176.194 49.4884C176.491 45.8497 178.633 42.7113 182.81 43.4518Z" fill="#737CD2"/>
<path d="M215.754 204.348C215.839 204.348 215.924 204.333 216.009 204.305C216.793 204.04 217.308 202.584 217.545 201.739C217.559 201.689 217.542 201.635 217.502 201.603C217.462 201.57 217.406 201.565 217.36 201.588C217.121 201.714 215.025 202.838 214.957 203.668C214.947 203.794 214.977 203.977 215.181 204.132C215.37 204.276 215.562 204.348 215.754 204.348ZM217.205 201.971C216.841 203.135 216.371 203.906 215.926 204.057C215.733 204.122 215.542 204.077 215.336 203.923C215.218 203.833 215.211 203.747 215.216 203.688C215.258 203.18 216.485 202.38 217.205 201.971Z" fill="#104CBA"/>
<path d="M215.43 202.299C216.174 202.299 217.086 202.061 217.487 201.815C217.527 201.791 217.55 201.747 217.55 201.701C217.549 201.655 217.523 201.612 217.483 201.59C217.413 201.551 215.753 200.636 214.86 200.954C214.627 201.036 214.463 201.193 214.371 201.418C214.229 201.77 214.384 201.973 214.49 202.062C214.688 202.233 215.036 202.299 215.43 202.299ZM217.133 201.703C216.423 202.007 215.047 202.194 214.658 201.865C214.593 201.809 214.53 201.721 214.611 201.517C214.674 201.361 214.784 201.258 214.946 201.201C215.555 200.982 216.661 201.47 217.133 201.703Z" fill="#104CBA"/>
<path d="M172.176 220.957C172.93 220.957 173.749 220.81 174.318 220.684C174.372 220.672 174.413 220.627 174.419 220.572C174.425 220.516 174.395 220.463 174.344 220.439C174.022 220.286 171.177 218.968 170.46 219.454C170.369 219.516 170.262 219.636 170.275 219.858C170.293 220.165 170.423 220.413 170.662 220.594C171.018 220.863 171.576 220.957 172.176 220.957ZM173.87 220.509C173.025 220.667 171.462 220.874 170.819 220.386C170.64 220.25 170.547 220.073 170.535 219.843C170.529 219.737 170.57 219.694 170.606 219.67C171.007 219.397 172.688 219.987 173.87 220.509Z" fill="#104CBA"/>
<path d="M174.289 220.687C174.319 220.687 174.349 220.677 174.373 220.656C174.41 220.625 174.426 220.575 174.415 220.527C174.388 220.407 173.742 217.592 172.198 217.772C171.811 217.818 171.705 218.011 171.685 218.164C171.589 218.881 173.383 220.325 174.24 220.677C174.256 220.684 174.272 220.687 174.289 220.687ZM172.339 218.024C173.326 218.024 173.9 219.662 174.091 220.318C173.164 219.832 171.882 218.657 171.944 218.199C171.948 218.165 171.962 218.063 172.23 218.031C172.267 218.027 172.303 218.024 172.339 218.024Z" fill="#104CBA"/>
<path d="M161.397 21.8595L160.211 21.2481C160.211 21.2481 160.663 22.3597 161.397 21.8595Z" fill="#737CD2"/>
</g>
<defs>
<clipPath id="clip0_1182_4711">
<rect width="243" height="235" fill="white"/>
</clipPath>
</defs>
</svg>
