<svg width="164" height="201" viewBox="0 0 164 201" fill="none" xmlns="http://www.w3.org/2000/svg">
<g clip-path="url(#clip0_1460_2)">
<path d="M65.726 84.1031C65.138 82.195 63.3741 80.874 61.3583 80.874H33.8079C30.2382 80.874 27.3403 83.7676 27.3403 87.3322V88.6322V95.7404V164.159C27.3403 166.675 29.3772 168.709 31.8971 168.709H142.875C145.395 168.709 147.432 166.675 147.432 164.159V97.9211C147.432 92.071 142.686 87.3112 136.807 87.3112H70.0937C68.0988 87.3322 66.314 86.0112 65.726 84.1031Z" fill="url(#paint0_linear_1460_2)"/>
<path d="M132.712 33.2129H42.0605V147.531H132.712V33.2129Z" fill="#EEF1FF"/>
<path d="M121.268 48.9393H53.5048C51.8669 48.9393 50.5229 47.5974 50.5229 45.9618C50.5229 44.3263 51.8669 42.9844 53.5048 42.9844H121.268C122.906 42.9844 124.249 44.3263 124.249 45.9618C124.249 47.5974 122.906 48.9393 121.268 48.9393Z" fill="#8CC6F4"/>
<path d="M121.268 61.6454H53.5048C51.8669 61.6454 50.5229 60.3034 50.5229 58.6679C50.5229 57.0324 51.8669 55.6904 53.5048 55.6904H121.268C122.906 55.6904 124.249 57.0324 124.249 58.6679C124.249 60.3034 122.906 61.6454 121.268 61.6454Z" fill="#8CC6F4"/>
<path d="M121.268 74.3309H53.5048C51.8669 74.3309 50.5229 72.989 50.5229 71.3534C50.5229 69.7179 51.8669 68.376 53.5048 68.376H121.268C122.906 68.376 124.249 69.7179 124.249 71.3534C124.249 72.989 122.906 74.3309 121.268 74.3309Z" fill="#8CC6F4"/>
<path d="M121.268 87.0174H53.5048C51.8669 87.0174 50.5229 85.6755 50.5229 84.04C50.5229 82.4044 51.8669 81.0625 53.5048 81.0625H121.268C122.906 81.0625 124.249 82.4044 124.249 84.04C124.249 85.6755 122.906 87.0174 121.268 87.0174Z" fill="#8CC6F4"/>
<path d="M121.268 99.703H53.5048C51.8669 99.703 50.5229 98.361 50.5229 96.7255C50.5229 95.09 51.8669 93.748 53.5048 93.748H121.268C122.906 93.748 124.249 95.09 124.249 96.7255C124.249 98.361 122.906 99.703 121.268 99.703Z" fill="#8CC6F4"/>
<path d="M121.268 112.389H53.5048C51.8669 112.389 50.5229 111.047 50.5229 109.411C50.5229 107.776 51.8669 106.434 53.5048 106.434H121.268C122.906 106.434 124.249 107.776 124.249 109.411C124.249 111.068 122.906 112.389 121.268 112.389Z" fill="#8CC6F4"/>
<path d="M121.268 125.096H53.5048C51.8669 125.096 50.5229 123.754 50.5229 122.118C50.5229 120.483 51.8669 119.141 53.5048 119.141H121.268C122.906 119.141 124.249 120.483 124.249 122.118C124.249 123.754 122.906 125.096 121.268 125.096Z" fill="#8CC6F4"/>
<path d="M121.268 137.781H53.5048C51.8669 137.781 50.5229 136.439 50.5229 134.804C50.5229 133.168 51.8669 131.826 53.5048 131.826H121.268C122.906 131.826 124.249 133.168 124.249 134.804C124.249 136.439 122.906 137.781 121.268 137.781Z" fill="#8CC6F4"/>
<path d="M146.256 201H28.537C22.4684 201 17.5337 196.093 17.5337 190.012V116.394C17.5337 110.334 22.4474 105.406 28.537 105.406H146.256C152.324 105.406 157.259 110.313 157.259 116.394V190.012C157.238 196.072 152.324 201 146.256 201Z" fill="url(#paint1_linear_1460_2)"/>
<path d="M115.535 174.413H59.8256C55.8778 174.413 52.686 171.205 52.686 167.284V133.525C52.686 131.428 54.3869 129.73 56.4868 129.73C58.5867 129.73 60.2876 131.428 60.2876 133.525V166.822H115.031V133.504C115.031 131.407 116.732 129.709 118.832 129.709C120.932 129.709 122.633 131.407 122.633 133.504V167.263C122.675 171.205 119.483 174.413 115.535 174.413Z" fill="white"/>
<path d="M81.2651 124.781V139.543H69.7788L87.3967 158.687L104.994 139.543H93.5074V124.781H81.2651Z" fill="white"/>
<path opacity="0.88" d="M157.26 49.7574C160.982 49.7574 164 46.7439 164 43.0267C164 39.3094 160.982 36.2959 157.26 36.2959C153.537 36.2959 150.519 39.3094 150.519 43.0267C150.519 46.7439 153.537 49.7574 157.26 49.7574Z" fill="url(#paint2_linear_1460_2)"/>
<path opacity="0.88" d="M4.53572 84.3121C7.04073 84.3121 9.07145 82.2844 9.07145 79.783C9.07145 77.2817 7.04073 75.2539 4.53572 75.2539C2.03071 75.2539 0 77.2817 0 79.783C0 82.2844 2.03071 84.3121 4.53572 84.3121Z" fill="url(#paint3_linear_1460_2)"/>
<path opacity="0.88" d="M21.4818 37.2181C25.0537 37.2181 27.9494 34.3267 27.9494 30.7599C27.9494 27.1932 25.0537 24.3018 21.4818 24.3018C17.9098 24.3018 15.0142 27.1932 15.0142 30.7599C15.0142 34.3267 17.9098 37.2181 21.4818 37.2181Z" fill="url(#paint4_linear_1460_2)"/>
<path opacity="0.88" d="M74.2095 8.84853C76.6566 8.84853 78.6403 6.86772 78.6403 4.42426C78.6403 1.98081 76.6566 0 74.2095 0C71.7625 0 69.7788 1.98081 69.7788 4.42426C69.7788 6.86772 71.7625 8.84853 74.2095 8.84853Z" fill="url(#paint5_linear_1460_2)"/>
</g>
<defs>
<linearGradient id="paint0_linear_1460_2" x1="87.3897" y1="118.321" x2="87.3897" y2="-79.316" gradientUnits="userSpaceOnUse">
<stop offset="0.0217391" stop-color="#378BF2"/>
<stop offset="0.8333" stop-color="#4D4DC8"/>
</linearGradient>
<linearGradient id="paint1_linear_1460_2" x1="38.256" y1="96.3937" x2="111.87" y2="181.755" gradientUnits="userSpaceOnUse">
<stop offset="0.0217391" stop-color="#378BF2"/>
<stop offset="0.8333" stop-color="#4D4DC8"/>
</linearGradient>
<linearGradient id="paint2_linear_1460_2" x1="149.922" y1="43.0183" x2="150.054" y2="43.0183" gradientUnits="userSpaceOnUse">
<stop stop-color="#BCEDFF"/>
<stop offset="0.9413" stop-color="#29ABE2"/>
</linearGradient>
<linearGradient id="paint3_linear_1460_2" x1="-0.409727" y1="79.7925" x2="-0.320776" y2="79.7925" gradientUnits="userSpaceOnUse">
<stop stop-color="#BCEDFF"/>
<stop offset="0.9413" stop-color="#29ABE2"/>
</linearGradient>
<linearGradient id="paint4_linear_1460_2" x1="14.4162" y1="30.7522" x2="14.5433" y2="30.7522" gradientUnits="userSpaceOnUse">
<stop stop-color="#BCEDFF"/>
<stop offset="0.9413" stop-color="#29ABE2"/>
</linearGradient>
<linearGradient id="paint5_linear_1460_2" x1="69.3834" y1="4.42036" x2="69.4703" y2="4.42036" gradientUnits="userSpaceOnUse">
<stop stop-color="#BCEDFF"/>
<stop offset="0.9413" stop-color="#29ABE2"/>
</linearGradient>
<clipPath id="clip0_1460_2">
<rect width="164" height="201" fill="white"/>
</clipPath>
</defs>
</svg>
