<svg width="109" height="41" viewBox="0 0 109 41" fill="none" xmlns="http://www.w3.org/2000/svg">
<path d="M106.526 0.295898H96.74C95.5819 0.295898 94.6431 1.23473 94.6431 2.39284C94.6431 3.55094 95.5819 4.48978 96.74 4.48978H106.526C107.684 4.48978 108.623 3.55094 108.623 2.39284C108.623 1.23473 107.684 0.295898 106.526 0.295898Z" fill="#AEC6F1" fill-opacity="0.28"/>
<path d="M75.7703 0.295898H3.07643C1.91832 0.295898 0.979492 1.23473 0.979492 2.39284C0.979492 3.55094 1.91833 4.48978 3.07643 4.48978H75.7703C76.9284 4.48978 77.8672 3.55094 77.8672 2.39284C77.8672 1.23473 76.9284 0.295898 75.7703 0.295898Z" fill="#AEC6F1" fill-opacity="0.28"/>
<path d="M106.525 12.8779H3.07643C1.91832 12.8779 0.979492 13.8168 0.979492 14.9749C0.979492 16.133 1.91832 17.0718 3.07643 17.0718H106.525C107.684 17.0718 108.622 16.133 108.622 14.9749C108.622 13.8168 107.684 12.8779 106.525 12.8779Z" fill="#AEC6F1" fill-opacity="0.28"/>
<path d="M106.525 24.0615H3.07643C1.91832 24.0615 0.979492 25.0004 0.979492 26.1585C0.979492 27.3166 1.91832 28.2554 3.07643 28.2554H106.525C107.684 28.2554 108.622 27.3166 108.622 26.1585C108.622 25.0004 107.684 24.0615 106.525 24.0615Z" fill="#AEC6F1" fill-opacity="0.28"/>
<path d="M105.826 35.2451H3.77541C2.23127 35.2451 0.979492 36.4969 0.979492 38.041C0.979492 39.5852 2.23127 40.837 3.77541 40.837H105.826C107.371 40.837 108.622 39.5852 108.622 38.041C108.622 36.4969 107.371 35.2451 105.826 35.2451Z" fill="#AEC6F1" fill-opacity="0.28"/>
</svg>
