<svg width="158" height="139" viewBox="0 0 158 139" fill="none" xmlns="http://www.w3.org/2000/svg">
<circle cx="14" cy="14" r="14" fill="#FEE4E7"/>
<rect x="126" width="32" height="7" rx="3.5" fill="#FEE4E7"/>
<rect x="115" y="14" width="43" height="7" rx="3.5" fill="#FEE4E7"/>
<path d="M100.5 59H8.5C3.80558 59 0 62.8056 0 67.5C0 72.1944 3.80558 76 8.5 76H100.5C105.194 76 109 72.1944 109 67.5C109 62.8056 105.194 59 100.5 59Z" fill="#FEE4E7"/>
<path d="M149.5 59H130.5C125.806 59 122 62.8056 122 67.5C122 72.1944 125.806 76 130.5 76H149.5C154.194 76 158 72.1944 158 67.5C158 62.8056 154.194 59 149.5 59Z" fill="#FEE4E7"/>
<path d="M142.5 92H137.5C135.567 92 134 93.567 134 95.5C134 97.433 135.567 99 137.5 99H142.5C144.433 99 146 97.433 146 95.5C146 93.567 144.433 92 142.5 92Z" fill="#FEE4E7"/>
<path d="M102.5 92H94.5C92.567 92 91 93.567 91 95.5C91 97.433 92.567 99 94.5 99H102.5C104.433 99 106 97.433 106 95.5C106 93.567 104.433 92 102.5 92Z" fill="#FEE4E7"/>
<path d="M72.5 92H3.5C1.567 92 0 93.567 0 95.5C0 97.433 1.567 99 3.5 99H72.5C74.433 99 76 97.433 76 95.5C76 93.567 74.433 92 72.5 92Z" fill="#FEE4E7"/>
<path d="M102.5 102H3.5C1.567 102 0 103.567 0 105.5C0 107.433 1.56701 109 3.5 109H102.5C104.433 109 106 107.433 106 105.5C106 103.567 104.433 102 102.5 102Z" fill="#FEE4E7"/>
<path d="M142.5 122H137.5C135.567 122 134 123.567 134 125.5C134 127.433 135.567 129 137.5 129H142.5C144.433 129 146 127.433 146 125.5C146 123.567 144.433 122 142.5 122Z" fill="#FEE4E7"/>
<path d="M102.5 122H94.5C92.567 122 91 123.567 91 125.5C91 127.433 92.567 129 94.5 129H102.5C104.433 129 106 127.433 106 125.5C106 123.567 104.433 122 102.5 122Z" fill="#FEE4E7"/>
<path d="M72.5 122H3.5C1.567 122 0 123.567 0 125.5C0 127.433 1.567 129 3.5 129H72.5C74.433 129 76 127.433 76 125.5C76 123.567 74.433 122 72.5 122Z" fill="#FEE4E7"/>
<path d="M102.5 132H3.5C1.567 132 0 133.567 0 135.5C0 137.433 1.56701 139 3.5 139H102.5C104.433 139 106 137.433 106 135.5C106 133.567 104.433 132 102.5 132Z" fill="#FEE4E7"/>
</svg>
