<svg width="158" height="20" viewBox="0 0 158 20" fill="none" xmlns="http://www.w3.org/2000/svg">
<path d="M154.5 0H139.5C137.567 0 136 1.567 136 3.5C136 5.433 137.567 7 139.5 7H154.5C156.433 7 158 5.433 158 3.5C158 1.567 156.433 0 154.5 0Z" fill="#F7B422" fill-opacity="0.11"/>
<path d="M109.5 0H3.5C1.567 0 0 1.567 0 3.5C0 5.433 1.567 7 3.5 7H109.5C111.433 7 113 5.433 113 3.5C113 1.567 111.433 0 109.5 0Z" fill="#F7B422" fill-opacity="0.11"/>
<path d="M154.5 13H3.5C1.567 13 0 14.567 0 16.5C0 18.433 1.567 20 3.5 20H154.5C156.433 20 158 18.433 158 16.5C158 14.567 156.433 13 154.5 13Z" fill="#F7B422" fill-opacity="0.11"/>
</svg>
