<svg width="173" height="250" viewBox="0 0 173 250" fill="none" xmlns="http://www.w3.org/2000/svg">
<rect width="172.535" height="250" rx="3" fill="#FC892E"/>
<rect width="172.535" height="218.31" rx="3" fill="white"/>
<path d="M111.436 230.639H52.2954C50.6386 230.639 49.2954 231.982 49.2954 233.639V234.681C49.2954 236.338 50.6386 237.681 52.2954 237.681H111.436C113.093 237.681 114.436 236.338 114.436 234.681V233.639C114.436 231.982 113.093 230.639 111.436 230.639Z" fill="#E5F7EF" fill-opacity="0.25"/>
<ellipse cx="29.9279" cy="29.0511" rx="12.3239" ry="11.4437" fill="#FED198" fill-opacity="0.36"/>
<rect x="126.762" y="17.6074" width="26.4084" height="5.28169" rx="2.64084" fill="#FED198" fill-opacity="0.36"/>
<rect x="116.201" y="29.9316" width="36.9718" height="5.28169" rx="2.64084" fill="#FED198" fill-opacity="0.36"/>
<path d="M150.527 89.7891H138.203C136.744 89.7891 135.562 90.9714 135.562 92.4299C135.562 93.8884 136.744 95.0707 138.203 95.0707H150.527C151.985 95.0707 153.168 93.8884 153.168 92.4299C153.168 90.9714 151.985 89.7891 150.527 89.7891Z" fill="#FED198" fill-opacity="0.36"/>
<path d="M111.794 89.7891H20.2448C18.7863 89.7891 17.604 90.9714 17.604 92.4299C17.604 93.8884 18.7864 95.0707 20.2449 95.0707H111.794C113.253 95.0707 114.435 93.8884 114.435 92.4299C114.435 90.9714 113.253 89.7891 111.794 89.7891Z" fill="#FED198" fill-opacity="0.36"/>
<path d="M150.526 105.641H20.2448C18.7863 105.641 17.604 106.823 17.604 108.281C17.604 109.74 18.7863 110.922 20.2448 110.922H150.526C151.985 110.922 153.167 109.74 153.167 108.281C153.167 106.823 151.985 105.641 150.526 105.641Z" fill="#FED198" fill-opacity="0.36"/>
<path d="M150.526 119.723H20.2448C18.7863 119.723 17.604 120.905 17.604 122.363C17.604 123.822 18.7863 125.004 20.2448 125.004H150.526C151.985 125.004 153.167 123.822 153.167 122.363C153.167 120.905 151.985 119.723 150.526 119.723Z" fill="#FED198" fill-opacity="0.36"/>
<path d="M150.167 133.793H20.604C18.9471 133.793 17.604 135.136 17.604 136.793V137.835C17.604 139.492 18.9471 140.835 20.604 140.835H150.167C151.824 140.835 153.167 139.492 153.167 137.835V136.793C153.167 135.136 151.824 133.793 150.167 133.793Z" fill="#FED198" fill-opacity="0.36"/>
</svg>
