<svg width="47" height="47" viewBox="0 0 47 47" fill="none" xmlns="http://www.w3.org/2000/svg">
<g clip-path="url(#clip0_1198_1484)">
<path d="M41.7448 0H14.2879C12.7166 0 11.4382 1.27839 11.4382 2.84966V9.2267C6.22966 10.7173 2.40625 15.5218 2.40625 21.2027C2.40625 26.8836 6.22957 31.6881 11.4382 33.1787V44.1505C11.4382 45.7218 12.7166 47.0002 14.2879 47.0002H36.7255C36.9917 47.0002 37.2469 46.8945 37.4352 46.7063L44.3004 39.841C44.4886 39.6527 44.5944 39.3974 44.5944 39.1312V2.84966C44.5944 1.27839 43.3161 0 41.7448 0ZM14.2879 2.00734H41.7448C42.2092 2.00734 42.587 2.3852 42.587 2.84966V5.87874H13.4456V2.84966C13.4456 2.3852 13.8234 2.00734 14.2879 2.00734ZM4.41359 21.2026C4.41359 15.4422 9.09997 10.7558 14.8604 10.7558C20.6208 10.7558 25.3072 15.4422 25.3072 21.2026C25.3072 26.963 20.6208 31.6495 14.8604 31.6495C9.09997 31.6495 4.41359 26.963 4.41359 21.2026ZM13.4456 44.1504V33.576C13.9101 33.6287 14.3821 33.6568 14.8605 33.6568C18.6013 33.6568 21.9619 31.9987 24.2467 29.3791H30.3964C30.9507 29.3791 31.4001 28.9297 31.4001 28.3754C31.4001 27.8211 30.9507 27.3717 30.3964 27.3717H25.6762C26.5492 25.8471 27.1085 24.1213 27.2672 22.2825H30.3963C30.9506 22.2825 31.4 21.8331 31.4 21.2788C31.4 20.7245 30.9506 20.2751 30.3963 20.2751H27.2799C27.1442 18.4404 26.6089 16.7152 25.7614 15.1859H30.3962C30.9506 15.1859 31.3999 14.7366 31.3999 14.1823C31.3999 13.6279 30.9506 13.1786 30.3962 13.1786H24.3767C22.0904 10.4713 18.673 8.74838 14.8602 8.74838C14.3818 8.74838 13.9098 8.77648 13.4453 8.82925V7.88608H42.5867V38.1274H38.5712C36.9998 38.1274 35.7216 39.4057 35.7216 40.9769V44.9927H14.2879C13.8234 44.9927 13.4456 44.6149 13.4456 44.1504ZM37.7293 43.5732V40.977C37.7293 40.5126 38.1071 40.1348 38.5715 40.1348H41.1676L37.7293 43.5732Z" fill="#737CD2"/>
<path d="M34.3396 15.1859H37.6727C38.2271 15.1859 38.6764 14.7366 38.6764 14.1823C38.6764 13.6279 38.2271 13.1786 37.6727 13.1786H34.3396C33.7853 13.1786 33.3359 13.6279 33.3359 14.1823C33.3359 14.7366 33.7853 15.1859 34.3396 15.1859Z" fill="#737CD2"/>
<path d="M34.3396 22.2825H37.6727C38.2271 22.2825 38.6764 21.8331 38.6764 21.2788C38.6764 20.7245 38.2271 20.2751 37.6727 20.2751H34.3396C33.7853 20.2751 33.3359 20.7245 33.3359 21.2788C33.3359 21.8331 33.7853 22.2825 34.3396 22.2825Z" fill="#737CD2"/>
<path d="M34.3396 29.3791H37.6727C38.2271 29.3791 38.6764 28.9298 38.6764 28.3754C38.6764 27.8211 38.2271 27.3718 37.6727 27.3718H34.3396C33.7853 27.3718 33.3359 27.8211 33.3359 28.3754C33.3359 28.9298 33.7853 29.3791 34.3396 29.3791Z" fill="#737CD2"/>
<path d="M37.673 36.4756C38.2274 36.4756 38.6767 36.0262 38.6767 35.4719C38.6767 34.9176 38.2274 34.4683 37.673 34.4683H28.2839C27.7296 34.4683 27.2803 34.9176 27.2803 35.4719C27.2803 36.0262 27.7296 36.4756 28.2839 36.4756H37.673Z" fill="#737CD2"/>
<path d="M22.653 16.1395L21.4286 14.915C21.0988 14.5853 20.6604 14.4037 20.1941 14.4037C19.7277 14.4037 19.2893 14.5853 18.9595 14.915L12.537 21.3375L10.7616 19.5622C10.432 19.2326 9.99351 19.051 9.52723 19.051C9.06095 19.051 8.62249 19.2326 8.29281 19.5623L7.06804 20.7869C6.38746 21.4676 6.38746 22.5752 7.06814 23.2559L11.3024 27.49C11.6322 27.8199 12.0706 28.0015 12.537 28.0015H12.5371C13.0034 28.0015 13.4418 27.8199 13.7714 27.4902L22.6531 18.6085C23.3337 17.9278 23.3337 16.8201 22.653 16.1395ZM12.5369 25.8858L8.67239 22.0214L9.52713 21.1666L11.8272 23.4666C12.2192 23.8586 12.8546 23.8586 13.2466 23.4666L20.1941 16.5192L21.0488 17.374L12.5369 25.8858Z" fill="#737CD2"/>
</g>
<defs>
<clipPath id="clip0_1198_1484">
<rect width="47" height="47" fill="white"/>
</clipPath>
</defs>
</svg>
