<svg width="49" height="49" viewBox="0 0 49 49" fill="none" xmlns="http://www.w3.org/2000/svg">
<g clip-path="url(#clip0_1197_1448)">
<path d="M47.9429 1.05475L33.0275 47.9318L23.3857 25.6119L47.9429 1.05475Z" fill="#50CB93" fill-opacity="0.21"/>
<path d="M0.684662 18.0312L22.5859 26.4467L32.0497 48.3554C32.2191 48.7463 32.6048 48.9978 33.0277 48.9978C33.0458 48.9978 33.0629 48.9978 33.081 48.9967C33.5253 48.9743 33.9077 48.6792 34.043 48.2563L48.9585 1.37919C48.9745 1.33019 48.9713 1.28011 48.9798 1.2311C48.9883 1.1821 48.999 1.13522 49 1.08408C49.0032 0.979673 48.9873 0.879527 48.9606 0.780446C48.9542 0.758073 48.9596 0.734634 48.9521 0.712261C48.951 0.707999 48.9468 0.704803 48.9457 0.700542C48.902 0.578022 48.836 0.465091 48.7507 0.364944C48.723 0.331917 48.6868 0.31061 48.6559 0.281844C48.6048 0.234967 48.56 0.182763 48.4982 0.145475C48.4833 0.136951 48.4663 0.134821 48.4514 0.127363C48.4066 0.102859 48.3597 0.0900743 48.3118 0.0719627C48.2372 0.0442626 48.1637 0.0208241 48.0859 0.0101702C48.0369 0.00377789 47.989 0.00271251 47.9378 0.00377789C47.8526 0.00484328 47.7706 0.0154972 47.6875 0.0368049C47.6587 0.0442626 47.6299 0.0378703 47.6012 0.0474588L0.724081 16.0283C0.297926 16.1721 0.00920557 16.5674 0.000682458 17.0159C-0.00784065 17.4644 0.264899 17.8703 0.684662 18.0312ZM32.8754 44.895L24.6506 25.8544L45.5993 4.90456L32.8754 44.895ZM43.9501 3.54193L23.1228 24.3692L4.19299 17.0958L43.9501 3.54193Z" fill="#50CB93"/>
<path d="M1.06565 48.9972C1.33839 48.9972 1.61113 48.8928 1.81888 48.6851L16.7343 33.7696C17.1509 33.3531 17.1509 32.6797 16.7343 32.2632C16.3178 31.8466 15.6444 31.8466 15.2279 32.2632L0.312425 47.1786C-0.104142 47.5952 -0.104142 48.2685 0.312425 48.6851C0.520176 48.8928 0.792915 48.9972 1.06565 48.9972Z" fill="#50CB93" fill-opacity="0.21"/>
<path d="M19.4894 39.7209L12.0317 47.1786C11.6151 47.5952 11.6151 48.2685 12.0317 48.685C12.2394 48.8928 12.5122 48.9972 12.7849 48.9972C13.0576 48.9972 13.3304 48.8928 13.5381 48.685L20.9958 41.2273C21.4124 40.8108 21.4124 40.1374 20.9958 39.7209C20.5793 39.3043 19.9059 39.3043 19.4894 39.7209Z" fill="#50CB93" fill-opacity="0.21"/>
<path d="M1.06565 37.2779C1.33839 37.2779 1.61113 37.1735 1.81888 36.9658L9.2766 29.508C9.69317 29.0915 9.69317 28.4181 9.2766 28.0016C8.86003 27.585 8.18671 27.585 7.77014 28.0016L0.312425 35.4593C-0.104142 35.8759 -0.104142 36.5492 0.312425 36.9658C0.520176 37.1735 0.792915 37.2779 1.06565 37.2779Z" fill="#50CB93" fill-opacity="0.21"/>
</g>
<defs>
<clipPath id="clip0_1197_1448">
<rect width="49" height="49" fill="white"/>
</clipPath>
</defs>
</svg>
