<svg width="58" height="58" viewBox="0 0 58 58" fill="none" xmlns="http://www.w3.org/2000/svg">
<path fill-rule="evenodd" clip-rule="evenodd" d="M0.604492 14.1548C0.604492 10.7115 3.34717 7.85419 6.81093 7.85419H46.3563C49.8202 7.85419 52.5628 10.7115 52.5628 14.1548V26.5834C52.5628 27.5843 51.7513 28.3959 50.7503 28.3959C49.7493 28.3959 48.9378 27.5843 48.9378 26.5834V14.1548C48.9378 12.6407 47.7459 11.4792 46.3563 11.4792H6.81093C5.42127 11.4792 4.22949 12.6407 4.22949 14.1548V36.5954C4.22949 38.1094 5.42127 39.2709 6.81093 39.2709H24.167C25.168 39.2709 25.9795 40.0824 25.9795 41.0834C25.9795 42.0843 25.168 42.8959 24.167 42.8959H6.81093C3.34717 42.8959 0.604492 40.0386 0.604492 36.5954V14.1548Z" fill="#66DFD8"/>
<path fill-rule="evenodd" clip-rule="evenodd" d="M0.604492 16.9167C0.604492 15.9157 1.41598 15.1042 2.41699 15.1042H50.7503C51.7513 15.1042 52.5628 15.9157 52.5628 16.9167C52.5628 17.9177 51.7513 18.7292 50.7503 18.7292H2.41699C1.41598 18.7292 0.604492 17.9177 0.604492 16.9167Z" fill="#66DFD8"/>
<path fill-rule="evenodd" clip-rule="evenodd" d="M5.4375 29C5.4375 27.999 6.24899 27.1875 7.25 27.1875H12.0833C13.0843 27.1875 13.8958 27.999 13.8958 29C13.8958 30.001 13.0843 30.8125 12.0833 30.8125H7.25C6.24899 30.8125 5.4375 30.001 5.4375 29Z" fill="#66DFD8"/>
<path fill-rule="evenodd" clip-rule="evenodd" d="M5.4375 35.0417C5.4375 34.0407 6.24899 33.2292 7.25 33.2292H16.9167C17.9177 33.2292 18.7292 34.0407 18.7292 35.0417C18.7292 36.0427 17.9177 36.8542 16.9167 36.8542H7.25C6.24899 36.8542 5.4375 36.0427 5.4375 35.0417Z" fill="#66DFD8"/>
<path fill-rule="evenodd" clip-rule="evenodd" d="M29.6045 43.5C29.6045 35.8257 35.826 29.6042 43.5003 29.6042C51.1747 29.6042 57.3962 35.8257 57.3962 43.5C57.3962 51.1744 51.1747 57.3959 43.5003 57.3959C35.826 57.3959 29.6045 51.1744 29.6045 43.5ZM49.6152 43.5732C50.3231 42.8654 50.3231 41.718 49.6152 41.0101C48.9074 40.3023 47.7599 40.3023 47.0521 41.0101L43.5003 44.5617L41.1569 42.2185C40.449 41.5106 39.3016 41.5106 38.5938 42.2185C37.8859 42.9263 37.8859 44.0737 38.5938 44.7816L42.2188 48.4066C42.9266 49.1144 44.074 49.1144 44.7819 48.4066L49.6152 43.5732Z" fill="#66DFD8"/>
</svg>
