<svg width="6" height="12" viewBox="0 0 6 12" fill="none" xmlns="http://www.w3.org/2000/svg">
<path d="M3.38248 0.199619C3.21568 0.199619 3.08077 0.334534 3.08077 0.501337L3.08077 10.772L1.27537 8.96659C1.15763 8.84884 0.968746 8.84884 0.851003 8.96659C0.73326 9.08433 0.73326 9.27321 0.851003 9.39095L3.16907 11.709C3.28682 11.8268 3.4757 11.8268 3.59344 11.709L5.91151 9.39095C5.97038 9.33208 5.99982 9.25604 5.99982 9.17754C5.99982 9.09905 5.97038 9.02301 5.91151 8.96413C5.79377 8.84639 5.60489 8.84639 5.48714 8.96413L3.68175 10.7695L3.68175 0.49643C3.68175 0.334534 3.54929 0.199619 3.38248 0.199619Z" fill="#2B3E62"/>
</svg>
