<svg width="27" height="27" viewBox="0 0 27 27" fill="none" xmlns="http://www.w3.org/2000/svg">
<path d="M13.5002 5.84424C11.2199 5.84424 9.36475 7.69938 9.36475 9.97967C9.36475 12.26 11.2199 14.1151 13.5002 14.1151C15.7805 14.1151 17.6356 12.26 17.6356 9.97967C17.6356 7.69938 15.7805 5.84424 13.5002 5.84424ZM13.5002 12.0645C12.3505 12.0645 11.4154 11.1291 11.4154 9.97972C11.4154 8.83001 12.3505 7.89492 13.5002 7.89492C14.6496 7.89492 15.585 8.83001 15.585 9.97972C15.585 11.1294 14.6496 12.0645 13.5002 12.0645Z" fill="#104CBA" fill-opacity="0.65"/>
<path d="M13.4999 12.0988C12.9336 12.0988 12.4746 12.5578 12.4746 13.1241V25.2912C12.4746 25.8575 12.9336 26.3165 13.4999 26.3165C14.0662 26.3165 14.5252 25.8575 14.5252 25.2912V13.1241C14.5252 12.5578 14.0662 12.0988 13.4999 12.0988Z" fill="#104CBA" fill-opacity="0.65"/>
<path d="M13.4999 0.683594C12.9336 0.683594 12.4746 1.14259 12.4746 1.70891V6.86965C12.4746 7.43597 12.9336 7.89497 13.4999 7.89497C14.0662 7.89497 14.5252 7.43597 14.5252 6.86965V1.70891C14.5252 1.14259 14.0662 0.683594 13.4999 0.683594Z" fill="#104CBA" fill-opacity="0.65"/>
<path d="M22.8644 12.8848C20.5845 12.8848 18.729 14.7399 18.729 17.0202C18.729 19.3005 20.5845 21.1556 22.8644 21.1556C25.1447 21.1556 26.9999 19.3005 26.9999 17.0202C26.9999 14.7399 25.1444 12.8848 22.8644 12.8848ZM22.8644 19.1054C21.7144 19.1054 20.7793 18.1699 20.7793 17.0202C20.7793 15.8705 21.7147 14.9354 22.8644 14.9354C24.0142 14.9354 24.9492 15.8708 24.9492 17.0202C24.9492 18.1703 24.0138 19.1054 22.8644 19.1054Z" fill="#104CBA" fill-opacity="0.65"/>
<path d="M22.8647 19.1051C22.2984 19.1051 21.8394 19.5641 21.8394 20.1304V25.2912C21.8394 25.8575 22.2984 26.3165 22.8647 26.3165C23.4313 26.3165 23.89 25.8575 23.89 25.2912V20.1304C23.89 19.5641 23.431 19.1051 22.8647 19.1051Z" fill="#104CBA" fill-opacity="0.65"/>
<path d="M22.8647 0.683594C22.2984 0.683594 21.8394 1.14259 21.8394 1.70891V13.876C21.8394 14.4423 22.2984 14.9013 22.8647 14.9013C23.4313 14.9013 23.89 14.4423 23.89 13.876V1.70891C23.89 1.14259 23.431 0.683594 22.8647 0.683594Z" fill="#104CBA" fill-opacity="0.65"/>
<path d="M4.13543 12.8848C1.85514 12.8848 0 14.7399 0 17.0202C0 19.3005 1.85514 21.1556 4.13543 21.1556C6.41572 21.1556 8.27086 19.3005 8.27086 17.0202C8.27091 14.7399 6.41577 12.8848 4.13543 12.8848ZM4.13543 19.1054C2.98571 19.1054 2.05063 18.1699 2.05063 17.0202C2.05063 15.8705 2.98571 14.9354 4.13543 14.9354C5.28514 14.9354 6.22023 15.8708 6.22023 17.0202C6.22023 18.1703 5.28514 19.1054 4.13543 19.1054Z" fill="#104CBA" fill-opacity="0.65"/>
<path d="M4.13567 19.1051C3.56935 19.1051 3.11035 19.5641 3.11035 20.1304V25.2912C3.11035 25.8575 3.56935 26.3165 4.13567 26.3165C4.70198 26.3165 5.16098 25.8575 5.16098 25.2912V20.1304C5.16098 19.5641 4.70198 19.1051 4.13567 19.1051Z" fill="#104CBA" fill-opacity="0.65"/>
<path d="M4.13567 0.683594C3.56935 0.683594 3.11035 1.14259 3.11035 1.70891V13.876C3.11035 14.4423 3.56935 14.9013 4.13567 14.9013C4.70198 14.9013 5.16098 14.4423 5.16098 13.876V1.70891C5.16098 1.14259 4.70198 0.683594 4.13567 0.683594Z" fill="#104CBA" fill-opacity="0.65"/>
</svg>
