<svg width="38" height="38" viewBox="0 0 38 38" fill="none" xmlns="http://www.w3.org/2000/svg">
<path d="M36.8867 5.22266H23.4717C21.6445 5.22266 20.0195 6.10467 19 7.46525C17.9805 6.10467 16.3555 5.22266 14.5283 5.22266H1.11328C0.498453 5.22266 0 5.72111 0 6.33594V31.6631C0 32.2779 0.498453 32.7764 1.11328 32.7764H36.8867C37.5015 32.7764 38 32.2779 38 31.6631V6.33594C38 5.72111 37.5015 5.22266 36.8867 5.22266ZM23.4717 7.44922H35.7734V26.0781H23.4717C22.2121 26.0781 21.0487 26.4972 20.1133 27.2034V10.8076C20.1133 8.95579 21.6198 7.44922 23.4717 7.44922ZM2.22656 7.44922H14.5283C16.3802 7.44922 17.8867 8.95579 17.8867 10.8076V27.2034C16.9514 26.4972 15.7879 26.0781 14.5283 26.0781H2.22656V7.44922ZM2.22656 28.3047H14.5283C15.99 28.3047 17.2359 29.2436 17.6963 30.5498H2.22656V28.3047ZM20.3037 30.5498C20.7641 29.2436 22.0099 28.3047 23.4717 28.3047H35.7734V30.5498H20.3037Z" fill="#4C68EF"/>
<path d="M5.58496 13.4043H14.5283C15.1431 13.4043 15.6416 12.9058 15.6416 12.291C15.6416 11.6762 15.1431 11.1777 14.5283 11.1777H5.58496C4.97013 11.1777 4.47168 11.6762 4.47168 12.291C4.47168 12.9058 4.97013 13.4043 5.58496 13.4043Z" fill="#4C68EF"/>
<path d="M5.58496 17.877H14.5283C15.1431 17.877 15.6416 17.3785 15.6416 16.7637C15.6416 16.1488 15.1431 15.6504 14.5283 15.6504H5.58496C4.97013 15.6504 4.47168 16.1488 4.47168 16.7637C4.47168 17.3785 4.97013 17.877 5.58496 17.877Z" fill="#4C68EF"/>
<path d="M15.6416 21.2344C15.6416 20.6195 15.1431 20.1211 14.5283 20.1211H5.58496C4.97013 20.1211 4.47168 20.6195 4.47168 21.2344C4.47168 21.8492 4.97013 22.3477 5.58496 22.3477H14.5283C15.1431 22.3477 15.6416 21.8492 15.6416 21.2344Z" fill="#4C68EF"/>
<path d="M23.4717 13.4043H32.415C33.0299 13.4043 33.5283 12.9058 33.5283 12.291C33.5283 11.6762 33.0299 11.1777 32.415 11.1777H23.4717C22.8569 11.1777 22.3584 11.6762 22.3584 12.291C22.3584 12.9058 22.8569 13.4043 23.4717 13.4043Z" fill="#4C68EF"/>
<path d="M23.4717 17.877H32.415C33.0299 17.877 33.5283 17.3785 33.5283 16.7637C33.5283 16.1488 33.0299 15.6504 32.415 15.6504H23.4717C22.8569 15.6504 22.3584 16.1488 22.3584 16.7637C22.3584 17.3785 22.8569 17.877 23.4717 17.877Z" fill="#4C68EF"/>
<path d="M23.4717 22.3477H32.415C33.0299 22.3477 33.5283 21.8492 33.5283 21.2344C33.5283 20.6195 33.0299 20.1211 32.415 20.1211H23.4717C22.8569 20.1211 22.3584 20.6195 22.3584 21.2344C22.3584 21.8492 22.8569 22.3477 23.4717 22.3477Z" fill="#4C68EF"/>
</svg>
