<svg width="20" height="20" viewBox="0 0 20 20" fill="none" xmlns="http://www.w3.org/2000/svg">
<path d="M17.2168 4.63027L12.987 0.400508C12.7287 0.142227 12.3854 0 12.0202 0H3.75C2.99613 0 2.38281 0.61332 2.38281 1.36719V18.6328C2.38281 19.3867 2.99613 20 3.75 20H16.25C17.0039 20 17.6172 19.3867 17.6172 18.6328V5.59703C17.6172 5.23191 17.475 4.88859 17.2168 4.63027ZM15.6167 4.6875H13.125C13.0173 4.6875 12.9297 4.59988 12.9297 4.49219V2.00055L15.6167 4.6875ZM16.25 18.8281H3.75C3.6423 18.8281 3.55469 18.7405 3.55469 18.6328V1.36719C3.55469 1.25949 3.6423 1.17188 3.75 1.17188H11.7578V4.49219C11.7578 5.24605 12.3711 5.85938 13.125 5.85938H16.4453V18.6328C16.4453 18.7405 16.3577 18.8281 16.25 18.8281Z" fill="#104CBA"/>
<path d="M13.0148 11.0427C12.8507 10.3844 12.3952 9.86238 11.8059 9.59977C12.0226 9.26445 12.1489 8.86559 12.1489 8.4375C12.1489 7.25285 11.1851 6.28906 10.0004 6.28906C8.8158 6.28906 7.85201 7.25285 7.85201 8.4375C7.85201 8.86559 7.97833 9.26445 8.19497 9.5998C7.60572 9.86238 7.15021 10.3844 6.98607 11.0427L6.62318 12.4981C6.54998 12.7918 6.61482 13.0971 6.80123 13.3356C6.98759 13.5741 7.26806 13.7109 7.57076 13.7109H12.4301C12.7328 13.7109 13.0133 13.5741 13.1997 13.3356C13.386 13.0971 13.4509 12.7918 13.3777 12.4981L13.0148 11.0427ZM10.0004 7.46094C10.5389 7.46094 10.977 7.89902 10.977 8.4375C10.977 8.97598 10.5389 9.41406 10.0004 9.41406C9.46197 9.41406 9.02388 8.97598 9.02388 8.4375C9.02388 7.89902 9.46197 7.46094 10.0004 7.46094ZM7.82072 12.5391L8.12314 11.3262C8.23181 10.8904 8.62146 10.5859 9.07068 10.5859H10.9302C11.3794 10.5859 11.7691 10.8904 11.8777 11.3263L12.1802 12.5391H7.82072Z" fill="#104CBA"/>
<path d="M12.6172 14.8828H7.38281C7.05922 14.8828 6.79688 15.1452 6.79688 15.4688C6.79688 15.7923 7.05922 16.0547 7.38281 16.0547H12.6172C12.9408 16.0547 13.2031 15.7923 13.2031 15.4688C13.2031 15.1452 12.9408 14.8828 12.6172 14.8828Z" fill="#104CBA"/>
</svg>
