<svg width="27" height="27" viewBox="0 0 27 27" fill="none" xmlns="http://www.w3.org/2000/svg">
<path fill-rule="evenodd" clip-rule="evenodd" d="M0 2.95312C0 1.55516 1.13328 0.421875 2.53125 0.421875H19.4062C20.8043 0.421875 21.9375 1.55516 21.9375 2.95312V13.0781C21.9375 13.5441 21.5598 13.9219 21.0937 13.9219C20.6277 13.9219 20.25 13.5441 20.25 13.0781V2.95312C20.25 2.48714 19.8723 2.10937 19.4062 2.10937H2.53125C2.06526 2.10937 1.6875 2.48714 1.6875 2.95312V21.5156C1.6875 21.9816 2.06526 22.3594 2.53125 22.3594H15.1875C15.6535 22.3594 16.0312 22.7371 16.0312 23.2031C16.0312 23.6691 15.6535 24.0469 15.1875 24.0469H2.53125C1.13328 24.0469 0 22.9136 0 21.5156V2.95312ZM3.375 5.48437C3.375 4.55239 4.13052 3.79687 5.0625 3.79687H16.875C17.807 3.79687 18.5625 4.55239 18.5625 5.48437V12.2344C18.5625 13.1664 17.807 13.9219 16.875 13.9219H5.0625C4.13052 13.9219 3.375 13.1664 3.375 12.2344V5.48437ZM16.875 5.48437H5.0625V12.2344H16.875V5.48437ZM4.21875 15.6094C3.75276 15.6094 3.375 15.9871 3.375 16.4531C3.375 16.9191 3.75276 17.2969 4.21875 17.2969H17.7187C18.1848 17.2969 18.5625 16.9191 18.5625 16.4531C18.5625 15.9871 18.1848 15.6094 17.7187 15.6094H4.21875ZM3.375 19.8281C3.375 19.3621 3.75276 18.9844 4.21875 18.9844H13.5C13.966 18.9844 14.3437 19.3621 14.3437 19.8281C14.3437 20.2941 13.966 20.6719 13.5 20.6719H4.21875C3.75276 20.6719 3.375 20.2941 3.375 19.8281ZM21.8962 16.1924C21.7833 15.8448 21.4593 15.6094 21.0937 15.6094C20.7282 15.6094 20.4042 15.8448 20.2913 16.1924L19.3441 19.1075H16.279C15.9135 19.1075 15.5895 19.3429 15.4766 19.6905C15.3636 20.0381 15.4874 20.419 15.7831 20.6338L18.2628 22.4355L17.3156 25.3506C17.2026 25.6982 17.3264 26.079 17.6221 26.2939C17.9179 26.5088 18.3183 26.5088 18.6141 26.2939L21.0937 24.4923L23.5734 26.2939C23.8692 26.5088 24.2696 26.5088 24.5654 26.2939C24.8611 26.079 24.9848 25.6982 24.8719 25.3506L23.9247 22.4355L26.4044 20.6338C26.7001 20.419 26.8239 20.0381 26.7109 19.6905C26.598 19.3429 26.274 19.1075 25.9084 19.1075H22.8433L21.8962 16.1924ZM20.7596 20.2119L21.0937 19.1836L21.4279 20.2119C21.5409 20.5596 21.8648 20.795 22.2304 20.795H23.3116L22.4368 21.4306C22.1411 21.6454 22.0174 22.0263 22.1304 22.3739L22.4645 23.4023L21.5897 22.7667C21.294 22.5518 20.8935 22.5518 20.5978 22.7667L19.723 23.4023L20.0571 22.3739C20.1701 22.0263 20.0463 21.6454 19.7506 21.4306L18.8758 20.795H19.9571C20.3226 20.795 20.6466 20.5596 20.7596 20.2119Z" fill="#104CBA" fill-opacity="0.65"/>
</svg>
