<svg width="70" height="70" viewBox="0 0 70 70" fill="none" xmlns="http://www.w3.org/2000/svg">
<path d="M52.6803 18.8789C52.1128 18.8789 51.653 19.3387 51.653 19.9062V63.7886C51.653 64.1613 51.3498 64.4644 50.9771 64.4644H18.8632C18.4905 64.4644 18.1874 64.1613 18.1874 63.7886V44.8078C18.1874 44.2403 17.7276 43.7805 17.1601 43.7805C16.5926 43.7805 16.1328 44.2403 16.1328 44.8078V63.7885C16.1328 65.2939 17.3576 66.5189 18.8632 66.5189H50.9771C52.4826 66.5189 53.7076 65.2941 53.7076 63.7885V19.9062C53.7076 19.3387 53.2476 18.8789 52.6803 18.8789Z" fill="#104CBA" fill-opacity="0.65"/>
<path d="M17.1601 41.4538C17.7276 41.4538 18.1874 40.994 18.1874 40.4265V14.0742C18.1874 13.7015 18.4905 13.3984 18.8632 13.3984H41.1757C41.7432 13.3984 42.203 12.9385 42.203 12.3711C42.203 11.8036 41.7432 11.3438 41.1757 11.3438H18.8632C17.3578 11.3438 16.1328 12.5686 16.1328 14.0742V40.4265C16.1328 40.9939 16.5928 41.4538 17.1601 41.4538Z" fill="#104CBA" fill-opacity="0.65"/>
<path d="M48.396 35.11V21.3074C48.396 19.7272 47.1103 18.4414 45.53 18.4414H24.3109C22.7306 18.4414 21.4448 19.7272 21.4448 21.3074V35.11C21.4448 36.6904 22.7306 37.9762 24.3109 37.9762H29.1766C29.7441 37.9762 30.2039 37.5164 30.2039 36.9489C30.2039 36.3814 29.7441 35.9216 29.1766 35.9216H24.3109C23.8634 35.9216 23.4994 35.5575 23.4994 35.11V21.3074C23.4994 20.86 23.8634 20.496 24.3109 20.496H45.53C45.9775 20.496 46.3414 20.86 46.3414 21.3074V35.11C46.3414 35.5575 45.9775 35.9216 45.53 35.9216H33.5547C32.9872 35.9216 32.5274 36.3814 32.5274 36.9489C32.5274 37.5164 32.9872 37.9762 33.5547 37.9762H45.53C47.1104 37.9761 48.396 36.6904 48.396 35.11Z" fill="#104CBA" fill-opacity="0.65"/>
<path d="M43.8347 58.4207H40.159C39.5916 58.4207 39.1317 58.8805 39.1317 59.448C39.1317 60.0155 39.5916 60.4753 40.159 60.4753H43.8347C45.1987 60.4753 46.3085 59.3656 46.3085 58.0017V54.3995C46.3085 53.0355 45.1987 51.9258 43.8347 51.9258H26.006C24.642 51.9258 23.5322 53.0355 23.5322 54.3995V58.0017C23.5322 59.3656 24.642 60.4753 26.006 60.4753H35.7811C36.3486 60.4753 36.8084 60.0155 36.8084 59.448C36.8084 58.8805 36.3486 58.4207 35.7811 58.4207H26.006C25.7748 58.4207 25.5868 58.2327 25.5868 58.0017V54.3995C25.5868 54.1683 25.7748 53.9804 26.006 53.9804H43.8347C44.0659 53.9804 44.2539 54.1683 44.2539 54.3995V58.0017C44.2539 58.2327 44.0659 58.4207 43.8347 58.4207Z" fill="#104CBA" fill-opacity="0.65"/>
<path d="M24.9926 43.6445H45.1441C45.7116 43.6445 46.1714 43.1846 46.1714 42.6172C46.1714 42.0497 45.7116 41.5898 45.1441 41.5898H24.9926C24.4252 41.5898 23.9653 42.0497 23.9653 42.6172C23.9653 43.1846 24.4252 43.6445 24.9926 43.6445Z" fill="#104CBA" fill-opacity="0.65"/>
<path d="M24.9926 48.8124H45.1441C45.7116 48.8124 46.1714 48.3526 46.1714 47.7851C46.1714 47.2176 45.7116 46.7578 45.1441 46.7578H24.9926C24.4252 46.7578 23.9653 47.2176 23.9653 47.7851C23.9653 48.3526 24.4252 48.8124 24.9926 48.8124Z" fill="#104CBA" fill-opacity="0.65"/>
<path d="M13.0511 16.9297H2.7014C1.21194 16.9297 0 18.1416 0 19.6314V58.2908C0 59.7805 1.21194 60.9925 2.70153 60.9925H13.0513C13.6187 60.9925 14.0786 60.5327 14.0786 59.9652C14.0786 59.3977 13.6187 58.9379 13.0513 58.9379H2.70153C2.34485 58.9379 2.05461 58.6476 2.05461 58.2908V19.6314C2.05461 19.2747 2.34472 18.9843 2.70153 18.9843H13.0513C13.6187 18.9843 14.0786 18.5245 14.0786 17.957C14.0786 17.3895 13.6186 16.9297 13.0511 16.9297Z" fill="#104CBA" fill-opacity="0.65"/>
<path d="M67.2983 16.9297H56.7895C56.222 16.9297 55.7622 17.3895 55.7622 17.957C55.7622 18.5245 56.222 18.9843 56.7895 18.9843H67.2983C67.6549 18.9843 67.9453 19.2745 67.9453 19.6314V58.2908C67.9453 58.6475 67.6551 58.9379 67.2983 58.9379H56.7895C56.222 58.9379 55.7622 59.3977 55.7622 59.9652C55.7622 60.5327 56.222 60.9925 56.7895 60.9925H67.2983C68.788 60.9925 69.9999 59.7805 69.9999 58.2908V19.6314C69.9999 18.1416 68.788 16.9297 67.2983 16.9297Z" fill="#104CBA" fill-opacity="0.65"/>
<path d="M13.0513 24.5937C13.6188 24.5937 14.0786 24.1338 14.0786 23.5664C14.0786 22.9989 13.6188 22.5391 13.0513 22.5391H6.30478C5.26433 22.5391 4.41797 23.3856 4.41797 24.426V34.0151C4.41797 35.0557 5.26447 35.9021 6.30478 35.9021H13.0513C13.6188 35.9021 14.0786 35.4423 14.0786 34.8748C14.0786 34.3073 13.6188 33.8475 13.0513 33.8475H6.47257V24.5935H13.0513V24.5937Z" fill="#104CBA" fill-opacity="0.65"/>
<path d="M65.4228 24.426C65.4228 23.3854 64.5763 22.5391 63.536 22.5391H56.7895C56.222 22.5391 55.7622 22.9989 55.7622 23.5664C55.7622 24.1338 56.222 24.5937 56.7895 24.5937H63.3682V33.8476H56.7895C56.222 33.8476 55.7622 34.3074 55.7622 34.8749C55.7622 35.4424 56.222 35.9022 56.7895 35.9022H63.536C64.5765 35.9022 65.4228 35.0557 65.4228 34.0153V24.426Z" fill="#104CBA" fill-opacity="0.65"/>
<path d="M56.7895 51.4968C56.222 51.4968 55.7622 51.9566 55.7622 52.5241C55.7622 53.0916 56.222 53.5514 56.7895 53.5514H63.4201C64.5244 53.5514 65.4228 52.653 65.4228 51.5487V47.0925C65.4228 45.9883 64.5244 45.0898 63.4201 45.0898H56.7895C56.222 45.0898 55.7622 45.5497 55.7622 46.1171C55.7622 46.6846 56.222 47.1445 56.7895 47.1445H63.3682V51.4968H56.7895Z" fill="#104CBA" fill-opacity="0.65"/>
<path d="M13.0513 47.1445C13.6188 47.1445 14.0786 46.6846 14.0786 46.1171C14.0786 45.5497 13.6188 45.0898 13.0513 45.0898H6.42066C5.31638 45.0898 4.41797 45.9883 4.41797 47.0925V51.5487C4.41797 52.653 5.31638 53.5514 6.42066 53.5514H13.0513C13.6188 53.5514 14.0786 53.0916 14.0786 52.5241C14.0786 51.9566 13.6188 51.4968 13.0513 51.4968H6.47257V47.1445H13.0513Z" fill="#104CBA" fill-opacity="0.65"/>
<path d="M13.0513 39.0859H8.26217C7.69468 39.0859 7.23486 39.5458 7.23486 40.1132C7.23486 40.6807 7.69468 41.1406 8.26217 41.1406H13.0513C13.6188 41.1406 14.0786 40.6807 14.0786 40.1132C14.0786 39.5458 13.6188 39.0859 13.0513 39.0859Z" fill="#104CBA" fill-opacity="0.65"/>
<path d="M56.7895 41.1406H61.9648C62.5323 41.1406 62.9921 40.6807 62.9921 40.1132C62.9921 39.5458 62.5323 39.0859 61.9648 39.0859H56.7895C56.222 39.0859 55.7622 39.5458 55.7622 40.1132C55.7622 40.6807 56.222 41.1406 56.7895 41.1406Z" fill="#104CBA" fill-opacity="0.65"/>
<path d="M50.7855 3.48438C47.0571 3.48438 44.0239 6.51766 44.0239 10.2458C44.0239 13.974 47.0572 17.0072 50.7855 17.0072C54.5138 17.0072 57.5469 13.974 57.5469 10.2458C57.5469 6.51766 54.5136 3.48438 50.7855 3.48438ZM50.7855 14.9526C48.1901 14.9526 46.0785 12.8412 46.0785 10.2458C46.0785 7.65043 48.1901 5.53898 50.7855 5.53898C53.3809 5.53898 55.4923 7.65043 55.4923 10.2458C55.4923 12.8412 53.3809 14.9526 50.7855 14.9526Z" fill="#104CBA" fill-opacity="0.65"/>
</svg>
