<svg width="20" height="20" viewBox="0 0 20 20" fill="none" xmlns="http://www.w3.org/2000/svg">
<g clip-path="url(#clip0_3238_121)">
<path d="M19.6129 9.61019C19.2838 9.1825 18.7862 8.91715 18.2477 8.88215C17.7089 8.84715 17.1814 9.04594 16.7998 9.42754L16.4467 9.78062V5.75391C16.4467 5.21543 16.0086 4.77734 15.47 4.77734H13.9074C13.3688 4.77734 12.9307 5.21543 12.9307 5.75391V10.9703H11.7587V7.31641C11.7587 6.77793 11.3206 6.33984 10.782 6.33984H9.21938C8.68082 6.33984 8.2427 6.77793 8.2427 7.31641V9.86269H7.2682C7.20211 9.86269 7.13625 9.86574 7.07067 9.87055V8.87891C7.07067 8.34043 6.63254 7.90234 6.09399 7.90234H4.53133C3.99277 7.90234 3.55465 8.34043 3.55465 8.87891V12.1736L3.40965 12.2966C2.98242 11.8759 2.31031 11.7722 1.76633 12.0862L0.683321 12.7114C0.0304699 13.0884 -0.194061 13.9262 0.182931 14.5791L2.91809 19.316C3.17106 19.7541 3.6316 19.9993 4.10453 19.9993C4.33633 19.9993 4.57113 19.9404 4.78586 19.8164L5.86887 19.1912C6.37473 18.8991 6.62317 18.3305 6.53422 17.7855H12.6518C13.3638 17.7855 14.0602 17.4961 14.5625 16.9916L19.4555 12.0768C20.1163 11.4129 20.184 10.3526 19.6129 9.61019ZM18.6248 11.25L13.7318 16.1649C13.4479 16.4501 13.0543 16.6136 12.6518 16.6136H6.66371H5.95942L4.17684 13.5264L4.04363 13.2957L6.28234 11.3964C6.55742 11.163 6.90754 11.0345 7.26828 11.0345H8.97922C9.23109 11.0345 9.46539 11.1477 9.62195 11.3449L9.86754 11.6544C10.1136 11.9644 10.4817 12.1421 10.8774 12.1421H13.2102C13.5658 12.1421 13.855 12.4313 13.855 12.7868C13.855 13.1423 13.5658 13.4315 13.2102 13.4315H8.77945C8.47684 13.4315 8.22789 13.6609 8.19684 13.9553C8.19469 13.9757 8.19348 13.9964 8.19348 14.0174C8.19348 14.341 8.45586 14.6034 8.77949 14.6034H11.1076H13.2103C14.1877 14.6034 14.987 13.8275 15.0252 12.8593L17.6286 10.2561C17.7738 10.1109 17.9668 10.0377 18.1718 10.0516C18.3768 10.0649 18.5586 10.1618 18.6839 10.3246C18.8981 10.6032 18.8727 11.001 18.6248 11.25ZM5.28289 18.1764L4.19992 18.8016C4.1066 18.8553 3.98692 18.8233 3.93305 18.7301L1.19789 13.9931C1.14402 13.8998 1.17613 13.7802 1.26942 13.7263L2.35238 13.1011C2.38309 13.0834 2.41664 13.075 2.44973 13.075C2.51731 13.075 2.58305 13.11 2.61922 13.1726L5.35438 17.9096C5.4082 18.0029 5.37613 18.1225 5.28289 18.1764ZM15.2747 5.94922V10.9525L14.604 11.6232C14.4638 11.4556 14.2939 11.3139 14.1027 11.2055V5.94922H15.2747ZM10.5867 7.51172V10.6754L10.54 10.6164C10.252 10.2536 9.85574 10.0084 9.41473 9.91051V7.51172H10.5867ZM4.72668 9.07422H5.89867V10.2369C5.76715 10.3144 5.64164 10.4031 5.52402 10.5029L4.72668 11.1793V9.07422Z" fill="#104CBA"/>
<path d="M4.72714 6.72091C4.81019 6.72091 4.8946 6.70314 4.9748 6.66568L14.2495 2.33212L14.103 2.7415C13.9939 3.04618 14.1525 3.38157 14.4571 3.49064C14.5224 3.51404 14.589 3.52509 14.6546 3.52509C14.895 3.52509 15.1206 3.37591 15.2062 3.1365L15.8265 1.40392C15.8789 1.25763 15.8711 1.0965 15.8046 0.955988C15.7382 0.81548 15.6186 0.70716 15.4723 0.654777L13.7398 0.0345037C13.435 -0.074715 13.0997 0.083996 12.9907 0.388644C12.8816 0.693332 13.0402 1.02872 13.3448 1.13779L13.7369 1.27814L4.47867 5.60396C4.1855 5.74095 4.05886 6.0897 4.19585 6.38282C4.29542 6.59583 4.5066 6.72091 4.72714 6.72091Z" fill="#104CBA"/>
</g>
<defs>
<clipPath id="clip0_3238_121">
<rect width="20" height="20" fill="white"/>
</clipPath>
</defs>
</svg>
