<svg width="20" height="20" viewBox="0 0 20 20" fill="none" xmlns="http://www.w3.org/2000/svg">
<g clip-path="url(#clip0_3238_113)">
<path d="M19.4139 20H0.585933C0.262342 20 0 19.7376 0 19.4141C0 19.0905 0.262342 18.8281 0.585933 18.8281H19.4139C19.7375 18.8281 19.9998 19.0905 19.9998 19.4141C19.9998 19.7376 19.7375 20 19.4139 20Z" fill="#104CBA"/>
<path d="M4.1406 20H1.79687C1.47328 20 1.21094 19.7376 1.21094 19.414V15.1172C1.21094 14.5787 1.64902 14.1406 2.18749 14.1406H3.74998C4.28845 14.1406 4.72654 14.5787 4.72654 15.1172V19.414C4.72654 19.7376 4.46419 20 4.1406 20ZM2.3828 18.8281H3.55467V15.3125H2.3828V18.8281ZM3.74998 15.3125H3.75037H3.74998Z" fill="#104CBA"/>
<path d="M8.8281 19.9999H6.48437C6.16078 19.9999 5.89844 19.7376 5.89844 19.414V13.7109C5.89844 13.1725 6.33652 12.7344 6.87499 12.7344H8.43748C8.97595 12.7344 9.41404 13.1725 9.41404 13.7109V19.414C9.41404 19.7376 9.15169 19.9999 8.8281 19.9999ZM7.0703 18.8281H8.24217V13.9062H7.0703V18.8281ZM8.43748 13.9062H8.43787H8.43748Z" fill="#104CBA"/>
<path d="M13.5156 19.9999H11.1719C10.8483 19.9999 10.5859 19.7376 10.5859 19.414V11.5625C10.5859 11.024 11.024 10.5859 11.5625 10.5859H13.125C13.6635 10.5859 14.1015 11.024 14.1015 11.5625V19.414C14.1015 19.7376 13.8392 19.9999 13.5156 19.9999ZM11.7578 18.8281H12.9297V11.7578H11.7578V18.8281ZM13.125 11.7578H13.1254H13.125Z" fill="#104CBA"/>
<path d="M18.2031 19.9999H15.8594C15.5358 19.9999 15.2734 19.7376 15.2734 19.414V7.65624C15.2734 7.11777 15.7115 6.67969 16.25 6.67969H17.8125C18.351 6.67969 18.789 7.11777 18.789 7.65624V19.414C18.789 19.7376 18.5267 19.9999 18.2031 19.9999ZM16.4453 18.828H17.6172V7.85155H16.4453V18.828ZM17.8125 7.85155H17.8129H17.8125Z" fill="#104CBA"/>
<path d="M0.585933 12.5899C0.262342 12.5899 0 12.3276 0 12.004C0 11.6804 0.262342 11.4181 0.585933 11.4181C4.03145 11.4181 7.78291 10.1634 11.1492 7.88516C14.2461 5.78928 16.7138 3.04164 17.9195 0.346779C18.0517 0.0513902 18.3983 -0.0809525 18.6937 0.0512731C18.9891 0.18342 19.1214 0.530019 18.9892 0.825408C17.6968 3.71394 15.0786 6.64087 11.806 8.85566C8.24786 11.2637 4.26313 12.5899 0.585933 12.5899Z" fill="#104CBA"/>
<path d="M19.4131 4.75298C19.1544 4.75298 18.9177 4.58032 18.8475 4.31853L18.0397 1.30367L15.0248 2.11151C14.7121 2.19534 14.391 2.00979 14.3072 1.69722C14.2235 1.38464 14.4089 1.06336 14.7215 0.979606L18.3023 0.0201214C18.615 -0.0636671 18.9362 0.121878 19.02 0.434415L19.9794 4.01525C20.0632 4.32782 19.8777 4.64911 19.5652 4.73286C19.5143 4.74645 19.4633 4.75298 19.4131 4.75298Z" fill="#104CBA"/>
</g>
<defs>
<clipPath id="clip0_3238_113">
<rect width="20" height="20" fill="white"/>
</clipPath>
</defs>
</svg>
