<svg width="23" height="23" viewBox="0 0 23 23" fill="none" xmlns="http://www.w3.org/2000/svg">
<g clip-path="url(#clip0_2713_69)">
<path d="M11.8145 21.2031H2.77132C2.38772 21.2031 2.15645 20.989 2.05257 20.8615C1.8734 20.6411 1.80409 20.3543 1.86235 20.0745C2.79536 15.5928 6.75041 12.3202 11.3163 12.214C11.3921 12.2168 11.4683 12.2188 11.5449 12.2188C14.9136 12.2188 17.6543 9.47816 17.6543 6.10938C17.6543 2.74059 14.9136 0 11.5449 0C8.17615 0 5.43557 2.74059 5.43557 6.10938C5.43557 8.10875 6.40104 9.88702 7.8903 11.0022C6.52598 11.4512 5.24553 12.1498 4.12511 13.0714C2.07081 14.7612 0.64244 17.1182 0.103202 19.7082C-0.0657817 20.5198 0.136718 21.3533 0.658584 21.9952C1.17782 22.6338 1.94798 23 2.77132 23H11.8145C12.3105 23 12.7129 22.5978 12.7129 22.1016C12.7129 21.6053 12.3105 21.2031 11.8145 21.2031ZM7.23244 6.10938C7.23244 3.7315 9.16689 1.79688 11.5449 1.79688C13.9228 1.79688 15.8574 3.7315 15.8574 6.10938C15.8574 8.45321 13.9779 10.3662 11.6469 10.4206C11.6134 10.4168 11.5795 10.4143 11.5449 10.4143C11.4748 10.4143 11.4047 10.4154 11.3347 10.4166C9.05406 10.3068 7.23244 8.41689 7.23244 6.10938V6.10938ZM23.0449 18.5069C23.0449 19.0032 22.6426 19.4054 22.1465 19.4054H15.4082C14.912 19.4054 14.5098 19.0032 14.5098 18.5069C14.5098 18.0109 14.912 17.6085 15.4082 17.6085H22.1465C22.6426 17.6085 23.0449 18.0109 23.0449 18.5069ZM15.4082 14.0156H22.1465C22.6426 14.0156 23.0449 14.4178 23.0449 14.9141C23.0449 15.4103 22.6426 15.8125 22.1465 15.8125H15.4082C14.912 15.8125 14.5098 15.4103 14.5098 14.9141C14.5098 14.4178 14.912 14.0156 15.4082 14.0156ZM23.0449 22.1016C23.0449 22.5978 22.6426 23 22.1465 23H15.4082C14.912 23 14.5098 22.5978 14.5098 22.1016C14.5098 21.6053 14.912 21.2031 15.4082 21.2031H22.1465C22.6426 21.2031 23.0449 21.6053 23.0449 22.1016Z" fill="#104CBA"/>
</g>
<defs>
<clipPath id="clip0_2713_69">
<rect width="23" height="23" fill="white"/>
</clipPath>
</defs>
</svg>
