<svg width="15" height="13" viewBox="0 0 15 13" fill="none" xmlns="http://www.w3.org/2000/svg">
<path d="M14.9956 1.47094C14.9941 1.44 14.9881 1.41031 14.9819 1.37969C14.9756 1.34875 14.97 1.31844 14.9594 1.28906C14.9559 1.27969 14.9563 1.27 14.9525 1.26094C14.9447 1.2425 14.9316 1.22781 14.9222 1.21031C14.9072 1.18187 14.8922 1.15437 14.8731 1.12875C14.855 1.10437 14.8344 1.08344 14.8128 1.06219C14.7916 1.04094 14.7706 1.02031 14.7463 1.00188C14.7206 0.982813 14.6931 0.967813 14.6647 0.952813C14.6472 0.943438 14.6328 0.93 14.6141 0.9225C14.605 0.91875 14.595 0.91875 14.5859 0.915313C14.5569 0.904688 14.5272 0.899063 14.4966 0.892813C14.4653 0.886563 14.435 0.880313 14.4034 0.87875C14.3938 0.87875 14.3847 0.875 14.375 0.875H0.625C0.615 0.875 0.605625 0.879062 0.595625 0.879375C0.564687 0.880937 0.535 0.886875 0.504375 0.893125C0.473437 0.899375 0.443125 0.905 0.41375 0.915625C0.404375 0.919063 0.394688 0.91875 0.385625 0.9225C0.367188 0.930312 0.3525 0.943438 0.335 0.952813C0.306563 0.967813 0.279063 0.982813 0.253437 1.00188C0.229062 1.02 0.208125 1.04062 0.186875 1.06219C0.165625 1.08344 0.145 1.10437 0.126563 1.12875C0.1075 1.15437 0.0925 1.18187 0.0775 1.21031C0.068125 1.22781 0.0546875 1.24219 0.0471875 1.26094C0.0434375 1.27 0.0434375 1.27969 0.0403125 1.28906C0.0296875 1.31844 0.0240625 1.34875 0.0178125 1.37969C0.011875 1.41031 0.005625 1.44 0.0040625 1.47094C0.00375 1.48094 0 1.49 0 1.5V11.5C0 11.5409 0.004375 11.5819 0.0121875 11.6225C0.0159375 11.6409 0.0228125 11.6581 0.028125 11.6759C0.034375 11.6972 0.039375 11.7184 0.0478125 11.7391C0.0565625 11.76 0.0684375 11.7791 0.079375 11.7991C0.088125 11.815 0.095 11.8316 0.105313 11.8469C0.150937 11.9153 0.21 11.9744 0.278437 12.02C0.29375 12.0303 0.310625 12.0375 0.326875 12.0463C0.346563 12.0569 0.365312 12.0687 0.38625 12.0775C0.406875 12.0859 0.428438 12.0909 0.449688 12.0972C0.4675 12.1025 0.484688 12.1094 0.503125 12.1131C0.543125 12.1206 0.584063 12.125 0.625 12.125H14.375C14.4159 12.125 14.4569 12.1206 14.4975 12.1128C14.5159 12.1091 14.5331 12.1022 14.5509 12.0969C14.5722 12.0906 14.5938 12.0856 14.6144 12.0772C14.635 12.0684 14.6541 12.0569 14.6737 12.0459C14.69 12.0372 14.7066 12.03 14.7222 12.0197C14.7906 11.9737 14.8497 11.915 14.8953 11.8466C14.9056 11.8313 14.9125 11.8147 14.9213 11.7987C14.9322 11.7791 14.9441 11.76 14.9528 11.7388C14.9612 11.7181 14.9662 11.6969 14.9725 11.6756C14.9778 11.6578 14.9847 11.6406 14.9884 11.6222C14.9956 11.5819 15 11.5409 15 11.5V1.5C15 1.49 14.9963 1.48094 14.9956 1.47094ZM12.8659 2.125L8.1275 6.86375C7.78156 7.20937 7.21875 7.20937 6.8725 6.86375L2.13406 2.125H12.8659ZM1.25 3.00906L4.74125 6.5L1.25 9.99125V3.00906ZM2.13375 10.875L5.625 7.38375L5.98875 7.7475C6.04094 7.79969 6.095 7.84844 6.15094 7.89406C6.93344 8.53219 8.06656 8.53219 8.84906 7.89406C8.905 7.84844 8.95906 7.79969 9.01125 7.7475L9.375 7.38375L12.8663 10.875H2.13375ZM13.75 9.99125L10.2587 6.5L13.75 3.00906V9.99125Z" fill="#104CBA" fill-opacity="0.65"/>
</svg>
