<svg width="27" height="27" viewBox="0 0 27 27" fill="none" xmlns="http://www.w3.org/2000/svg">
<g clip-path="url(#clip0_1194_2992)">
<path d="M13.5 5.32617C8.9929 5.32617 5.32617 8.9929 5.32617 13.5C5.32617 18.0071 8.9929 21.6738 13.5 21.6738C18.0071 21.6738 21.6738 18.0071 21.6738 13.5C21.6738 8.9929 18.0071 5.32617 13.5 5.32617ZM18.3284 9.01758H16.4126C16.3224 8.66426 16.2216 8.32771 16.1094 8.01352C16.021 7.76603 15.9291 7.54144 15.8348 7.33577C16.7922 7.69959 17.6434 8.28025 18.3284 9.01758ZM12.3805 8.54561C12.8095 7.34432 13.2851 6.9082 13.5 6.9082C13.7149 6.9082 14.1905 7.34432 14.6195 8.54561C14.6736 8.6969 14.7244 8.85484 14.7728 9.01758H12.2272C12.2755 8.85484 12.3264 8.6969 12.3805 8.54561ZM7.58167 10.5996H10.275C10.1773 11.2712 10.1136 11.9796 10.0869 12.709H6.95582C7.04579 11.9604 7.26163 11.25 7.58167 10.5996ZM7.58167 16.4004C7.26163 15.75 7.04579 15.0396 6.95582 14.291H10.0869C10.1136 15.0204 10.1773 15.7288 10.275 16.4004H7.58167ZM8.67164 17.9824H10.5874C10.6777 18.3357 10.7784 18.6723 10.8906 18.9865C10.979 19.234 11.0709 19.4586 11.1652 19.6642C10.2078 19.3004 9.35661 18.7198 8.67164 17.9824ZM10.8907 8.01352C10.7784 8.32771 10.6777 8.66426 10.5874 9.01758H8.67164C9.35666 8.28025 10.2079 7.69959 11.1652 7.33577C11.0709 7.54144 10.979 7.76603 10.8907 8.01352ZM14.6195 18.4544C14.1905 19.6557 13.7149 20.0918 13.5 20.0918C13.2851 20.0918 12.8095 19.6557 12.3805 18.4544C12.3264 18.3031 12.2756 18.1452 12.2272 17.9824H14.7728C14.7245 18.1452 14.6736 18.3031 14.6195 18.4544ZM15.1255 16.4004H11.8745C11.7682 15.7383 11.6991 15.0285 11.6702 14.291H15.3298C15.3009 15.0285 15.2318 15.7383 15.1255 16.4004ZM11.6702 12.709C11.6991 11.9715 11.7682 11.2617 11.8745 10.5996H15.1255C15.2318 11.2617 15.3009 11.9715 15.3298 12.709H11.6702ZM15.8348 19.6642C15.9291 19.4585 16.021 19.234 16.1093 18.9865C16.2216 18.6723 16.3223 18.3357 16.4126 17.9824H18.3284C17.6434 18.7198 16.7922 19.3004 15.8348 19.6642ZM19.4183 16.4004H16.725C16.8227 15.7288 16.8864 15.0204 16.9131 14.291H20.0442C19.9542 15.0396 19.7384 15.75 19.4183 16.4004ZM20.0442 12.709H16.9131C16.8864 11.9796 16.8227 11.2712 16.725 10.5996H19.4183C19.7384 11.25 19.9542 11.9604 20.0442 12.709Z" fill="#104CBA" fill-opacity="0.65"/>
<path d="M25.4189 15.8719V11.128C26.3396 10.8015 27.0009 9.92224 27.0009 8.89102C27.0009 7.58252 25.9364 6.51797 24.6279 6.51797C24.262 6.51797 23.9152 6.60134 23.6054 6.74989L20.251 3.39551C20.3996 3.0857 20.483 2.73892 20.483 2.37305C20.483 1.06455 19.4184 0 18.1099 0C17.0787 0 16.1994 0.661342 15.8729 1.58203H11.129C10.8025 0.661342 9.92321 0 8.89199 0C7.58349 0 6.51895 1.06455 6.51895 2.37305C6.51895 2.73897 6.60232 3.0857 6.75087 3.39551L3.39649 6.74989C3.08668 6.60134 2.73989 6.51797 2.37402 6.51797C1.06553 6.51797 0.000976562 7.58252 0.000976562 8.89102C0.000976562 9.92224 0.662318 10.8015 1.58301 11.128V15.8719C0.662318 16.1985 0.000976562 17.0777 0.000976562 18.1089C0.000976562 19.4174 1.06553 20.482 2.37402 20.482C2.73995 20.482 3.08668 20.3986 3.39649 20.2501L6.75087 23.6044C6.60232 23.9142 6.51895 24.261 6.51895 24.6269C6.51895 25.9354 7.58349 26.9999 8.89199 26.9999C9.92321 26.9999 10.8025 26.3386 11.129 25.4179H15.8729C16.1994 26.3386 17.0787 26.9999 18.1099 26.9999C19.4184 26.9999 20.483 25.9354 20.483 24.6269C20.483 24.261 20.3996 23.9142 20.251 23.6044L23.6054 20.2501C23.9152 20.3986 24.262 20.482 24.6279 20.482C25.9364 20.482 27.0009 19.4174 27.0009 18.1089C27.0009 17.0777 26.3396 16.1985 25.4189 15.8719ZM24.6279 8.10005C25.064 8.10005 25.4189 8.4549 25.4189 8.89107C25.4189 9.32723 25.064 9.68208 24.6279 9.68208C24.1917 9.68208 23.8369 9.32723 23.8369 8.89107C23.8369 8.4549 24.1917 8.10005 24.6279 8.10005ZM18.1099 1.58203C18.546 1.58203 18.9009 1.93688 18.9009 2.37305C18.9009 2.80921 18.546 3.16406 18.1099 3.16406C17.6737 3.16406 17.3188 2.80921 17.3188 2.37305C17.3188 1.93688 17.6737 1.58203 18.1099 1.58203ZM8.89199 1.58203C9.32816 1.58203 9.68301 1.93688 9.68301 2.37305C9.68301 2.80921 9.32816 3.16406 8.89199 3.16406C8.45583 3.16406 8.10098 2.80921 8.10098 2.37305C8.10098 1.93688 8.45577 1.58203 8.89199 1.58203ZM2.37397 8.10005C2.81014 8.10005 3.16499 8.4549 3.16499 8.89107C3.16499 9.32723 2.81014 9.68208 2.37397 9.68208C1.9378 9.68208 1.58296 9.32723 1.58296 8.89107C1.58296 8.4549 1.9378 8.10005 2.37397 8.10005ZM2.37397 18.8999C1.9378 18.8999 1.58296 18.5451 1.58296 18.1089C1.58296 17.6728 1.9378 17.3179 2.37397 17.3179C2.81014 17.3179 3.16499 17.6728 3.16499 18.1089C3.16499 18.5451 2.81014 18.8999 2.37397 18.8999ZM8.89199 25.418C8.45583 25.418 8.10098 25.0631 8.10098 24.627C8.10098 24.1908 8.45583 23.8359 8.89199 23.8359C9.32816 23.8359 9.68301 24.1908 9.68301 24.627C9.68301 25.0631 9.32816 25.418 8.89199 25.418ZM18.1099 25.418C17.6737 25.418 17.3188 25.0631 17.3188 24.627C17.3188 24.1908 17.6737 23.8359 18.1099 23.8359C18.546 23.8359 18.9009 24.1908 18.9009 24.627C18.9009 25.0631 18.5461 25.418 18.1099 25.418ZM22.2548 18.1089C22.2548 18.4749 22.3382 18.8216 22.4868 19.1314L19.1324 22.4858C18.8226 22.3372 18.4758 22.2539 18.1099 22.2539C17.0787 22.2539 16.1994 22.9152 15.8729 23.8359H11.129C10.8025 22.9152 9.92321 22.2539 8.89199 22.2539C8.52607 22.2539 8.17934 22.3372 7.86953 22.4858L4.51514 19.1314C4.66364 18.8216 4.74702 18.4749 4.74702 18.1089C4.74702 17.0777 4.08568 16.1985 3.16499 15.8719V11.128C4.08568 10.8015 4.74702 9.92224 4.74702 8.89102C4.74702 8.52509 4.66364 8.17836 4.51509 7.86855L7.86947 4.51417C8.17929 4.66272 8.52607 4.74609 8.89199 4.74609C9.92321 4.74609 10.8025 4.08475 11.129 3.16406H15.8729C16.1994 4.08475 17.0787 4.74609 18.1099 4.74609C18.4758 4.74609 18.8226 4.66272 19.1324 4.51417L22.4868 7.86855C22.3382 8.17836 22.2548 8.52514 22.2548 8.89102C22.2548 9.92224 22.9162 10.8015 23.8369 11.128V15.8719C22.9162 16.1985 22.2548 17.0777 22.2548 18.1089ZM24.6279 18.8999C24.1917 18.8999 23.8369 18.5451 23.8369 18.1089C23.8369 17.6728 24.1917 17.3179 24.6279 17.3179C25.064 17.3179 25.4189 17.6728 25.4189 18.1089C25.4189 18.5451 25.064 18.8999 24.6279 18.8999Z" fill="#104CBA" fill-opacity="0.65"/>
</g>
<defs>
<clipPath id="clip0_1194_2992">
<rect width="27" height="27" fill="white"/>
</clipPath>
</defs>
</svg>
