<svg width="17" height="17" viewBox="0 0 17 17" fill="none" xmlns="http://www.w3.org/2000/svg">
<path d="M13.01 1.62135L14.8132 3.12502C14.9373 3.22858 15.0881 3.27912 15.2381 3.27912C15.4283 3.27912 15.6171 3.19784 15.7485 3.04035C15.9834 2.75869 15.9454 2.33993 15.6637 2.10505L13.8606 0.601352C13.579 0.366473 13.1602 0.404357 12.9253 0.686053C12.6904 0.967715 12.7284 1.38644 13.01 1.62135Z" fill="#104CBA" fill-opacity="0.65"/>
<path d="M1.76138 3.28102C1.91133 3.28102 2.06217 3.23048 2.18632 3.12692L3.98941 1.62328C4.27107 1.3884 4.30903 0.969646 4.07415 0.687984C3.8393 0.406355 3.42051 0.368404 3.13885 0.603283L1.33572 2.10695C1.05406 2.34183 1.01611 2.76059 1.25099 3.04225C1.38237 3.19973 1.57116 3.28102 1.76138 3.28102Z" fill="#104CBA" fill-opacity="0.65"/>
<path d="M14.0408 3.62322C12.7185 2.30088 11.0066 1.50988 9.16406 1.35625V0.664062C9.16406 0.297301 8.86676 0 8.5 0C8.13324 0 7.83594 0.297301 7.83594 0.664062V1.35625C5.99336 1.50988 4.28151 2.30084 2.95916 3.62319C1.47913 5.10322 0.664062 7.071 0.664062 9.16406C0.664062 11.2571 1.47913 13.2249 2.95916 14.7049C4.43916 16.1849 6.40694 17 8.5 17C10.1852 17 11.791 16.4731 13.1439 15.4762C13.4392 15.2586 13.5022 14.8429 13.2846 14.5477C13.067 14.2523 12.6513 14.1894 12.356 14.407C11.233 15.2345 9.89964 15.6719 8.5 15.6719C4.91157 15.6719 1.99219 12.7525 1.99219 9.16406C1.99219 5.57563 4.91157 2.65625 8.5 2.65625C12.0884 2.65625 15.0078 5.57563 15.0078 9.16406C15.0078 10.2601 14.7304 11.3434 14.2056 12.297C14.0288 12.6183 14.1459 13.0221 14.4672 13.1989C14.7884 13.3757 15.1923 13.2587 15.3691 12.9374C16.0016 11.7882 16.3359 10.4834 16.3359 9.16406C16.3359 7.071 15.5209 5.10322 14.0408 3.62322Z" fill="#104CBA" fill-opacity="0.65"/>
<path d="M11.7351 5.16545C11.4501 4.93479 11.0319 4.97878 10.8012 5.2639L8.70735 7.85125C8.63975 7.84059 8.57052 7.83495 8.5 7.83495C7.76767 7.83495 7.17188 8.43074 7.17188 9.16307C7.17188 9.8954 7.76767 10.4912 8.5 10.4912C9.23233 10.4912 9.82812 9.8954 9.82812 9.16307C9.82812 8.99533 9.79655 8.83489 9.73954 8.68701L11.8336 6.09939C12.0643 5.81427 12.0202 5.39611 11.7351 5.16545Z" fill="#104CBA" fill-opacity="0.65"/>
</svg>
