<svg width="27" height="27" viewBox="0 0 27 27" fill="none" xmlns="http://www.w3.org/2000/svg">
<path d="M26.4622 3.03174H0.537849C0.240849 3.03174 0 3.27253 0 3.56959V23.4296C0 23.7267 0.240849 23.9675 0.537849 23.9675H26.4622C26.7592 23.9675 27 23.7267 27 23.4296V3.56959C27 3.27253 26.7592 3.03174 26.4622 3.03174ZM6.48108 22.8918H1.0757V19.993H6.48108V22.8918ZM6.48108 18.9173H1.0757V16.0185H6.48108V18.9173ZM6.48108 14.9428H1.0757V12.044H6.48108V14.9428ZM6.48108 10.9682H1.0757V8.08192H6.48108V10.9682ZM12.9622 22.8918H7.55677V19.993H12.9622V22.8918ZM12.9622 18.9173H7.55677V16.0185H12.9622V18.9173ZM12.9622 14.9428H7.55677V12.044H12.9622V14.9428ZM12.9622 10.9682H7.55677V8.08192H12.9622V10.9682ZM19.4432 22.8918H14.0378V19.993H19.4432V22.8918ZM19.4432 18.9173H14.0378V16.0185H19.4432V18.9173ZM19.4432 14.9428H14.0378V12.044H19.4432V14.9428ZM19.4432 10.9682H14.0378V8.08192H19.4432V10.9682ZM25.9243 22.8918H20.5189V19.993H25.9243V22.8918ZM25.9243 18.9173H20.5189V16.0185H25.9243V18.9173ZM25.9243 14.9428H20.5189V12.044H25.9243V14.9428ZM25.9243 10.9683H20.5189V8.08198H25.9243V10.9683ZM25.9243 6.99375H1.0757V4.10744H25.9243V6.99375Z" fill="#104CBA"/>
<path d="M11.241 5.7881H21.5677C21.8647 5.7881 22.1055 5.5473 22.1055 5.25025C22.1055 4.9532 21.8647 4.7124 21.5677 4.7124H11.241C10.944 4.7124 10.7031 4.9532 10.7031 5.25025C10.7031 5.5473 10.944 5.7881 11.241 5.7881Z" fill="#104CBA"/>
<path d="M23.4504 5.7881H24.6337C24.9307 5.7881 25.1716 5.5473 25.1716 5.25025C25.1716 4.9532 24.9307 4.7124 24.6337 4.7124H23.4504C23.1534 4.7124 22.9126 4.9532 22.9126 5.25025C22.9126 5.5473 23.1534 5.7881 23.4504 5.7881Z" fill="#104CBA"/>
</svg>
