<svg width="27" height="27" viewBox="0 0 27 27" fill="none" xmlns="http://www.w3.org/2000/svg">
<path d="M18.5625 25.3125H5.0625C4.59616 25.3125 4.21875 24.9347 4.21875 24.4688V14.3438C4.21875 13.8778 4.59616 13.5 5.0625 13.5C5.52884 13.5 5.90625 13.8778 5.90625 14.3438V23.625H17.7188V8.4375H10.9688C10.5024 8.4375 10.125 8.05967 10.125 7.59375C10.125 7.12783 10.5024 6.75 10.9688 6.75H18.5625C19.0288 6.75 19.4062 7.12783 19.4062 7.59375V24.4688C19.4062 24.9347 19.0288 25.3125 18.5625 25.3125Z" fill="#104CBA" fill-opacity="0.65"/>
<path d="M21.0938 22.7812H19.4062C18.9399 22.7812 18.5625 22.4034 18.5625 21.9375C18.5625 21.4716 18.9399 21.0938 19.4062 21.0938H20.25V5.90625H10.125C9.65866 5.90625 9.28125 5.52842 9.28125 5.0625C9.28125 4.59658 9.65866 4.21875 10.125 4.21875H21.0938C21.5601 4.21875 21.9375 4.59658 21.9375 5.0625V21.9375C21.9375 22.4034 21.5601 22.7812 21.0938 22.7812Z" fill="#104CBA" fill-opacity="0.65"/>
<path d="M15.1875 11.8125H11.8125C11.3462 11.8125 10.9688 11.4347 10.9688 10.9688C10.9688 10.5028 11.3462 10.125 11.8125 10.125H15.1875C15.6538 10.125 16.0312 10.5028 16.0312 10.9688C16.0312 11.4347 15.6538 11.8125 15.1875 11.8125Z" fill="#104CBA" fill-opacity="0.65"/>
<path d="M15.1875 15.1875H8.4375C7.97116 15.1875 7.59375 14.8097 7.59375 14.3438C7.59375 13.8778 7.97116 13.5 8.4375 13.5H15.1875C15.6538 13.5 16.0312 13.8778 16.0312 14.3438C16.0312 14.8097 15.6538 15.1875 15.1875 15.1875Z" fill="#104CBA" fill-opacity="0.65"/>
<path d="M15.1875 18.5625H8.4375C7.97116 18.5625 7.59375 18.1847 7.59375 17.7188C7.59375 17.2528 7.97116 16.875 8.4375 16.875H15.1875C15.6538 16.875 16.0312 17.2528 16.0312 17.7188C16.0312 18.1847 15.6538 18.5625 15.1875 18.5625Z" fill="#104CBA" fill-opacity="0.65"/>
<path d="M15.1875 21.9375H8.4375C7.97116 21.9375 7.59375 21.5597 7.59375 21.0938C7.59375 20.6278 7.97116 20.25 8.4375 20.25H15.1875C15.6538 20.25 16.0312 20.6278 16.0312 21.0938C16.0312 21.5597 15.6538 21.9375 15.1875 21.9375Z" fill="#104CBA" fill-opacity="0.65"/>
<path d="M5.90625 6.75C4.51043 6.75 3.375 5.61457 3.375 4.21875C3.375 2.82293 4.51043 1.6875 5.90625 1.6875C7.30207 1.6875 8.4375 2.82293 8.4375 4.21875C8.4375 5.61457 7.30207 6.75 5.90625 6.75ZM5.90625 3.375C5.44067 3.375 5.0625 3.75359 5.0625 4.21875C5.0625 4.68391 5.44067 5.0625 5.90625 5.0625C6.37183 5.0625 6.75 4.68391 6.75 4.21875C6.75 3.75359 6.37183 3.375 5.90625 3.375Z" fill="#104CBA" fill-opacity="0.65"/>
<path d="M9.28125 12.6562H2.53125C2.06491 12.6562 1.6875 12.2784 1.6875 11.8125V10.125C1.6875 8.26402 3.2011 6.75 5.0625 6.75H6.75C8.6114 6.75 10.125 8.26402 10.125 10.125V11.8125C10.125 12.2784 9.74759 12.6562 9.28125 12.6562ZM3.375 10.9688H8.4375V10.125C8.4375 9.19434 7.68023 8.4375 6.75 8.4375H5.0625C4.13227 8.4375 3.375 9.19434 3.375 10.125V10.9688Z" fill="#104CBA" fill-opacity="0.65"/>
</svg>
