<svg width="27" height="27" viewBox="0 0 27 27" fill="none" xmlns="http://www.w3.org/2000/svg">
<g clip-path="url(#clip0_1438_133)">
<path d="M17.3976 0.155938C17.2738 0.0255434 17.1041 -0.0527344 16.9282 -0.0527344H6.39549C4.45194 -0.0527344 2.84766 1.54516 2.84766 3.48851V23.4059C2.84766 25.3494 4.45194 26.9473 6.39549 26.9473H20.6911C22.6346 26.9473 24.2389 25.3494 24.2389 23.4059V7.59067C24.2389 7.42114 24.1606 7.2582 24.0498 7.13419L17.3976 0.155938ZM17.5867 2.24945L22.0411 6.92552H19.1455C18.2846 6.92552 17.5867 6.2342 17.5867 5.37335V2.24945ZM20.6911 25.643H6.39549C5.17601 25.643 4.15201 24.6321 4.15201 23.4059V3.48851C4.15201 2.26902 5.16941 1.25162 6.39549 1.25162H16.2824V5.37335C16.2824 6.95807 17.5608 8.22987 19.1455 8.22987H22.9345V23.4059C22.9345 24.6321 21.9171 25.643 20.6911 25.643Z" fill="#104CBA"/>
<path d="M18.9104 21.1431H8.17561C7.81698 21.1431 7.52344 21.4364 7.52344 21.7952C7.52344 22.1539 7.81698 22.4474 8.17561 22.4474H18.917C19.2756 22.4474 19.5691 22.1539 19.5691 21.7952C19.5691 21.4364 19.2756 21.1431 18.9104 21.1431Z" fill="#104CBA"/>
<path d="M13.0668 18.8016C13.1908 18.932 13.3604 19.0103 13.5429 19.0103C13.7256 19.0103 13.8951 18.932 14.0189 18.8016L17.8407 14.6995C18.0885 14.4385 18.069 14.0211 17.8082 13.7799C17.5472 13.5321 17.1299 13.5515 16.8886 13.8125L14.1951 16.7015V9.57991C14.1951 9.22107 13.9015 8.92773 13.5429 8.92773C13.1842 8.92773 12.8907 9.22107 12.8907 9.57991V16.7015L10.2037 13.8125C9.95591 13.5517 9.54495 13.5321 9.28416 13.7799C9.02337 14.0277 9.0038 14.4387 9.25161 14.6995L13.0668 18.8016Z" fill="#104CBA"/>
</g>
<defs>
<clipPath id="clip0_1438_133">
<rect width="27" height="27" fill="white"/>
</clipPath>
</defs>
</svg>
