<svg width="15" height="9" viewBox="0 0 15 9" fill="none" xmlns="http://www.w3.org/2000/svg">
<path d="M14.5916 4.50742C12.9105 2.57031 10.5875 0.34375 7.5 0.34375C6.25313 0.34375 5.11016 0.696289 3.9041 1.44961C2.88731 2.08789 1.84453 2.98594 0.412109 4.46289L0.375 4.5L0.623633 4.75605C2.66836 6.84902 4.43477 8.65625 7.5 8.65625C8.85449 8.65625 10.1682 8.21465 11.5152 7.30547C12.6619 6.52988 13.6379 5.54648 14.4209 4.75234L14.625 4.54824L14.5916 4.50742ZM7.5 7.46875C5.86348 7.46875 4.53125 6.13652 4.53125 4.5C4.53125 2.86348 5.86348 1.53125 7.5 1.53125C9.13652 1.53125 10.4688 2.86348 10.4688 4.5C10.4688 6.13652 9.13652 7.46875 7.5 7.46875Z" fill="#104CBA" fill-opacity="0.28"/>
<path d="M7.29219 3.41641C7.29219 3.16035 7.36641 2.91914 7.49629 2.71875C6.51289 2.71875 5.71875 3.52031 5.71875 4.50742C5.71875 5.49453 6.5166 6.29238 7.49629 6.29238C8.47598 6.29238 9.27754 5.49453 9.27754 4.50742C9.07715 4.63731 8.83594 4.71152 8.57988 4.71152C7.87109 4.70781 7.29219 4.12891 7.29219 3.41641Z" fill="#104CBA" fill-opacity="0.28"/>
</svg>
