<svg width="27" height="27" viewBox="0 0 27 27" fill="none" xmlns="http://www.w3.org/2000/svg">
<path fill-rule="evenodd" clip-rule="evenodd" d="M24.5835 7.00479C24.3153 6.73641 23.9443 6.56974 23.5358 6.56974H17.1583V3.01025C17.1583 1.78384 16.1598 0.7854 14.9335 0.7854H3.96008C2.73377 0.7854 1.73523 1.78384 1.73523 3.01025V23.9628C1.73523 25.1356 2.69514 26.0979 3.87025 26.0979H15.0231C16.1984 26.0979 17.158 25.1382 17.158 23.9628V18.8306H23.5357C23.9443 18.8306 24.3153 18.6638 24.5835 18.3954C24.8522 18.1269 25.0188 17.7561 25.0188 17.3474V8.05294C25.0188 7.64424 24.8523 7.27336 24.5835 7.00479ZM6.40517 2.2686H12.4861V3.11512C12.4861 3.46361 12.1982 3.7516 11.8498 3.7516H7.04174C6.69305 3.7516 6.40547 3.46361 6.40547 3.11512V2.2686H6.40517ZM15.6749 23.9628C15.6749 24.3194 15.3795 24.6148 15.0231 24.6148H3.87025C3.51483 24.6148 3.21853 24.3236 3.21853 23.9628V21.3069C3.6198 21.5246 4.07872 21.6485 4.56546 21.6485H14.3262C14.8134 21.6485 15.2733 21.5241 15.6749 21.3058V23.9628ZM14.3262 20.1653H4.56546C4.19151 20.1653 3.85342 20.0154 3.6098 19.7731C3.38332 19.5483 3.23705 19.2428 3.21853 18.904V3.01025C3.21853 2.60263 3.55266 2.2686 3.96008 2.2686H4.92217V3.11512C4.92217 4.28251 5.87456 5.23479 7.04174 5.23479H11.8498C13.017 5.23479 13.9694 4.28251 13.9694 3.11512V2.2686H14.9334C15.3408 2.2686 15.6749 2.60263 15.6749 3.01025V6.56974H8.75361C8.345 6.56974 7.97383 6.73641 7.70545 7.00479C7.43698 7.27336 7.27031 7.64424 7.27031 8.05294V17.3474C7.27031 17.7561 7.43698 18.1269 7.70545 18.3954C7.97383 18.6638 8.345 18.8306 8.75361 18.8306H15.6749C15.6749 19.5712 15.069 20.1653 14.3262 20.1653ZM23.5357 17.3472C23.5358 17.3474 23.536 17.3474 23.5357 17.3474C23.5357 17.3477 23.5357 17.3476 23.5357 17.3474H8.75371C8.75371 17.0692 8.75361 10.7315 8.75371 8.05294C12.027 8.05294 23.536 8.05294 23.5357 8.05304V17.3472Z" fill="#104CBA" fill-opacity="0.65"/>
<path fill-rule="evenodd" clip-rule="evenodd" d="M9.44685 22.4148C9.03834 22.4148 8.7052 22.7479 8.7052 23.1564C8.7052 23.5648 9.03834 23.898 9.44685 23.898C9.85535 23.898 10.1884 23.5648 10.1884 23.1564C10.1884 22.7479 9.85535 22.4148 9.44685 22.4148Z" fill="#104CBA" fill-opacity="0.65"/>
<path fill-rule="evenodd" clip-rule="evenodd" d="M10.9782 12.2553H11.3738C11.7834 12.2553 12.1153 11.9231 12.1153 11.5136C12.1153 11.104 11.7834 10.7721 11.3738 10.7721H10.9782C10.5688 10.7721 10.2367 11.104 10.2367 11.5136C10.2367 11.9231 10.5688 12.2553 10.9782 12.2553Z" fill="#104CBA" fill-opacity="0.65"/>
<path fill-rule="evenodd" clip-rule="evenodd" d="M10.9782 15.2214H18.1963C18.606 15.2214 18.9378 14.8895 18.9378 14.4799C18.9378 14.0705 18.606 13.7383 18.1963 13.7383H10.9782C10.5688 13.7383 10.2367 14.0705 10.2367 14.4799C10.2367 14.8895 10.5688 15.2214 10.9782 15.2214Z" fill="#104CBA" fill-opacity="0.65"/>
<path fill-rule="evenodd" clip-rule="evenodd" d="M14.3401 12.2553H14.7355C15.1452 12.2553 15.4772 11.9231 15.4772 11.5136C15.4772 11.104 15.1452 10.7721 14.7355 10.7721H14.3401C13.9306 10.7721 13.5984 11.104 13.5984 11.5136C13.5984 11.9231 13.9306 12.2553 14.3401 12.2553Z" fill="#104CBA" fill-opacity="0.65"/>
<path fill-rule="evenodd" clip-rule="evenodd" d="M17.7019 12.2553H18.0974C18.5069 12.2553 18.839 11.9231 18.839 11.5136C18.839 11.104 18.5069 10.7721 18.0974 10.7721H17.7019C17.2925 10.7721 16.9603 11.104 16.9603 11.5136C16.9603 11.9231 17.2925 12.2553 17.7019 12.2553Z" fill="#104CBA" fill-opacity="0.65"/>
<path fill-rule="evenodd" clip-rule="evenodd" d="M21.0638 12.2553H21.4592C21.8689 12.2553 22.2009 11.9231 22.2009 11.5136C22.2009 11.104 21.8689 10.7721 21.4592 10.7721H21.0638C20.6544 10.7721 20.3221 11.104 20.3221 11.5136C20.3221 11.9231 20.6544 12.2553 21.0638 12.2553Z" fill="#104CBA" fill-opacity="0.65"/>
</svg>
