<svg width="15" height="15" viewBox="0 0 15 15" fill="none" xmlns="http://www.w3.org/2000/svg">
<path d="M12.9165 13H2.08787C1.75716 13 1.48828 13.271 1.48828 13.5996V14.3997C1.48828 14.7305 1.75928 14.9993 2.08787 14.9993H12.9122C13.2429 14.9993 13.5118 14.7283 13.5118 14.3997V13.5996C13.5182 13.2667 13.2472 13 12.9165 13Z" fill="#104CBA" fill-opacity="0.65"/>
<path d="M7.08291 11.9275C7.20028 12.0448 7.35391 12.1046 7.50539 12.1046C7.65902 12.1046 7.81264 12.0448 7.92787 11.9275L12.0289 7.82646C12.2615 7.5939 12.2615 7.2141 12.0289 6.97724L11.4613 6.40967C11.2287 6.17709 10.8489 6.17709 10.6121 6.40967L8.50397 8.51993V0.599587C8.50397 0.268848 8.23297 0 7.90441 0H7.10425C6.77354 0 6.50466 0.2667 6.50466 0.599587V8.52205L4.39443 6.41179C4.16184 6.17923 3.77992 6.17923 3.54521 6.41179L2.97764 6.97936C2.74508 7.21192 2.74508 7.59387 2.97764 7.82858L7.08291 11.9275Z" fill="#104CBA" fill-opacity="0.65"/>
</svg>
