<svg width="15" height="15" viewBox="0 0 15 15" fill="none" xmlns="http://www.w3.org/2000/svg">
<path fill-rule="evenodd" clip-rule="evenodd" d="M11.2187 14.9375H1.65625C0.775969 14.9375 0.0625 14.224 0.0625 13.3438C0.0625 9.92356 0.0625 2.1875 0.0625 2.1875C0.0625 1.89425 0.299969 1.65625 0.59375 1.65625H2.1875V0.59375V0.590562C2.18909 0.298906 2.42656 0.0625 2.71875 0.0625C3.01041 0.0625 3.24788 0.298906 3.25 0.590562V0.59375V1.65625H9.625V0.59375V0.590562C9.62659 0.298906 9.86406 0.0625 10.1562 0.0625C10.4479 0.0625 10.6854 0.298906 10.6875 0.590562V0.59375V1.65625H12.2812C12.5745 1.65625 12.8125 1.89425 12.8125 2.1875V8.03125C12.8125 8.3245 12.574 8.5625 12.2812 8.5625C11.988 8.5625 11.75 8.3245 11.75 8.03125V6.4375H1.125V13.3438C1.13191 13.6386 1.36141 13.8676 1.65625 13.875H11.2187C11.3595 13.875 11.4945 13.8192 11.5943 13.7193C11.6937 13.62 11.75 13.4845 11.75 13.3438C11.75 12.8125 11.75 12.2812 11.75 12.2812C11.75 11.988 11.988 11.75 12.2812 11.75C12.574 11.75 12.8125 11.988 12.8125 12.2812V13.3438C12.8125 13.7666 12.6441 14.172 12.3455 14.4705C12.0464 14.7696 11.6411 14.9375 11.2187 14.9375ZM8.5625 10.6875L9.4125 11.325C9.64678 11.5008 9.69459 11.8339 9.51875 12.0688C9.34238 12.3036 9.00928 12.3508 8.775 12.175L6.65 10.5812C6.52091 10.484 6.4375 10.33 6.4375 10.1562C6.4375 9.97934 6.52409 9.82263 6.65744 9.72594C6.65744 9.72541 6.65797 9.72541 6.65797 9.72487L8.775 8.1375C9.00928 7.96166 9.34238 8.00894 9.51875 8.24375C9.69459 8.47856 9.64678 8.81166 9.4125 8.9875L8.5625 9.625H14.4062C14.699 9.625 14.9375 9.863 14.9375 10.1562C14.9375 10.4495 14.699 10.6875 14.4062 10.6875H8.5625ZM9.625 2.71875H3.25V3.78125L3.24947 3.78816C3.24628 4.07822 3.00934 4.3125 2.71875 4.3125C2.42656 4.3125 2.18909 4.07609 2.1875 3.78444V3.78125V2.71875H1.125V5.375H11.75V2.71875H10.6875V3.78125C10.6875 4.0745 10.449 4.3125 10.1562 4.3125C9.86406 4.3125 9.62659 4.07609 9.625 3.78444V3.78125V2.71875Z" fill="#104CBA" fill-opacity="0.65"/>
</svg>
