<svg width="27" height="27" viewBox="0 0 27 27" fill="none" xmlns="http://www.w3.org/2000/svg">
<path d="M13.5 0C6.0561 0 0 6.0561 0 13.5C0 20.9439 6.0561 27 13.5 27C20.9439 27 27 20.9439 27 13.5C27 6.0561 20.9439 0 13.5 0ZM13.5 25.4183C6.92823 25.4183 1.58167 20.0718 1.58167 13.5C1.58167 6.92823 6.92823 1.58167 13.5 1.58167C20.0718 1.58167 25.4183 6.92823 25.4183 13.5C25.4183 20.0718 20.0718 25.4183 13.5 25.4183Z" fill="#104CBA" fill-opacity="0.65"/>
<path d="M13.5002 3.16333C13.0635 3.16333 12.7094 3.51741 12.7094 3.95416C12.7094 4.39091 13.0635 4.745 13.5002 4.745C18.3278 4.745 22.2552 8.67243 22.2552 13.5C22.2552 18.3276 18.3278 22.255 13.5002 22.255C8.67273 22.255 4.74524 18.3276 4.74524 13.5C4.74524 13.0632 4.39116 12.7092 3.95441 12.7092C3.51766 12.7092 3.16357 13.0632 3.16357 13.5C3.16357 19.1996 7.8006 23.8367 13.5002 23.8367C19.1999 23.8367 23.8369 19.1997 23.8369 13.5C23.8369 7.8003 19.1999 3.16333 13.5002 3.16333Z" fill="#104CBA" fill-opacity="0.65"/>
<path d="M4.3865 10.5405C4.70404 10.6753 5.08217 10.5913 5.31256 10.335C5.55946 10.0605 5.58962 9.64258 5.38558 9.3349C5.17975 9.02457 4.77527 8.89235 4.42535 9.01999C4.11951 9.1316 3.90451 9.42257 3.88906 9.74808C3.87314 10.0863 4.0748 10.4082 4.3865 10.5405Z" fill="#104CBA" fill-opacity="0.65"/>
<path d="M6.79477 7.52925C7.13372 7.52925 7.44536 7.31214 7.56177 6.99354C7.66832 6.70188 7.59762 6.36641 7.38151 6.14334C7.1412 5.89539 6.75907 5.82453 6.44638 5.97247C6.1253 6.12436 5.93713 6.47481 5.98558 6.82615C6.04057 7.22478 6.39339 7.52925 6.79477 7.52925Z" fill="#104CBA" fill-opacity="0.65"/>
<path d="M9.89687 5.47776C10.2371 5.47776 10.5474 5.25923 10.664 4.94047C10.7859 4.60763 10.6726 4.22139 10.3895 4.00807C10.1049 3.79365 9.7037 3.78991 9.41531 3.99932C9.12897 4.20726 9.00813 4.58981 9.12333 4.92465C9.2361 5.25232 9.55001 5.47776 9.89687 5.47776Z" fill="#104CBA" fill-opacity="0.65"/>
<path d="M13.5472 6.25098C13.1105 6.25098 12.7564 6.60506 12.7564 7.04181V11.2333C12.0835 11.472 11.5494 12.006 11.3108 12.679H7.11798C6.68123 12.679 6.32715 13.0331 6.32715 13.4698C6.32715 13.9066 6.68123 14.2606 7.11798 14.2606H11.3108C11.6372 15.1811 12.5163 15.8423 13.5472 15.8423C14.8554 15.8423 15.9197 14.778 15.9197 13.4698C15.9197 12.4388 15.2586 11.5598 14.3381 11.2333V7.04181C14.3381 6.60506 13.984 6.25098 13.5472 6.25098ZM13.5472 14.2606C13.1112 14.2606 12.7564 13.9059 12.7564 13.4698C12.7564 13.0337 13.1112 12.679 13.5472 12.679C13.9833 12.679 14.3381 13.0337 14.3381 13.4698C14.3381 13.9059 13.9833 14.2606 13.5472 14.2606Z" fill="#104CBA" fill-opacity="0.65"/>
</svg>
