<svg width="64" height="64" viewBox="0 0 64 64" fill="none" xmlns="http://www.w3.org/2000/svg">
<path d="M19.5 32C19.5 33.3807 20.6193 34.5 22 34.5H29.5V42C29.5 43.3808 30.6193 44.5 32 44.5C33.3807 44.5 34.5 43.3808 34.5 42V34.5H42C43.3808 34.5 44.5 33.3807 44.5 32C44.5 30.6193 43.3808 29.5 42 29.5H34.5V22C34.5 20.6193 33.3807 19.5 32 19.5C30.6193 19.5 29.5 20.6193 29.5 22V29.5H22C20.6193 29.5 19.5 30.6193 19.5 32Z" fill="#104CBA"/>
<path d="M20.0508 7.72477L23.2844 6.38527C24.5599 5.85677 25.1658 4.39439 24.6373 3.11877C24.1088 1.84314 22.6465 1.23702 21.3708 1.76589L18.1371 3.10539C16.8616 3.63389 16.2558 5.09627 16.7843 6.37189C17.311 7.64327 18.771 8.25452 20.0508 7.72477Z" fill="#104CBA"/>
<path d="M32 0C30.6192 0 29.5 1.11925 29.5 2.5C29.5 3.88075 30.6192 5 32 5C46.9222 5 59 17.076 59 32C59 46.9222 46.924 59 32 59C17.0778 59 5 46.924 5 32C5 30.6192 3.88075 29.5 2.5 29.5C1.11925 29.5 0 30.6192 0 32C0 49.6854 14.3121 64 32 64C49.6854 64 64 49.6879 64 32C64 14.3146 49.6879 0 32 0Z" fill="#104CBA"/>
<path d="M11.6707 14.1461L14.1456 11.6712C15.122 10.6948 15.122 9.1118 14.1456 8.13555C13.1692 7.1593 11.5862 7.15918 10.61 8.13555L8.13511 10.6104C7.15874 11.5868 7.15874 13.1698 8.13511 14.1461C9.11124 15.1222 10.6944 15.1224 11.6707 14.1461Z" fill="#104CBA"/>
<path d="M3.11908 24.6373C4.39745 25.1668 5.85833 24.5571 6.38558 23.2845L7.72508 20.0507C8.25358 18.7751 7.64771 17.3127 6.3722 16.7842C5.09633 16.2558 3.63421 16.8616 3.10571 18.1371L1.76621 21.3707C1.23771 22.6465 1.84358 24.1088 3.11908 24.6373Z" fill="#104CBA"/>
</svg>
