<svg width="27" height="27" viewBox="0 0 27 27" fill="none" xmlns="http://www.w3.org/2000/svg">
<path d="M24.894 14.3437C24.7789 14.2091 24.6361 14.1008 24.4753 14.0263C24.3146 13.9519 24.1397 13.9129 23.9625 13.9122H23.9136C23.6074 13.9159 23.3128 14.0294 23.0832 14.2319C22.8536 14.4344 22.7043 14.7125 22.6623 15.0158C22.3916 16.7814 21.6091 18.4289 20.4118 19.7544C19.2145 21.0799 17.6548 22.0254 15.9258 22.4737C14.0783 22.967 12.1238 22.8793 10.3279 22.2226C8.53205 21.5659 6.982 20.3721 5.88853 18.8034C5.84451 18.7401 5.81867 18.6659 5.81383 18.589C5.80899 18.512 5.82533 18.4352 5.86107 18.3669C5.89682 18.2986 5.9506 18.2414 6.01658 18.2015C6.08256 18.1616 6.15821 18.1405 6.23531 18.1406H8.4375C8.66128 18.1406 8.87589 18.0517 9.03412 17.8935C9.19236 17.7353 9.28125 17.5206 9.28125 17.2969C9.28125 17.0731 9.19236 16.8585 9.03412 16.7003C8.87589 16.542 8.66128 16.4531 8.4375 16.4531H1.6875V23.2031C1.6875 23.4269 1.77639 23.6415 1.93463 23.7997C2.09286 23.958 2.30747 24.0469 2.53125 24.0469C2.75503 24.0469 2.96964 23.958 3.12787 23.7997C3.28611 23.6415 3.375 23.4269 3.375 23.2031V20.9503C3.37511 20.8622 3.40278 20.7764 3.45414 20.7048C3.50551 20.6333 3.57798 20.5796 3.6614 20.5513C3.74481 20.523 3.83499 20.5215 3.91929 20.5471C4.00358 20.5727 4.07776 20.624 4.13142 20.6938C5.53901 22.5275 7.45369 23.9079 9.63821 24.6639C11.8227 25.4199 14.1811 25.5184 16.421 24.9471C18.6609 24.3757 20.684 23.1597 22.2395 21.4498C23.795 19.7398 24.8147 17.611 25.172 15.3271C25.1993 15.1529 25.1886 14.9748 25.1406 14.805C25.0926 14.6353 25.0085 14.4779 24.894 14.3437Z" fill="#104CBA" fill-opacity="0.65"/>
<path d="M18.5624 10.5469H25.3124V3.79687C25.3124 3.57309 25.2235 3.35848 25.0653 3.20024C24.907 3.04201 24.6924 2.95312 24.4686 2.95312C24.2449 2.95312 24.0302 3.04201 23.872 3.20024C23.7138 3.35848 23.6249 3.57309 23.6249 3.79687V6.04968C23.6248 6.13776 23.5971 6.2236 23.5457 6.29516C23.4944 6.36672 23.4219 6.42041 23.3385 6.44869C23.2551 6.47698 23.1649 6.47845 23.0806 6.45289C22.9963 6.42733 22.9221 6.37603 22.8685 6.30618C21.464 4.47636 19.5545 3.09778 17.3756 2.34057C15.1968 1.58336 12.8439 1.48065 10.6074 2.04512C8.3708 2.60958 6.34846 3.81652 4.78987 5.51699C3.23129 7.21747 2.20468 9.33706 1.83673 11.6142C1.80847 11.7951 1.81972 11.98 1.86972 12.1562C1.91972 12.3324 2.00728 12.4956 2.12638 12.6347C2.24548 12.7738 2.3933 12.8855 2.55966 12.962C2.72603 13.0386 2.907 13.0782 3.09012 13.0781C3.39456 13.075 3.68789 12.9633 3.91729 12.7632C4.1467 12.563 4.29709 12.2875 4.3414 11.9863C4.64193 10.1649 5.47895 8.47457 6.7454 7.13147C8.01185 5.78838 9.65015 4.8536 11.4508 4.4467C13.2514 4.03979 15.1324 4.17926 16.8534 4.84726C18.5743 5.51526 20.0568 6.68143 21.1114 8.1966C21.1554 8.2599 21.1812 8.33405 21.1861 8.411C21.1909 8.48795 21.1746 8.56476 21.1388 8.63308C21.1031 8.70139 21.0493 8.75861 20.9833 8.7985C20.9173 8.8384 20.8417 8.85945 20.7646 8.85937H18.5624C18.3386 8.85937 18.124 8.94826 17.9658 9.1065C17.8075 9.26473 17.7186 9.47934 17.7186 9.70312C17.7186 9.92689 17.8075 10.1415 17.9658 10.2997C18.124 10.458 18.3386 10.5469 18.5624 10.5469Z" fill="#104CBA" fill-opacity="0.65"/>
</svg>
