<svg width="20" height="20" viewBox="0 0 20 20" fill="none" xmlns="http://www.w3.org/2000/svg">
<g clip-path="url(#clip0_3206_2769)">
<path d="M13.8542 10C13.8542 10.4315 13.5044 10.7812 13.0729 10.7812H10.7812V13.0729C10.7812 13.5044 10.4315 13.8542 10 13.8542C9.56852 13.8542 9.21875 13.5044 9.21875 13.0729V10.7812H6.92707C6.49559 10.7812 6.14582 10.4315 6.14582 10C6.14582 9.56852 6.49559 9.21875 6.92707 9.21875H9.21875V6.92707C9.21875 6.49559 9.56852 6.14582 10 6.14582C10.4315 6.14582 10.7812 6.49559 10.7812 6.92707V9.21875H13.0729C13.5044 9.21875 13.8542 9.56852 13.8542 10V10ZM20 5.79578V14.2042C20 15.665 19.4311 17.0383 18.3982 18.0712C18.2337 18.1873 16.8755 20 14.2042 20H5.79578C3.12477 20 1.76801 18.1885 1.60176 18.0712C0.568867 17.0383 0 15.665 0 14.2042V5.79578C0 4.335 0.568867 2.96168 1.60176 1.92879C1.76629 1.8127 3.12445 0 5.79578 0H14.2042C16.8752 0 18.232 1.81148 18.3982 1.92879C19.4312 2.96168 20 4.33504 20 5.79578V5.79578ZM18.4375 5.79578C18.4375 4.75238 18.0312 3.77145 17.2934 3.03367C17.1222 2.91059 16.172 1.5625 14.2042 1.5625H5.79578C3.83855 1.5625 2.87199 2.91473 2.7066 3.03367C1.96883 3.77145 1.5625 4.75238 1.5625 5.79578V14.2042C1.5625 15.2476 1.96883 16.2286 2.7066 16.9663C2.87777 17.0894 3.82801 18.4375 5.79578 18.4375H14.2042C16.1614 18.4375 17.128 17.0853 17.2934 16.9663C18.0312 16.2286 18.4375 15.2476 18.4375 14.2042V5.79578Z" fill="#104CBA"/>
</g>
<defs>
<clipPath id="clip0_3206_2769">
<rect width="20" height="20" fill="white"/>
</clipPath>
</defs>
</svg>
