<svg width="27" height="27" viewBox="0 0 27 27" fill="none" xmlns="http://www.w3.org/2000/svg">
<g clip-path="url(#clip0_1438_150)">
<path d="M17.3971 0.155938C17.2733 0.0255434 17.1036 -0.0527344 16.9277 -0.0527344H6.395C4.45145 -0.0527344 2.84717 1.54516 2.84717 3.48851V23.4059C2.84717 25.3494 4.45145 26.9473 6.395 26.9473H20.6906C22.6341 26.9473 24.2384 25.3494 24.2384 23.4059V7.59067C24.2384 7.42114 24.1601 7.2582 24.0493 7.13419L17.3971 0.155938ZM17.5862 2.24945L22.0407 6.92552H19.145C18.2842 6.92552 17.5862 6.2342 17.5862 5.37335V2.24945ZM20.6906 25.643H6.395C5.17552 25.643 4.15152 24.6321 4.15152 23.4059V3.48851C4.15152 2.26902 5.16893 1.25162 6.395 1.25162H16.2819V5.37335C16.2819 6.95807 17.5603 8.22987 19.145 8.22987H22.9341V23.4059C22.9341 24.6321 21.9167 25.643 20.6906 25.643Z" fill="#104CBA"/>
<path d="M18.9099 21.1431H8.17513C7.81649 21.1431 7.52295 21.4364 7.52295 21.7952C7.52295 22.1539 7.81649 22.4474 8.17513 22.4474H18.9165C19.2751 22.4474 19.5687 22.1539 19.5687 21.7952C19.5687 21.4364 19.2751 21.1431 18.9099 21.1431Z" fill="#104CBA"/>
<path d="M10.2035 14.1256L12.8905 11.2363V18.3581C12.8905 18.7168 13.184 19.0103 13.5427 19.0103C13.9015 19.0103 14.1948 18.7168 14.1948 18.3581V11.2363L16.8818 14.1256C17.0122 14.2624 17.182 14.3343 17.3579 14.3343C17.5144 14.3343 17.6776 14.2755 17.8014 14.1581C18.0624 13.9103 18.082 13.4994 17.8341 13.2386L14.0123 9.13641C13.8883 9.00601 13.7188 8.92773 13.5363 8.92773C13.3536 8.92773 13.184 9.00601 13.0602 9.13641L9.23843 13.2386C8.99062 13.4994 9.01019 13.9167 9.27097 14.1581C9.54495 14.4059 9.9557 14.3864 10.2035 14.1256Z" fill="#104CBA"/>
</g>
<defs>
<clipPath id="clip0_1438_150">
<rect width="27" height="27" fill="white"/>
</clipPath>
</defs>
</svg>
