<svg width="15" height="15" viewBox="0 0 15 15" fill="none" xmlns="http://www.w3.org/2000/svg">
<g clip-path="url(#clip0_1162_1037)">
<path d="M9.56906 5.43451C9.37503 5.43451 9.21777 5.59177 9.21777 5.7858V12.4251C9.21777 12.619 9.37503 12.7764 9.56906 12.7764C9.76309 12.7764 9.92035 12.619 9.92035 12.4251V5.7858C9.92035 5.59177 9.76309 5.43451 9.56906 5.43451Z" fill="#104CBA"/>
<path d="M5.42404 5.43451C5.23001 5.43451 5.07275 5.59177 5.07275 5.7858V12.4251C5.07275 12.619 5.23001 12.7764 5.42404 12.7764C5.61807 12.7764 5.77533 12.619 5.77533 12.4251V5.7858C5.77533 5.59177 5.61807 5.43451 5.42404 5.43451Z" fill="#104CBA"/>
<path d="M2.40299 4.46561V13.1206C2.40299 13.6321 2.59057 14.1126 2.91825 14.4573C3.24443 14.8029 3.69836 14.9991 4.17342 15H10.8199C11.2951 14.9991 11.749 14.8029 12.075 14.4573C12.4027 14.1126 12.5903 13.6321 12.5903 13.1206V4.46561C13.2417 4.29271 13.6638 3.66342 13.5767 2.99501C13.4894 2.32674 12.9201 1.82684 12.246 1.82671H10.4475V1.3876C10.4495 1.01834 10.3035 0.663756 10.0421 0.402898C9.7807 0.142177 9.42557 -0.00300323 9.05631 1.56386e-05H5.93699C5.56772 -0.00300323 5.2126 0.142177 4.95119 0.402898C4.68978 0.663756 4.54378 1.01834 4.54584 1.3876V1.82671H2.74727C2.07324 1.82684 1.50391 2.32674 1.41664 2.99501C1.3295 3.66342 1.7516 4.29271 2.40299 4.46561ZM10.8199 14.2974H4.17342C3.5728 14.2974 3.10556 13.7814 3.10556 13.1206V4.49649H11.8877V13.1206C11.8877 13.7814 11.4205 14.2974 10.8199 14.2974ZM5.24841 1.3876C5.24608 1.20468 5.31798 1.02863 5.44779 0.899502C5.57747 0.770377 5.75393 0.699433 5.93699 0.70259H9.05631C9.23936 0.699433 9.41583 0.770377 9.5455 0.899502C9.67531 1.02849 9.74722 1.20468 9.74488 1.3876V1.82671H5.24841V1.3876ZM2.74727 2.52928H12.246C12.5952 2.52928 12.8783 2.81237 12.8783 3.1616C12.8783 3.51083 12.5952 3.79391 12.246 3.79391H2.74727C2.39805 3.79391 2.11496 3.51083 2.11496 3.1616C2.11496 2.81237 2.39805 2.52928 2.74727 2.52928Z" fill="#104CBA"/>
<path d="M7.49631 5.43451C7.30228 5.43451 7.14502 5.59177 7.14502 5.7858V12.4251C7.14502 12.619 7.30228 12.7764 7.49631 12.7764C7.69034 12.7764 7.84759 12.619 7.84759 12.4251V5.7858C7.84759 5.59177 7.69034 5.43451 7.49631 5.43451Z" fill="#104CBA"/>
</g>
<defs>
<clipPath id="clip0_1162_1037">
<rect width="15" height="15" fill="white"/>
</clipPath>
</defs>
</svg>
