<svg width="17" height="11" viewBox="0 0 17 11" fill="none" xmlns="http://www.w3.org/2000/svg">
<path d="M16.9061 5.2102C16.7544 4.99803 13.1369 0.0214844 8.5329 0.0214844C3.92855 0.0214844 0.244634 4.99803 0.0928955 5.2102C-0.0316162 5.38352 -0.0316162 5.61694 0.0928955 5.78993C0.244634 6.0021 3.92855 10.9786 8.5329 10.9786C13.1369 10.9786 16.7544 6.0021 16.9061 5.7899C17.0306 5.61694 17.0306 5.38349 16.9061 5.2102ZM8.5329 8.98639C6.61073 8.98639 4.98013 7.42219 4.98013 5.50003C4.98013 3.57787 6.61073 2.01367 8.5329 2.01367C10.4551 2.01367 12.0193 3.57787 12.0193 5.50003C12.0193 7.42219 10.4551 8.98639 8.5329 8.98639Z" fill="#104CBA" fill-opacity="0.65"/>
<path d="M8.53369 4.00586C7.70959 4.00586 6.97314 4.67623 6.97314 5.5C6.97314 6.3241 7.70959 6.99414 8.53369 6.99414C9.35747 6.99414 10.0278 6.3241 10.0278 5.5C10.0278 4.67623 9.35747 4.00586 8.53369 4.00586Z" fill="#104CBA" fill-opacity="0.65"/>
</svg>
