<svg width="112" height="135" viewBox="0 0 112 135" fill="none" xmlns="http://www.w3.org/2000/svg">
<g filter="url(#filter0_d_2762_2)">
<rect x="7" y="4" width="83.5065" height="120.999" rx="3" fill="#104CBA" fill-opacity="0.11"/>
</g>
<rect x="7" y="4" width="83.5065" height="105.661" rx="3" fill="white"/>
<path d="M60.6821 115.628H32.5626C31.6214 115.628 30.8584 116.391 30.8584 117.332C30.8584 118.273 31.6214 119.036 32.5626 119.036H60.6821C61.6234 119.036 62.3864 118.273 62.3864 117.332C62.3864 116.391 61.6234 115.628 60.6821 115.628Z" fill="#E5F7EF" fill-opacity="0.25"/>
<ellipse cx="21.4853" cy="18.0602" rx="5.96475" ry="5.5387" fill="#AEC6F1" fill-opacity="0.28"/>
<rect x="68.3516" y="12.5215" width="12.7816" height="2.55632" rx="1.27816" fill="#AEC6F1" fill-opacity="0.28"/>
<rect x="63.2402" y="18.4873" width="17.8942" height="2.55632" rx="1.27816" fill="#AEC6F1" fill-opacity="0.28"/>
<path d="M79.8542 47.4561H73.8895C73.1836 47.4561 72.6113 48.0283 72.6113 48.7342C72.6113 49.4401 73.1836 50.0124 73.8895 50.0124H79.8542C80.5601 50.0124 81.1324 49.4401 81.1324 48.7342C81.1324 48.0283 80.5601 47.4561 79.8542 47.4561Z" fill="#AEC6F1" fill-opacity="0.28"/>
<path d="M61.1082 47.4561H16.7987C16.0928 47.4561 15.5205 48.0283 15.5205 48.7342C15.5205 49.4401 16.0928 50.0124 16.7987 50.0124H61.1082C61.8141 50.0124 62.3864 49.4401 62.3864 48.7342C62.3864 48.0283 61.8141 47.4561 61.1082 47.4561Z" fill="#AEC6F1" fill-opacity="0.28"/>
<path d="M79.8546 55.1279H16.7987C16.0928 55.1279 15.5205 55.7002 15.5205 56.4061C15.5205 57.112 16.0928 57.6843 16.7987 57.6843H79.8546C80.5605 57.6843 81.1328 57.112 81.1328 56.4061C81.1328 55.7002 80.5605 55.1279 79.8546 55.1279Z" fill="#AEC6F1" fill-opacity="0.28"/>
<path d="M79.8546 61.9443H16.7987C16.0928 61.9443 15.5205 62.5166 15.5205 63.2225C15.5205 63.9284 16.0928 64.5007 16.7987 64.5007H79.8546C80.5605 64.5007 81.1328 63.9284 81.1328 63.2225C81.1328 62.5166 80.5605 61.9443 79.8546 61.9443Z" fill="#AEC6F1" fill-opacity="0.28"/>
<path d="M79.4285 68.7568H17.2247C16.2835 68.7568 15.5205 69.5198 15.5205 70.4611C15.5205 71.4023 16.2835 72.1653 17.2247 72.1653H79.4285C80.3698 72.1653 81.1328 71.4023 81.1328 70.4611C81.1328 69.5198 80.3698 68.7568 79.4285 68.7568Z" fill="#AEC6F1" fill-opacity="0.28"/>
<path d="M102.762 84.8672L90.8928 72.9976C93.2585 69.3033 94.1759 64.8652 93.4689 60.5357C92.762 56.2062 90.4803 52.2905 87.0623 49.5406C83.6443 46.7908 79.3308 45.4007 74.9503 45.6372C70.5699 45.8738 66.4312 47.7204 63.3292 50.8224C60.2273 53.9244 58.3807 58.063 58.1441 62.4435C57.9075 66.824 59.2976 71.1374 62.0475 74.5555C64.7973 77.9735 68.713 80.2551 73.0425 80.9621C77.372 81.6691 81.8101 80.7516 85.5044 78.3859L97.374 90.2555C98.0889 90.9695 99.0579 91.3705 100.068 91.3705C101.078 91.3705 102.047 90.9695 102.762 90.2555C103.119 89.9033 103.402 89.4837 103.595 89.0213C103.788 88.5588 103.888 88.0625 103.888 87.5613C103.888 87.0601 103.788 86.5639 103.595 86.1014C103.402 85.6389 103.119 85.2194 102.762 84.8672ZM63.214 63.4155C63.214 60.902 63.9593 58.445 65.3557 56.3551C66.7522 54.2653 68.7369 52.6364 71.0591 51.6745C73.3812 50.7127 75.9364 50.461 78.4016 50.9514C80.8668 51.4417 83.1312 52.6521 84.9085 54.4294C86.6858 56.2066 87.8961 58.4711 88.3865 60.9362C88.8768 63.4014 88.6252 65.9566 87.6633 68.2788C86.7015 70.6009 85.0726 72.5857 82.9827 73.9821C80.8928 75.3785 78.4358 76.1238 75.9223 76.1238C72.5519 76.1238 69.3195 74.7849 66.9362 72.4017C64.5529 70.0184 63.214 66.786 63.214 63.4155Z" fill="#104CBA"/>
<defs>
<filter id="filter0_d_2762_2" x="0" y="0" width="97.5068" height="134.999" filterUnits="userSpaceOnUse" color-interpolation-filters="sRGB">
<feFlood flood-opacity="0" result="BackgroundImageFix"/>
<feColorMatrix in="SourceAlpha" type="matrix" values="0 0 0 0 0 0 0 0 0 0 0 0 0 0 0 0 0 0 127 0" result="hardAlpha"/>
<feOffset dy="3"/>
<feGaussianBlur stdDeviation="3.5"/>
<feColorMatrix type="matrix" values="0 0 0 0 0 0 0 0 0 0 0 0 0 0 0 0 0 0 0.11 0"/>
<feBlend mode="normal" in2="BackgroundImageFix" result="effect1_dropShadow_2762_2"/>
<feBlend mode="normal" in="SourceGraphic" in2="effect1_dropShadow_2762_2" result="shape"/>
</filter>
</defs>
</svg>
