<svg width="19" height="19" viewBox="0 0 19 19" fill="none" xmlns="http://www.w3.org/2000/svg">
<path d="M3.2968 12.9425C3.1448 12.9425 2.9931 12.8846 2.87702 12.7686C2.64516 12.5367 2.64516 12.1608 2.87702 11.929L12.1555 2.65046C12.3871 2.4186 12.7633 2.4186 12.9951 2.65046C13.227 2.88232 13.227 3.25816 12.9951 3.49002L3.71658 12.7686C3.6008 12.8843 3.4488 12.9425 3.2968 12.9425Z" fill="#104CBA" fill-opacity="0.65"/>
<path d="M2.37999 17.2194C2.33872 17.2194 2.29686 17.2149 2.255 17.206C1.93438 17.1371 1.73013 16.8216 1.799 16.5009L2.71635 12.225C2.78522 11.9044 3.10228 11.7008 3.42143 11.769C3.74205 11.8379 3.9463 12.1535 3.87743 12.4741L2.96008 16.75C2.90041 17.0288 2.654 17.2194 2.37999 17.2194Z" fill="#104CBA" fill-opacity="0.65"/>
<path d="M6.6552 16.3016C6.5032 16.3016 6.3515 16.2437 6.23542 16.1276C6.00356 15.8958 6.00356 15.5199 6.23542 15.2881L15.514 6.00983C15.7455 5.77797 16.1217 5.77797 16.3535 6.00983C16.5854 6.24169 16.5854 6.61753 16.3535 6.84939L7.07528 16.1276C6.9592 16.2437 6.8072 16.3016 6.6552 16.3016Z" fill="#104CBA" fill-opacity="0.65"/>
<path d="M2.37901 17.2181C2.10499 17.2181 1.85888 17.0276 1.79892 16.7488C1.73034 16.4282 1.93429 16.1126 2.25492 16.0437L6.53081 15.1264C6.85173 15.0584 7.16731 15.262 7.23588 15.5824C7.30446 15.903 7.10051 16.2186 6.77988 16.2874L2.50399 17.2048C2.46213 17.214 2.42027 17.2181 2.37901 17.2181Z" fill="#104CBA" fill-opacity="0.65"/>
<path d="M14.2545 8.70222C14.1025 8.70222 13.9505 8.64433 13.8347 8.52825L10.4761 5.16971C10.2443 4.93785 10.2443 4.562 10.4761 4.33014C10.7077 4.09829 11.0841 4.09829 11.3157 4.33014L14.6742 7.68869C14.9061 7.92055 14.9061 8.29639 14.6742 8.52825C14.5585 8.64433 14.4065 8.70222 14.2545 8.70222Z" fill="#104CBA" fill-opacity="0.65"/>
<path d="M15.9338 7.02373C15.7818 7.02373 15.6298 6.96584 15.5137 6.84977C15.2818 6.61791 15.2818 6.24206 15.5137 6.00991C15.8441 5.67948 16.0261 5.23209 16.0261 4.75056C16.0261 4.26903 15.8441 3.82164 15.5137 3.49122C15.183 3.1605 14.7356 2.97852 14.2541 2.97852C13.7725 2.97852 13.3251 3.1605 12.9947 3.49122C12.7631 3.72308 12.3873 3.72338 12.1549 3.49122C11.923 3.25936 11.923 2.88352 12.1549 2.65136C12.7094 2.0965 13.4549 1.79102 14.2541 1.79102C15.0529 1.79102 15.7987 2.0965 16.3533 2.65136C16.9081 3.20592 17.2136 3.95138 17.2136 4.75056C17.2136 5.54975 16.9081 6.2952 16.3533 6.84977C16.2378 6.96555 16.0858 7.02373 15.9338 7.02373Z" fill="#104CBA" fill-opacity="0.65"/>
</svg>
