<svg width="24" height="24" viewBox="0 0 24 24" fill="none" xmlns="http://www.w3.org/2000/svg">
<path d="M8.18308 10.3239H2.38605C1.7991 10.3233 1.23633 10.09 0.821234 9.675C0.406134 9.26003 0.172601 8.69734 0.171875 8.11039V2.38536C0.172601 1.79841 0.406134 1.23572 0.821234 0.82075C1.23633 0.405778 1.7991 0.172419 2.38605 0.171875H8.18308C8.76991 0.172601 9.33249 0.40604 9.74745 0.820992C10.1624 1.23594 10.3958 1.79853 10.3966 2.38536V8.11039C10.3958 8.69722 10.1624 9.25981 9.74745 9.67476C9.33249 10.0897 8.76991 10.3231 8.18308 10.3239ZM2.38605 1.88616C2.25364 1.88634 2.1267 1.93897 2.03302 2.03253C1.93933 2.12609 1.88652 2.25296 1.88616 2.38536V8.11039C1.88652 8.24279 1.93933 8.36966 2.03302 8.46322C2.1267 8.55678 2.25364 8.60941 2.38605 8.60959H8.18308C8.31542 8.60941 8.44228 8.55676 8.53586 8.46318C8.62944 8.3696 8.68209 8.24273 8.68228 8.11039V2.38536C8.68209 2.25302 8.62944 2.12615 8.53586 2.03257C8.44228 1.93899 8.31542 1.88634 8.18308 1.88616H2.38605Z" fill="#104CBA"/>
<path d="M8.21042 23.8288H2.41339C1.82638 23.828 1.26362 23.5945 0.848536 23.1794C0.433456 22.7644 0.199945 22.2016 0.199219 21.6146V15.8902C0.199945 15.3033 0.433478 14.7406 0.848578 14.3256C1.26368 13.9107 1.82644 13.6773 2.41339 13.6768H8.21042C8.79701 13.6778 9.35925 13.9114 9.7739 14.3264C10.1886 14.7413 10.4218 15.3037 10.4225 15.8902V21.6146C10.422 22.2013 10.1888 22.7639 9.77414 23.1789C9.35947 23.594 8.79713 23.8277 8.21042 23.8288ZM2.41339 15.391C2.28099 15.3912 2.15405 15.4439 2.06036 15.5374C1.96667 15.631 1.91387 15.7578 1.9135 15.8902V21.6146C1.91369 21.7471 1.96641 21.8742 2.06012 21.9679C2.15383 22.0616 2.28087 22.1143 2.41339 22.1145H8.21042C8.34282 22.1141 8.46969 22.0613 8.56325 21.9676C8.65681 21.8739 8.70944 21.747 8.70962 21.6146V15.8902C8.70944 15.7579 8.65679 15.631 8.56321 15.5375C8.46963 15.4439 8.34276 15.3912 8.21042 15.391H2.41339Z" fill="#104CBA"/>
<path d="M21.6147 23.8288H15.8177C15.2307 23.828 14.6679 23.5945 14.2528 23.1794C13.8378 22.7644 13.6042 22.2016 13.6035 21.6146V15.8902C13.6042 15.3033 13.8378 14.7406 14.2529 14.3256C14.668 13.9107 15.2307 13.6773 15.8177 13.6768H21.6147C22.2015 13.6775 22.7641 13.9109 23.1791 14.3259C23.594 14.7408 23.8275 15.3034 23.8282 15.8902V21.6146C23.8277 22.2015 23.5943 22.7643 23.1793 23.1794C22.7644 23.5945 22.2017 23.828 21.6147 23.8288ZM15.8177 15.3945C15.6853 15.3947 15.5583 15.4473 15.4647 15.5408C15.371 15.6344 15.3182 15.7613 15.3178 15.8937V21.618C15.318 21.7505 15.3707 21.8776 15.4644 21.9713C15.5581 22.065 15.6852 22.1177 15.8177 22.1179H21.6147C21.7471 22.1175 21.874 22.0647 21.9675 21.971C22.0611 21.8774 22.1137 21.7504 22.1139 21.618V15.8902C22.1137 15.7579 22.0611 15.631 21.9675 15.5375C21.8739 15.4439 21.7471 15.3912 21.6147 15.391L15.8177 15.3945Z" fill="#104CBA"/>
<path d="M18.7202 10.3232C17.7182 10.3158 16.7409 10.0119 15.9114 9.44979C15.0819 8.88772 14.4374 8.09264 14.0591 7.16481C13.6808 6.23697 13.5857 5.21791 13.7857 4.23609C13.9858 3.25428 14.472 2.35365 15.1831 1.64777C15.8943 0.941887 16.7985 0.46234 17.7817 0.269585C18.765 0.0768299 19.7833 0.179496 20.7083 0.56464C21.6333 0.949784 22.4236 1.60016 22.9795 2.43379C23.5355 3.26742 23.8321 4.24697 23.8322 5.24895C23.8255 6.59921 23.2835 7.89168 22.3252 8.84293C21.3669 9.79417 20.0704 10.3265 18.7202 10.3232ZM18.7202 1.88895C18.0573 1.89639 17.4114 2.09976 16.8638 2.47346C16.3163 2.84715 15.8915 3.37448 15.643 3.98905C15.3944 4.60363 15.3332 5.278 15.4671 5.92727C15.601 6.57654 15.9239 7.1717 16.3953 7.63784C16.8667 8.10398 17.4654 8.42027 18.1161 8.54688C18.7669 8.6735 19.4405 8.6048 20.0523 8.34942C20.664 8.09404 21.1866 7.66339 21.5541 7.11169C21.9217 6.55999 22.1178 5.91188 22.1179 5.24895C22.1124 4.35265 21.7516 3.49512 21.1146 2.86454C20.4776 2.23397 19.6165 1.88188 18.7202 1.88552V1.88895Z" fill="#104CBA"/>
</svg>
