<svg width="11" height="11" viewBox="0 0 11 11" fill="none" xmlns="http://www.w3.org/2000/svg">
<path d="M10.5703 7.5625C10.8076 7.5625 11 7.37013 11 7.13281V2.57812C11 1.63041 10.229 0.859375 9.28125 0.859375H8.72266V0.429688C8.72266 0.192371 8.53028 0 8.29297 0C8.05565 0 7.86328 0.192371 7.86328 0.429688V0.859375H5.9082V0.429688C5.9082 0.192371 5.71583 0 5.47852 0C5.2412 0 5.04883 0.192371 5.04883 0.429688V0.859375H3.11523V0.429688C3.11523 0.192371 2.92286 0 2.68555 0C2.44823 0 2.25586 0.192371 2.25586 0.429688V0.859375H1.71875C0.771031 0.859375 0 1.63041 0 2.57812V9.28125C0 10.229 0.771031 11 1.71875 11H9.28125C10.229 11 11 10.229 11 9.28125C11 9.04393 10.8076 8.85156 10.5703 8.85156C10.333 8.85156 10.1406 9.04393 10.1406 9.28125C10.1406 9.75511 9.75511 10.1406 9.28125 10.1406H1.71875C1.24489 10.1406 0.859375 9.75511 0.859375 9.28125V2.57812C0.859375 2.10427 1.24489 1.71875 1.71875 1.71875H2.25586V2.14844C2.25586 2.38575 2.44823 2.57812 2.68555 2.57812C2.92286 2.57812 3.11523 2.38575 3.11523 2.14844V1.71875H5.04883V2.14844C5.04883 2.38575 5.2412 2.57812 5.47852 2.57812C5.71583 2.57812 5.9082 2.38575 5.9082 2.14844V1.71875H7.86328V2.14844C7.86328 2.38575 8.05565 2.57812 8.29297 2.57812C8.53028 2.57812 8.72266 2.38575 8.72266 2.14844V1.71875H9.28125C9.75511 1.71875 10.1406 2.10427 10.1406 2.57812V7.13281C10.1406 7.37013 10.333 7.5625 10.5703 7.5625Z" fill="#2B3E62"/>
<path d="M2.68555 4.94141C2.92286 4.94141 3.11523 4.74903 3.11523 4.51172C3.11523 4.27441 2.92286 4.08203 2.68555 4.08203C2.44824 4.08203 2.25586 4.27441 2.25586 4.51172C2.25586 4.74903 2.44824 4.94141 2.68555 4.94141Z" fill="#2B3E62"/>
<path d="M6.42383 4.94141C6.66114 4.94141 6.85352 4.74903 6.85352 4.51172C6.85352 4.27441 6.66114 4.08203 6.42383 4.08203C6.18652 4.08203 5.99414 4.27441 5.99414 4.51172C5.99414 4.74903 6.18652 4.94141 6.42383 4.94141Z" fill="#2B3E62"/>
<path d="M8.29297 4.94141C8.53028 4.94141 8.72266 4.74903 8.72266 4.51172C8.72266 4.27441 8.53028 4.08203 8.29297 4.08203C8.05566 4.08203 7.86328 4.27441 7.86328 4.51172C7.86328 4.74903 8.05566 4.94141 8.29297 4.94141Z" fill="#2B3E62"/>
<path d="M2.68555 6.81055C2.92286 6.81055 3.11523 6.61817 3.11523 6.38086C3.11523 6.14355 2.92286 5.95117 2.68555 5.95117C2.44824 5.95117 2.25586 6.14355 2.25586 6.38086C2.25586 6.61817 2.44824 6.81055 2.68555 6.81055Z" fill="#2B3E62"/>
<path d="M2.68555 8.67969C2.92286 8.67969 3.11523 8.48731 3.11523 8.25C3.11523 8.01269 2.92286 7.82031 2.68555 7.82031C2.44824 7.82031 2.25586 8.01269 2.25586 8.25C2.25586 8.48731 2.44824 8.67969 2.68555 8.67969Z" fill="#2B3E62"/>
<path d="M4.55469 4.94141C4.792 4.94141 4.98438 4.74903 4.98438 4.51172C4.98438 4.27441 4.792 4.08203 4.55469 4.08203C4.31738 4.08203 4.125 4.27441 4.125 4.51172C4.125 4.74903 4.31738 4.94141 4.55469 4.94141Z" fill="#2B3E62"/>
<path d="M4.55469 6.81055C4.792 6.81055 4.98438 6.61817 4.98438 6.38086C4.98438 6.14355 4.792 5.95117 4.55469 5.95117C4.31738 5.95117 4.125 6.14355 4.125 6.38086C4.125 6.61817 4.31738 6.81055 4.55469 6.81055Z" fill="#2B3E62"/>
<path d="M4.55469 8.67969C4.792 8.67969 4.98438 8.48731 4.98438 8.25C4.98438 8.01269 4.792 7.82031 4.55469 7.82031C4.31738 7.82031 4.125 8.01269 4.125 8.25C4.125 8.48731 4.31738 8.67969 4.55469 8.67969Z" fill="#2B3E62"/>
<path d="M6.42383 6.81055C6.66114 6.81055 6.85352 6.61817 6.85352 6.38086C6.85352 6.14355 6.66114 5.95117 6.42383 5.95117C6.18652 5.95117 5.99414 6.14355 5.99414 6.38086C5.99414 6.61817 6.18652 6.81055 6.42383 6.81055Z" fill="#2B3E62"/>
<path d="M8.29297 6.81055C8.53028 6.81055 8.72266 6.61817 8.72266 6.38086C8.72266 6.14355 8.53028 5.95117 8.29297 5.95117C8.05566 5.95117 7.86328 6.14355 7.86328 6.38086C7.86328 6.61817 8.05566 6.81055 8.29297 6.81055Z" fill="#2B3E62"/>
<path d="M6.42383 8.67969C6.66114 8.67969 6.85352 8.48731 6.85352 8.25C6.85352 8.01269 6.66114 7.82031 6.42383 7.82031C6.18652 7.82031 5.99414 8.01269 5.99414 8.25C5.99414 8.48731 6.18652 8.67969 6.42383 8.67969Z" fill="#2B3E62"/>
</svg>
