<svg width="27" height="27" viewBox="0 0 27 27" fill="none" xmlns="http://www.w3.org/2000/svg">
<path d="M19.1002 12.7642C19.8258 11.6876 20.25 10.3927 20.25 9.00002V6.75C20.25 3.02737 17.2226 0 13.5 0C9.77736 0 6.74998 3.02737 6.74998 6.75V9.00002C6.74998 10.3928 7.17412 11.6876 7.89975 12.7642C4.52923 14.7083 2.25 18.3375 2.25 22.5V23.625C2.25 25.4857 3.76427 27 5.625 27H21.375C23.2358 27 24.75 25.4857 24.75 23.625V22.5C24.75 18.3375 22.4707 14.7083 19.1002 12.7642ZM9 6.75C9 4.26827 11.0183 2.25002 13.5 2.25002C15.9817 2.25002 18 4.26827 18 6.75V9.00002C18 11.4818 15.9817 13.5 13.5 13.5C11.0183 13.5 9 11.4818 9 9.00002V6.75ZM22.5 23.625C22.5 24.2449 21.9949 24.75 21.375 24.75H5.625C5.00511 24.75 4.50002 24.2448 4.50002 23.625V22.5C4.50002 18.9687 6.54527 15.9075 9.513 14.4349C10.6324 15.2573 12.0082 15.75 13.5 15.75C14.9917 15.75 16.3676 15.2573 17.487 14.4349C20.4547 15.9075 22.4999 18.9686 22.4999 22.5V23.625H22.5Z" fill="#104CBA" fill-opacity="0.65"/>
</svg>
