<svg width="13" height="13" viewBox="0 0 13 13" fill="none" xmlns="http://www.w3.org/2000/svg">
<g clip-path="url(#clip0_1986_52)">
<path d="M10.4128 1.326H10.1528V0.663C10.1528 0.26 9.87977 0 9.48977 0C9.09977 0 8.82677 0.26 8.82677 0.663V1.326H4.51077V0.663C4.51077 0.26 4.25077 0 3.84777 0C3.44477 0 3.18477 0.26 3.18477 0.663V1.326H2.58677C1.32577 1.326 0.259766 2.392 0.259766 3.653V10.686C0.259766 11.947 1.32577 13.013 2.58677 13.013H10.4128C11.6738 13.013 12.7398 11.947 12.7398 10.686V3.653C12.7398 2.392 11.6738 1.326 10.4128 1.326ZM2.58677 2.652H10.4128C10.9458 2.652 11.4138 3.12 11.4138 3.653V4.576H1.58577V3.653C1.58577 3.12 2.05377 2.652 2.58677 2.652ZM10.4128 11.674H2.58677C2.05377 11.674 1.58577 11.206 1.58577 10.673V5.902H11.4008V10.673C11.4138 11.206 10.9458 11.674 10.4128 11.674Z" fill="#104CBA" fill-opacity="0.65"/>
</g>
<defs>
<clipPath id="clip0_1986_52">
<rect width="13" height="13" fill="white"/>
</clipPath>
</defs>
</svg>
