<svg width="27" height="27" viewBox="0 0 27 27" fill="none" xmlns="http://www.w3.org/2000/svg">
<path d="M25.3125 10.125H19.125V5.625H23.0625C23.2117 5.625 23.3548 5.56574 23.4602 5.46025C23.5657 5.35476 23.625 5.21168 23.625 5.0625V2.8125C23.625 2.06658 23.3287 1.35121 22.8012 0.823762C22.2738 0.296316 21.5584 0 20.8125 0L2.8125 0C2.06658 0 1.35121 0.296316 0.823762 0.823762C0.296316 1.35121 0 2.06658 0 2.8125L0 24.1875C0 24.3367 0.0592632 24.4798 0.164752 24.5852C0.270242 24.6907 0.413316 24.75 0.5625 24.75H13.5V25.3125C13.5 25.7601 13.6778 26.1893 13.9943 26.5057C14.3107 26.8222 14.7399 27 15.1875 27H25.3125C25.7601 27 26.1893 26.8222 26.5057 26.5057C26.8222 26.1893 27 25.7601 27 25.3125V11.8125C27 11.3649 26.8222 10.9357 26.5057 10.6193C26.1893 10.3028 25.7601 10.125 25.3125 10.125ZM22.5 2.8125V4.5H19.125V2.8125C19.125 2.36495 19.3028 1.93572 19.6193 1.61926C19.9357 1.30279 20.3649 1.125 20.8125 1.125C21.2601 1.125 21.6893 1.30279 22.0057 1.61926C22.3222 1.93572 22.5 2.36495 22.5 2.8125ZM1.125 23.625V2.8125C1.125 2.36495 1.30279 1.93572 1.61926 1.61926C1.93572 1.30279 2.36495 1.125 2.8125 1.125H18.5625C17.8144 2.115 18 2.10938 18 10.125H15.1875C14.7399 10.125 14.3107 10.3028 13.9943 10.6193C13.6778 10.9357 13.5 11.3649 13.5 11.8125V23.625H1.125ZM25.875 25.3125C25.875 25.4617 25.8157 25.6048 25.7102 25.7102C25.6048 25.8157 25.4617 25.875 25.3125 25.875H15.1875C15.0383 25.875 14.8952 25.8157 14.7898 25.7102C14.6843 25.6048 14.625 25.4617 14.625 25.3125V11.8125C14.625 11.6633 14.6843 11.5202 14.7898 11.4148C14.8952 11.3093 15.0383 11.25 15.1875 11.25H25.3125C25.4617 11.25 25.6048 11.3093 25.7102 11.4148C25.8157 11.5202 25.875 11.6633 25.875 11.8125V25.3125Z" fill="#104CBA" fill-opacity="0.65"/>
<path d="M24.1875 12.375H16.3125C16.1633 12.375 16.0202 12.4343 15.9148 12.5398C15.8093 12.6452 15.75 12.7883 15.75 12.9375V17.4375C15.75 17.5867 15.8093 17.7298 15.9148 17.8352C16.0202 17.9407 16.1633 18 16.3125 18H24.1875C24.3367 18 24.4798 17.9407 24.5853 17.8352C24.6908 17.7298 24.75 17.5867 24.75 17.4375V12.9375C24.75 12.7883 24.6908 12.6452 24.5853 12.5398C24.4798 12.4343 24.3367 12.375 24.1875 12.375ZM23.625 16.875H16.875V13.5H23.625V16.875Z" fill="#104CBA" fill-opacity="0.65"/>
<path d="M20.8125 19.125H19.6875C19.5383 19.125 19.3952 19.1843 19.2898 19.2898C19.1843 19.3952 19.125 19.5383 19.125 19.6875C19.125 19.8367 19.1843 19.9797 19.2898 20.0852C19.3952 20.1907 19.5383 20.25 19.6875 20.25H20.8125C20.9617 20.25 21.1048 20.1907 21.2103 20.0852C21.3158 19.9797 21.375 19.8367 21.375 19.6875C21.375 19.5383 21.3158 19.3952 21.2103 19.2898C21.1048 19.1843 20.9617 19.125 20.8125 19.125Z" fill="#104CBA" fill-opacity="0.65"/>
<path d="M17.4375 19.125H16.3125C16.1633 19.125 16.0202 19.1843 15.9148 19.2898C15.8093 19.3952 15.75 19.5383 15.75 19.6875C15.75 19.8367 15.8093 19.9797 15.9148 20.0852C16.0202 20.1907 16.1633 20.25 16.3125 20.25H17.4375C17.5867 20.25 17.7298 20.1907 17.8353 20.0852C17.9408 19.9797 18 19.8367 18 19.6875C18 19.5383 17.9408 19.3952 17.8353 19.2898C17.7298 19.1843 17.5867 19.125 17.4375 19.125Z" fill="#104CBA" fill-opacity="0.65"/>
<path d="M24.1875 19.125H23.0625C22.9133 19.125 22.7702 19.1843 22.6648 19.2898C22.5593 19.3952 22.5 19.5383 22.5 19.6875C22.5 19.8367 22.5593 19.9797 22.6648 20.0852C22.7702 20.1907 22.9133 20.25 23.0625 20.25H24.1875C24.3367 20.25 24.4798 20.1907 24.5853 20.0852C24.6908 19.9797 24.75 19.8367 24.75 19.6875C24.75 19.5383 24.6908 19.3952 24.5853 19.2898C24.4798 19.1843 24.3367 19.125 24.1875 19.125Z" fill="#104CBA" fill-opacity="0.65"/>
<path d="M20.8125 21.375H19.6875C19.5383 21.375 19.3952 21.4343 19.2898 21.5398C19.1843 21.6452 19.125 21.7883 19.125 21.9375C19.125 22.0867 19.1843 22.2298 19.2898 22.3352C19.3952 22.4407 19.5383 22.5 19.6875 22.5H20.8125C20.9617 22.5 21.1048 22.4407 21.2103 22.3352C21.3158 22.2298 21.375 22.0867 21.375 21.9375C21.375 21.7883 21.3158 21.6452 21.2103 21.5398C21.1048 21.4343 20.9617 21.375 20.8125 21.375Z" fill="#104CBA" fill-opacity="0.65"/>
<path d="M17.4375 21.375H16.3125C16.1633 21.375 16.0202 21.4343 15.9148 21.5398C15.8093 21.6452 15.75 21.7883 15.75 21.9375C15.75 22.0867 15.8093 22.2298 15.9148 22.3352C16.0202 22.4407 16.1633 22.5 16.3125 22.5H17.4375C17.5867 22.5 17.7298 22.4407 17.8353 22.3352C17.9408 22.2298 18 22.0867 18 21.9375C18 21.7883 17.9408 21.6452 17.8353 21.5398C17.7298 21.4343 17.5867 21.375 17.4375 21.375Z" fill="#104CBA" fill-opacity="0.65"/>
<path d="M24.1875 21.375H23.0625C22.9133 21.375 22.7702 21.4343 22.6648 21.5398C22.5593 21.6452 22.5 21.7883 22.5 21.9375C22.5 22.0867 22.5593 22.2298 22.6648 22.3352C22.7702 22.4407 22.9133 22.5 23.0625 22.5H24.1875C24.3367 22.5 24.4798 22.4407 24.5853 22.3352C24.6908 22.2298 24.75 22.0867 24.75 21.9375C24.75 21.7883 24.6908 21.6452 24.5853 21.5398C24.4798 21.4343 24.3367 21.375 24.1875 21.375Z" fill="#104CBA" fill-opacity="0.65"/>
<path d="M20.8125 23.625H19.6875C19.5383 23.625 19.3952 23.6843 19.2898 23.7898C19.1843 23.8952 19.125 24.0383 19.125 24.1875C19.125 24.3367 19.1843 24.4798 19.2898 24.5852C19.3952 24.6907 19.5383 24.75 19.6875 24.75H20.8125C20.9617 24.75 21.1048 24.6907 21.2103 24.5852C21.3158 24.4798 21.375 24.3367 21.375 24.1875C21.375 24.0383 21.3158 23.8952 21.2103 23.7898C21.1048 23.6843 20.9617 23.625 20.8125 23.625Z" fill="#104CBA" fill-opacity="0.65"/>
<path d="M17.4375 23.625H16.3125C16.1633 23.625 16.0202 23.6843 15.9148 23.7898C15.8093 23.8952 15.75 24.0383 15.75 24.1875C15.75 24.3367 15.8093 24.4798 15.9148 24.5852C16.0202 24.6907 16.1633 24.75 16.3125 24.75H17.4375C17.5867 24.75 17.7298 24.6907 17.8353 24.5852C17.9408 24.4798 18 24.3367 18 24.1875C18 24.0383 17.9408 23.8952 17.8353 23.7898C17.7298 23.6843 17.5867 23.625 17.4375 23.625Z" fill="#104CBA" fill-opacity="0.65"/>
<path d="M24.1875 23.625H23.0625C22.9133 23.625 22.7702 23.6843 22.6648 23.7898C22.5593 23.8952 22.5 24.0383 22.5 24.1875C22.5 24.3367 22.5593 24.4798 22.6648 24.5852C22.7702 24.6907 22.9133 24.75 23.0625 24.75H24.1875C24.3367 24.75 24.4798 24.6907 24.5853 24.5852C24.6908 24.4798 24.75 24.3367 24.75 24.1875C24.75 24.0383 24.6908 23.8952 24.5853 23.7898C24.4798 23.6843 24.3367 23.625 24.1875 23.625Z" fill="#104CBA" fill-opacity="0.65"/>
<path d="M11.8125 10.6875H3.9375C3.78832 10.6875 3.64524 10.7468 3.53975 10.8523C3.43426 10.9577 3.375 11.1008 3.375 11.25C3.375 11.3992 3.43426 11.5423 3.53975 11.6478C3.64524 11.7532 3.78832 11.8125 3.9375 11.8125H11.8125C11.9617 11.8125 12.1048 11.7532 12.2103 11.6478C12.3157 11.5423 12.375 11.3992 12.375 11.25C12.375 11.1008 12.3157 10.9577 12.2103 10.8523C12.1048 10.7468 11.9617 10.6875 11.8125 10.6875Z" fill="#104CBA" fill-opacity="0.65"/>
<path d="M11.8125 16.3125H3.9375C3.78832 16.3125 3.64524 16.3718 3.53975 16.4773C3.43426 16.5827 3.375 16.7258 3.375 16.875C3.375 17.0242 3.43426 17.1673 3.53975 17.2727C3.64524 17.3782 3.78832 17.4375 3.9375 17.4375H11.8125C11.9617 17.4375 12.1048 17.3782 12.2103 17.2727C12.3157 17.1673 12.375 17.0242 12.375 16.875C12.375 16.7258 12.3157 16.5827 12.2103 16.4773C12.1048 16.3718 11.9617 16.3125 11.8125 16.3125Z" fill="#104CBA" fill-opacity="0.65"/>
<path d="M3.9375 6.1875H15.1875C15.3367 6.1875 15.4798 6.12823 15.5853 6.02275C15.6907 5.91726 15.75 5.77418 15.75 5.625C15.75 5.47581 15.6907 5.33274 15.5853 5.22725C15.4798 5.12176 15.3367 5.0625 15.1875 5.0625H3.9375C3.78832 5.0625 3.64524 5.12176 3.53975 5.22725C3.43426 5.33274 3.375 5.47581 3.375 5.625C3.375 5.77418 3.43426 5.91726 3.53975 6.02275C3.64524 6.12823 3.78832 6.1875 3.9375 6.1875Z" fill="#104CBA" fill-opacity="0.65"/>
<path d="M3.9375 9.00001H15.1875C15.3367 9.00001 15.4798 8.94074 15.5853 8.83525C15.6907 8.72976 15.75 8.58669 15.75 8.4375C15.75 8.28832 15.6907 8.14524 15.5853 8.03975C15.4798 7.93426 15.3367 7.875 15.1875 7.875H3.9375C3.78832 7.875 3.64524 7.93426 3.53975 8.03975C3.43426 8.14524 3.375 8.28832 3.375 8.4375C3.375 8.58669 3.43426 8.72976 3.53975 8.83525C3.64524 8.94074 3.78832 9.00001 3.9375 9.00001Z" fill="#104CBA" fill-opacity="0.65"/>
<path d="M11.8125 13.5H3.9375C3.78832 13.5 3.64524 13.5593 3.53975 13.6648C3.43426 13.7702 3.375 13.9133 3.375 14.0625C3.375 14.2117 3.43426 14.3547 3.53975 14.4602C3.64524 14.5657 3.78832 14.625 3.9375 14.625H11.8125C11.9617 14.625 12.1048 14.5657 12.2103 14.4602C12.3157 14.3547 12.375 14.2117 12.375 14.0625C12.375 13.9133 12.3157 13.7702 12.2103 13.6648C12.1048 13.5593 11.9617 13.5 11.8125 13.5Z" fill="#104CBA" fill-opacity="0.65"/>
<path d="M11.8125 19.125H3.9375C3.78832 19.125 3.64524 19.1843 3.53975 19.2898C3.43426 19.3952 3.375 19.5383 3.375 19.6875C3.375 19.8367 3.43426 19.9797 3.53975 20.0852C3.64524 20.1907 3.78832 20.25 3.9375 20.25H11.8125C11.9617 20.25 12.1048 20.1907 12.2103 20.0852C12.3157 19.9797 12.375 19.8367 12.375 19.6875C12.375 19.5383 12.3157 19.3952 12.2103 19.2898C12.1048 19.1843 11.9617 19.125 11.8125 19.125Z" fill="#104CBA" fill-opacity="0.65"/>
</svg>
