<svg width="15" height="15" viewBox="0 0 15 15" fill="none" xmlns="http://www.w3.org/2000/svg">
<path d="M12.8371 12.0628H2.16309V3.85181H12.8401V12.0628H12.8371ZM2.98209 11.2438H12.0151V4.67381H2.98209V11.2438Z" fill="#104CBA"/>
<path d="M11.1962 8.7777H3.80416C2.89816 8.7777 2.16016 8.0397 2.16016 7.1337V5.9007H2.98216V7.1337C2.98216 7.5867 3.35116 7.9557 3.80416 7.9557H11.1962C11.6492 7.9557 12.0182 7.5867 12.0182 7.1337V5.9007H12.8402V7.1337C12.8372 8.0427 12.1022 8.7777 11.1962 8.7777Z" fill="#104CBA"/>
<path d="M9.14396 4.67365H5.85596V3.44065C5.85596 2.98765 6.22496 2.61865 6.67796 2.61865H8.32196C8.77496 2.61865 9.14396 2.98765 9.14396 3.44065V4.67365ZM6.67796 3.85165H8.32196V3.44065H6.67796V3.85165Z" fill="#104CBA"/>
<path d="M10.3742 6.31479H9.55225V7.54779H10.3742V6.31479Z" fill="#104CBA"/>
<path d="M5.44798 6.31479H4.62598V7.54779H5.44798V6.31479Z" fill="#104CBA"/>
</svg>
