<svg width="16" height="16" viewBox="0 0 16 16" fill="none" xmlns="http://www.w3.org/2000/svg">
<g clip-path="url(#clip0_2664_465)">
<path d="M12.3699 5.98177H11.2554V3.43885C11.2554 1.63527 9.75719 0.167969 7.9156 0.167969C6.07402 0.167969 4.57576 1.63527 4.57576 3.43885V5.98177H3.46362C2.44052 5.98177 1.60815 6.81413 1.60815 7.83724V14.1458C1.60815 15.1689 2.44052 16.0013 3.46362 16.0013H12.3699C13.393 16.0013 14.2253 15.1689 14.2253 14.1458V7.83724C14.2253 6.81413 13.393 5.98177 12.3699 5.98177ZM5.81274 3.43885C5.81274 2.31734 6.75609 1.40495 7.9156 1.40495C9.07512 1.40495 10.0185 2.31734 10.0185 3.43885V5.98177H5.81274V3.43885V3.43885ZM12.9884 14.1458C12.9884 14.4869 12.7109 14.7643 12.3699 14.7643H3.46362C3.12259 14.7643 2.84513 14.4869 2.84513 14.1458V7.83724C2.84513 7.4962 3.12259 7.21875 3.46362 7.21875H12.3699C12.7109 7.21875 12.9884 7.4962 12.9884 7.83724V14.1458Z" fill="#104CBA" fill-opacity="0.65"/>
<path d="M7.91667 9.01172C7.28472 9.01172 6.77246 9.52398 6.77246 10.1559C6.77246 10.5594 6.98151 10.9139 7.29703 11.1176V12.4753C7.29703 12.8168 7.57393 13.0938 7.91552 13.0938C8.25708 13.0938 8.53401 12.8168 8.53401 12.4753V11.1191C8.8508 10.9156 9.06087 10.5604 9.06087 10.1559C9.06087 9.52398 8.54861 9.01172 7.91667 9.01172Z" fill="#104CBA" fill-opacity="0.65"/>
</g>
<defs>
<clipPath id="clip0_2664_465">
<rect width="15.8333" height="15.8333" fill="white" transform="translate(0 0.167969)"/>
</clipPath>
</defs>
</svg>
