<svg width="25" height="22" viewBox="0 0 25 22" fill="none" xmlns="http://www.w3.org/2000/svg">
<circle cx="19" cy="16" r="6" fill="#104CBA"/>
<path d="M17.9714 16.8878H3.02783V5.3924H17.9756V16.8878H17.9714ZM4.17443 15.7412H16.8206V6.5432H4.17443V15.7412Z" fill="#104CBA"/>
<path d="M15.6743 12.2886H5.32553C4.05713 12.2886 3.02393 11.2554 3.02393 9.98704V8.26083H4.17473V9.98704C4.17473 10.6212 4.69133 11.1378 5.32553 11.1378H15.6743C16.3085 11.1378 16.8251 10.6212 16.8251 9.98704V8.26083H17.9759V9.98704C17.9717 11.2596 16.9427 12.2886 15.6743 12.2886Z" fill="#104CBA"/>
<path d="M12.8014 6.54329H8.19824V4.81709C8.19824 4.18289 8.71484 3.66629 9.34904 3.66629H11.6506C12.2848 3.66629 12.8014 4.18289 12.8014 4.81709V6.54329ZM9.34904 5.39249H11.6506V4.81709H9.34904V5.39249Z" fill="#104CBA"/>
<path d="M14.5234 8.84055H13.3726V10.5667H14.5234V8.84055Z" fill="#104CBA"/>
<path d="M7.62736 8.84055H6.47656V10.5667H7.62736V8.84055Z" fill="#104CBA"/>
<g clip-path="url(#clip0_2357_3)">
<path d="M21.7 15.7H19.3V13.3C19.3 13.1344 19.1656 13 19 13C18.8344 13 18.7 13.1344 18.7 13.3V15.7H16.3C16.1344 15.7 16 15.8344 16 16C16 16.1656 16.1344 16.3 16.3 16.3H18.7V18.7C18.7 18.8656 18.8344 19 19 19C19.1656 19 19.3 18.8656 19.3 18.7V16.3H21.7C21.8656 16.3 22 16.1656 22 16C22 15.8344 21.8656 15.7 21.7 15.7Z" fill="white"/>
</g>
<defs>
<clipPath id="clip0_2357_3">
<rect width="6" height="6" fill="white" transform="translate(16 13)"/>
</clipPath>
</defs>
</svg>
