<svg width="47" height="47" viewBox="0 0 47 47" fill="none" xmlns="http://www.w3.org/2000/svg">
<path d="M45.1809 13.9853C45.1818 13.9654 45.1922 13.9488 45.1922 13.9288C45.1922 13.8635 45.164 13.8074 45.1551 13.7445C45.1418 13.65 45.132 13.5582 45.0993 13.4686C45.0689 13.3854 45.0227 13.3152 44.9773 13.2405C44.9328 13.1665 44.8929 13.0934 44.8342 13.0283C44.7701 12.9572 44.6932 12.9055 44.6155 12.8492C44.5642 12.8119 44.5279 12.7608 44.4702 12.7301L24.1337 1.9652C24.0944 1.94457 24.0514 1.94567 24.0112 1.92923C23.9265 1.89425 23.8428 1.87086 23.7528 1.85343C23.6671 1.8371 23.5852 1.82585 23.4994 1.82618C23.4138 1.82585 23.3321 1.83699 23.2466 1.85332C23.1558 1.87075 23.0714 1.89448 22.9861 1.92989C22.9467 1.94611 22.9046 1.94501 22.8662 1.9652L2.52963 12.7301C2.47193 12.7608 2.43563 12.8119 2.38433 12.8492C2.30665 12.9055 2.22975 12.9572 2.16565 13.0283C2.10695 13.0934 2.06701 13.1665 2.02255 13.2405C1.9772 13.3152 1.93097 13.3854 1.90052 13.4686C1.86786 13.5582 1.85804 13.65 1.8448 13.7445C1.83586 13.8074 1.80762 13.8635 1.80762 13.9288C1.80762 13.9488 1.8181 13.9654 1.81898 13.9853C1.82262 14.075 1.85054 14.1606 1.87238 14.2495C1.89456 14.338 1.90979 14.4264 1.9484 14.5071C1.9569 14.525 1.95535 14.5448 1.96473 14.5626C1.98194 14.5951 2.01725 14.6075 2.03667 14.638C2.13277 14.7898 2.25292 14.9155 2.39955 15.0187C2.44843 15.0529 2.48991 15.0877 2.54254 15.1151C2.73088 15.2143 2.93577 15.2846 3.16339 15.2846H43.8365C44.0641 15.2846 44.269 15.2143 44.4573 15.1151C44.5099 15.0877 44.5514 15.0529 44.6003 15.0187C44.7469 14.9155 44.8671 14.7898 44.9632 14.638C44.9826 14.6075 45.0179 14.5951 45.0351 14.5626C45.0445 14.5448 45.043 14.525 45.0514 14.5071C45.0901 14.4264 45.1053 14.338 45.1275 14.2495C45.1493 14.1606 45.1772 14.075 45.1809 13.9853ZM23.4999 4.69803L38.3771 12.573H8.62276L23.4999 4.69803Z" fill="#104CBA" fill-opacity="0.45"/>
<path d="M18.6279 35.1777C18.6279 35.9262 19.2352 36.5335 19.9837 36.5335H27.0168C27.7652 36.5335 28.3725 35.9262 28.3725 35.1777C28.3725 34.5983 28.005 34.1121 27.4934 33.9183V19.3418C28.005 19.1479 28.3725 18.6618 28.3725 18.0823C28.3725 17.3338 27.7652 16.7266 27.0168 16.7266H19.9837C19.2352 16.7266 18.6279 17.3338 18.6279 18.0823C18.6279 18.6618 18.9954 19.1479 19.5071 19.3418V33.9183C18.9954 34.1121 18.6279 34.5983 18.6279 35.1777ZM22.2186 33.822V19.4381H24.7819V33.822H22.2186Z" fill="#104CBA" fill-opacity="0.45"/>
<path d="M6.90625 35.1777C6.90625 35.9262 7.51352 36.5335 8.26202 36.5335H15.2951C16.0436 36.5335 16.6508 35.9262 16.6508 35.1777C16.6508 34.5983 16.2833 34.1121 15.7717 33.9183V19.3418C16.2833 19.1479 16.6508 18.6618 16.6508 18.0823C16.6508 17.3338 16.0436 16.7266 15.2951 16.7266H8.26202C7.51352 16.7266 6.90625 17.3338 6.90625 18.0823C6.90625 18.6618 7.27377 19.1479 7.78538 19.3418V33.9183C7.27377 34.1121 6.90625 34.5983 6.90625 35.1777ZM10.4969 33.822V19.4381H13.0602V33.822H10.4969Z" fill="#104CBA" fill-opacity="0.45"/>
<path d="M30.3496 35.1777C30.3496 35.9262 30.9569 36.5335 31.7054 36.5335H38.7384C39.4869 36.5335 40.0942 35.9262 40.0942 35.1777C40.0942 34.5983 39.7267 34.1121 39.2151 33.9183V19.3418C39.7267 19.1479 40.0942 18.6618 40.0942 18.0823C40.0942 17.3338 39.4869 16.7266 38.7384 16.7266H31.7054C30.9569 16.7266 30.3496 17.3338 30.3496 18.0823C30.3496 18.6618 30.7171 19.1479 31.2287 19.3418V33.9183C30.7171 34.1121 30.3496 34.5983 30.3496 35.1777ZM33.9403 33.822V19.4381H36.5035V33.822H33.9403Z" fill="#104CBA" fill-opacity="0.45"/>
<path d="M3.58496 39.4925C3.58496 40.241 4.19223 40.8483 4.94073 40.8483H42.0584C42.8069 40.8483 43.4142 40.241 43.4142 39.4925C43.4142 38.744 42.8069 38.1367 42.0584 38.1367H4.94073C4.19223 38.1367 3.58496 38.744 3.58496 39.4925Z" fill="#104CBA" fill-opacity="0.45"/>
<path d="M43.524 42.4805H3.47589C2.72739 42.4805 2.12012 43.0877 2.12012 43.8362C2.12012 44.5847 2.72739 45.192 3.47589 45.192H43.524C44.2725 45.192 44.8798 44.5847 44.8798 43.8362C44.8798 43.0877 44.2725 42.4805 43.524 42.4805Z" fill="#104CBA" fill-opacity="0.45"/>
</svg>
