<svg width="29" height="29" viewBox="0 0 29 29" fill="none" xmlns="http://www.w3.org/2000/svg">
<path d="M5.69629 21.6983V19.368L9.63202 21.6465L14.4999 17.0894V27.4465L5.69629 21.6983Z" fill="#0093EB"/>
<path d="M0.983887 15.5357L6.11071 10.875L14.5 16.0536L9.63212 20.6107L0.983887 15.5357Z" fill="#0093EB"/>
<path d="M6.11073 10.8751L0 6.21432L8.8036 1.55365L15.0179 5.69646L6.11073 10.8751Z" fill="#0093EB"/>
<path d="M23.3036 21.7501L14.5 27.4465V17.0894L19.5232 21.4394L23.3036 19.0572V21.7501Z" fill="#0093EB"/>
<path d="M19.5232 20.4036L14.5 16.0536L22.9411 10.6679L28.0161 15.0179L19.5232 20.4036Z" fill="#0093EB"/>
<path d="M22.9408 10.6679L15.0176 5.69646L21.2318 1.55365L28.9997 6.21432L22.9408 10.6679Z" fill="#0093EB"/>
</svg>
