<svg width="23" height="23" viewBox="0 0 23 23" fill="none" xmlns="http://www.w3.org/2000/svg">
<path d="M10.6511 16.4414V12.3976H6.6081C6.11189 12.3976 5.70966 11.9954 5.70966 11.4992C5.70966 11.003 6.11189 10.6008 6.6081 10.6008H10.6511V6.51367C10.6511 6.01746 11.0533 5.61523 11.5495 5.61523C12.0457 5.61523 12.4479 6.01746 12.4479 6.51367V10.6008H16.4909C16.9871 10.6008 17.3893 11.003 17.3893 11.4992C17.3893 11.9954 16.9871 12.3976 16.4909 12.3976H12.4479V16.4414C12.4479 16.9376 12.0457 17.3398 11.5495 17.3398C11.0533 17.3398 10.6511 16.9376 10.6511 16.4414ZM22.1016 15.7676C22.5978 15.7676 23 15.3653 23 14.8691V3.59375C23 1.61216 21.3878 0 19.4062 0H3.59375C1.61216 0 0 1.61216 0 3.59375V19.4062C0 21.3878 1.61216 23 3.59375 23H19.4062C21.3878 23 23 21.3878 23 19.4062C23 18.91 22.5978 18.5078 22.1016 18.5078C21.6054 18.5078 21.2031 18.91 21.2031 19.4062C21.2031 20.397 20.397 21.2031 19.4062 21.2031H3.59375C2.60295 21.2031 1.79688 20.397 1.79688 19.4062V3.59375C1.79688 2.60295 2.60295 1.79688 3.59375 1.79688H19.4062C20.397 1.79688 21.2031 2.60295 21.2031 3.59375V14.8691C21.2031 15.3653 21.6054 15.7676 22.1016 15.7676Z" fill="#104CBA" fill-opacity="0.45"/>
</svg>
