<svg width="20" height="20" viewBox="0 0 20 20" fill="none" xmlns="http://www.w3.org/2000/svg">
<path d="M17.9065 14.8693C17.5603 14.6118 17.071 14.6837 16.8134 15.0298C16.6718 15.2202 16.5202 15.407 16.3629 15.5849C16.0772 15.9081 16.1075 16.4019 16.4308 16.6877C16.5794 16.8191 16.764 16.8836 16.9479 16.8836C17.164 16.8836 17.3792 16.7944 17.5335 16.6198C17.7198 16.4091 17.8993 16.1879 18.0671 15.9624C18.3246 15.6163 18.2528 15.1268 17.9065 14.8693Z" fill="#104CBA"/>
<path d="M19.2134 11.2055C18.7921 11.1138 18.3757 11.3812 18.2839 11.8027C18.2334 12.0346 18.1724 12.267 18.1024 12.4934C17.975 12.9057 18.206 13.3431 18.6182 13.4705C18.695 13.4942 18.7727 13.5055 18.8491 13.5055C19.1827 13.5055 19.4916 13.2901 19.5953 12.9546C19.6783 12.6859 19.7507 12.4102 19.8107 12.1351C19.9024 11.7135 19.635 11.2973 19.2134 11.2055Z" fill="#104CBA"/>
<path d="M14.146 17.3727C13.9386 17.4885 13.7238 17.5967 13.5077 17.6943C13.1145 17.8719 12.9397 18.3346 13.1173 18.7278C13.2477 19.0167 13.5321 19.1877 13.8297 19.1877C13.9372 19.1877 14.0465 19.1654 14.1508 19.1183C14.4072 19.0025 14.6618 18.8742 14.9077 18.7369C15.2845 18.5266 15.4194 18.0507 15.209 17.6739C14.9987 17.2973 14.5228 17.1624 14.146 17.3727Z" fill="#104CBA"/>
<path d="M9.21861 3.75V9.67641L6.35381 12.5412C6.04873 12.8463 6.04873 13.3409 6.35381 13.646C6.50639 13.7986 6.70627 13.8748 6.90627 13.8748C7.10619 13.8748 7.30615 13.7986 7.45873 13.646L10.5523 10.5524C10.6988 10.4059 10.7811 10.2072 10.7811 10V3.75C10.7811 3.31852 10.4313 2.96875 9.99986 2.96875C9.56838 2.96875 9.21861 3.31852 9.21861 3.75Z" fill="#104CBA"/>
<path d="M19.2188 1.67969C18.7873 1.67969 18.4375 2.02945 18.4375 2.46094V4.63031C16.6191 1.77844 13.4434 0 10 0C7.32891 0 4.8177 1.0402 2.92891 2.92891C1.0402 4.8177 0 7.32891 0 10C0 12.6711 1.0402 15.1823 2.92891 17.0711C4.8177 18.9598 7.32891 20 10 20C10.0066 20 10.013 19.9992 10.0195 19.999C10.0261 19.9992 10.0325 20 10.0391 20C10.3206 20 10.605 19.9881 10.8843 19.9648C11.3142 19.9287 11.6336 19.551 11.5976 19.1211C11.5616 18.6911 11.1843 18.3716 10.7539 18.4077C10.5178 18.4275 10.2773 18.4375 10.0391 18.4375C10.0325 18.4375 10.0261 18.4383 10.0195 18.4385C10.013 18.4383 10.0066 18.4375 10 18.4375C5.34754 18.4375 1.5625 14.6525 1.5625 10C1.5625 5.34754 5.34754 1.5625 10 1.5625C12.9984 1.5625 15.7561 3.16066 17.2631 5.70312H15.115C14.6835 5.70312 14.3337 6.05289 14.3337 6.48438C14.3337 6.91586 14.6835 7.26562 15.115 7.26562H17.5C17.9758 7.26562 18.4209 7.13191 18.7999 6.90027C18.8243 6.88637 18.8477 6.87141 18.87 6.85527C19.55 6.40797 20 5.63855 20 4.76562V2.46094C20 2.02945 19.6502 1.67969 19.2188 1.67969Z" fill="#104CBA"/>
</svg>
