<svg width="84" height="91" viewBox="0 0 84 91" fill="none" xmlns="http://www.w3.org/2000/svg">
<g clip-path="url(#clip0_1574_7253)">
<path d="M64.3998 0.938477H0.933105V78.8045H64.3998V0.938477Z" fill="white"/>
<path d="M64.3998 0.938477H0.933105V78.8045H64.3998V0.938477Z" stroke="#104CBA" stroke-width="2" stroke-miterlimit="10" stroke-linecap="round" stroke-linejoin="round"/>
<path d="M21.4666 28.1448H12.1333C11.1066 28.1448 10.2666 27.3004 10.2666 26.2685V16.887C10.2666 15.8551 11.1066 15.0107 12.1333 15.0107H21.4666C22.4933 15.0107 23.3333 15.8551 23.3333 16.887V26.2685C23.3333 27.3004 22.4933 28.1448 21.4666 28.1448Z" fill="#104CBA" fill-opacity="0.28"/>
<path d="M21.2799 46.9075H12.1333C11.1066 46.9075 10.2666 46.0631 10.2666 45.0312V35.6497C10.2666 34.6178 11.1066 33.7734 12.1333 33.7734H21.4666C22.4933 33.7734 23.3333 34.6178 23.3333 35.6497V44.8435C23.3333 45.9693 22.3999 46.9075 21.2799 46.9075Z" fill="#104CBA" fill-opacity="0.28"/>
<path d="M21.4666 66.6086H12.1333C11.1066 66.6086 10.2666 65.7643 10.2666 64.7323V55.3509C10.2666 54.3189 11.1066 53.4746 12.1333 53.4746H21.4666C22.4933 53.4746 23.3333 54.3189 23.3333 55.3509V64.7323C23.3333 65.7643 22.4933 66.6086 21.4666 66.6086Z" fill="#104CBA" fill-opacity="0.28"/>
<path d="M21.4666 28.1448H12.1333C11.1066 28.1448 10.2666 27.3004 10.2666 26.2685V16.887C10.2666 15.8551 11.1066 15.0107 12.1333 15.0107H21.4666C22.4933 15.0107 23.3333 15.8551 23.3333 16.887V26.2685C23.3333 27.3004 22.4933 28.1448 21.4666 28.1448Z" stroke="#104CBA" stroke-width="2" stroke-miterlimit="10" stroke-linecap="round" stroke-linejoin="round"/>
<path d="M21.2799 46.9075H12.1333C11.1066 46.9075 10.2666 46.0631 10.2666 45.0312V35.6497C10.2666 34.6178 11.1066 33.7734 12.1333 33.7734H21.4666C22.4933 33.7734 23.3333 34.6178 23.3333 35.6497V44.8435C23.3333 45.9693 22.3999 46.9075 21.2799 46.9075Z" stroke="#104CBA" stroke-width="2" stroke-miterlimit="10" stroke-linecap="round" stroke-linejoin="round"/>
<path d="M21.4666 66.6086H12.1333C11.1066 66.6086 10.2666 65.7643 10.2666 64.7323V55.3509C10.2666 54.3189 11.1066 53.4746 12.1333 53.4746H21.4666C22.4933 53.4746 23.3333 54.3189 23.3333 55.3509V64.7323C23.3333 65.7643 22.4933 66.6086 21.4666 66.6086Z" stroke="#104CBA" stroke-width="2" stroke-miterlimit="10" stroke-linecap="round" stroke-linejoin="round"/>
<path opacity="0.2" d="M64.3998 79.742V7.50488H16.7998C15.7731 7.50488 14.9331 8.34921 14.9331 9.38117V79.742H64.3998Z" fill="#104CBA"/>
<path d="M83.0668 12.1963H19.6001V90.0623H83.0668V12.1963Z" fill="white"/>
<path d="M83.0668 12.1963H19.6001V90.0623H83.0668V12.1963Z" stroke="#104CBA" stroke-width="2" stroke-miterlimit="10" stroke-linecap="round" stroke-linejoin="round"/>
<path opacity="0.2" d="M49.4668 34.7109H60.6668" stroke="#104CBA" stroke-width="2" stroke-miterlimit="10" stroke-linecap="round" stroke-linejoin="round"/>
<path opacity="0.2" d="M49.4668 30.0205H71.8668" stroke="#104CBA" stroke-width="2" stroke-miterlimit="10" stroke-linecap="round" stroke-linejoin="round"/>
<path d="M41.0667 39.4016H31.7334C30.7067 39.4016 29.8667 38.5573 29.8667 37.5253V28.1439C29.8667 27.1119 30.7067 26.2676 31.7334 26.2676H41.0667C42.0934 26.2676 42.9334 27.1119 42.9334 28.1439V37.5253C42.9334 38.5573 42.0934 39.4016 41.0667 39.4016Z" fill="#104CBA" fill-opacity="0.28"/>
<path d="M32.9468 33.4922L35.6534 36.0252L40.9734 30.584" stroke="#104CBA" stroke-width="2" stroke-miterlimit="10" stroke-linecap="round" stroke-linejoin="round"/>
<path opacity="0.2" d="M49.4668 54.4121H60.6668" stroke="#104CBA" stroke-width="2" stroke-miterlimit="10" stroke-linecap="round" stroke-linejoin="round"/>
<path opacity="0.2" d="M49.4668 48.7832H71.8668" stroke="#104CBA" stroke-width="2" stroke-miterlimit="10" stroke-linecap="round" stroke-linejoin="round"/>
<path d="M41.0667 58.1653H31.7334C30.7067 58.1653 29.8667 57.3209 29.8667 56.289V46.9075C29.8667 45.8756 30.7067 45.0312 31.7334 45.0312H40.88C42 45.0312 42.9334 45.9694 42.9334 47.0952V56.289C42.9334 57.3209 42.0934 58.1653 41.0667 58.1653Z" fill="#104CBA" fill-opacity="0.28"/>
<path d="M32.9468 52.4424L35.6534 54.9753L40.9734 49.6279" stroke="#104CBA" stroke-width="2" stroke-miterlimit="10" stroke-linecap="round" stroke-linejoin="round"/>
<path opacity="0.2" d="M49.4668 73.1748H60.6668" stroke="#104CBA" stroke-width="2" stroke-miterlimit="10" stroke-linecap="round" stroke-linejoin="round"/>
<path opacity="0.2" d="M49.4668 68.4844H71.8668" stroke="#104CBA" stroke-width="2" stroke-miterlimit="10" stroke-linecap="round" stroke-linejoin="round"/>
<path d="M41.0667 76.928H31.7334C30.7067 76.928 29.8667 76.0836 29.8667 75.0517V65.6702C29.8667 64.6383 30.7067 63.7939 31.7334 63.7939H41.0667C42.0934 63.7939 42.9334 64.6383 42.9334 65.6702V75.0517C42.9334 76.0836 42.0934 76.928 41.0667 76.928Z" fill="#104CBA" fill-opacity="0.28"/>
<path d="M41.0667 39.4016H31.7334C30.7067 39.4016 29.8667 38.5573 29.8667 37.5253V28.1439C29.8667 27.1119 30.7067 26.2676 31.7334 26.2676H41.0667C42.0934 26.2676 42.9334 27.1119 42.9334 28.1439V37.5253C42.9334 38.5573 42.0934 39.4016 41.0667 39.4016Z" stroke="#104CBA" stroke-width="2" stroke-miterlimit="10" stroke-linecap="round" stroke-linejoin="round"/>
<path d="M41.0667 58.1653H31.7334C30.7067 58.1653 29.8667 57.3209 29.8667 56.289V46.9075C29.8667 45.8756 30.7067 45.0312 31.7334 45.0312H40.88C42 45.0312 42.9334 45.9694 42.9334 47.0952V56.289C42.9334 57.3209 42.0934 58.1653 41.0667 58.1653Z" stroke="#104CBA" stroke-width="2" stroke-miterlimit="10" stroke-linecap="round" stroke-linejoin="round"/>
<path d="M41.0667 76.928H31.7334C30.7067 76.928 29.8667 76.0836 29.8667 75.0517V65.6702C29.8667 64.6383 30.7067 63.7939 31.7334 63.7939H41.0667C42.0934 63.7939 42.9334 64.6383 42.9334 65.6702V75.0517C42.9334 76.0836 42.0934 76.928 41.0667 76.928Z" stroke="#104CBA" stroke-width="2" stroke-miterlimit="10" stroke-linecap="round" stroke-linejoin="round"/>
</g>
<defs>
<clipPath id="clip0_1574_7253">
<rect width="84" height="91" fill="white"/>
</clipPath>
</defs>
</svg>
