<svg width="27" height="27" viewBox="0 0 27 27" fill="none" xmlns="http://www.w3.org/2000/svg">
<path d="M23.625 5.06248H20.25C19.6295 5.06064 19.1268 4.55803 19.125 3.9375V0.5625L23.625 5.06248Z" fill="#81ABF7" fill-opacity="0.28"/>
<path d="M23.625 5.06248V25.3125C23.6232 25.9331 23.1205 26.4356 22.5 26.4375H4.49998C3.87946 26.4356 3.37685 25.9331 3.375 25.3125V1.68748C3.37685 1.06696 3.87946 0.564346 4.49998 0.5625H19.125V3.9375C19.1269 4.55803 19.6295 5.06064 20.25 5.06248H23.625Z" fill="white"/>
<path d="M18.5625 11.8125V12.9375H12.375V11.25H18.5625V11.8125Z" fill="white"/>
<path d="M20.25 13.5V22.5C20.25 22.8107 19.9981 23.0625 19.6875 23.0625H7.31252C7.00186 23.0625 6.75 22.8107 6.75 22.5V10.6875C6.75 10.3769 7.00186 10.125 7.31252 10.125H11.8125C12.1232 10.125 12.375 10.3769 12.375 10.6875V12.9375H19.6875C19.9981 12.9375 20.25 13.1893 20.25 13.5Z" fill="#81ABF7" fill-opacity="0.28"/>
<path d="M6.1875 3.375H11.8125V4.49998H6.1875V3.375Z" fill="#104CBA"/>
<path d="M6.1875 5.625H7.31248V6.74998H6.1875V5.625Z" fill="#104CBA"/>
<path d="M8.4375 5.625H9.56248V6.74998H8.4375V5.625Z" fill="#104CBA"/>
<path d="M24.0227 4.66483L19.5227 0.164795C19.4172 0.0592734 19.2742 0 19.125 0H4.5C3.56803 0 2.8125 0.755525 2.8125 1.6875V25.3125C2.8125 26.2445 3.56803 27 4.5 27H22.5C23.432 27 24.1875 26.2445 24.1875 25.3125V5.0625C24.1875 4.91331 24.1282 4.7703 24.0227 4.66483ZM23.0625 25.3125C23.0625 25.6232 22.8106 25.875 22.5 25.875H4.5C4.18934 25.875 3.93748 25.6232 3.93748 25.3125V1.6875C3.93748 1.37684 4.18934 1.12498 4.5 1.12498H18.5625V3.93746C18.5625 4.86944 19.318 5.62496 20.25 5.62496H21.375V4.49998H20.25C19.9394 4.49998 19.6875 4.24812 19.6875 3.93746V1.92037L23.0625 5.29537V25.3125Z" fill="#104CBA"/>
<path d="M19.6874 12.375H12.9374V11.8125H19.1249V11.25C19.1249 10.9393 18.8731 10.6875 18.5624 10.6875H12.9374C12.9374 10.0662 12.4338 9.5625 11.8125 9.5625H7.31248C6.69117 9.5625 6.1875 10.0662 6.1875 10.6875V22.5C6.1875 23.1213 6.69117 23.625 7.31248 23.625H11.25V22.5H7.31248V10.6875H11.8125V12.375H10.125V13.5H19.6874V22.5H15.7499V23.625H19.6874C20.3088 23.625 20.8124 23.1213 20.8124 22.5V13.5C20.8125 12.8787 20.3088 12.375 19.6874 12.375Z" fill="#104CBA"/>
<path d="M16.148 18.1647L13.8979 15.9147C13.6783 15.6951 13.3222 15.6951 13.1026 15.9147L10.8525 18.1647L11.6479 18.9601L12.9378 17.6703V23.6249H14.0627V17.6703L15.3526 18.9601L16.148 18.1647Z" fill="#104CBA"/>
</svg>
