<svg width="22" height="22" viewBox="0 0 22 22" fill="none" xmlns="http://www.w3.org/2000/svg">
<path fill-rule="evenodd" clip-rule="evenodd" d="M11.2109 7.48437C12.2551 7.48437 13.1094 6.63008 13.1094 5.58594C13.1094 4.5418 12.2551 3.6875 11.2109 3.6875C10.1668 3.6875 9.3125 4.5418 9.3125 5.58594C9.3125 6.63008 10.1668 7.48437 11.2109 7.48437ZM11.2109 9.38281C10.1668 9.38281 9.3125 10.2371 9.3125 11.2812C9.3125 12.3254 10.1668 13.1797 11.2109 13.1797C12.2551 13.1797 13.1094 12.3254 13.1094 11.2812C13.1094 10.2371 12.2551 9.38281 11.2109 9.38281ZM9.3125 16.9766C9.3125 15.9324 10.1668 15.0781 11.2109 15.0781C12.2551 15.0781 13.1094 15.9324 13.1094 16.9766C13.1094 18.0207 12.2551 18.875 11.2109 18.875C10.1668 18.875 9.3125 18.0207 9.3125 16.9766Z" fill="#2B3E62"/>
<mask id="mask0_1181_3170" style="mask-type:alpha" maskUnits="userSpaceOnUse" x="9" y="3" width="5" height="16">
<path fill-rule="evenodd" clip-rule="evenodd" d="M11.2109 7.48437C12.2551 7.48437 13.1094 6.63008 13.1094 5.58594C13.1094 4.5418 12.2551 3.6875 11.2109 3.6875C10.1668 3.6875 9.3125 4.5418 9.3125 5.58594C9.3125 6.63008 10.1668 7.48437 11.2109 7.48437ZM11.2109 9.38281C10.1668 9.38281 9.3125 10.2371 9.3125 11.2812C9.3125 12.3254 10.1668 13.1797 11.2109 13.1797C12.2551 13.1797 13.1094 12.3254 13.1094 11.2812C13.1094 10.2371 12.2551 9.38281 11.2109 9.38281ZM9.3125 16.9766C9.3125 15.9324 10.1668 15.0781 11.2109 15.0781C12.2551 15.0781 13.1094 15.9324 13.1094 16.9766C13.1094 18.0207 12.2551 18.875 11.2109 18.875C10.1668 18.875 9.3125 18.0207 9.3125 16.9766Z" fill="white"/>
</mask>
<g mask="url(#mask0_1181_3170)">
<rect x="0.875" y="0.875" width="20.25" height="20.25" rx="2" fill="#2B3E62"/>
</g>
</svg>
