<svg width="18" height="14" viewBox="0 0 18 14" fill="none" xmlns="http://www.w3.org/2000/svg">
<path d="M15.875 13.875H2.125C1.57799 13.875 1.05339 13.6577 0.666592 13.2709C0.279799 12.8841 0.0625 12.3595 0.0625 11.8125V2.1875C0.0625 1.64049 0.279799 1.11589 0.666592 0.729092C1.05339 0.342299 1.57799 0.125 2.125 0.125H15.875C16.422 0.125 16.9466 0.342299 17.3334 0.729092C17.7202 1.11589 17.9375 1.64049 17.9375 2.1875V11.8125C17.9375 12.3595 17.7202 12.8841 17.3334 13.2709C16.9466 13.6577 16.422 13.875 15.875 13.875ZM2.125 1.5C1.94266 1.5 1.7678 1.57243 1.63886 1.70136C1.50993 1.8303 1.4375 2.00516 1.4375 2.1875V11.8125C1.4375 11.9948 1.50993 12.1697 1.63886 12.2986C1.7678 12.4276 1.94266 12.5 2.125 12.5H15.875C16.0573 12.5 16.2322 12.4276 16.3611 12.2986C16.4901 12.1697 16.5625 11.9948 16.5625 11.8125V2.1875C16.5625 2.00516 16.4901 1.8303 16.3611 1.70136C16.2322 1.57243 16.0573 1.5 15.875 1.5H2.125Z" fill="#104CBA" fill-opacity="0.65"/>
<path d="M7.625 11.125H3.5C3.31766 11.125 3.1428 11.0526 3.01386 10.9236C2.88493 10.7947 2.8125 10.6198 2.8125 10.4375C2.8125 10.2552 2.88493 10.0803 3.01386 9.95136C3.1428 9.82243 3.31766 9.75 3.5 9.75H7.625C7.80734 9.75 7.9822 9.82243 8.11114 9.95136C8.24007 10.0803 8.3125 10.2552 8.3125 10.4375C8.3125 10.6198 8.24007 10.7947 8.11114 10.9236C7.9822 11.0526 7.80734 11.125 7.625 11.125Z" fill="#104CBA" fill-opacity="0.65"/>
<path d="M17.25 4.9375H0.75C0.567664 4.9375 0.392795 4.86507 0.263864 4.73614C0.134933 4.6072 0.0625 4.43234 0.0625 4.25C0.0625 4.06766 0.134933 3.8928 0.263864 3.76386C0.392795 3.63493 0.567664 3.5625 0.75 3.5625H17.25C17.4323 3.5625 17.6072 3.63493 17.7361 3.76386C17.8651 3.8928 17.9375 4.06766 17.9375 4.25C17.9375 4.43234 17.8651 4.6072 17.7361 4.73614C17.6072 4.86507 17.4323 4.9375 17.25 4.9375Z" fill="#104CBA" fill-opacity="0.65"/>
</svg>
