<svg width="23" height="23" viewBox="0 0 23 23" fill="none" xmlns="http://www.w3.org/2000/svg">
<path d="M21.5622 17.2487H21.083V5.20341C21.0825 4.83985 20.9379 4.49133 20.6808 4.23426C20.4237 3.97719 20.0752 3.83254 19.7116 3.83203H18.208V2.11374C18.2078 1.80704 18.0858 1.51297 17.8689 1.2961C17.6521 1.07923 17.358 0.957285 17.0513 0.957031H5.94805C5.64135 0.957285 5.34728 1.07923 5.13041 1.2961C4.91354 1.51297 4.7916 1.80704 4.79134 2.11374V3.83203H3.28772C2.92416 3.83254 2.57564 3.97719 2.31857 4.23426C2.06149 4.49133 1.91685 4.83985 1.91634 5.20341V17.2487H1.43717C1.31009 17.2487 1.18821 17.2992 1.09835 17.389C1.00849 17.4789 0.958008 17.6008 0.958008 17.7279V19.1165C0.959023 19.8918 1.26753 20.6351 1.81585 21.1832C2.36417 21.7313 3.10753 22.0396 3.88284 22.0404H19.1203C19.895 22.0386 20.6374 21.7299 21.1849 21.1819C21.7323 20.6338 22.0403 19.8911 22.0413 19.1165V17.7279C22.0413 17.6008 21.9909 17.4789 21.901 17.389C21.8111 17.2992 21.6893 17.2487 21.5622 17.2487ZM17.2497 2.11374V2.8737H12.275L11.7958 1.91536H17.0513C17.1039 1.91536 17.1544 1.93626 17.1916 1.97347C17.2288 2.01067 17.2497 2.06113 17.2497 2.11374ZM5.74967 2.11374C5.74967 2.06113 5.77058 2.01067 5.80778 1.97347C5.84498 1.93626 5.89544 1.91536 5.94805 1.91536H10.7244L11.5505 3.56753C11.5903 3.64702 11.6515 3.71386 11.7271 3.76057C11.8028 3.80729 11.8899 3.83203 11.9788 3.83203H17.2497V12.2587C17.2497 12.2847 17.2445 12.3105 17.2346 12.3346C17.2246 12.3586 17.21 12.3805 17.1916 12.3989C17.1732 12.4174 17.1513 12.432 17.1272 12.4419C17.1031 12.4519 17.0774 12.457 17.0513 12.457H5.94805C5.922 12.457 5.8962 12.4519 5.87214 12.4419C5.84807 12.432 5.8262 12.4174 5.80778 12.3989C5.78936 12.3805 5.77474 12.3586 5.76478 12.3346C5.75481 12.3105 5.74967 12.2847 5.74967 12.2587V2.11374ZM3.28772 4.79036H4.79134V12.2587C4.7916 12.5654 4.91354 12.8594 5.13041 13.0763C5.34728 13.2932 5.64135 13.4151 5.94805 13.4154H17.0513C17.358 13.4151 17.6521 13.2932 17.8689 13.0763C18.0858 12.8594 18.2078 12.5654 18.208 12.2587V4.79036H19.7116C19.7659 4.79036 19.8196 4.80105 19.8697 4.82181C19.9198 4.84256 19.9653 4.87299 20.0037 4.91134C20.0421 4.9497 20.0725 4.99523 20.0932 5.04534C20.114 5.09545 20.1247 5.14917 20.1247 5.20341V15.332H2.87467V5.20341C2.87467 5.14917 2.88536 5.09545 2.90612 5.04534C2.92687 4.99523 2.9573 4.9497 2.99565 4.91134C3.03401 4.87299 3.07954 4.84256 3.12965 4.82181C3.17976 4.80105 3.23347 4.79036 3.28772 4.79036ZM2.87467 16.2904H20.1247V17.2487H14.8538C14.7909 17.2486 14.7285 17.2609 14.6703 17.2849C14.6121 17.3089 14.5592 17.3441 14.5146 17.3886L13.6971 18.207H9.30222L8.48476 17.3886C8.44018 17.3441 8.38727 17.3089 8.32906 17.2849C8.27085 17.2609 8.20848 17.2486 8.14551 17.2487H2.87467V16.2904ZM21.083 19.1165C21.0825 19.6378 20.8751 20.1376 20.5064 20.5061C20.1377 20.8746 19.6378 21.0818 19.1165 21.082H3.88284C3.36154 21.0818 2.86164 20.8746 2.49293 20.5061C2.12423 20.1376 1.91685 19.6378 1.91634 19.1165V18.207H7.94713L8.76459 19.0254C8.80917 19.0699 8.86208 19.1052 8.92029 19.1292C8.9785 19.1532 9.04087 19.1655 9.10384 19.1654H13.8955C13.9585 19.1655 14.0208 19.1532 14.0791 19.1292C14.1373 19.1052 14.1902 19.0699 14.2348 19.0254L15.0522 18.207H21.083V19.1165Z" fill="#104CBA"/>
<path d="M7.18717 7.66406H15.8122C15.9393 7.66406 16.0611 7.61358 16.151 7.52372C16.2409 7.43385 16.2913 7.31198 16.2913 7.18489V5.26823C16.2913 5.14115 16.2409 5.01927 16.151 4.92941C16.0611 4.83955 15.9393 4.78906 15.8122 4.78906H7.18717C7.06009 4.78906 6.93821 4.83955 6.84835 4.92941C6.75849 5.01927 6.70801 5.14115 6.70801 5.26823V7.18489C6.70801 7.31198 6.75849 7.43385 6.84835 7.52372C6.93821 7.61358 7.06009 7.66406 7.18717 7.66406ZM7.66634 5.7474H15.333V6.70573H7.66634V5.7474Z" fill="#104CBA"/>
<path d="M7.18717 11.5H11.0205C11.1476 11.5 11.2695 11.4495 11.3593 11.3597C11.4492 11.2698 11.4997 11.1479 11.4997 11.0208V9.10417C11.4997 8.97708 11.4492 8.85521 11.3593 8.76534C11.2695 8.67548 11.1476 8.625 11.0205 8.625H7.18717C7.06009 8.625 6.93821 8.67548 6.84835 8.76534C6.75849 8.85521 6.70801 8.97708 6.70801 9.10417V11.0208C6.70801 11.1479 6.75849 11.2698 6.84835 11.3597C6.93821 11.4495 7.06009 11.5 7.18717 11.5ZM7.66634 9.58333H10.5413V10.5417H7.66634V9.58333Z" fill="#104CBA"/>
<path d="M15.8122 10.5391H12.9372C12.8101 10.5391 12.6882 10.5895 12.5984 10.6794C12.5085 10.7693 12.458 10.8911 12.458 11.0182C12.458 11.1453 12.5085 11.2672 12.5984 11.3571C12.6882 11.4469 12.8101 11.4974 12.9372 11.4974H15.8122C15.9393 11.4974 16.0611 11.4469 16.151 11.3571C16.2409 11.2672 16.2913 11.1453 16.2913 11.0182C16.2913 10.8911 16.2409 10.7693 16.151 10.6794C16.0611 10.5895 15.9393 10.5391 15.8122 10.5391Z" fill="#104CBA"/>
<path d="M15.8122 8.625H12.9372C12.8101 8.625 12.6882 8.67548 12.5984 8.76534C12.5085 8.85521 12.458 8.97708 12.458 9.10417C12.458 9.23125 12.5085 9.35313 12.5984 9.44299C12.6882 9.53285 12.8101 9.58333 12.9372 9.58333H15.8122C15.9393 9.58333 16.0611 9.53285 16.151 9.44299C16.2409 9.35313 16.2913 9.23125 16.2913 9.10417C16.2913 8.97708 16.2409 8.85521 16.151 8.76534C16.0611 8.67548 15.9393 8.625 15.8122 8.625Z" fill="#104CBA"/>
<path d="M9.10417 3.83333C9.3688 3.83333 9.58333 3.6188 9.58333 3.35417C9.58333 3.08953 9.3688 2.875 9.10417 2.875C8.83953 2.875 8.625 3.08953 8.625 3.35417C8.625 3.6188 8.83953 3.83333 9.10417 3.83333Z" fill="#104CBA"/>
<path d="M7.18717 3.83333C7.45181 3.83333 7.66634 3.6188 7.66634 3.35417C7.66634 3.08953 7.45181 2.875 7.18717 2.875C6.92254 2.875 6.70801 3.08953 6.70801 3.35417C6.70801 3.6188 6.92254 3.83333 7.18717 3.83333Z" fill="#104CBA"/>
</svg>
