<svg width="27" height="27" viewBox="0 0 27 27" fill="none" xmlns="http://www.w3.org/2000/svg">
<path d="M26.3035 8.49693C25.3782 7.57165 23.8727 7.57171 22.9472 8.49714C22.6625 8.78207 20.845 10.601 20.5674 10.8789V4.61036C20.5674 3.97649 20.3205 3.38059 19.8723 2.9324L17.635 0.695039C17.1868 0.246797 16.5909 0 15.957 0H2.37402C1.06553 0 0.000976562 1.06455 0.000976562 2.37305V24.627C0.000976562 25.9355 1.06553 27 2.37402 27H18.1943C19.5028 27 20.5674 25.9355 20.5674 24.627V17.5938L26.3034 11.8529C27.2308 10.9256 27.2311 9.42442 26.3035 8.49693ZM15.8213 1.58203C15.9708 1.58203 16.2588 1.55614 16.5164 1.81369L18.7537 4.05105C19.0047 4.30212 18.9854 4.57724 18.9854 4.74609H15.8213V1.58203ZM18.9853 24.627C18.9853 25.0631 18.6306 25.418 18.1943 25.418H2.37402C1.93786 25.418 1.58301 25.0631 1.58301 24.627V2.37305C1.58301 1.93688 1.93786 1.58203 2.37402 1.58203H14.2393V5.53711C14.2393 5.97396 14.5934 6.32812 15.0303 6.32812H18.9853V12.4623C18.9853 12.4623 16.6516 14.7981 16.6515 14.7981L15.5334 15.9163C15.4466 16.0031 15.3811 16.109 15.3423 16.2255L14.2236 19.5815C14.1288 19.8657 14.2028 20.1791 14.4147 20.391C14.6269 20.6031 14.9404 20.6767 15.2242 20.5821L18.5802 19.4634C18.6967 19.4246 18.8026 19.3592 18.8894 19.2723L18.9853 19.1763V24.627ZM17.2114 16.4756L18.33 17.5943L17.9027 18.0216L16.2248 18.5809L16.7841 16.9029L17.2114 16.4756ZM19.4485 16.4754L18.3298 15.3567C18.9255 14.7606 21.5711 12.1127 22.1322 11.5511L23.2509 12.6698L19.4485 16.4754ZM25.1845 10.7345L24.3691 11.5506L23.2505 10.432L24.0661 9.61559C24.3748 9.30714 24.8765 9.30719 25.1849 9.61559C25.4932 9.92408 25.4948 10.4242 25.1845 10.7345Z" fill="#104CBA" fill-opacity="0.65"/>
<path d="M15.0303 7.91016H3.95605C3.5192 7.91016 3.16504 8.26432 3.16504 8.70117C3.16504 9.13802 3.5192 9.49219 3.95605 9.49219H15.0303C15.4671 9.49219 15.8213 9.13802 15.8213 8.70117C15.8213 8.26432 15.4671 7.91016 15.0303 7.91016Z" fill="#104CBA" fill-opacity="0.65"/>
<path d="M11.8662 11.0742H3.95605C3.5192 11.0742 3.16504 11.4284 3.16504 11.8652C3.16504 12.3021 3.5192 12.6562 3.95605 12.6562H11.8662C12.3031 12.6562 12.6572 12.3021 12.6572 11.8652C12.6572 11.4284 12.3031 11.0742 11.8662 11.0742Z" fill="#104CBA" fill-opacity="0.65"/>
<path d="M11.8662 14.2383H3.95605C3.5192 14.2383 3.16504 14.5924 3.16504 15.0293C3.16504 15.4661 3.5192 15.8203 3.95605 15.8203H11.8662C12.3031 15.8203 12.6572 15.4661 12.6572 15.0293C12.6572 14.5924 12.3031 14.2383 11.8662 14.2383Z" fill="#104CBA" fill-opacity="0.65"/>
<path d="M11.8662 17.4023H3.95605C3.5192 17.4023 3.16504 17.7565 3.16504 18.1934C3.16504 18.6302 3.5192 18.9844 3.95605 18.9844H11.8662C12.3031 18.9844 12.6572 18.6302 12.6572 18.1934C12.6572 17.7565 12.3031 17.4023 11.8662 17.4023Z" fill="#104CBA" fill-opacity="0.65"/>
<path d="M15.0303 22.2539H10.2842C9.84733 22.2539 9.49316 22.6081 9.49316 23.0449C9.49316 23.4818 9.84733 23.8359 10.2842 23.8359H15.0303C15.4671 23.8359 15.8213 23.4818 15.8213 23.0449C15.8213 22.6081 15.4671 22.2539 15.0303 22.2539Z" fill="#104CBA" fill-opacity="0.65"/>
</svg>
