<svg width="23" height="23" viewBox="0 0 23 23" fill="none" xmlns="http://www.w3.org/2000/svg">
<path d="M18.223 0H4.77649C4.01182 0 3.38965 0.622126 3.38965 1.38684V21.6132C3.38965 22.3779 4.01177 23 4.77649 23H15.7649C15.893 23 16.0157 22.9491 16.1063 22.8586L19.4685 19.4964C19.559 19.4059 19.6099 19.2831 19.6099 19.1551V1.38684C19.6099 0.622126 18.9877 0 18.223 0ZM16.2478 21.3515V20.059C16.2478 19.8268 16.4367 19.6378 16.669 19.6378H17.9615L16.2478 21.3515ZM4.77649 0.965606H18.223C18.4553 0.965606 18.6442 1.15454 18.6442 1.38684V2.87902H4.35525V1.38684C4.35525 1.15454 4.54424 0.965606 4.77649 0.965606ZM4.35525 21.6132V3.84463H18.6442V18.6722H16.669C15.9043 18.6722 15.2821 19.2943 15.2821 20.059V22.0344H4.77649C4.54424 22.0344 4.35525 21.8454 4.35525 21.6132Z" fill="#104CBA"/>
<path d="M6.34315 7.41971H12.6656C12.9322 7.41971 13.1484 7.20355 13.1484 6.93691C13.1484 6.67026 12.9322 6.4541 12.6656 6.4541H6.34315C6.07651 6.4541 5.86035 6.67026 5.86035 6.93691C5.86035 7.20355 6.07651 7.41971 6.34315 7.41971Z" fill="#104CBA"/>
<path d="M14.5971 7.41971H16.2294C16.496 7.41971 16.7122 7.20355 16.7122 6.93691C16.7122 6.67026 16.496 6.4541 16.2294 6.4541H14.5971C14.3304 6.4541 14.1143 6.67026 14.1143 6.93691C14.1143 7.20355 14.3304 7.41971 14.5971 7.41971Z" fill="#104CBA"/>
<path d="M6.34315 11.2527H12.6656C12.9322 11.2527 13.1484 11.0366 13.1484 10.7699C13.1484 10.5033 12.9322 10.2871 12.6656 10.2871H6.34315C6.07651 10.2871 5.86035 10.5033 5.86035 10.7699C5.86035 11.0366 6.07651 11.2527 6.34315 11.2527Z" fill="#104CBA"/>
<path d="M14.5971 11.2527H16.2294C16.496 11.2527 16.7122 11.0366 16.7122 10.7699C16.7122 10.5033 16.496 10.2871 16.2294 10.2871H14.5971C14.3304 10.2871 14.1143 10.5033 14.1143 10.7699C14.1143 11.0366 14.3304 11.2527 14.5971 11.2527Z" fill="#104CBA"/>
<path d="M13.1484 14.6039C13.1484 14.3373 12.9322 14.1211 12.6656 14.1211H6.34315C6.07651 14.1211 5.86035 14.3373 5.86035 14.6039C5.86035 14.8705 6.07651 15.0867 6.34315 15.0867H12.6656C12.9322 15.0867 13.1484 14.8705 13.1484 14.6039Z" fill="#104CBA"/>
<path d="M14.5971 15.0867H16.2294C16.496 15.0867 16.7122 14.8705 16.7122 14.6039C16.7122 14.3373 16.496 14.1211 16.2294 14.1211H14.5971C14.3304 14.1211 14.1143 14.3373 14.1143 14.6039C14.1143 14.8705 14.3304 15.0867 14.5971 15.0867Z" fill="#104CBA"/>
<path d="M16.2294 17.8455C16.496 17.8455 16.7122 17.6293 16.7122 17.3627C16.7122 17.096 16.496 16.8799 16.2294 16.8799H11.6312C11.3646 16.8799 11.1484 17.096 11.1484 17.3627C11.1484 17.6293 11.3646 17.8455 11.6312 17.8455H16.2294Z" fill="#104CBA"/>
</svg>
