<svg width="27" height="27" viewBox="0 0 27 27" fill="none" xmlns="http://www.w3.org/2000/svg">
<g clip-path="url(#clip0_1163_1613)">
<path d="M23.046 3.95405C20.4962 1.40426 17.1059 0 13.5 0C9.89388 0 6.50384 1.40426 3.95405 3.95405C1.40426 6.50384 0 9.89388 0 13.5C0 17.1059 1.40426 20.4962 3.95405 23.046C6.50384 25.5957 9.89388 27 13.5 27C17.1059 27 20.4962 25.5957 23.046 23.046C25.5957 20.4962 27 17.1059 27 13.5C27 9.89388 25.5957 6.50384 23.046 3.95405ZM6.76792 23.329C7.33255 20.078 10.1497 17.68 13.5 17.68C16.8505 17.68 19.6674 20.078 20.2321 23.329C18.3153 24.6459 15.9962 25.418 13.5 25.418C11.0038 25.418 8.68469 24.6459 6.76792 23.329ZM9.2075 11.8055C9.2075 9.43842 11.1331 7.513 13.5 7.513C15.8669 7.513 17.7925 9.43863 17.7925 11.8055C17.7925 14.1724 15.8669 16.098 13.5 16.098C11.1331 16.098 9.2075 14.1724 9.2075 11.8055ZM21.6023 22.2317C21.1766 20.7182 20.331 19.3451 19.1457 18.2725C18.4185 17.6143 17.5908 17.095 16.7009 16.729C18.3093 15.6798 19.3747 13.8648 19.3747 11.8055C19.3747 8.56625 16.7393 5.93097 13.5 5.93097C10.2607 5.93097 7.62547 8.56625 7.62547 11.8055C7.62547 13.8648 8.69087 15.6798 10.2991 16.729C9.40938 17.095 8.58149 17.6141 7.85433 18.2723C6.66925 19.3449 5.82344 20.718 5.39765 22.2315C3.05241 20.0535 1.58203 16.9454 1.58203 13.5C1.58203 6.92839 6.92839 1.58203 13.5 1.58203C20.0716 1.58203 25.418 6.92839 25.418 13.5C25.418 16.9457 23.9476 20.0537 21.6023 22.2317Z" fill="#104CBA" fill-opacity="0.65"/>
</g>
<defs>
<clipPath id="clip0_1163_1613">
<rect width="27" height="27" fill="white"/>
</clipPath>
</defs>
</svg>
