<svg width="18" height="18" viewBox="0 0 18 18" fill="none" xmlns="http://www.w3.org/2000/svg">
<g clip-path="url(#clip0_1205_4675)">
<path d="M17.9973 2.82857V11.5168C17.9973 11.9074 17.6795 12.2234 17.2889 12.2212C16.9015 12.2191 16.5885 11.9044 16.5885 11.5168V2.82857C16.5885 2.04565 15.9457 1.40872 15.1555 1.40872C14.3532 1.40872 13.7005 2.04565 13.7005 2.82857C13.7005 3.46193 14.1638 4.01701 14.7475 4.21738C15.029 4.31406 15.215 4.58281 15.215 4.88054V8.80499C15.215 9.19556 14.8972 9.51155 14.5066 9.50935C14.1191 9.50716 13.8061 9.1924 13.8061 8.80499V5.70561H6.37482C5.98576 5.70561 5.67032 5.3903 5.67032 5.00125C5.67032 4.6122 5.98576 4.29675 6.37482 4.29675H12.6981C12.4334 3.85469 12.2916 3.35069 12.2916 2.82857C12.2916 2.31125 12.4336 1.82648 12.6801 1.40872H2.84189C2.0517 1.40872 1.40886 2.04565 1.40886 2.82857C1.40886 3.62439 2.06502 4.29675 2.84189 4.29675C3.23067 4.29675 3.54584 4.61165 3.54625 5.00043L3.55724 15.1817C3.55724 15.9593 4.18922 16.5913 4.96596 16.5913H11.6226C12.0116 16.5913 12.3269 16.9066 12.3269 17.2956C12.3269 17.6846 12.0116 18 11.6226 18H4.96596C3.41235 18 2.14838 16.736 2.14838 15.1824L2.13821 5.6158C1.64699 5.48767 1.19559 5.22523 0.826309 4.84662C0.293472 4.30046 0 3.58374 0 2.82857C0 1.26892 1.27483 0 2.84189 0H15.1021C15.108 0 15.1138 0.000686644 15.1198 0.000823975C15.1316 0.000686644 15.1434 0 15.1555 0C16.7224 0 17.9973 1.26892 17.9973 2.82857ZM17.3789 14.3904C18.2023 15.2137 18.2023 16.5545 17.3783 17.3783C16.9663 17.7903 16.4252 17.9963 15.8842 17.9963C15.343 17.9963 14.8019 17.7903 14.3899 17.3783L10.5379 13.5192C10.4523 13.4333 10.39 13.3267 10.3576 13.2097L9.57019 10.3666C9.50153 10.119 9.57321 9.85378 9.7571 9.67429C9.94098 9.49493 10.2078 9.42984 10.4538 9.50455L13.2264 10.3466C13.3374 10.3804 13.4383 10.441 13.5203 10.5231L17.3789 14.3904ZM11.666 12.655L14.255 15.249L15.2514 14.2527L12.6477 11.6433L11.2696 11.2247L11.666 12.655ZM16.3821 15.3861L16.2464 15.25L15.2503 16.2462L15.3865 16.3827C15.6606 16.6569 16.1075 16.6569 16.3821 16.3823C16.6568 16.1076 16.6568 15.6607 16.3821 15.3861Z" fill="#104CBA" fill-opacity="0.45"/>
</g>
<defs>
<clipPath id="clip0_1205_4675">
<rect width="18" height="18" fill="white"/>
</clipPath>
</defs>
</svg>
