<svg width="50" height="50" viewBox="0 0 50 50" fill="none" xmlns="http://www.w3.org/2000/svg">
<g clip-path="url(#clip0_2964_194)">
<path d="M37.9701 16.527C37.5902 16.1442 36.972 16.1417 36.589 16.5215C36.2062 16.9014 36.2037 17.5197 36.5836 17.9026L36.5894 17.9087C36.7796 18.1004 37.0288 18.1959 37.2783 18.1959C37.5271 18.1959 37.7764 18.1008 37.9676 17.9111C38.3505 17.5312 38.35 16.91 37.9701 16.527Z" fill="#104CBA"/>
<path d="M49.7138 28.2712L40.6437 19.2011C40.2624 18.8198 39.644 18.8198 39.2626 19.2011C38.8812 19.5824 38.8812 20.2008 39.2626 20.5822L46.4629 27.7825H29.2925C27.8681 27.7825 26.7094 26.6237 26.7094 25.1994V8.0291L33.6609 14.9805C34.0422 15.3617 34.6606 15.3617 35.0421 14.9805C35.4234 14.5991 35.4234 13.9808 35.0421 13.5993L26.2208 4.77813C25.8394 4.39687 25.2211 4.39687 24.8397 4.77813L9.27136 20.3468C8.89001 20.7281 8.89001 21.3465 9.27136 21.7279L32.7644 45.2209C32.9475 45.404 33.196 45.5069 33.4549 45.5069C33.7139 45.5069 33.9624 45.404 34.1455 45.2209L49.7139 29.6523C49.897 29.4691 50 29.2208 50 28.9618C49.9999 28.7028 49.8969 28.4544 49.7138 28.2712ZM24.7565 7.62373V20.0608H12.3194L24.7565 7.62373ZM32.4784 42.1727L12.3194 22.0139H24.7565V25.1994C24.7565 27.7007 26.7915 29.7356 29.2927 29.7356H32.4784V42.1727ZM34.4314 42.1728V29.7356H46.8684L34.4314 42.1728Z" fill="#104CBA"/>
<path d="M6.70225 24.8047H0.976562C0.437207 24.8047 0 25.242 0 25.7812C0 26.3205 0.437207 26.7578 0.976562 26.7578H6.70225C7.2416 26.7578 7.67881 26.3206 7.67881 25.7812C7.67881 25.242 7.2416 24.8047 6.70225 24.8047Z" fill="#104CBA"/>
<path d="M9.61377 24.8047H9.59912C9.05977 24.8047 8.62256 25.242 8.62256 25.7812C8.62256 26.3205 9.05977 26.7578 9.59912 26.7578H9.61377C10.1531 26.7578 10.5903 26.3205 10.5903 25.7812C10.5903 25.242 10.1531 24.8047 9.61377 24.8047Z" fill="#104CBA"/>
<path d="M4.10332 14.5508H0.978027C0.438672 14.5508 0.00146484 14.9881 0.00146484 15.5273C0.00146484 16.0666 0.438672 16.5039 0.978027 16.5039H4.10332C4.64268 16.5039 5.07988 16.0666 5.07988 15.5273C5.07988 14.9881 4.64268 14.5508 4.10332 14.5508Z" fill="#104CBA"/>
<path d="M10.9871 14.5508H7.29297C6.75361 14.5508 6.31641 14.9881 6.31641 15.5273C6.31641 16.0666 6.75361 16.5039 7.29297 16.5039H10.9871C11.5265 16.5039 11.9637 16.0666 11.9637 15.5273C11.9637 14.9881 11.5265 14.5508 10.9871 14.5508Z" fill="#104CBA"/>
<path d="M13.1137 30.1758H7.64502C7.10566 30.1758 6.66846 30.6131 6.66846 31.1523C6.66846 31.6916 7.10566 32.1289 7.64502 32.1289H13.1137C13.653 32.1289 14.0902 31.6916 14.0902 31.1523C14.0902 30.6131 13.6529 30.1758 13.1137 30.1758Z" fill="#104CBA"/>
<path d="M17.3837 36.4258H3.61426C3.0749 36.4258 2.6377 36.8631 2.6377 37.4023C2.6377 37.9416 3.0749 38.3789 3.61426 38.3789H17.3837C17.923 38.3789 18.3602 37.9416 18.3602 37.4023C18.3602 36.8631 17.923 36.4258 17.3837 36.4258Z" fill="#104CBA"/>
</g>
<defs>
<clipPath id="clip0_2964_194">
<rect width="50" height="50" fill="white"/>
</clipPath>
</defs>
</svg>
