<svg width="27" height="27" viewBox="0 0 27 27" fill="none" xmlns="http://www.w3.org/2000/svg">
<g clip-path="url(#clip0_1194_988)">
<path d="M21.6734 13.8619V11.3379C21.6734 7.65587 19.2259 4.5351 15.8726 3.5158V2.37305C15.8726 1.06455 14.8081 0 13.4996 0C12.1911 0 11.1265 1.06455 11.1265 2.37305V3.5158C7.77315 4.5351 5.32574 7.65582 5.32574 11.3379V13.8619C5.32574 17.0962 4.09292 20.163 1.8544 22.4974C1.63502 22.7262 1.57338 23.0637 1.69773 23.3553C1.82207 23.6468 2.10842 23.8359 2.42535 23.8359H9.62407C9.99152 25.639 11.5896 27 13.4996 27C15.4096 27 17.0076 25.639 17.3751 23.8359H24.5738C24.8907 23.8359 25.177 23.6468 25.3014 23.3553C25.4257 23.0637 25.3641 22.7262 25.1447 22.4974C22.9062 20.163 21.6734 17.0961 21.6734 13.8619ZM12.7086 2.37305C12.7086 1.93688 13.0634 1.58203 13.4996 1.58203C13.9357 1.58203 14.2906 1.93688 14.2906 2.37305V3.20245C14.0302 3.17735 13.7664 3.16406 13.4996 3.16406C13.2327 3.16406 12.9689 3.17735 12.7086 3.20245V2.37305ZM13.4996 25.418C12.4684 25.418 11.5891 24.7566 11.2626 23.8359H15.7366C15.41 24.7566 14.5308 25.418 13.4996 25.418ZM4.13026 22.2539C5.93172 19.8391 6.90778 16.9168 6.90778 13.8619V11.3379C6.90778 7.70317 9.86486 4.74609 13.4996 4.74609C17.1343 4.74609 20.0914 7.70317 20.0914 11.3379V13.8619C20.0914 16.9168 21.0674 19.8391 22.8689 22.2539H4.13026Z" fill="#104CBA" fill-opacity="0.65"/>
<path d="M23.7826 11.3378C23.7826 11.7746 24.1368 12.1288 24.5736 12.1288C25.0105 12.1288 25.3647 11.7746 25.3647 11.3378C25.3647 8.16844 24.1305 5.18879 21.8894 2.94773C21.5805 2.63887 21.0797 2.63882 20.7708 2.94773C20.4618 3.25665 20.4618 3.75747 20.7708 4.06639C22.713 6.00865 23.7826 8.591 23.7826 11.3378Z" fill="#104CBA" fill-opacity="0.65"/>
<path d="M2.42578 12.129C2.86263 12.129 3.2168 11.7748 3.2168 11.338C3.2168 8.59126 4.28646 6.00891 6.22867 4.06665C6.53759 3.75773 6.53759 3.25691 6.22867 2.948C5.9198 2.63908 5.41893 2.63908 5.11001 2.948C2.86896 5.18905 1.63477 8.16865 1.63477 11.338C1.63477 11.7748 1.98893 12.129 2.42578 12.129Z" fill="#104CBA" fill-opacity="0.65"/>
</g>
<defs>
<clipPath id="clip0_1194_988">
<rect width="27" height="27" fill="white"/>
</clipPath>
</defs>
</svg>
