<svg width="15" height="15" viewBox="0 0 15 15" fill="none" xmlns="http://www.w3.org/2000/svg">
<g clip-path="url(#clip0_1159_323)">
<path d="M14.0984 6.4472C14.037 6.43723 13.9749 6.43264 13.9128 6.43344H3.33058L3.56133 6.32612C3.78688 6.21937 3.99207 6.07408 4.16771 5.89682L7.13522 2.92931C7.52605 2.55622 7.59172 1.95605 7.29084 1.50726C6.94066 1.02903 6.26912 0.925198 5.79085 1.27538C5.75222 1.30368 5.71549 1.33454 5.68098 1.36774L0.31477 6.73395C-0.104599 7.15285 -0.104968 7.83238 0.313932 8.25175C0.3142 8.25202 0.314502 8.25232 0.31477 8.25259L5.68098 13.6188C6.10068 14.0373 6.78021 14.0364 7.19878 13.6167C7.23171 13.5837 7.26247 13.5485 7.29084 13.5115C7.59172 13.0627 7.52605 12.4625 7.13522 12.0894L4.17308 9.11655C4.01561 8.95892 3.83457 8.82674 3.63645 8.72482L3.31448 8.57993H13.8537C14.402 8.60029 14.883 8.21731 14.986 7.67841C15.0809 7.09332 14.6835 6.54211 14.0984 6.4472Z" fill="#104CBA"/>
</g>
<defs>
<clipPath id="clip0_1159_323">
<rect width="15" height="15" fill="white"/>
</clipPath>
</defs>
</svg>
