<svg width="27" height="27" viewBox="0 0 27 27" fill="none" xmlns="http://www.w3.org/2000/svg">
<path d="M23.0392 1.46111C23.0392 0.655488 22.3837 0 21.5781 0H5.42161C4.61594 0 3.96045 0.655488 3.96045 1.46111V25.5389C3.96045 26.3445 4.61594 27 5.42161 27H16.3744C16.7711 27 17.1435 26.8381 17.4072 26.5722L22.6093 21.3701C22.8951 21.0864 23.0392 20.7055 23.0392 20.3352V1.46111H23.0392ZM5.54248 1.58203H21.4571V19.8216H17.3219C16.5162 19.8216 15.8607 20.4771 15.8607 21.2828V25.418H5.54248V1.58203ZM17.4428 24.2993V21.4036H20.3385L17.4428 24.2993Z" fill="#104CBA" fill-opacity="0.65"/>
<path d="M17.5517 13.5209V7.7827C17.5517 5.59944 15.7755 3.82324 13.5922 3.82324C11.409 3.82324 9.63277 5.59944 9.63277 7.7827V13.5066C9.63277 14.8163 10.6983 15.8819 12.008 15.8819C13.3177 15.8819 14.3833 14.8163 14.3833 13.5066V7.7761C14.3833 7.33925 14.0291 6.98509 13.5923 6.98509C13.1554 6.98509 12.8013 7.33925 12.8013 7.7761V13.5066C12.8013 13.944 12.4454 14.2998 12.008 14.2998C11.5707 14.2998 11.2148 13.944 11.2148 13.5066V7.7827C11.2148 6.47183 12.2814 5.40527 13.5922 5.40527C14.9031 5.40527 15.9697 6.47183 15.9697 7.7827V13.5208C15.9697 16.3257 13.1232 18.2379 10.5336 17.1977C10.1282 17.0348 9.66757 17.2315 9.50473 17.6368C9.34189 18.0422 9.53848 18.5029 9.9439 18.6657C13.5833 20.1276 17.5517 17.4304 17.5517 13.5209Z" fill="#104CBA" fill-opacity="0.65"/>
</svg>
