<svg width="38" height="38" viewBox="0 0 38 38" fill="none" xmlns="http://www.w3.org/2000/svg">
<path d="M16.3281 25.2344H8.90625C8.29142 25.2344 7.79297 25.7328 7.79297 26.3477C7.79297 26.9625 8.29142 27.4609 8.90625 27.4609H16.3281C16.943 27.4609 17.4414 26.9625 17.4414 26.3477C17.4414 25.7328 16.943 25.2344 16.3281 25.2344Z" fill="#37C4FA"/>
<path d="M16.3281 29.6875H8.90625C8.29142 29.6875 7.79297 30.186 7.79297 30.8008C7.79297 31.4156 8.29142 31.9141 8.90625 31.9141H16.3281C16.943 31.9141 17.4414 31.4156 17.4414 30.8008C17.4414 30.186 16.943 29.6875 16.3281 29.6875Z" fill="#37C4FA"/>
<path d="M17.8125 8.16406H23.0078C23.6226 8.16406 24.1211 7.66561 24.1211 7.05078C24.1211 6.43595 23.6226 5.9375 23.0078 5.9375H17.8125C17.1977 5.9375 16.6992 6.43595 16.6992 7.05078C16.6992 7.66561 17.1977 8.16406 17.8125 8.16406Z" fill="#37C4FA"/>
<path d="M9.55817 9.32279C9.99294 9.75757 10.6978 9.75757 11.1326 9.32279L14.259 6.19626C14.6829 5.77239 14.7219 5.08186 14.3185 4.63848C13.8877 4.16511 13.1543 4.15212 12.707 4.59951L10.3453 6.96108L9.55817 6.17392C9.11085 5.72653 8.37735 5.73944 7.94666 6.21288C7.5432 6.65626 7.58224 7.34672 8.00611 7.77066L9.55817 9.32279Z" fill="#37C4FA"/>
<path d="M17.8125 14.8438H23.0078C23.6226 14.8438 24.1211 14.3453 24.1211 13.7305C24.1211 13.1156 23.6226 12.6172 23.0078 12.6172H17.8125C17.1977 12.6172 16.6992 13.1156 16.6992 13.7305C16.6992 14.3453 17.1977 14.8438 17.8125 14.8438Z" fill="#37C4FA"/>
<path d="M9.55922 16.0025C9.99399 16.4373 10.6988 16.4373 11.1336 16.0025L14.2601 12.8759C14.6839 12.4521 14.723 11.7615 14.3195 11.3182C13.8888 10.8448 13.1553 10.8318 12.708 11.2792L10.3464 13.6408L9.55914 12.8536C9.11183 12.4062 8.37832 12.4191 7.94763 12.8926C7.54418 13.336 7.58322 14.0264 8.00708 14.4503L9.55922 16.0025Z" fill="#37C4FA"/>
<path d="M21.8945 20.4102C21.8945 19.7953 21.3961 19.2969 20.7812 19.2969H17.8125C17.1977 19.2969 16.6992 19.7953 16.6992 20.4102C16.6992 21.025 17.1977 21.5234 17.8125 21.5234H20.7812C21.3961 21.5234 21.8945 21.025 21.8945 20.4102Z" fill="#37C4FA"/>
<path d="M9.55922 22.6822C9.99399 23.117 10.6988 23.117 11.1336 22.6822L14.2601 19.5556C14.6839 19.1318 14.723 18.4412 14.3195 17.9979C13.8888 17.5245 13.1553 17.5115 12.708 17.9589L10.3464 20.3205L9.55914 19.5333C9.11183 19.0859 8.37832 19.0988 7.94763 19.5723C7.54418 20.0156 7.58322 20.7061 8.00708 21.13L9.55922 22.6822Z" fill="#37C4FA"/>
<path d="M33.0273 22.3281V1.11328C33.0273 0.498453 32.5289 0 31.9141 0H2.22656C1.61173 0 1.11328 0.498453 1.11328 1.11328V35.2539C1.11328 35.8687 1.61173 36.3672 2.22656 36.3672H23.3372C24.7459 37.3935 26.4792 38 28.3516 38C33.0578 38 36.8867 34.1711 36.8867 29.4648C36.8867 26.4836 35.3499 23.8549 33.0273 22.3281ZM34.5598 28.3516H29.4648V23.2566C32.0523 23.7195 34.0969 25.7641 34.5598 28.3516ZM28.5742 2.22656H30.8008V21.2884C30.0925 21.0758 29.3461 20.9525 28.5742 20.9326V2.22656ZM3.33984 34.1406V2.22656H26.3477V21.1679C22.6051 22.0718 19.8164 25.4485 19.8164 29.4648C19.8164 31.1899 20.3313 32.7967 21.2148 34.1406H3.33984ZM23.1761 33.0659C22.4629 32.0439 22.043 30.8029 22.043 29.4648C22.043 26.3663 24.2891 23.7842 27.2383 23.2566V29.0037L23.1761 33.0659ZM28.3516 35.7734C27.0135 35.7734 25.7725 35.3535 24.7505 34.6403L28.8127 30.5781H34.5598C34.0322 33.5273 31.4501 35.7734 28.3516 35.7734Z" fill="#37C4FA"/>
</svg>
