<svg width="35" height="35" viewBox="0 0 35 35" fill="none" xmlns="http://www.w3.org/2000/svg">
<path d="M28.3737 11.8933H22.9368C22.563 11.8933 22.2572 12.1991 22.2572 12.5729C22.2572 12.9467 22.563 13.2525 22.9368 13.2525H28.3737C29.495 13.2525 30.4125 14.17 30.4125 15.2914V31.6021C30.4125 32.7234 29.495 33.6409 28.3737 33.6409H6.62609C5.50473 33.6409 4.58725 32.7234 4.58725 31.6021V15.2914C4.58725 14.17 5.50473 13.2525 6.62609 13.2525H12.7426C13.1164 13.2525 13.4222 12.9467 13.4222 12.5729C13.4222 12.1991 13.1164 11.8933 12.7426 11.8933H6.62609C4.75715 11.8933 3.22803 13.4224 3.22803 15.2914V31.6021C3.22803 33.471 4.75715 35.0001 6.62609 35.0001H28.3737C30.2426 35.0001 31.7717 33.471 31.7717 31.6021V15.2914C31.7717 13.4224 30.2426 11.8933 28.3737 11.8933Z" fill="#104CBA"/>
<path d="M17.4999 2.37864C17.8737 2.37864 18.1795 2.07282 18.1795 1.69903V0.679612C18.1795 0.305825 17.8737 0 17.4999 0C17.1261 0 16.8203 0.305825 16.8203 0.679612V1.69903C16.8203 2.07282 17.1261 2.37864 17.4999 2.37864Z" fill="#104CBA"/>
<path d="M11.0095 17.9757C10.7377 18.2475 10.7377 18.6553 11.0095 18.9272L17.0241 24.9417C17.16 25.0776 17.3299 25.1456 17.4998 25.1456C17.6697 25.1456 17.8396 25.0776 17.9756 24.9417L23.9901 18.9272C24.262 18.6553 24.262 18.2475 23.9901 17.9757C23.7183 17.7039 23.3105 17.7039 23.0387 17.9757L18.1794 22.8349V4.75725C18.1794 4.38346 17.8736 4.07764 17.4998 4.07764C17.126 4.07764 16.8202 4.38346 16.8202 4.75725V22.8349L11.961 17.9757C11.6892 17.7039 11.2814 17.7039 11.0095 17.9757Z" fill="#104CBA"/>
</svg>
