<svg width="26" height="26" viewBox="0 0 26 26" fill="none" xmlns="http://www.w3.org/2000/svg">
<path d="M24.3334 4.66671H1.66669C0.745977 4.66671 0 3.92073 0 3.00006C0 2.0794 0.745977 1.33337 1.66669 1.33337H24.3334C25.254 1.33337 26 2.07935 26 3.00006C26 3.92078 25.254 4.66671 24.3334 4.66671Z" fill="#104CBA"/>
<path d="M15 14.6668H1.66669C0.745976 14.6668 0 13.9207 0 13.0001C0 12.0794 0.745976 11.3334 1.66669 11.3334H15C15.9207 11.3334 16.6667 12.0794 16.6667 13.0001C16.6667 13.9208 15.9207 14.6668 15 14.6668Z" fill="#104CBA"/>
<path d="M24.3332 14.6668H21.6666C20.7459 14.6668 19.9999 13.9208 19.9999 13.0001C19.9999 12.0794 20.7459 11.3334 21.6666 11.3334H24.3332C25.2539 11.3334 25.9999 12.0794 25.9999 13.0001C25.9999 13.9208 25.2539 14.6668 24.3332 14.6668Z" fill="#104CBA"/>
<path d="M24.3334 24.6666H1.66669C0.745977 24.6666 0 23.9206 0 22.9999C0 22.0793 0.745977 21.3333 1.66669 21.3333H24.3334C25.254 21.3333 26 22.0792 26 22.9999C26 23.9206 25.254 24.6666 24.3334 24.6666Z" fill="#104CBA"/>
</svg>
