<svg width="25" height="22" viewBox="0 0 25 22" fill="none" xmlns="http://www.w3.org/2000/svg">
<circle cx="19" cy="16" r="6" fill="#104CBA"/>
<path d="M17.9714 16.8878H3.02783V5.3924H17.9756V16.8878H17.9714ZM4.17443 15.7412H16.8206V6.5432H4.17443V15.7412Z" fill="#104CBA"/>
<path d="M15.6743 12.2886H5.32553C4.05713 12.2886 3.02393 11.2554 3.02393 9.98704V8.26083H4.17473V9.98704C4.17473 10.6212 4.69133 11.1378 5.32553 11.1378H15.6743C16.3085 11.1378 16.8251 10.6212 16.8251 9.98704V8.26083H17.9759V9.98704C17.9717 11.2596 16.9427 12.2886 15.6743 12.2886Z" fill="#104CBA"/>
<path d="M12.8014 6.54329H8.19824V4.81709C8.19824 4.18289 8.71484 3.66629 9.34904 3.66629H11.6506C12.2848 3.66629 12.8014 4.18289 12.8014 4.81709V6.54329ZM9.34904 5.39249H11.6506V4.81709H9.34904V5.39249Z" fill="#104CBA"/>
<path d="M14.5234 8.84055H13.3726V10.5667H14.5234V8.84055Z" fill="#104CBA"/>
<path d="M7.62736 8.84055H6.47656V10.5667H7.62736V8.84055Z" fill="#104CBA"/>
</svg>
