<svg width="21" height="21" viewBox="0 0 21 21" fill="none" xmlns="http://www.w3.org/2000/svg">
<path d="M16.4862 7.99189C15.7496 7.99189 15.0537 8.16933 14.4388 8.48359V0H0V18.7193H8.97307C9.75122 20.0805 11.2175 21 12.8947 21C15.2341 21 17.1633 19.211 17.3866 16.9293C18.3043 16.7436 19.1432 16.2761 19.7906 15.5806C20.5705 14.7429 21 13.6508 21 12.5057C21 10.0168 18.9751 7.99189 16.4862 7.99189ZM11.9942 12.0628C11.2619 12.2116 10.5934 12.5384 10.036 12.9957V9.94182H12.7734C12.348 10.5561 12.0708 11.2804 11.9942 12.0628ZM13.2083 8.71135H10.036V5.56713H13.2083V8.71135ZM8.80556 8.71135H5.63325V5.56713H8.80556V8.71135ZM4.40278 8.71135H1.23047V5.56713H4.40278V8.71135ZM1.23047 9.94182H4.40278V13.1141H1.23047V9.94182ZM5.63325 9.94182H8.80556V13.1141H5.63325V9.94182ZM13.2083 1.23047V4.33666H1.23047V1.23047H13.2083ZM1.23047 14.3446H4.40278V17.4888H1.23047V14.3446ZM5.63325 17.4888V14.3446H8.92217C8.57706 14.9822 8.38089 15.7117 8.38089 16.4862C8.38089 16.8307 8.41985 17.1662 8.49327 17.4888H5.63325ZM12.8947 19.7695C11.0842 19.7695 9.61136 18.2966 9.61136 16.4862C9.61136 14.6758 11.0843 13.2029 12.8947 13.2029C14.705 13.2029 16.178 14.6758 16.178 16.4862C16.178 18.2967 14.705 19.7695 12.8947 19.7695ZM18.89 14.7422C18.465 15.1987 17.9269 15.5202 17.3358 15.6779C16.9741 13.6853 15.3 12.1442 13.2445 11.9859C13.4944 10.4217 14.8527 9.22236 16.4863 9.22236C18.2967 9.22236 19.7696 10.6953 19.7696 12.5057C19.7695 13.3386 19.4572 14.1329 18.89 14.7422Z" fill="#104CBA" fill-opacity="0.65"/>
</svg>
