<svg width="27" height="27" viewBox="0 0 27 27" fill="none" xmlns="http://www.w3.org/2000/svg">
<g clip-path="url(#clip0_1177_444)">
<path d="M25.3986 13.6295C25.1725 9.61875 22.9146 6.0085 19.4309 4.00781H22.39C22.7165 4.9285 23.5957 5.58984 24.627 5.58984C25.9355 5.58984 27 4.5253 27 3.2168C27 1.9083 25.9355 0.84375 24.627 0.84375C23.5957 0.84375 22.7165 1.50509 22.39 2.42578H15.873V0.84375H11.127V2.42578H4.61004C4.28351 1.50509 3.40427 0.84375 2.37305 0.84375C1.06455 0.84375 0 1.9083 0 3.2168C0 4.5253 1.06455 5.58984 2.37305 5.58984C3.40427 5.58984 4.28351 4.9285 4.61004 4.00729H7.56918C4.08728 6.00739 1.82751 9.61654 1.60138 13.6295C0.670676 13.9505 0 14.8347 0 15.873C0 17.1815 1.06455 18.2461 2.37305 18.2461C3.68155 18.2461 4.74609 17.1815 4.74609 15.873C4.74609 14.8497 4.09498 13.9757 3.18531 13.6433C3.47351 9.14678 6.73782 5.31795 11.127 4.28298V5.58984H15.873V4.28293C20.2622 5.31789 23.5265 9.14672 23.8147 13.6432C22.905 13.9757 22.2539 14.8497 22.2539 15.873C22.2539 17.1815 23.3185 18.2461 24.627 18.2461C25.9355 18.2461 27 17.1815 27 15.873C27 14.8347 26.3293 13.9505 25.3986 13.6295ZM2.37305 16.6641C1.93688 16.6641 1.58203 16.3092 1.58203 15.873C1.58203 15.4369 1.93688 15.082 2.37305 15.082C2.80921 15.082 3.16406 15.4369 3.16406 15.873C3.16406 16.3092 2.80921 16.6641 2.37305 16.6641ZM24.627 2.42578C25.0631 2.42578 25.418 2.78063 25.418 3.2168C25.418 3.65296 25.0631 4.00781 24.627 4.00781C24.1908 4.00781 23.8359 3.65296 23.8359 3.2168C23.8359 2.78063 24.1908 2.42578 24.627 2.42578ZM2.37305 4.00781C1.93688 4.00781 1.58203 3.65296 1.58203 3.2168C1.58203 2.78063 1.93688 2.42578 2.37305 2.42578C2.80921 2.42578 3.16406 2.78063 3.16406 3.2168C3.16406 3.65296 2.80921 4.00781 2.37305 4.00781ZM14.291 4.00781H12.709V2.42578H14.291V4.00781ZM24.627 16.6641C24.1908 16.6641 23.8359 16.3092 23.8359 15.873C23.8359 15.4369 24.1908 15.082 24.627 15.082C25.0631 15.082 25.418 15.4369 25.418 15.873C25.418 16.3092 25.0631 16.6641 24.627 16.6641Z" fill="#104CBA" fill-opacity="0.65"/>
<path d="M13.4999 6.42542L7.85205 15.8384L10.638 21.4101H7.96274V26.1562H19.037V21.4101H16.3617L19.1476 15.8384L13.4999 6.42542ZM17.4549 24.5742H9.54477V22.9922H17.4549V24.5742ZM12.4067 21.4101L9.65546 15.9077L12.7088 10.8187V16.6641H14.2909V10.8187L17.3442 15.9077L14.593 21.4101H12.4067Z" fill="#104CBA" fill-opacity="0.65"/>
</g>
<defs>
<clipPath id="clip0_1177_444">
<rect width="27" height="27" fill="white"/>
</clipPath>
</defs>
</svg>
