<svg width="50" height="74" viewBox="0 0 50 74" fill="none" xmlns="http://www.w3.org/2000/svg">
<path d="M46.6667 68.6663C46.6667 69.6663 46 70.333 45 70.333H5C4 70.333 3.33333 69.6663 3.33333 68.6663V5.33301C3.33333 4.33301 4 3.66634 5 3.66634H26.6667V0.333008H5C2.16667 0.333008 0 2.49967 0 5.33301V68.6663C0 71.4997 2.16667 73.6663 5 73.6663H45C47.8333 73.6663 50 71.4997 50 68.6663V23.6663H46.6667V68.6663Z" fill="#104CBA" fill-opacity="0.65"/>
<path d="M40.0003 10.333V0.333008H36.667V10.333H26.667V13.6663H36.667V23.6663H40.0003V13.6663H50.0003V10.333H40.0003Z" fill="#104CBA" fill-opacity="0.65"/>
<path d="M29.9997 28.666H13.333V31.9993H29.9997V28.666Z" fill="#104CBA" fill-opacity="0.65"/>
<path d="M36.6663 42H13.333V45.3333H36.6663V42Z" fill="#104CBA" fill-opacity="0.65"/>
<path d="M29.9997 55.333H13.333V58.6663H29.9997V55.333Z" fill="#104CBA" fill-opacity="0.65"/>
</svg>
