<svg width="27" height="27" viewBox="0 0 27 27" fill="none" xmlns="http://www.w3.org/2000/svg">
<g clip-path="url(#clip0_1200_520)">
<path d="M26.7311 10.8352C26.0192 7.30009 23.9744 4.25432 20.9724 2.25899C18.1044 0.352578 14.657 -0.381892 11.2592 0.188314C11.2366 0.191689 11.2142 0.195064 11.1917 0.198439C3.85835 1.47279 -1.07026 8.47546 0.204037 15.8065C0.305285 16.3936 0.448087 16.9796 0.624691 17.542C1.36813 19.9568 1.18482 22.5448 0.109539 24.8303C-0.078297 25.2262 -0.0164408 25.6963 0.265894 26.0327C0.548228 26.3689 0.995828 26.5073 1.42323 26.3937L6.46433 25.017C8.59908 26.324 11.0094 27 13.4704 27C14.3645 27 15.2655 26.9111 16.163 26.73C19.6981 26.0181 22.7439 23.9733 24.7392 20.9713C26.7345 17.9694 27.442 14.3702 26.7311 10.8352ZM22.8654 19.7251C21.2019 22.2277 18.6633 23.9328 15.7188 24.5255C12.7765 25.1149 9.77451 24.5278 7.27194 22.8643C7.08521 22.7406 6.86816 22.6765 6.64884 22.6765C6.54986 22.6765 6.44978 22.69 6.35306 22.7158L2.91922 23.6528C3.49961 21.4404 3.45684 19.0975 2.77299 16.8717C2.62339 16.397 2.50416 15.9111 2.41984 15.4219C1.36143 9.32801 5.4431 3.50856 11.5246 2.42431C11.5449 2.42205 11.5651 2.41867 11.5854 2.4153C14.4321 1.92377 17.3227 2.53453 19.7274 4.13166C22.23 5.79513 23.9339 8.33372 24.5267 11.2783C25.1194 14.224 24.5289 17.2237 22.8654 19.7251Z" fill="#F8485E"/>
<path d="M17.9967 10.1243H8.99877C8.37678 10.1243 7.87402 10.6271 7.87402 11.2491C7.87402 11.8711 8.37678 12.3738 8.99877 12.3738H17.9967C18.6176 12.3738 19.1215 11.8711 19.1215 11.2491C19.1215 10.6271 18.6187 10.1243 17.9967 10.1243Z" fill="#F8485E"/>
<path d="M17.9967 14.6232H8.99877C8.37678 14.6232 7.87402 15.126 7.87402 15.748C7.87402 16.37 8.37678 16.8727 8.99877 16.8727H17.9967C18.6176 16.8727 19.1215 16.37 19.1215 15.748C19.1215 15.126 18.6187 14.6232 17.9967 14.6232Z" fill="#F8485E"/>
</g>
<defs>
<clipPath id="clip0_1200_520">
<rect width="27" height="27" fill="white"/>
</clipPath>
</defs>
</svg>
