<svg width="26" height="26" viewBox="0 0 26 26" fill="none" xmlns="http://www.w3.org/2000/svg">
<path d="M17.7657 3.15842C17.2175 2.91888 16.5788 3.16918 16.3393 3.71747C16.0997 4.26576 16.3501 4.90439 16.8983 5.14393C20.4232 6.68383 22.7498 10.1701 22.7498 14.0833C22.7498 19.4679 18.384 23.8334 12.9997 23.8334C7.61475 23.8334 3.24966 19.4683 3.24966 14.0833C3.24966 10.171 5.57546 6.68469 9.0993 5.14377C9.64748 4.90409 9.89758 4.26535 9.65784 3.71717C9.41815 3.16898 8.77942 2.91888 8.23123 3.15862C3.92551 5.04135 1.08301 9.30223 1.08301 14.0832C1.08301 20.6648 6.41818 26 12.9998 26C19.5807 26 24.9166 20.6645 24.9166 14.0832C24.9166 9.30112 22.0729 5.04003 17.7657 3.15842Z" fill="#1D2C38"/>
<path d="M12.9993 11.9168C13.5976 11.9168 14.0827 11.4318 14.0827 10.8335V1.08338C14.0827 0.485016 13.5976 0 12.9993 0C12.401 0 11.916 0.485016 11.916 1.08332V10.8334C11.916 11.4317 12.401 11.9168 12.9993 11.9168Z" fill="#1D2C38"/>
</svg>
