<svg width="26" height="28" viewBox="0 0 26 28" fill="none" xmlns="http://www.w3.org/2000/svg">
<g clip-path="url(#clip0_1182_4806)">
<path d="M24.8548 23.4462H13.974C13.545 23.4462 13.1968 23.062 13.1968 22.5887C13.1968 22.1153 13.1968 5.91176 13.1968 5.43842C13.1968 4.96507 13.545 4.5809 13.974 4.5809H24.8548C25.2838 4.5809 25.632 4.96507 25.632 5.43842V22.5887C25.632 23.062 25.2838 23.4462 24.8548 23.4462Z" fill="#ECEFF1"/>
<path d="M17.0828 9.72598H13.974C13.545 9.72598 13.1968 9.34182 13.1968 8.86847C13.1968 8.39512 13.545 8.01096 13.974 8.01096H17.0828C17.5118 8.01096 17.86 8.39512 17.86 8.86847C17.86 9.34182 17.5118 9.72598 17.0828 9.72598Z" fill="#388E3C"/>
<path d="M17.0828 13.156H13.974C13.545 13.156 13.1968 12.7719 13.1968 12.2985C13.1968 11.8252 13.545 11.441 13.974 11.441H17.0828C17.5118 11.441 17.86 11.8252 17.86 12.2985C17.86 12.7719 17.5118 13.156 17.0828 13.156Z" fill="#388E3C"/>
<path d="M17.0828 16.5861H13.974C13.545 16.5861 13.1968 16.2019 13.1968 15.7286C13.1968 15.2552 13.545 14.871 13.974 14.871H17.0828C17.5118 14.871 17.86 15.2552 17.86 15.7286C17.86 16.2019 17.5118 16.5861 17.0828 16.5861Z" fill="#388E3C"/>
<path d="M17.0828 20.0161H13.974C13.545 20.0161 13.1968 19.632 13.1968 19.1586C13.1968 18.6853 13.545 18.3011 13.974 18.3011H17.0828C17.5118 18.3011 17.86 18.6853 17.86 19.1586C17.86 19.632 17.5118 20.0161 17.0828 20.0161Z" fill="#388E3C"/>
<path d="M21.7462 9.72598H20.1918C19.7627 9.72598 19.4146 9.34182 19.4146 8.86847C19.4146 8.39512 19.7627 8.01096 20.1918 8.01096H21.7462C22.1752 8.01096 22.5234 8.39512 22.5234 8.86847C22.5234 9.34182 22.1752 9.72598 21.7462 9.72598Z" fill="#388E3C"/>
<path d="M21.7462 13.156H20.1918C19.7627 13.156 19.4146 12.7719 19.4146 12.2985C19.4146 11.8252 19.7627 11.441 20.1918 11.441H21.7462C22.1752 11.441 22.5234 11.8252 22.5234 12.2985C22.5234 12.7719 22.1752 13.156 21.7462 13.156Z" fill="#388E3C"/>
<path d="M21.7462 16.5861H20.1918C19.7627 16.5861 19.4146 16.2019 19.4146 15.7286C19.4146 15.2552 19.7627 14.871 20.1918 14.871H21.7462C22.1752 14.871 22.5234 15.2552 22.5234 15.7286C22.5234 16.2019 22.1752 16.5861 21.7462 16.5861Z" fill="#388E3C"/>
<path d="M21.7462 20.0161H20.1918C19.7627 20.0161 19.4146 19.632 19.4146 19.1586C19.4146 18.6853 19.7627 18.3011 20.1918 18.3011H21.7462C22.1752 18.3011 22.5234 18.6853 22.5234 19.1586C22.5234 19.632 22.1752 20.0161 21.7462 20.0161Z" fill="#388E3C"/>
<path d="M14.47 1.34804C14.2928 1.18511 14.055 1.1148 13.8311 1.16625L1.39592 3.73879C1.02752 3.81425 0.761719 4.16754 0.761719 4.58087V23.4461C0.761719 23.8578 1.02752 24.2128 1.39592 24.2882L13.8311 26.8608C13.8778 26.8711 13.926 26.8762 13.9742 26.8762C14.1545 26.8762 14.3301 26.8076 14.47 26.679C14.6488 26.516 14.7514 26.2725 14.7514 26.0187V2.00833C14.7514 1.75279 14.6488 1.51097 14.47 1.34804Z" fill="#2E7D32"/>
<path d="M11.4498 16.8793L8.99233 13.7803L11.4778 10.2542C11.7421 9.8803 11.6799 9.34178 11.3426 9.05022C11.0053 8.75867 10.5172 8.82727 10.2514 9.19943L7.94933 12.4648L6.00943 10.0192C5.72497 9.65906 5.23378 9.62647 4.91358 9.93861C4.59026 10.2507 4.55762 10.7927 4.84052 11.1477L6.97782 13.8437L4.81098 16.917C4.54674 17.2909 4.60891 17.8294 4.94622 18.121C5.08922 18.2428 5.25865 18.3011 5.42497 18.3011C5.65658 18.3011 5.88508 18.1879 6.03896 17.9701L8.02083 15.1574L10.2809 18.0061C10.4348 18.2016 10.6493 18.3011 10.8654 18.3011C11.0473 18.3011 11.2291 18.2308 11.3768 18.0884C11.7001 17.7763 11.7327 17.2343 11.4498 16.8793Z" fill="#FAFAFA"/>
</g>
<defs>
<clipPath id="clip0_1182_4806">
<rect width="24.8705" height="27.4404" fill="white" transform="translate(0.761719 0.292725)"/>
</clipPath>
</defs>
</svg>
