<svg width="21" height="21" viewBox="0 0 21 21" fill="none" xmlns="http://www.w3.org/2000/svg">
<path d="M10.5 20.6055C16.0822 20.6055 20.6074 16.0802 20.6074 10.498C20.6074 4.91587 16.0822 0.390625 10.5 0.390625C4.91783 0.390625 0.392578 4.91587 0.392578 10.498C0.392578 16.0802 4.91783 20.6055 10.5 20.6055Z" fill="#3B5999"/>
<path d="M13.4016 6.7291V4.90078C13.4016 4.90078 11.5328 4.88281 11.407 4.88281C10.5625 4.88281 9.34961 5.84414 9.34961 6.93574V8.89434H7.59766V10.9697H9.32266V16.1133H11.3666V10.9428H13.1725L13.4016 8.9168H11.3891C11.3891 8.9168 11.3891 7.67246 11.3891 7.42988C11.3891 7.07051 11.6586 6.72461 12.0629 6.72461C12.3324 6.71563 13.4016 6.7291 13.4016 6.7291Z" fill="white"/>
</svg>
