<svg width="12" height="12" viewBox="0 0 12 12" fill="none" xmlns="http://www.w3.org/2000/svg">
<path d="M10.8535 2.89648C10.6582 2.70129 10.3418 2.70129 10.1465 2.89648L9.5 3.54297V0.5C9.5 0.223999 9.276 0 9 0H0.5C0.223999 0 0 0.223999 0 0.5V11.5C0 11.776 0.223999 12 0.5 12H1.5C1.776 12 2 11.776 2 11.5C2 11.224 1.776 11 1.5 11H1V1H8.5V4.54297L5.64648 7.39648C5.55273 7.49023 5.5 7.61755 5.5 7.75V8.25H4.5C4.224 8.25 4 8.474 4 8.75C4 9.026 4.224 9.25 4.5 9.25H7C7.13245 9.25 7.25977 9.19727 7.35352 9.10352L8.5 7.95703V11H3.5C3.224 11 3 11.224 3 11.5C3 11.776 3.224 12 3.5 12H9C9.276 12 9.5 11.776 9.5 11.5V6.95703L11.8535 4.60352C12.0487 4.4082 12.0487 4.0918 11.8535 3.89648L10.8535 2.89648ZM8.64673 6.39624C8.64649 6.39648 8.64624 6.39673 8.646 6.39697L6.79297 8.25H6.5V7.95703L9.35327 5.10376L9.354 5.10303L10.5 3.95703L10.793 4.25L8.64673 6.39624Z" fill="#2B3E62" fill-opacity="0.45"/>
<path d="M6 3.00003C6.276 3.00003 6.5 2.77603 6.5 2.50003C6.5 2.22403 6.276 2.00003 6 2.00003H3.5C3.224 2.00003 3 2.22403 3 2.50003C3 2.77603 3.224 3.00003 3.5 3.00003H6Z" fill="#2B3E62" fill-opacity="0.45"/>
<path d="M2.5 4.00002C2.5 4.27602 2.724 4.50002 3 4.50002H6.5C6.776 4.50002 7 4.27602 7 4.00002C7 3.72401 6.776 3.50002 6.5 3.50002H3C2.724 3.50002 2.5 3.72401 2.5 4.00002Z" fill="#2B3E62" fill-opacity="0.45"/>
<path d="M4.5 5.5C4.5 5.224 4.276 5 4 5H2.5C2.224 5 2 5.224 2 5.5C2 5.776 2.224 6 2.5 6H4C4.276 6 4.5 5.776 4.5 5.5Z" fill="#2B3E62" fill-opacity="0.45"/>
<path d="M5.5 5C5.224 5 5 5.224 5 5.5C5 5.776 5.224 6 5.5 6H6C6.276 6 6.5 5.776 6.5 5.5C6.5 5.224 6.276 5 6 5H5.5Z" fill="#2B3E62" fill-opacity="0.45"/>
</svg>
