<svg width="17" height="17" viewBox="0 0 17 17" fill="none" xmlns="http://www.w3.org/2000/svg">
<path d="M13.969 14.9645C12.4947 16.2096 10.5823 16.9998 8.50039 16.9998C5.40254 16.9998 2.68317 15.2932 1.20898 12.8029L1.76089 10.2588L4.20723 9.80469C4.775 11.6375 6.48825 12.9822 8.50039 12.9822C9.47653 12.9822 10.383 12.6734 11.1301 12.1256L13.4809 12.4842L13.969 14.9645Z" fill="#59C36A"/>
<path d="M13.9686 14.9639L13.4805 12.4836L11.1297 12.125C10.3826 12.6729 9.47614 12.9816 8.5 12.9816V16.9992C10.5819 16.9992 12.4943 16.209 13.9686 14.9639Z" fill="#00A66C"/>
<path d="M4.01758 8.49844C4.01758 8.95661 4.0873 9.39489 4.20684 9.80332L1.20859 12.8016C0.461523 11.5465 0 10.0722 0 8.49844C0 6.92458 0.461523 5.45039 1.20859 4.19531L3.61492 4.60946L4.20684 7.19356C4.0873 7.60192 4.01758 8.0402 4.01758 8.49844Z" fill="#FFDA2D"/>
<path d="M17 8.5C17 11.0898 15.8014 13.4107 13.9686 14.9646L11.1297 12.1258C11.7074 11.7074 12.1955 11.1496 12.5143 10.4922H8.5C8.22106 10.4922 8.00195 10.273 8.00195 9.99414V7.00586C8.00195 6.72692 8.22106 6.50781 8.5 6.50781H16.3625C16.6016 6.50781 16.8107 6.67712 16.8506 6.91618C16.9502 7.43418 17 7.97204 17 8.5Z" fill="#4086F4"/>
<path d="M12.5143 10.4922C12.1955 11.1496 11.7074 11.7074 11.1297 12.1258L13.9686 14.9646C15.8014 13.4107 17 11.0898 17 8.5C17 7.97204 16.9502 7.43418 16.8506 6.91618C16.8107 6.67712 16.6015 6.50781 16.3625 6.50781H8.5V10.4922H12.5143Z" fill="#4175DF"/>
<path d="M14.1084 2.37399C14.1184 2.51344 14.0586 2.64297 13.9689 2.74254L11.8373 4.86422C11.668 5.04352 11.3891 5.06344 11.1899 4.91403C10.4029 4.32637 9.47653 4.01758 8.50039 4.01758C6.48825 4.01758 4.775 5.36227 4.20723 7.19512L1.20898 4.19688C2.68317 1.70664 5.40254 0 8.50039 0C10.4826 0 12.415 0.730469 13.9291 2.00544C14.0387 2.09512 14.0984 2.23454 14.1084 2.37399Z" fill="#FF641A"/>
<path d="M11.1895 4.91403C11.3887 5.06348 11.6675 5.04352 11.8369 4.86422L13.9685 2.74254C14.0582 2.64297 14.118 2.51348 14.108 2.37399C14.098 2.2345 14.0383 2.09512 13.9287 2.00544C12.4147 0.730469 10.4822 0 8.5 0V4.01758C9.47614 4.01758 10.4025 4.32637 11.1895 4.91403Z" fill="#F03800"/>
</svg>
