<svg width="29" height="29" viewBox="0 0 29 29" fill="none" xmlns="http://www.w3.org/2000/svg">
<g clip-path="url(#clip0_1001_2613)">
<path d="M14.4743 9.16131L8.45551 19.6007H8.43851L11.924 23.8513L4.10298 27.1327C3.94991 27.0477 3.83089 26.9287 3.76294 26.8097L0.0903892 20.0088C-0.0966359 19.6347 0.0564413 19.3457 0.107391 19.1757L9.95177 2.17337C10.0197 2.07136 10.1217 1.96935 10.2578 1.88428H10.2748L15.3244 3.44854L14.4743 9.16131Z" fill="#59C36A"/>
<path d="M28.9996 19.6007L22.1817 23.8513L20.5665 19.6007L14.474 9.16134L10.2744 1.88425C10.3933 1.79924 10.5464 1.74829 10.6825 1.74829H18.3221C18.4922 1.79924 18.8322 1.78224 19.0532 2.17335L28.8976 19.1756C28.9655 19.2947 28.9996 19.4477 28.9996 19.6007Z" fill="#FFDA2D"/>
<path d="M19.0533 2.17335C18.8324 1.78224 18.4923 1.79924 18.3222 1.74829H14.4741V9.16128L20.5666 19.6007L22.1818 23.8513L28.9997 19.6007C28.9997 19.4476 28.9657 19.2946 28.8977 19.1756L19.0533 2.17335Z" fill="#FDBF00"/>
<path d="M29 19.6007C29 19.7537 28.966 19.9068 28.915 20.0088L25.2425 26.8097C25.1064 27.0307 24.7835 27.2517 24.4944 27.2517H4.51108C4.37501 27.2517 4.22199 27.2007 4.10303 27.1327L8.43861 19.6007H29Z" fill="#4086F4"/>
<path d="M14.4741 27.2517H24.4941C24.7832 27.2517 25.1062 27.0307 25.2422 26.8097L28.9148 20.0088C28.9657 19.9068 28.9998 19.7537 28.9998 19.6007H14.4742V27.2517H14.4741Z" fill="#4175DF"/>
</g>
<defs>
<clipPath id="clip0_1001_2613">
<rect width="29" height="29" fill="white"/>
</clipPath>
</defs>
</svg>
