<svg width="12" height="12" viewBox="0 0 12 12" fill="none" xmlns="http://www.w3.org/2000/svg">
<path d="M1.26562 9.5625H2.0625V10.9688C2.0625 11.5374 2.52511 12 3.09375 12H8.90625C9.47489 12 9.9375 11.5374 9.9375 10.9688V9.5625H10.7344C11.4323 9.5625 12 8.99475 12 8.29688V3.89062C12 3.19275 11.4323 2.625 10.7344 2.625H9.9375V1.03125C9.9375 0.462609 9.47489 0 8.90625 0H3.09375C2.52511 0 2.0625 0.462609 2.0625 1.03125V2.625H1.26562C0.56775 2.625 0 3.19275 0 3.89062V8.29688C0 8.99475 0.56775 9.5625 1.26562 9.5625ZM8.8125 10.875H3.1875V7.125H8.8125V10.875ZM3.1875 1.125H8.8125V2.625H3.1875V1.125ZM1.125 3.89062C1.125 3.81307 1.18807 3.75 1.26562 3.75H10.7344C10.8119 3.75 10.875 3.81307 10.875 3.89062V8.29688C10.875 8.37443 10.8119 8.4375 10.7344 8.4375H9.9375V6.5625C9.9375 6.25184 9.68566 6 9.375 6H2.625C2.31434 6 2.0625 6.25184 2.0625 6.5625V8.4375H1.26562C1.18807 8.4375 1.125 8.37443 1.125 8.29688V3.89062Z" fill="#2B3E62" fill-opacity="0.45"/>
<path d="M2.25042 5.4375C2.56109 5.4375 2.81292 5.18566 2.81292 4.875C2.81292 4.56434 2.56109 4.3125 2.25042 4.3125H2.25019C1.93955 4.3125 1.68781 4.56434 1.68781 4.875C1.68781 5.18566 1.93976 5.4375 2.25042 5.4375Z" fill="#2B3E62" fill-opacity="0.45"/>
</svg>
