<svg width="20" height="20" viewBox="0 0 20 20" fill="none" xmlns="http://www.w3.org/2000/svg">
<path d="M10 0.25C4.62409 0.25 0.25 4.62369 0.25 10C0.25 15.3763 4.62409 19.75 10 19.75C15.3759 19.75 19.75 15.3763 19.75 10C19.75 4.62369 15.3759 0.25 10 0.25ZM10 18.125C5.51988 18.125 1.875 14.4801 1.875 10C1.875 5.51988 5.51988 1.875 10 1.875C14.4801 1.875 18.125 5.51988 18.125 10C18.125 14.4801 14.4801 18.125 10 18.125Z" fill="#2B3E62" fill-opacity="0.45"/>
<path d="M7.2845 9.76762C7.564 9.59456 7.71187 9.27037 7.65865 8.94619C7.60584 8.622 7.3625 8.36119 7.04278 8.28603L6.80391 8.22997C7.43684 7.08962 8.65437 6.34375 9.99987 6.34375C11.1626 6.34375 12.2282 6.87675 12.9245 7.80584C13.1934 8.16456 13.7024 8.23809 14.062 7.96875C14.4211 7.69981 14.4938 7.19038 14.2249 6.83125C13.234 5.5085 11.6545 4.71875 9.99987 4.71875C7.9024 4.71875 6.01822 5.97447 5.18134 7.84769L4.66987 7.72744C4.35137 7.65147 4.01663 7.777 3.82447 8.0435C3.63231 8.31041 3.62013 8.66628 3.79319 8.94578L4.70034 10.4111C4.85391 10.6593 5.11959 10.7962 5.39178 10.7962C5.53762 10.7962 5.6855 10.7568 5.81875 10.6744L7.2845 9.76762Z" fill="#2B3E62" fill-opacity="0.45"/>
<path d="M14.321 9.30165L12.7663 10.0455C12.4701 10.1873 12.2881 10.4936 12.3056 10.8218C12.323 11.1501 12.5363 11.4353 12.8463 11.5446L13.242 11.6843C12.6237 12.8726 11.3793 13.6563 10.0001 13.6563C8.83742 13.6563 7.77182 13.1233 7.07551 12.1942C6.80698 11.8354 6.29754 11.7615 5.93801 12.0312C5.57889 12.3002 5.50617 12.8096 5.77511 13.1688C6.76595 14.4915 8.34545 15.2813 10.0001 15.2813C12.0691 15.2813 13.9326 14.0605 14.7861 12.2291L15.1449 12.3558C15.2334 12.3871 15.3248 12.4022 15.4154 12.4022C15.6421 12.4022 15.8631 12.3075 16.0195 12.1324C16.2393 11.8878 16.2901 11.5352 16.1479 11.2387L15.404 9.68353C15.2107 9.27931 14.7244 9.10828 14.321 9.30165Z" fill="#2B3E62" fill-opacity="0.45"/>
</svg>
