<svg width="17" height="17" viewBox="0 0 17 17" fill="none" xmlns="http://www.w3.org/2000/svg">
<path d="M11.259 8.18338C11.1386 7.94325 10.8935 7.79168 10.6251 7.79168H9.20842V0.708322C9.20842 0.317322 8.89179 0 8.50009 0C8.1084 0 7.79177 0.317322 7.79177 0.708322V7.79164H6.37509C6.10665 7.79164 5.86154 7.94322 5.74115 8.18334C5.62215 8.42347 5.64765 8.71034 5.80845 8.92497L7.93345 11.7583C7.94265 11.7703 7.95683 11.7746 7.96675 11.7859C8.0135 11.8412 8.06875 11.8837 8.13038 11.9226C8.15588 11.9382 8.1757 11.9587 8.20333 11.9715C8.294 12.014 8.39315 12.0416 8.50013 12.0416C8.60711 12.0416 8.70625 12.014 8.79763 11.9715C8.82456 11.9587 8.84507 11.9382 8.86988 11.9226C8.9315 11.8837 8.98675 11.8412 9.0335 11.7859C9.0427 11.7746 9.05757 11.7703 9.06681 11.7583L11.1918 8.92497C11.3533 8.71038 11.3788 8.4235 11.259 8.18338Z" fill="#2B3E62" fill-opacity="0.45"/>
<path d="M16.2917 10.625C15.9 10.625 15.5834 10.9423 15.5834 11.3333V13.4583C15.5834 14.6299 14.6299 15.5833 13.4584 15.5833H3.54168C2.37011 15.5833 1.41668 14.6299 1.41668 13.4583V11.3333C1.41668 10.9423 1.10005 10.625 0.708355 10.625C0.316625 10.625 0 10.9423 0 11.3333V13.4583C0 15.4112 1.5888 17 3.54168 17H13.4584C15.4112 17 17 15.4112 17 13.4583V11.3333C17 10.9423 16.6834 10.625 16.2917 10.625Z" fill="#2B3E62" fill-opacity="0.45"/>
</svg>
