<svg width="19" height="19" viewBox="0 0 19 19" fill="none" xmlns="http://www.w3.org/2000/svg">
<path d="M18.2083 15.0417H16.1001C15.7573 13.9009 14.7092 13.0625 13.4583 13.0625C12.2075 13.0625 11.1601 13.9009 10.8166 15.0417H0.791654C0.354654 15.0417 0 15.3963 0 15.8333C0 16.2703 0.354654 16.625 0.791654 16.625H10.8165C11.1593 17.7658 12.2075 18.6042 13.4583 18.6042C14.7091 18.6042 15.7565 17.7658 16.1001 16.625H18.2083C18.6461 16.625 19 16.2703 19 15.8333C19 15.3963 18.6461 15.0417 18.2083 15.0417ZM13.4583 17.0208C12.8036 17.0208 12.2708 16.4881 12.2708 15.8333C12.2708 15.1786 12.8036 14.6458 13.4583 14.6458C14.1131 14.6458 14.6458 15.1786 14.6458 15.8333C14.6458 16.4881 14.113 17.0208 13.4583 17.0208Z" fill="#2B3E62" fill-opacity="0.45"/>
<path d="M18.2083 2.37466H16.1001C15.7565 1.23388 14.7092 0.395508 13.4583 0.395508C12.2075 0.395508 11.1601 1.23388 10.8165 2.37466H0.791654C0.354654 2.37466 0 2.72932 0 3.16632C0 3.60332 0.354654 3.95797 0.791654 3.95797H10.8165C11.1601 5.09879 12.2075 5.93716 13.4583 5.93716C14.7092 5.93716 15.7566 5.09879 16.1001 3.95801H18.2083C18.6461 3.95801 19 3.60335 19 3.16635C19 2.72935 18.6461 2.37466 18.2083 2.37466ZM13.4583 4.35382C12.8036 4.35382 12.2708 3.82104 12.2708 3.16632C12.2708 2.5116 12.8036 1.97882 13.4583 1.97882C14.1131 1.97882 14.6458 2.5116 14.6458 3.16632C14.6458 3.82104 14.113 4.35382 13.4583 4.35382Z" fill="#2B3E62" fill-opacity="0.45"/>
<path d="M18.2083 8.70767H8.18347C7.83987 7.56689 6.7925 6.72852 5.54169 6.72852C4.29088 6.72852 3.24347 7.56689 2.89991 8.70767H0.791654C0.354654 8.70767 0 9.06233 0 9.49933C0 9.93633 0.354654 10.291 0.791654 10.291H2.89987C3.24347 11.4318 4.29085 12.2701 5.54165 12.2701C6.79246 12.2701 7.83988 11.4318 8.18343 10.291H18.2083C18.6461 10.291 19 9.93633 19 9.49933C19 9.06233 18.6461 8.70767 18.2083 8.70767ZM5.54165 10.6868C4.88693 10.6868 4.35415 10.154 4.35415 9.49933C4.35415 8.8446 4.88693 8.31182 5.54165 8.31182C6.19637 8.31182 6.72915 8.8446 6.72915 9.49933C6.72915 10.154 6.19637 10.6868 5.54165 10.6868Z" fill="#2B3E62" fill-opacity="0.45"/>
</svg>
