<svg width="12" height="12" viewBox="0 0 12 12" fill="none" xmlns="http://www.w3.org/2000/svg">
<g clip-path="url(#clip0_991_590)">
<path d="M9.79367 0.438828C9.20857 -0.146276 8.25687 -0.14652 7.67128 0.439072L6.05623 2.05656C5.86128 2.25188 5.86152 2.56867 6.05672 2.76362C6.25204 2.9587 6.56846 2.9587 6.76378 2.76313L8.37858 1.14613C8.57378 0.95081 8.8913 0.951054 9.08662 1.14576L10.8541 2.91341C11.0492 3.10836 11.0492 3.42612 10.8541 3.62144L7.12158 7.35375C6.92626 7.54907 6.60874 7.54883 6.41355 7.354L5.53095 6.47152C5.33575 6.27632 5.01921 6.27632 4.82389 6.47152C4.62869 6.66672 4.62869 6.98326 4.82389 7.17858L5.70649 8.06106C5.99898 8.35355 6.38303 8.49979 6.76732 8.49979C7.1195 8.49979 7.46827 8.37088 7.74978 8.12539C7.77749 8.10708 7.8041 8.08559 7.82851 8.06106L11.5614 4.3285C12.1462 3.74315 12.1462 2.79133 11.5612 2.20635L9.79367 0.438828Z" fill="#2B3E62" fill-opacity="0.45"/>
<path d="M5.23917 9.23885L3.62144 10.8539C3.42612 11.0492 3.1086 11.049 2.91341 10.8541L1.14576 9.08663C0.95081 8.89167 0.95081 8.57391 1.14576 8.37859L4.87844 4.64628C5.07364 4.45096 5.39116 4.45121 5.58648 4.64592L6.47152 5.53096C6.66672 5.72628 6.98326 5.72628 7.17845 5.53096C7.37377 5.33576 7.37377 5.01922 7.17845 4.82402L6.29353 3.93898C5.73297 3.37841 4.83865 3.3612 4.24988 3.87465C4.22217 3.89296 4.19568 3.91444 4.17114 3.93898L0.438462 7.67154C-0.146276 8.25689 -0.146276 9.20858 0.438706 9.79368L2.20635 11.5612C2.49884 11.8537 2.88313 11.9999 3.26742 11.9999C3.65135 11.9999 4.03564 11.8537 4.32813 11.5614L5.94574 9.9464C6.14094 9.75145 6.14118 9.43466 5.94623 9.23934C5.75115 9.0439 5.43474 9.0439 5.23917 9.23885Z" fill="#2B3E62" fill-opacity="0.45"/>
</g>
<defs>
<clipPath id="clip0_991_590">
<rect width="12" height="12" fill="white"/>
</clipPath>
</defs>
</svg>
