<svg width="12" height="12" viewBox="0 0 12 12" fill="none" xmlns="http://www.w3.org/2000/svg">
<path d="M11.5 0.75H0.5C0.223999 0.75 0 0.973999 0 1.25V3.25C0 3.526 0.223999 3.75 0.5 3.75H1V10.75C1 11.026 1.224 11.25 1.5 11.25H10.5C10.776 11.25 11 11.026 11 10.75V3.75H11.5C11.776 3.75 12 3.526 12 3.25V1.25C12 0.973999 11.776 0.75 11.5 0.75ZM10 10.25H2V3.75H10V10.25ZM11 2.75H1V1.75H11V2.75Z" fill="#2B3E62" fill-opacity="0.45"/>
<path d="M4.75 6.25H7.25C7.526 6.25 7.75 6.026 7.75 5.75C7.75 5.474 7.526 5.25 7.25 5.25H4.75C4.474 5.25 4.25 5.474 4.25 5.75C4.25 6.026 4.474 6.25 4.75 6.25Z" fill="#2B3E62" fill-opacity="0.45"/>
</svg>
