<svg width="12" height="12" viewBox="0 0 12 12" fill="none" xmlns="http://www.w3.org/2000/svg">
<path d="M3.25 12H8.75C9.30151 12 9.75 11.5515 9.75 11V5H10.5C10.776 5 11 4.776 11 4.5V3C11 2.44849 10.5515 2 10 2H8V1C8 0.448486 7.55151 0 7 0H5C4.44849 0 4 0.448486 4 1V2H2C1.44849 2 1 2.44849 1 3V4.5C1 4.776 1.224 5 1.5 5H2.25V11C2.25 11.5515 2.69849 12 3.25 12ZM8.75 11H3.25V5H8.75V11ZM5 1H7V2H5V1ZM1.99951 3H10V4H1.99976L1.99951 3Z" fill="#2B3E62" fill-opacity="0.45"/>
<path d="M7.25 10C7.526 10 7.75 9.776 7.75 9.5V6.5C7.75 6.224 7.526 6 7.25 6C6.974 6 6.75 6.224 6.75 6.5V9.5C6.75 9.776 6.974 10 7.25 10Z" fill="#2B3E62" fill-opacity="0.45"/>
<path d="M4.75 10C5.026 10 5.25 9.776 5.25 9.5V6.5C5.25 6.224 5.026 6 4.75 6C4.474 6 4.25 6.224 4.25 6.5V9.5C4.25 9.776 4.474 10 4.75 10Z" fill="#2B3E62" fill-opacity="0.45"/>
</svg>
