<svg width="17" height="17" viewBox="0 0 17 17" fill="none" xmlns="http://www.w3.org/2000/svg">
<path d="M5.74169 3.85862C5.86212 4.09874 6.10719 4.25031 6.37564 4.25031L7.79232 4.25031L7.79232 11.3337C7.79232 11.7247 8.10894 12.042 8.50064 12.042C8.89234 12.042 9.20896 11.7247 9.20896 11.3337V4.25035H10.6256C10.8941 4.25035 11.1392 4.09878 11.2596 3.85865C11.3786 3.61853 11.3531 3.33165 11.1923 3.11703L9.06728 0.283704C9.05808 0.27165 9.04391 0.267401 9.03398 0.256079C8.98723 0.200829 8.93198 0.158328 8.87035 0.119381C8.84485 0.103808 8.82503 0.0832558 8.79741 0.0705051C8.70673 0.0280056 8.60758 0.000380516 8.5006 0.000380516C8.39362 0.000380516 8.29448 0.0280056 8.2031 0.0705051C8.17618 0.0832558 8.15566 0.103808 8.13085 0.119381C8.06923 0.158328 8.01398 0.200829 7.96723 0.256079C7.95803 0.267401 7.94316 0.27165 7.93393 0.283704L5.80893 3.11703C5.64746 3.33162 5.62196 3.61849 5.74169 3.85862Z" fill="#2B3E62" fill-opacity="0.45"/>
<path d="M16.2917 10.625C15.9 10.625 15.5834 10.9423 15.5834 11.3333V13.4583C15.5834 14.6299 14.6299 15.5833 13.4584 15.5833H3.54168C2.37011 15.5833 1.41668 14.6299 1.41668 13.4583V11.3333C1.41668 10.9423 1.10005 10.625 0.708355 10.625C0.316625 10.625 0 10.9423 0 11.3333V13.4583C0 15.4112 1.5888 17 3.54168 17H13.4584C15.4112 17 17 15.4112 17 13.4583V11.3333C17 10.9423 16.6834 10.625 16.2917 10.625Z" fill="#2B3E62" fill-opacity="0.45"/>
</svg>
