<svg width="18" height="18" viewBox="0 0 18 18" fill="none" xmlns="http://www.w3.org/2000/svg">
<path d="M14.7855 9.00007C14.4305 9.00007 14.1426 9.28788 14.1426 9.64293V16.0714C14.1426 16.4264 13.8548 16.7143 13.4998 16.7143H1.92855C1.5735 16.7143 1.28568 16.4264 1.28568 16.0714V3.21443C1.28568 2.85939 1.5735 2.57157 1.92855 2.57157H9.64273C9.99778 2.57157 10.2856 2.28376 10.2856 1.92871C10.2856 1.57366 9.99778 1.28589 9.64273 1.28589H1.92855C0.863439 1.28589 0 2.14933 0 3.21443V16.0714C0 17.1365 0.863439 17.9999 1.92855 17.9999H13.4998C14.5649 17.9999 15.4284 17.1365 15.4284 16.0714V9.64289C15.4284 9.28788 15.1406 9.00007 14.7855 9.00007Z" fill="#2B3E62" fill-opacity="0.45"/>
<path d="M17.2793 0.721124C16.8177 0.259478 16.1916 0.000178977 15.5388 0.000254311C14.8857 -0.00162903 14.259 0.258122 13.7987 0.721538L5.33103 9.18846C5.26078 9.25923 5.20779 9.34526 5.17611 9.43981L3.89042 13.2969C3.77821 13.6338 3.96033 13.9978 4.29719 14.1099C4.36254 14.1317 4.43098 14.1428 4.49984 14.1429C4.56884 14.1428 4.63743 14.1317 4.70297 14.1101L8.56007 12.8244C8.6548 12.7928 8.74087 12.7395 8.81142 12.6689L17.279 4.20128C18.2401 3.24032 18.2402 1.68219 17.2793 0.721124ZM16.37 3.29291L8.01299 11.65L5.51616 12.4837L6.34736 9.99008L14.7076 1.63308C15.1672 1.17437 15.9117 1.17512 16.3704 1.63473C16.5895 1.85429 16.713 2.15152 16.7139 2.46171C16.7147 2.77356 16.5909 3.07278 16.37 3.29291Z" fill="#2B3E62" fill-opacity="0.45"/>
</svg>
