<svg width="19" height="13" viewBox="0 0 19 13" fill="none" xmlns="http://www.w3.org/2000/svg">
<path d="M18.8311 6.51055C16.6191 3.75781 13.5625 0.59375 9.5 0.59375C7.85938 0.59375 6.35547 1.09473 4.76856 2.16523C3.43066 3.07227 2.05859 4.34844 0.173828 6.44727L0.125 6.5L0.452148 6.86387C3.14258 9.83809 5.4668 12.4062 9.5 12.4062C11.2822 12.4062 13.0107 11.7787 14.7832 10.4867C16.292 9.38457 17.5762 7.98711 18.6064 6.85859L18.875 6.56855L18.8311 6.51055ZM9.5 10.7188C7.34668 10.7188 5.59375 8.82559 5.59375 6.5C5.59375 4.17441 7.34668 2.28125 9.5 2.28125C11.6533 2.28125 13.4062 4.17441 13.4062 6.5C13.4062 8.82559 11.6533 10.7188 9.5 10.7188Z" fill="#2B3E62" fill-opacity="0.21"/>
<path d="M9.22656 4.96016C9.22656 4.59629 9.32422 4.25352 9.49512 3.96875C8.20117 3.96875 7.15625 5.10781 7.15625 6.51055C7.15625 7.91328 8.20605 9.04707 9.49512 9.04707C10.7842 9.04707 11.8389 7.91328 11.8389 6.51055C11.5752 6.69512 11.2578 6.80059 10.9209 6.80059C9.98828 6.79531 9.22656 5.97266 9.22656 4.96016Z" fill="#2B3E62" fill-opacity="0.21"/>
</svg>
