<svg width="12" height="12" viewBox="0 0 12 12" fill="none" xmlns="http://www.w3.org/2000/svg">
<path d="M11.9965 1.97675C11.9952 1.952 11.9905 1.92825 11.9855 1.90375C11.9805 1.879 11.976 1.85475 11.9675 1.83125C11.9647 1.82375 11.965 1.816 11.962 1.80875C11.9557 1.794 11.9452 1.78225 11.9377 1.76825C11.9257 1.7455 11.9138 1.7235 11.8985 1.703C11.884 1.6835 11.8675 1.66675 11.8503 1.64975C11.8333 1.63275 11.8165 1.61625 11.797 1.6015C11.7765 1.58625 11.7545 1.57425 11.7317 1.56225C11.7177 1.55475 11.7063 1.544 11.6912 1.538C11.684 1.535 11.676 1.535 11.6687 1.53225C11.6455 1.52375 11.6217 1.51925 11.5972 1.51425C11.5723 1.50925 11.548 1.50425 11.5227 1.503C11.515 1.503 11.5077 1.5 11.5 1.5H0.5C0.492 1.5 0.4845 1.50325 0.4765 1.5035C0.45175 1.50475 0.428 1.5095 0.4035 1.5145C0.37875 1.5195 0.3545 1.524 0.331 1.5325C0.3235 1.53525 0.31575 1.535 0.3085 1.538C0.29375 1.54425 0.282 1.55475 0.268 1.56225C0.24525 1.57425 0.22325 1.58625 0.20275 1.6015C0.18325 1.616 0.1665 1.6325 0.1495 1.64975C0.1325 1.66675 0.116 1.6835 0.10125 1.703C0.086 1.7235 0.074 1.7455 0.062 1.76825C0.0545 1.78225 0.04375 1.79375 0.03775 1.80875C0.03475 1.816 0.03475 1.82375 0.03225 1.83125C0.02375 1.85475 0.01925 1.879 0.01425 1.90375C0.0095 1.92825 0.0045 1.952 0.00325 1.97675C0.003 1.98475 0 1.992 0 2V10C0 10.0328 0.0035 10.0655 0.00975 10.098C0.01275 10.1127 0.01825 10.1265 0.0225 10.1407C0.0275 10.1578 0.0315 10.1747 0.03825 10.1912C0.04525 10.208 0.05475 10.2233 0.0635 10.2393C0.0705 10.252 0.076 10.2653 0.08425 10.2775C0.12075 10.3323 0.168 10.3795 0.22275 10.416C0.235 10.4243 0.2485 10.43 0.2615 10.437C0.27725 10.4455 0.29225 10.455 0.309 10.462C0.3255 10.4688 0.34275 10.4727 0.35975 10.4777C0.374 10.482 0.38775 10.4875 0.4025 10.4905C0.4345 10.4965 0.46725 10.5 0.5 10.5H11.5C11.5328 10.5 11.5655 10.4965 11.598 10.4902C11.6127 10.4872 11.6265 10.4817 11.6407 10.4775C11.6578 10.4725 11.675 10.4685 11.6915 10.4618C11.708 10.4548 11.7233 10.4455 11.739 10.4368C11.752 10.4298 11.7653 10.424 11.7778 10.4157C11.8325 10.379 11.8798 10.332 11.9163 10.2773C11.9245 10.265 11.93 10.2517 11.937 10.239C11.9458 10.2233 11.9552 10.208 11.9622 10.191C11.969 10.1745 11.973 10.1575 11.978 10.1405C11.9822 10.1263 11.9878 10.1125 11.9908 10.0977C11.9965 10.0655 12 10.0328 12 10V2C12 1.992 11.997 1.98475 11.9965 1.97675ZM10.2928 2.5L6.502 6.291C6.22525 6.5675 5.775 6.5675 5.498 6.291L1.70725 2.5H10.2928ZM1 3.20725L3.793 6L1 8.793V3.20725ZM1.707 9.5L4.5 6.707L4.791 6.998C4.83275 7.03975 4.876 7.07875 4.92075 7.11525C5.54675 7.62575 6.45325 7.62575 7.07925 7.11525C7.124 7.07875 7.16725 7.03975 7.209 6.998L7.5 6.707L10.293 9.5H1.707ZM11 8.793L8.207 6L11 3.20725V8.793Z" fill="#2B3E62" fill-opacity="0.45"/>
</svg>
