<svg width="21" height="21" viewBox="0 0 21 21" fill="none" xmlns="http://www.w3.org/2000/svg">
<rect width="21" height="21" rx="10.5" fill="#E7EDF8"/>
<g clip-path="url(#clip0_2731_2)">
<path d="M11.7329 11.0068L14.848 7.89168C15.0507 7.68905 15.0507 7.36143 14.848 7.15881C14.6453 6.95618 14.3177 6.95618 14.1151 7.15881L11 10.2739L7.88491 7.15881C7.68219 6.95618 7.35467 6.95618 7.15204 7.15881C6.94932 7.36143 6.94932 7.68905 7.15204 7.89168L10.2671 11.0068L7.15204 14.1219C6.94932 14.3246 6.94932 14.6522 7.15204 14.8548C7.25302 14.9559 7.3858 15.0067 7.51848 15.0067C7.65116 15.0067 7.78384 14.9559 7.88491 14.8548L11 11.7397L14.1151 14.8548C14.2162 14.9559 14.3489 15.0067 14.4815 15.0067C14.6142 15.0067 14.7469 14.9559 14.848 14.8548C15.0507 14.6522 15.0507 14.3246 14.848 14.1219L11.7329 11.0068Z" fill="#104CBA"/>
</g>
<defs>
<clipPath id="clip0_2731_2">
<rect width="8" height="8" fill="white" transform="translate(7 7)"/>
</clipPath>
</defs>
</svg>
