<svg width="12" height="12" viewBox="0 0 12 12" fill="none" xmlns="http://www.w3.org/2000/svg">
<g clip-path="url(#clip0_991_570)">
<path d="M5.46362 4.21222C5.94038 3.73548 6.75867 4.07734 6.75867 4.74865C6.75867 5.02078 6.97927 5.24137 7.25139 5.24137C7.52351 5.24137 7.74411 5.02078 7.74411 4.74865C7.74411 3.95808 7.21519 3.2891 6.49277 3.07592V2.7465C6.49277 2.47438 6.27217 2.25378 6.00005 2.25378C5.72793 2.25378 5.50733 2.47438 5.50733 2.7465V3.07512C4.66816 3.32092 4.12664 4.16169 4.31805 5.04562C4.43586 5.58973 4.81262 6.04148 5.32587 6.25407L6.29713 6.65637C6.74633 6.84245 6.88079 7.419 6.55579 7.76778C6.08951 8.26746 5.2414 7.94016 5.2414 7.25134C5.2414 6.97922 5.02081 6.75862 4.74868 6.75862C4.47656 6.75862 4.25597 6.97922 4.25597 7.25134C4.25597 8.02118 4.76478 8.70742 5.50731 8.92372V9.25351C5.50731 9.52563 5.7279 9.74623 6.00003 9.74623C6.27215 9.74623 6.49274 9.52563 6.49274 9.25351V8.92304C6.76763 8.84291 7.01951 8.69622 7.22685 8.49099C8.08331 7.6438 7.77667 6.2026 6.6742 5.74594L5.70294 5.34365C5.24868 5.15548 5.11224 4.56424 5.46362 4.21222Z" fill="#2B3E62" fill-opacity="0.45"/>
<path d="M10.2413 1.7583C7.89706 -0.585936 4.1025 -0.586265 1.75793 1.7583C-0.586309 4.10254 -0.586661 7.89711 1.75793 10.2417C4.10217 12.5859 7.89671 12.5863 10.2413 10.2417C12.5856 7.89748 12.5859 4.10289 10.2413 1.7583ZM5.99963 11.0132C3.23533 11.0132 0.986402 8.76429 0.986402 6.00002C0.986402 3.23575 3.23533 0.986798 5.99963 0.986798C8.76392 0.986798 11.0129 3.23573 11.0129 6.00002C11.0129 8.76432 8.76392 11.0132 5.99963 11.0132Z" fill="#2B3E62" fill-opacity="0.45"/>
</g>
<defs>
<clipPath id="clip0_991_570">
<rect width="12" height="12" fill="white"/>
</clipPath>
</defs>
</svg>
