<svg width="18" height="18" viewBox="0 0 18 18" fill="none" xmlns="http://www.w3.org/2000/svg">
<path d="M17.5849 0.375258C17.4684 0.145125 17.2326 0 16.9746 0H1.02531C0.767405 0 0.531577 0.145125 0.415139 0.375258C0.298948 0.605391 0.322186 0.881543 0.475081 1.08911L6.72154 9.56644V17.3165C6.72154 17.694 7.02754 18 7.40508 18H10.5949C10.9725 18 11.2785 17.694 11.2785 17.3165V9.56644L17.5249 1.08911C17.678 0.881543 17.701 0.605391 17.5849 0.375258ZM10.0446 8.93644C9.95806 9.05379 9.91137 9.19571 9.91137 9.34179V16.6329H8.08859V9.34175C8.08859 9.19571 8.04186 9.05375 7.95531 8.9364L2.37802 1.36709H15.6222L10.0446 8.93644Z" fill="#2B3E62" fill-opacity="0.45"/>
</svg>
