<svg width="12" height="12" viewBox="0 0 12 12" fill="none" xmlns="http://www.w3.org/2000/svg">
<path d="M9.81152 3.5188C9.54175 3.48523 9.28772 3.67896 9.25403 3.95349C9.21973 4.22754 9.41455 4.47729 9.68848 4.51123C10.436 4.604 11 5.24402 11 6C11 6.39978 10.8438 6.77698 10.5627 7.0603C10.277 7.34375 9.89978 7.5 9.5 7.5H5.5V5C5.5 4.724 5.276 4.5 5 4.5C4.724 4.5 4.5 4.724 4.5 5V7.5H3C1.89722 7.5 1 6.60278 1 5.5C1 4.96631 1.20801 4.46399 1.58606 4.0863C1.96399 3.70825 2.46631 3.5 3 3.5H4C4.276 3.5 4.5 3.276 4.5 3V2.75C4.5 2.28174 4.68201 1.84326 5.01477 1.51245C5.33948 1.18579 5.77429 1.00378 6.23828 1H6.2478C7.16394 1 7.96423 1.80725 7.99805 2.76746C8.00769 3.04346 8.22876 3.26404 8.51526 3.24976C8.79126 3.23999 9.00696 3.00854 8.99756 2.73279C8.94421 1.22229 7.71301 0 6.24695 0C6.2417 0 6.23621 0 6.23096 0C5.50098 0.00598144 4.81702 0.292725 4.3075 0.805542C3.84619 1.26404 3.56848 1.85828 3.51123 2.5H3C2.19922 2.5 1.4458 2.81226 0.879028 3.37903C0.312256 3.9458 0 4.69897 0 5.5C0 7.1543 1.3457 8.5 3 8.5H4.5V10.293L4.35352 10.1465C4.1582 9.95129 3.8418 9.95129 3.64648 10.1465C3.45129 10.3418 3.45129 10.6582 3.64648 10.8535L4.64648 11.8535C4.65381 11.8607 4.66248 11.866 4.67004 11.8728C4.67871 11.8805 4.68774 11.8877 4.69702 11.8948C4.73096 11.9208 4.76672 11.9435 4.80505 11.9597C4.80627 11.9602 4.80725 11.9613 4.80847 11.962C4.80896 11.9623 4.8092 11.9623 4.80969 11.9623C4.83655 11.9733 4.86426 11.981 4.89221 11.9873C4.896 11.988 4.89978 11.9897 4.90381 11.9907C4.93555 11.9967 4.96777 12 5 12C5.03223 12 5.06445 11.9967 5.09619 11.9905C5.10376 11.989 5.11096 11.9857 5.11853 11.984C5.14246 11.9783 5.16626 11.9723 5.18921 11.9628C5.19775 11.9592 5.2052 11.954 5.2135 11.95C5.23474 11.9399 5.25598 11.9301 5.276 11.917C5.30347 11.8988 5.32971 11.8774 5.35376 11.8535L6.35376 10.8535C6.54895 10.6582 6.54895 10.3418 6.35376 10.1465C6.15845 9.95129 5.84204 9.95129 5.64673 10.1465L5.5 10.2927V8.5H9.5C10.1655 8.5 10.7932 8.24072 11.27 7.76721C11.7407 7.29297 12 6.66528 12 6C12 4.74023 11.059 3.67371 9.81152 3.5188Z" fill="#2B3E62" fill-opacity="0.45"/>
</svg>
