<svg width="13" height="13" viewBox="0 0 13 13" fill="none" xmlns="http://www.w3.org/2000/svg">
<g clip-path="url(#clip0_1197_975)">
<path d="M6.5 13C10.0839 13 13 10.0842 13 6.5C13 5.88137 12.9136 5.27173 12.7427 4.68788C12.6584 4.40078 12.3586 4.23587 12.0707 4.32011C11.7834 4.40408 11.619 4.70494 11.703 4.99203C11.8446 5.4771 11.9167 5.98465 11.9167 6.5C11.9167 9.4867 9.4867 11.9167 6.5 11.9167C3.5133 11.9167 1.08333 9.4867 1.08333 6.5C1.08333 3.5133 3.5133 1.08333 6.5 1.08333C7.58545 1.08333 8.62977 1.40072 9.52003 2.00097C9.76785 2.16825 10.1048 2.10253 10.2718 1.85471C10.439 1.60662 10.3738 1.26993 10.1257 1.10277C9.05586 0.381388 7.8022 0 6.5 0C2.91609 0 0 2.91582 0 6.5C0 10.0842 2.91609 13 6.5 13Z" fill="#2B3E62" fill-opacity="0.45"/>
<path d="M12.0753 1.24209L6.49998 6.81718L4.71629 5.03376C4.5047 4.8223 4.16193 4.8223 3.95034 5.03376C3.73888 5.24534 3.73888 5.58812 3.95034 5.79971L6.11701 7.96637C6.22293 8.0723 6.36126 8.12506 6.49998 8.12506C6.6387 8.12506 6.77703 8.0723 6.88296 7.96637L12.8413 2.00804C13.0527 1.79645 13.0527 1.45368 12.8413 1.24209C12.6297 1.03063 12.2869 1.03063 12.0753 1.24209Z" fill="#2B3E62" fill-opacity="0.45"/>
</g>
<defs>
<clipPath id="clip0_1197_975">
<rect width="13" height="13" fill="white"/>
</clipPath>
</defs>
</svg>
