<svg width="36" height="20" viewBox="0 0 36 20" fill="none" xmlns="http://www.w3.org/2000/svg">
<path d="M35.3716 19.1094C35.3852 19.1067 35.3984 19.1031 35.4117 19.0996C35.4231 19.0967 35.4345 19.0943 35.4457 19.0909C35.4587 19.0869 35.4714 19.082 35.4841 19.0775C35.4953 19.0734 35.5067 19.0698 35.5178 19.0651C35.5298 19.0601 35.5413 19.0542 35.553 19.0487C35.5643 19.0433 35.5759 19.0383 35.587 19.0323C35.5982 19.0264 35.6087 19.0196 35.6195 19.0131C35.6306 19.0065 35.6419 19.0002 35.6527 18.9929C35.6643 18.9852 35.675 18.9767 35.6861 18.9684C35.6955 18.9614 35.7051 18.9548 35.7142 18.9473C35.7311 18.9335 35.7471 18.9187 35.7627 18.9035C35.7655 18.9008 35.7686 18.8985 35.7714 18.8957C35.7743 18.8928 35.7768 18.8896 35.7796 18.8865C35.7946 18.8711 35.8092 18.8553 35.8229 18.8387C35.8309 18.8289 35.8379 18.8187 35.8454 18.8086C35.8531 18.7982 35.8612 18.7881 35.8684 18.7772C35.8761 18.7657 35.8829 18.7537 35.8899 18.7419C35.8959 18.7319 35.9022 18.7221 35.9077 18.7118C35.9142 18.6998 35.9196 18.6874 35.9253 18.6752C35.9304 18.6644 35.9358 18.6537 35.9405 18.6425C35.9455 18.6306 35.9495 18.6184 35.9538 18.6062C35.9581 18.5944 35.9627 18.5826 35.9663 18.5705C35.9701 18.5582 35.9728 18.5457 35.9759 18.5332C35.9789 18.521 35.9825 18.5089 35.9849 18.4965C35.9878 18.4818 35.9896 18.467 35.9916 18.4523C35.9931 18.4419 35.9951 18.4315 35.9961 18.421C35.9987 18.3951 36.0001 18.3692 36.0001 18.3432V1.65572C36.0001 1.22445 35.6506 0.875 35.2193 0.875H10.6266C10.6198 0.875 10.6131 0.875832 10.6062 0.87604C10.5913 0.876457 10.5766 0.877082 10.5618 0.878331C10.55 0.879268 10.5384 0.880621 10.5267 0.882183C10.5134 0.883848 10.5002 0.885826 10.4869 0.88822C10.4745 0.890406 10.4623 0.893008 10.4501 0.895819C10.4377 0.898734 10.4253 0.901857 10.413 0.905396C10.4008 0.908831 10.3889 0.912578 10.377 0.916534C10.3648 0.920698 10.3526 0.92507 10.3407 0.929859C10.3293 0.934335 10.3182 0.938915 10.3072 0.943911C10.2949 0.949428 10.2827 0.955362 10.2706 0.961504C10.2603 0.966813 10.2502 0.972226 10.2402 0.977951C10.2281 0.984821 10.2163 0.992108 10.2045 0.999603C10.1948 1.00585 10.1854 1.0123 10.176 1.01886C10.165 1.02667 10.154 1.03479 10.1433 1.04332C10.1335 1.05113 10.1239 1.05915 10.1145 1.06737C10.1051 1.07559 10.0958 1.08382 10.0868 1.09256C10.0765 1.10245 10.0666 1.11276 10.0568 1.12316C10.0519 1.12837 10.0467 1.13295 10.042 1.13826C10.0392 1.14138 10.037 1.14482 10.0343 1.14794C10.0245 1.15929 10.0154 1.17115 10.0062 1.18312C9.99955 1.19187 9.99268 1.20061 9.98644 1.20956C9.97832 1.22122 9.97082 1.23319 9.96333 1.24527C9.95718 1.25516 9.95084 1.26494 9.94521 1.27504C9.93866 1.2867 9.93293 1.29867 9.927 1.31064C9.92158 1.32157 9.91596 1.3325 9.91107 1.34364C9.90597 1.3554 9.90149 1.36758 9.89702 1.37955C9.89254 1.39132 9.88796 1.40298 9.88411 1.41484C9.88026 1.42681 9.87713 1.43899 9.8738 1.45117C9.87047 1.46366 9.86693 1.47605 9.86412 1.48865C9.86152 1.50041 9.85975 1.51238 9.85767 1.52425C9.85538 1.53778 9.85309 1.55131 9.85142 1.56485C9.85007 1.57609 9.84945 1.58754 9.84861 1.59899C9.84757 1.61356 9.84663 1.62814 9.84643 1.64281C9.84632 1.64708 9.8458 1.65125 9.8458 1.65551V6.47017C9.8458 6.90144 10.1953 7.25089 10.6265 7.25089C11.0578 7.25089 11.4072 6.90144 11.4072 6.47017V3.38944L18.3485 9.53497C18.3123 9.56047 18.2774 9.58868 18.2449 9.62106L11.4071 16.4588V11.3281C11.4071 10.8969 11.0577 10.5474 10.6264 10.5474C10.1951 10.5474 9.8457 10.8969 9.8457 11.3281V12.2821H5.81197C5.3807 12.2821 5.03125 12.6315 5.03125 13.0628C5.03125 13.4941 5.3807 13.8435 5.81197 13.8435H9.8457V18.3437C9.8457 18.775 10.1951 19.1244 10.6264 19.1244H35.2191C35.2449 19.1244 35.2706 19.1231 35.2962 19.1206C35.3081 19.1194 35.3197 19.1171 35.3315 19.1155C35.345 19.1136 35.3583 19.112 35.3716 19.1094ZM34.4385 16.4589L27.6007 9.62116C27.5963 9.61679 27.5916 9.61314 27.5871 9.60898L32.7277 5.24766C33.0564 4.96869 33.0968 4.4761 32.8179 4.14726C32.5391 3.81863 32.0465 3.77803 31.7174 4.05712L22.9337 11.5094L12.6861 2.43655H34.4385V16.4589ZM19.3492 10.7254C19.4049 10.6697 19.45 10.6077 19.4853 10.5417L22.4053 13.1269C22.5529 13.2575 22.7378 13.3231 22.9229 13.3231C23.1026 13.3231 23.2821 13.2614 23.4281 13.1377L26.4039 10.613C26.4309 10.6525 26.4614 10.6903 26.4965 10.7254L33.3343 17.5632H12.5114L19.3492 10.7254Z" fill="#2B3E62" fill-opacity="0.65"/>
<path d="M0.780721 9.76457H13.9663C14.3975 9.76457 14.747 9.41512 14.747 8.98385C14.747 8.55258 14.3975 8.20312 13.9663 8.20312H0.780721C0.349451 8.20312 0 8.55258 0 8.98385C0 9.41512 0.349451 9.76457 0.780721 9.76457Z" fill="#2B3E62" fill-opacity="0.65"/>
<path d="M2.14693 5.46378H8.0674C8.49867 5.46378 8.84813 5.11433 8.84813 4.68306C8.84813 4.25179 8.49867 3.90234 8.0674 3.90234H2.14693C1.71566 3.90234 1.36621 4.25179 1.36621 4.68306C1.36621 5.11433 1.71566 5.46378 2.14693 5.46378Z" fill="#2B3E62" fill-opacity="0.65"/>
<path d="M6.50601 15.5781H0.780721C0.349451 15.5781 0 15.9276 0 16.3588C0 16.7901 0.349451 17.1396 0.780721 17.1396H6.50601C6.93728 17.1396 7.28673 16.7901 7.28673 16.3588C7.28673 15.9276 6.93728 15.5781 6.50601 15.5781Z" fill="#2B3E62" fill-opacity="0.65"/>
</svg>
