<svg width="12" height="12" viewBox="0 0 12 12" fill="none" xmlns="http://www.w3.org/2000/svg">
<g clip-path="url(#clip0_991_539)">
<path d="M11.9922 0.400986C11.9917 0.398986 11.9909 0.396986 11.9904 0.394985C11.9819 0.35523 11.9674 0.316724 11.9492 0.279469C11.9444 0.269968 11.9397 0.260716 11.9344 0.251215C11.9129 0.21346 11.8879 0.177205 11.8556 0.14495C11.8234 0.112696 11.7869 0.0876921 11.7491 0.0661891C11.7401 0.0609384 11.7311 0.0564377 11.7216 0.0516871C11.6834 0.0329344 11.6441 0.0176823 11.6031 0.00918109C11.6019 0.00893106 11.6011 0.00868102 11.6001 0.00843099C11.5573 -7.02096e-05 11.5138 -0.00132038 11.4703 0.00143C11.4608 0.00193007 11.4513 0.00293021 11.4418 0.00418039C11.3978 0.00943113 11.3541 0.0186824 11.3123 0.0356848L0.31102 4.53632C0.114743 4.61658 -0.00952467 4.81186 0.000726767 5.02339C0.0109782 5.23517 0.153498 5.41744 0.356777 5.4782L5.09944 6.90115L6.52214 11.6438C6.58315 11.8468 6.76543 11.9894 6.97696 11.9996C6.98521 11.9999 6.99321 12.0001 7.00146 12.0001C7.20349 12.0001 7.38701 11.8781 7.46427 11.6893L11.9649 0.687776C11.9649 0.687526 11.9649 0.687526 11.9649 0.687276C11.9817 0.646271 11.9907 0.603515 11.9959 0.560259C11.9972 0.549507 11.9984 0.539006 11.9989 0.528254C12.0014 0.485748 12.0004 0.442992 11.9922 0.400986ZM1.99876 4.92637L9.3908 1.9022L5.35873 5.93451L1.99876 4.92637ZM7.07372 10.0018L6.06583 6.64161L10.0976 2.6098L7.07372 10.0018Z" fill="#2B3E62" fill-opacity="0.45"/>
<path d="M4.35421 7.64591C4.15893 7.45063 3.84239 7.45063 3.64711 7.64591L2.39693 8.89609C2.20165 9.09136 2.20165 9.40791 2.39693 9.60319C2.4947 9.70095 2.62246 9.74971 2.75048 9.74971C2.8785 9.74971 3.00627 9.70095 3.10403 9.60319L4.35421 8.35301C4.54949 8.15773 4.54949 7.84119 4.35421 7.64591Z" fill="#2B3E62" fill-opacity="0.45"/>
<path d="M1.6038 7.64591C1.40852 7.45063 1.09198 7.45063 0.896701 7.64591L0.146595 8.39601C-0.048682 8.59129 -0.048682 8.90784 0.146595 9.10311C0.244359 9.20088 0.372127 9.24963 0.500145 9.24963C0.628163 9.24963 0.755931 9.20088 0.853695 9.10311L1.6038 8.35301C1.79908 8.15773 1.79908 7.84119 1.6038 7.64591Z" fill="#2B3E62" fill-opacity="0.45"/>
<path d="M4.35423 10.3963C4.15895 10.201 3.8424 10.201 3.64713 10.3963L2.89702 11.1464C2.70175 11.3417 2.70175 11.6582 2.89702 11.8535C2.99479 11.9512 3.12255 12 3.25057 12C3.37859 12 3.50636 11.9512 3.60412 11.8535L4.35423 11.1034C4.5495 10.9081 4.5495 10.5916 4.35423 10.3963Z" fill="#2B3E62" fill-opacity="0.45"/>
</g>
<defs>
<clipPath id="clip0_991_539">
<rect width="12" height="12" fill="white"/>
</clipPath>
</defs>
</svg>
