<svg width="12" height="12" viewBox="0 0 12 12" fill="none" xmlns="http://www.w3.org/2000/svg">
<path d="M10.2435 1.75647C10.231 1.74402 10.2168 1.7345 10.2032 1.72375C9.12 0.658691 7.63574 0 6 0C4.3645 0 2.88025 0.658447 1.797 1.72351C1.78345 1.7345 1.76904 1.74402 1.75647 1.75647C1.74402 1.76904 1.7345 1.7832 1.72351 1.79675C0.658447 2.88025 0 4.3645 0 6C0 7.21252 0.358521 8.37927 1.03674 9.37427C1.19226 9.60229 1.50354 9.66125 1.73145 9.50549C1.95972 9.34998 2.01855 9.03894 1.86304 8.81079C1.29846 7.98279 1 7.0105 1 6C1 4.80127 1.4248 3.7002 2.13074 2.83801L5.29297 6L2.89648 8.39648C2.70129 8.5918 2.70129 8.9082 2.89648 9.10352C2.99402 9.20129 3.12195 9.25 3.25 9.25C3.37805 9.25 3.50598 9.20129 3.60352 9.10352L6 6.70703L9.16223 9.86902C8.30005 10.5752 7.19873 11 6 11C5.11951 11 4.25525 10.769 3.50049 10.3323C3.26147 10.1937 2.95581 10.2753 2.81726 10.5145C2.67896 10.7535 2.7605 11.0594 2.99951 11.1975C3.90625 11.7225 4.94373 12 6 12C7.6355 12 9.11975 11.3416 10.2032 10.2765C10.2168 10.2655 10.231 10.256 10.2438 10.2435C10.2562 10.231 10.2657 10.2168 10.2767 10.2032C11.3416 9.11975 12 7.6355 12 6C12 4.3645 11.3416 2.88025 10.2765 1.797C10.2655 1.78345 10.256 1.76929 10.2435 1.75647ZM2.83777 2.13074C3.69995 1.4248 4.80127 1 6 1C7.19873 1 8.30005 1.4248 9.16223 2.13098L6 5.29297L2.83777 2.13074ZM9.86926 9.16199L6.70703 6L9.86926 2.83801C10.5752 3.7002 11 4.80127 11 6C11 7.19873 10.5752 8.2998 9.86926 9.16199Z" fill="#2B3E62" fill-opacity="0.45"/>
</svg>
