<svg width="20" height="20" viewBox="0 0 20 20" fill="none" xmlns="http://www.w3.org/2000/svg">
<path d="M5.89144 12.8674C5.89144 12.5352 5.66097 12.3372 5.25432 12.3372C5.08827 12.3372 4.97581 12.3535 4.91699 12.3692V13.4349C4.98664 13.4506 5.07226 13.4558 5.19027 13.4558C5.62372 13.4558 5.89144 13.2368 5.89144 12.8674Z" fill="#2B3E62" fill-opacity="0.45"/>
<path d="M8.40846 12.3484C8.22635 12.3484 8.10867 12.3641 8.03906 12.3804V14.7406C8.10871 14.7569 8.22117 14.7569 8.32284 14.7569C9.06159 14.7621 9.5434 14.3555 9.5434 13.4938C9.54862 12.7445 9.10958 12.3484 8.40846 12.3484Z" fill="#2B3E62" fill-opacity="0.45"/>
<path d="M13.0855 0H5.0527C3.87918 0 2.92406 0.95578 2.92406 2.12863V9.99996H2.71616C2.24252 9.99996 1.8584 10.3837 1.8584 10.8578V16.0597C1.8584 16.5337 2.24248 16.9175 2.71616 16.9175H2.92406V17.8713C2.92406 19.0455 3.87918 20 5.0527 20H16.0131C17.1859 20 18.1411 19.0454 18.1411 17.8713V5.03791L13.0855 0ZM4.10866 11.7965C4.36004 11.7541 4.71338 11.722 5.2112 11.722C5.71429 11.722 6.07286 11.8181 6.31379 12.011C6.54393 12.1927 6.69923 12.4928 6.69923 12.8459C6.69923 13.1989 6.58155 13.499 6.36742 13.7023C6.08891 13.9644 5.67704 14.0821 5.19523 14.0821C5.088 14.0821 4.99189 14.0768 4.91672 14.0664V15.3563H4.10866V11.7965ZM16.0131 18.6964H5.0527C4.59831 18.6964 4.22829 18.3263 4.22829 17.8713V16.9175H14.4457C14.9194 16.9175 15.3035 16.5337 15.3035 16.0597V10.8578C15.3035 10.3837 14.9194 9.99996 14.4457 9.99996H4.22829V2.12863C4.22829 1.67491 4.59835 1.30489 5.0527 1.30489L12.5978 1.29701V4.08595C12.5978 4.90057 13.2588 5.56216 14.074 5.56216L16.8061 5.55432L16.8368 17.8713C16.8368 18.3263 16.4675 18.6964 16.0131 18.6964ZM7.22028 15.34V11.7965C7.51999 11.7488 7.91062 11.722 8.32287 11.722C9.00798 11.722 9.45225 11.8449 9.80037 12.1071C10.175 12.3856 10.4103 12.8295 10.4103 13.4669C10.4103 14.1573 10.1589 14.6339 9.81078 14.928C9.43093 15.2438 8.85272 15.3935 8.14632 15.3935C7.72329 15.3935 7.42359 15.3667 7.22028 15.34ZM13.062 13.242V13.9056H11.7666V15.3563H10.9477V11.7488H13.1529V12.4176H11.7666V13.242H13.062Z" fill="#2B3E62" fill-opacity="0.45"/>
</svg>
