<svg width="13" height="13" viewBox="0 0 13 13" fill="none" xmlns="http://www.w3.org/2000/svg">
<path d="M7.691 6.51071L12.753 1.44861C13.0824 1.11934 13.0824 0.586962 12.753 0.257693C12.4237 -0.0715749 11.8913 -0.0715749 11.562 0.257693L6.49993 5.31979L1.43799 0.257693C1.10856 -0.0715749 0.576336 -0.0715749 0.247067 0.257693C-0.0823557 0.586962 -0.0823557 1.11934 0.247067 1.44861L5.30901 6.51071L0.247067 11.5728C-0.0823557 11.9021 -0.0823557 12.4345 0.247067 12.7637C0.411162 12.928 0.626921 13.0105 0.842527 13.0105C1.05813 13.0105 1.27374 12.928 1.43799 12.7637L6.49993 7.70162L11.562 12.7637C11.7263 12.928 11.9419 13.0105 12.1575 13.0105C12.3731 13.0105 12.5887 12.928 12.753 12.7637C13.0824 12.4345 13.0824 11.9021 12.753 11.5728L7.691 6.51071Z" fill="#2B3E62" fill-opacity="0.45"/>
</svg>
