<svg width="12" height="12" viewBox="0 0 12 12" fill="none" xmlns="http://www.w3.org/2000/svg">
<path d="M11 0H5.5C4.94849 0 4.5 0.448486 4.5 1V2.25H3.25C2.69849 2.25 2.25 2.69849 2.25 3.25V4.5H1C0.448486 4.5 0 4.94849 0 5.5V11C0 11.5515 0.448486 12 1 12H6.5C7.05151 12 7.5 11.5515 7.5 11V9.75H8.75C9.30151 9.75 9.75 9.30151 9.75 8.75V7.5H11C11.5515 7.5 12 7.05151 12 6.5V1C12 0.448486 11.5515 0 11 0ZM2.74805 5.49976C2.74878 5.49976 2.74927 5.5 2.75 5.5H6.5V8.75H1V5.5L2.74805 5.49976ZM1 11V9.75H6.5V11H1ZM8.75 8.75H7.5V5.5C7.5 4.94849 7.05151 4.5 6.5 4.5H3.25V3.25L4.99805 3.24976C4.99878 3.24976 4.99927 3.25 5 3.25H8.75V8.75ZM11 6.5H9.75V3.25C9.75 2.69849 9.30151 2.25 8.75 2.25H5.5V1L11 0.999512V6.5Z" fill="#2B3E62" fill-opacity="0.45"/>
</svg>
