<svg width="13" height="13" viewBox="0 0 13 13" fill="none" xmlns="http://www.w3.org/2000/svg">
<path d="M1.62501 13H6.50001C6.79901 13 7.04168 12.7573 7.04168 12.4583C7.04168 12.1593 6.79901 11.9167 6.50001 11.9167H2.16668V1.08333H9.47918V3.25C9.47918 3.549 9.72184 3.79167 10.0208 3.79167C10.3198 3.79167 10.5625 3.549 10.5625 3.25V0.541667C10.5625 0.242666 10.3198 0 10.0208 0H1.62501C1.32601 0 1.08334 0.242666 1.08334 0.541667V12.4583C1.08334 12.7573 1.32601 13 1.62501 13Z" fill="#2B3E62" fill-opacity="0.45"/>
<path d="M5.68749 2.1665H3.52082C3.22182 2.1665 2.97916 2.40917 2.97916 2.70817C2.97916 3.00717 3.22182 3.24984 3.52082 3.24984H5.68749C5.98649 3.24984 6.22916 3.00717 6.22916 2.70817C6.22916 2.40917 5.98649 2.1665 5.68749 2.1665Z" fill="#2B3E62" fill-opacity="0.45"/>
<path d="M5.68749 4.0625H3.52082C3.22182 4.0625 2.97916 4.30517 2.97916 4.60417C2.97916 4.90317 3.22182 5.14583 3.52082 5.14583H5.68749C5.98649 5.14583 6.22916 4.90317 6.22916 4.60417C6.22916 4.30517 5.98649 4.0625 5.68749 4.0625Z" fill="#2B3E62" fill-opacity="0.45"/>
<path d="M5.68749 5.9585H3.52082C3.22182 5.9585 2.97916 6.20116 2.97916 6.50016C2.97916 6.79916 3.22182 7.04183 3.52082 7.04183H5.68749C5.98649 7.04183 6.22916 6.79916 6.22916 6.50016C6.22916 6.20116 5.98649 5.9585 5.68749 5.9585Z" fill="#2B3E62" fill-opacity="0.45"/>
<path d="M5.68749 7.854H3.52082C3.22182 7.854 2.97916 8.09667 2.97916 8.39567C2.97916 8.69467 3.22182 8.93734 3.52082 8.93734H5.68749C5.98649 8.93734 6.22916 8.69467 6.22916 8.39567C6.22916 8.09667 5.98649 7.854 5.68749 7.854Z" fill="#2B3E62" fill-opacity="0.45"/>
<path d="M7.58332 3.24984H8.12499C8.42399 3.24984 8.66666 3.00717 8.66666 2.70817C8.66666 2.40917 8.42399 2.1665 8.12499 2.1665H7.58332C7.28432 2.1665 7.04166 2.40917 7.04166 2.70817C7.04166 3.00717 7.28432 3.24984 7.58332 3.24984Z" fill="#2B3E62" fill-opacity="0.45"/>
<path d="M7.58332 5.14583H8.12499C8.42399 5.14583 8.66666 4.90317 8.66666 4.60417C8.66666 4.30517 8.42399 4.0625 8.12499 4.0625H7.58332C7.28432 4.0625 7.04166 4.30517 7.04166 4.60417C7.04166 4.90317 7.28432 5.14583 7.58332 5.14583Z" fill="#2B3E62" fill-opacity="0.45"/>
<path d="M10.5625 5.41667C10.5625 5.11767 10.3198 4.875 10.0208 4.875C9.72183 4.875 9.47917 5.11767 9.47917 5.41667V5.76737C8.69721 6.00118 8.125 6.7264 8.125 7.58333C8.125 8.62871 8.97572 9.47917 10.0208 9.47917C10.4687 9.47917 10.8333 9.84376 10.8333 10.2917C10.8333 10.7385 10.4707 11.1021 10.0241 11.1039C10.0229 11.1039 10.0219 11.1036 10.0208 11.1036C10.0198 11.1036 10.0187 11.1039 10.0175 11.1039C9.57094 11.1021 9.20833 10.7385 9.20833 10.2917C9.20833 9.99267 8.96567 9.75 8.66667 9.75C8.36767 9.75 8.125 9.99267 8.125 10.2917C8.125 11.1489 8.69721 11.8738 9.47917 12.1076V12.4583C9.47917 12.7573 9.72183 13 10.0208 13C10.3198 13 10.5625 12.7573 10.5625 12.4583V12.1076C11.3447 11.8738 11.9167 11.1486 11.9167 10.2917C11.9167 9.24629 11.0659 8.39583 10.0208 8.39583C9.57293 8.39583 9.20833 8.03124 9.20833 7.58333C9.20833 7.13543 9.57293 6.77083 10.0208 6.77083C10.4687 6.77083 10.8333 7.13543 10.8333 7.58333C10.8333 7.88233 11.076 8.125 11.375 8.125C11.674 8.125 11.9167 7.88233 11.9167 7.58333C11.9167 6.72614 11.3447 6.00118 10.5625 5.76737V5.41667Z" fill="#2B3E62" fill-opacity="0.45"/>
</svg>
