<svg width="13" height="13" viewBox="0 0 13 13" fill="none" xmlns="http://www.w3.org/2000/svg">
<g clip-path="url(#clip0_1197_972)">
<path d="M8.42869 0C5.88978 0 3.82433 2.06545 3.82433 4.60436C3.82433 5.32723 3.99638 6.00897 4.2946 6.61837L3.17115 7.74182C3.17076 7.74208 3.17076 7.74208 3.17049 7.74208C3.17023 7.74208 3.17023 7.74235 3.17023 7.74261L0.3946 10.5182C-0.087181 11 -0.087181 11.7841 0.3946 12.266L0.767011 12.6384C1.0081 12.8795 1.32444 13 1.64104 13C1.95778 13 2.27411 12.8795 2.51507 12.6384L6.41494 8.73857C7.02408 9.03679 7.70582 9.20872 8.42869 9.20872C10.9676 9.20872 13.033 7.14326 13.033 4.60436C13.033 2.06545 10.9676 0 8.42869 0ZM1.74882 11.8725C1.68905 11.9318 1.5929 11.9318 1.53299 11.8725L1.16058 11.5001C1.10107 11.4405 1.10107 11.3437 1.16058 11.2842L3.55348 8.89132L4.14186 9.47956L1.74882 11.8725ZM4.90771 8.71358L4.31947 8.12534L4.89422 7.55059C5.07209 7.76377 5.26901 7.96069 5.48219 8.13856L4.90771 8.71358ZM8.42869 8.12534C6.48728 8.12534 4.90771 6.54576 4.90771 4.60436C4.90771 2.66295 6.48728 1.08338 8.42869 1.08338C10.3701 1.08338 11.9497 2.66295 11.9497 4.60436C11.9497 6.54576 10.3701 8.12534 8.42869 8.12534Z" fill="#2B3E62" fill-opacity="0.45"/>
<path d="M10.0538 4.60468C10.0538 5.50092 9.32499 6.22974 8.42874 6.22974C8.12973 6.22974 7.88705 6.47242 7.88705 6.77143C7.88705 7.07045 8.12973 7.31312 8.42874 7.31312C9.92223 7.31312 11.1372 6.09816 11.1372 4.60468C11.1372 4.30566 10.8945 4.06299 10.5955 4.06299C10.2965 4.06299 10.0538 4.30566 10.0538 4.60468Z" fill="#2B3E62" fill-opacity="0.45"/>
</g>
<defs>
<clipPath id="clip0_1197_972">
<rect width="13" height="13" fill="white"/>
</clipPath>
</defs>
</svg>
