<svg width="72" height="77" viewBox="0 0 72 77" fill="none" xmlns="http://www.w3.org/2000/svg">
<g clip-path="url(#clip0_2565_2)">
<path d="M51.5291 15.5059C51.4675 15.3575 51.3772 15.2226 51.2636 15.109L36.5136 0.358955C36.2828 0.129869 35.971 0.000921875 35.6458 0H8.60421C7.92536 0 7.375 0.550359 7.375 1.22921V57.7709C7.375 58.4496 7.92536 59 8.60421 59H50.3959C51.0748 59 51.6251 58.4496 51.6251 57.7708V15.9792C51.6247 15.8166 51.592 15.6557 51.5291 15.5059ZM36.875 4.19637L47.4286 14.75H36.875V4.19637ZM49.1667 56.5417H9.83329V2.45829H34.4166V15.9791C34.4166 16.6579 34.9669 17.2083 35.6458 17.2083H49.1666V56.5417H49.1667Z" fill="#2E7D32"/>
<path d="M14.75 20.8957V50.3957C14.75 51.0746 15.3004 51.6249 15.9792 51.6249H43.0209C43.6998 51.6249 44.2501 51.0746 44.2501 50.3957V20.8957C44.2501 20.2169 43.6998 19.6665 43.0209 19.6665H15.9792C15.3004 19.6666 14.75 20.2169 14.75 20.8957ZM36.875 22.1249H41.7917V27.0416H36.875V22.1249ZM36.875 29.4999H41.7917V34.4166H36.875V29.4999ZM36.875 36.8749H41.7917V41.7916H36.875V36.8749ZM36.875 44.2499H41.7917V49.1666H36.875V44.2499ZM24.5833 22.1249H34.4166V27.0416H24.5833V22.1249ZM24.5833 29.4999H34.4166V34.4166H24.5833V29.4999ZM24.5833 36.8749H34.4166V41.7916H24.5833V36.8749ZM24.5833 44.2499H34.4166V49.1666H24.5833V44.2499ZM17.2083 22.1249H22.125V27.0416H17.2083V22.1249ZM17.2083 29.4999H22.125V34.4166H17.2083V29.4999ZM17.2083 36.8749H22.125V41.7916H17.2083V36.8749ZM17.2083 44.2499H22.125V49.1666H17.2083V44.2499Z" fill="#2E7D32"/>
</g>
<circle cx="52" cy="57" r="18.5" fill="#2E7D32" stroke="white" stroke-width="3"/>
<path d="M51.4032 58.5341C51.4816 58.6125 51.5746 58.6746 51.6769 58.717C51.7793 58.7594 51.889 58.7812 51.9998 58.7812C52.1106 58.7812 52.2204 58.7594 52.3227 58.717C52.4251 58.6746 52.5181 58.6125 52.5965 58.5341L55.7784 55.3521C55.9367 55.1939 56.0256 54.9793 56.0256 54.7555C56.0256 54.5318 55.9367 54.3171 55.7784 54.1589C55.6202 54.0007 55.4056 53.9118 55.1818 53.9118C54.958 53.9118 54.7434 54.0007 54.5852 54.1589L52.8436 55.9005V46.6875C52.8436 46.4637 52.7547 46.2491 52.5965 46.0909C52.4382 45.9326 52.2236 45.8438 51.9998 45.8438C51.7761 45.8438 51.5615 45.9326 51.4032 46.0909C51.245 46.2491 51.1561 46.4637 51.1561 46.6875V55.9005L49.4145 54.1589C49.2563 54.0007 49.0416 53.9118 48.8179 53.9118C48.5941 53.9118 48.3795 54.0007 48.2212 54.1589C48.063 54.3171 47.9741 54.5318 47.9741 54.7555C47.9741 54.9793 48.063 55.1939 48.2212 55.3521L51.4032 58.5341Z" fill="white"/>
<path d="M59.3125 53.1562C59.0887 53.1562 58.8741 53.2451 58.7159 53.4034C58.5576 53.5616 58.4688 53.7762 58.4688 54V60.4688H45.5312V54C45.5312 53.7762 45.4424 53.5616 45.2841 53.4034C45.1259 53.2451 44.9113 53.1562 44.6875 53.1562C44.4637 53.1562 44.2491 53.2451 44.0909 53.4034C43.9326 53.5616 43.8438 53.7762 43.8438 54V60.75C43.8438 61.123 43.9919 61.4806 44.2556 61.7444C44.5194 62.0081 44.877 62.1562 45.25 62.1562H58.75C59.123 62.1562 59.4806 62.0081 59.7444 61.7444C60.0081 61.4806 60.1562 61.123 60.1562 60.75V54C60.1562 53.7762 60.0674 53.5616 59.9091 53.4034C59.7509 53.2451 59.5363 53.1562 59.3125 53.1562Z" fill="white"/>
<defs>
<clipPath id="clip0_2565_2">
<rect width="59" height="59" fill="white"/>
</clipPath>
</defs>
</svg>
