<svg width="33" height="33" viewBox="0 0 33 33" fill="none" xmlns="http://www.w3.org/2000/svg">
<path d="M21.8574 15.3574H17.6426V11.1426C17.6426 10.5115 17.131 10 16.5 10C15.869 10 15.3574 10.5115 15.3574 11.1426V15.3574H11.1426C10.5115 15.3574 10 15.869 10 16.5C10 17.131 10.5115 17.6426 11.1426 17.6426H15.3574V21.8574C15.3574 22.4885 15.869 23 16.5 23C17.131 23 17.6426 22.4885 17.6426 21.8574V17.6426H21.8574C22.4885 17.6426 23 17.131 23 16.5C23 15.869 22.4885 15.3574 21.8574 15.3574Z" fill="#50CB93"/>
<circle cx="16.5" cy="16.5" r="15.5" stroke="#50CB93" stroke-width="2"/>
</svg>
