<svg width="29" height="22" viewBox="0 0 29 22" fill="none" xmlns="http://www.w3.org/2000/svg">
<path d="M24.6405 0H4.26471C3.69608 0 3.31699 0.488889 3.31699 0.977778C3.31699 1.46667 3.79085 1.95556 4.26471 1.95556H24.6405C25.9673 1.95556 27.1046 3.12889 27.1046 4.49778V4.59556H4.26471C3.69608 4.59556 3.31699 5.08444 3.31699 5.57333C3.31699 6.16 3.79085 6.55111 4.26471 6.55111H27.1046V17.4044C27.1046 18.7733 25.9673 19.9467 24.6405 19.9467H4.35948C3.03268 19.9467 1.89542 18.7733 1.89542 17.4044V4.4C1.89542 3.81333 1.42157 3.42222 0.947712 3.42222C0.379085 3.42222 0 3.91111 0 4.4V17.4044C0 19.9467 1.9902 21.9022 4.35948 21.9022H24.6405C27.1046 21.9022 29 19.8489 29 17.4044V4.49778C29 2.05333 27.1046 0 24.6405 0Z" fill="#50CB93"/>
<path d="M24.0723 14.2759C24.641 14.2759 25.0201 13.787 25.0201 13.2981C25.0201 12.7114 24.5462 12.3203 24.0723 12.3203H14.5004C13.9318 12.3203 13.5527 12.8092 13.5527 13.2981C13.5527 13.8848 14.0266 14.2759 14.5004 14.2759H24.0723Z" fill="#50CB93"/>
<path d="M5.78121 11.7329H8.81389V14.8618H5.78121V11.7329ZM9.66683 16.8173C10.2355 16.8173 10.6145 16.3285 10.6145 15.8396V10.7551C10.6145 10.1685 10.1407 9.77734 9.66683 9.77734H4.73873C4.1701 9.77734 3.79102 10.2662 3.79102 10.7551V15.8396C3.79102 16.4262 4.26487 16.8173 4.73873 16.8173H9.66683Z" fill="#50CB93"/>
<path d="M20.2812 8.31079C20.2812 7.72412 19.8073 7.33301 19.3335 7.33301C18.7648 7.33301 18.3857 7.8219 18.3857 8.31079V18.1863C18.3857 18.773 18.8596 19.1641 19.3335 19.1641C19.9021 19.1641 20.2812 18.6752 20.2812 18.1863V8.31079Z" fill="#50CB93"/>
</svg>
