<svg width="14" height="15" viewBox="0 0 14 15" fill="none" xmlns="http://www.w3.org/2000/svg">
<g clip-path="url(#clip0_1182_4821)">
<path d="M6.63258 10.0138C6.51973 10.0138 6.41183 9.96278 6.3342 9.87289L3.44398 6.53216C3.1935 6.24303 3.37957 5.76197 3.74236 5.76197H5.25629V2.26939C5.25629 1.85089 5.56513 1.51013 5.94444 1.51013H7.32073C7.70004 1.51013 8.00888 1.85089 8.00888 2.26939V5.76197H9.5228C9.8856 5.76197 10.0717 6.24303 9.82119 6.53216L6.93096 9.87289C6.85334 9.96278 6.74544 10.0138 6.63258 10.0138Z" fill="#2E7D32"/>
<path d="M12.2754 13.6582H0.989774C0.458524 13.6582 0.0263672 13.1814 0.0263672 12.5952V12.2915C0.0263672 11.7054 0.458524 11.2286 0.989774 11.2286H12.2754C12.8066 11.2286 13.2388 11.7054 13.2388 12.2915V12.5952C13.2388 13.1814 12.8066 13.6582 12.2754 13.6582Z" fill="#2E7D32"/>
</g>
<defs>
<clipPath id="clip0_1182_4821">
<rect width="13.2124" height="14.5777" fill="white" transform="translate(0.0263672 0.295288)"/>
</clipPath>
</defs>
</svg>
