<svg width="38" height="38" viewBox="0 0 38 38" fill="none" xmlns="http://www.w3.org/2000/svg">
<g clip-path="url(#clip0_1744_296)">
<path d="M5.62207 24.6465H20.0758C20.6906 24.6465 21.1891 24.148 21.1891 23.5332C21.1891 22.9184 20.6906 22.4199 20.0758 22.4199H5.62207C5.00724 22.4199 4.50879 22.9184 4.50879 23.5332C4.50879 24.148 5.00724 24.6465 5.62207 24.6465Z" fill="#50DFB3"/>
<path d="M5.62207 19.7305H16.2929C16.9078 19.7305 17.4062 19.232 17.4062 18.6172C17.4062 18.0024 16.9078 17.5039 16.2929 17.5039H5.62207C5.00724 17.5039 4.50879 18.0024 4.50879 18.6172C4.50879 19.232 5.00724 19.7305 5.62207 19.7305Z" fill="#50DFB3"/>
<path d="M5.62207 14.8145H15.3861C16.0009 14.8145 16.4993 14.316 16.4993 13.7012C16.4993 13.0863 16.0009 12.5879 15.3861 12.5879H5.62207C5.00724 12.5879 4.50879 13.0863 4.50879 13.7012C4.50879 14.316 5.00724 14.8145 5.62207 14.8145Z" fill="#50DFB3"/>
<path d="M5.62207 9.89648H17.1936C17.8084 9.89648 18.3069 9.39803 18.3069 8.7832C18.3069 8.16837 17.8084 7.66992 17.1936 7.66992H5.62207C5.00724 7.66992 4.50879 8.16837 4.50879 8.7832C4.50879 9.39803 5.00724 9.89648 5.62207 9.89648Z" fill="#50DFB3"/>
<path d="M14.0966 27.3359H5.62207C5.00724 27.3359 4.50879 27.8344 4.50879 28.4492C4.50879 29.064 5.00724 29.5625 5.62207 29.5625H14.0965C14.7113 29.5625 15.2098 29.064 15.2098 28.4492C15.2098 27.8344 14.7114 27.3359 14.0966 27.3359Z" fill="#50DFB3"/>
<path d="M37.6739 26.3769L31.6825 20.3855C35.0359 17.3745 35.1343 12.217 31.9905 9.0748C30.7845 7.868 29.2526 7.10652 27.5938 6.8705V3.33984C27.5938 1.49848 26.0953 0 24.2539 0H3.33984C1.49848 0 0 1.49848 0 3.33984V34.6602C0 36.5015 1.49848 38 3.33984 38H17.2915C18.1836 38 19.0223 37.6527 19.6531 37.0218L26.6156 30.0593C27.2464 29.4285 27.5938 28.5898 27.5938 27.6977V22.2946C28.347 22.187 29.0868 21.9676 29.788 21.6397L36.0995 27.9512C36.5343 28.386 37.2391 28.386 37.6739 27.9512C38.1087 27.5165 38.1087 26.8116 37.6739 26.3769ZM3.33984 35.7734C2.72605 35.7734 2.22656 35.2739 2.22656 34.6602V3.33984C2.22656 2.72605 2.72605 2.22656 3.33984 2.22656H24.2539C24.8677 2.22656 25.3672 2.72605 25.3672 3.33984V6.87043C23.7077 7.1057 22.1758 7.86793 20.9698 9.07473C17.9245 12.12 17.9242 17.0499 20.9698 20.0955C22.2055 21.3312 23.7574 22.0645 25.3672 22.2946V27.337H19.3803C18.2336 27.337 17.3007 28.2698 17.3007 29.4166V35.7734C17.3005 35.7734 17.3005 35.7734 17.3003 35.7734H3.33984ZM19.5273 33.9986V29.5636H23.9629L19.5273 33.9986ZM22.5447 18.5205C20.3694 16.3468 20.3684 12.8237 22.5447 10.6489C24.7198 8.47378 28.2395 8.47207 30.4163 10.6489C32.5916 12.8226 32.5926 16.3458 30.4163 18.5205C28.2436 20.6932 24.7137 20.6895 22.5447 18.5205Z" fill="#50DFB3"/>
<path d="M27.4978 12.6562L25.8774 14.0127L25.6722 13.7084C25.3285 13.1986 24.6366 13.0639 24.1268 13.4076C23.617 13.7513 23.4823 14.4431 23.826 14.953L24.7217 16.2815C25.0903 16.8285 25.8527 16.9372 26.3594 16.5128L28.927 14.3632C29.3985 13.9686 29.4606 13.2664 29.0659 12.795C28.6714 12.3238 27.9692 12.2614 27.4978 12.6562Z" fill="#50DFB3"/>
</g>
<defs>
<clipPath id="clip0_1744_296">
<rect width="38" height="38" fill="white"/>
</clipPath>
</defs>
</svg>
