<svg width="56" height="75" viewBox="0 0 56 75" fill="none" xmlns="http://www.w3.org/2000/svg">
<g filter="url(#filter0_d_1659_21)">
<rect x="7" y="4" width="42" height="60.8571" rx="3" fill="#104CBA" fill-opacity="0.45"/>
</g>
<rect x="7" y="4" width="42" height="53.1429" rx="3" fill="white"/>
<path d="M34 60.1426H19.8571C19.3838 60.1426 19 60.5263 19 60.9997C19 61.4731 19.3838 61.8569 19.8571 61.8569H34C34.4734 61.8569 34.8571 61.4731 34.8571 60.9997C34.8571 60.5263 34.4734 60.1426 34 60.1426Z" fill="#E5F7EF" fill-opacity="0.25"/>
<ellipse cx="14.2856" cy="11.0718" rx="3" ry="2.78571" fill="#AEC6F1" fill-opacity="0.28"/>
<rect x="37.8569" y="8.28613" width="6.42857" height="1.28571" rx="0.642857" fill="#AEC6F1" fill-opacity="0.28"/>
<rect x="35.2866" y="11.2861" width="9" height="1.28571" rx="0.642857" fill="#AEC6F1" fill-opacity="0.28"/>
<path d="M43.6429 25.8564H40.6429C40.2878 25.8564 40 26.1443 40 26.4993C40 26.8543 40.2878 27.1422 40.6429 27.1422H43.6429C43.9979 27.1422 44.2857 26.8543 44.2857 26.4993C44.2857 26.1443 43.9979 25.8564 43.6429 25.8564Z" fill="#AEC6F1" fill-opacity="0.28"/>
<path d="M34.2142 25.8564H11.9285C11.5735 25.8564 11.2856 26.1443 11.2856 26.4993C11.2856 26.8543 11.5735 27.1422 11.9285 27.1422H34.2142C34.5693 27.1422 34.8571 26.8543 34.8571 26.4993C34.8571 26.1443 34.5693 25.8564 34.2142 25.8564Z" fill="#AEC6F1" fill-opacity="0.28"/>
<path d="M43.6428 29.7139H11.9285C11.5735 29.7139 11.2856 30.0017 11.2856 30.3567C11.2856 30.7118 11.5735 30.9996 11.9285 30.9996H43.6428C43.9978 30.9996 44.2856 30.7118 44.2856 30.3567C44.2856 30.0017 43.9978 29.7139 43.6428 29.7139Z" fill="#AEC6F1" fill-opacity="0.28"/>
<path d="M43.6428 33.1436H11.9285C11.5735 33.1436 11.2856 33.4314 11.2856 33.7864C11.2856 34.1415 11.5735 34.4293 11.9285 34.4293H43.6428C43.9978 34.4293 44.2856 34.1415 44.2856 33.7864C44.2856 33.4314 43.9978 33.1436 43.6428 33.1436Z" fill="#AEC6F1" fill-opacity="0.28"/>
<path d="M43.4285 36.5703H12.1428C11.6694 36.5703 11.2856 36.9541 11.2856 37.4275C11.2856 37.9008 11.6694 38.2846 12.1428 38.2846H43.4285C43.9019 38.2846 44.2856 37.9008 44.2856 37.4275C44.2856 36.9541 43.9019 36.5703 43.4285 36.5703Z" fill="#AEC6F1" fill-opacity="0.28"/>
<defs>
<filter id="filter0_d_1659_21" x="0" y="0" width="56" height="74.8574" filterUnits="userSpaceOnUse" color-interpolation-filters="sRGB">
<feFlood flood-opacity="0" result="BackgroundImageFix"/>
<feColorMatrix in="SourceAlpha" type="matrix" values="0 0 0 0 0 0 0 0 0 0 0 0 0 0 0 0 0 0 127 0" result="hardAlpha"/>
<feOffset dy="3"/>
<feGaussianBlur stdDeviation="3.5"/>
<feColorMatrix type="matrix" values="0 0 0 0 0 0 0 0 0 0 0 0 0 0 0 0 0 0 0.11 0"/>
<feBlend mode="normal" in2="BackgroundImageFix" result="effect1_dropShadow_1659_21"/>
<feBlend mode="normal" in="SourceGraphic" in2="effect1_dropShadow_1659_21" result="shape"/>
</filter>
</defs>
</svg>
