<svg width="15" height="15" viewBox="0 0 15 15" fill="none" xmlns="http://www.w3.org/2000/svg">
<path d="M1.58203 11.9531H2.57812V13.7109C2.57812 14.4217 3.15639 15 3.86719 15H11.1328C11.8436 15 12.4219 14.4217 12.4219 13.7109V11.9531H13.418C14.2903 11.9531 15 11.2434 15 10.3711V4.86328C15 3.99094 14.2903 3.28125 13.418 3.28125H12.4219V1.28906C12.4219 0.578262 11.8436 0 11.1328 0H3.86719C3.15639 0 2.57812 0.578262 2.57812 1.28906V3.28125H1.58203C0.709688 3.28125 0 3.99094 0 4.86328V10.3711C0 11.2434 0.709688 11.9531 1.58203 11.9531ZM11.0156 13.5938H3.98438V8.90625H11.0156V13.5938ZM3.98438 1.40625H11.0156V3.28125H3.98438V1.40625ZM1.40625 4.86328C1.40625 4.76634 1.48509 4.6875 1.58203 4.6875H13.418C13.5149 4.6875 13.5938 4.76634 13.5938 4.86328V10.3711C13.5938 10.468 13.5149 10.5469 13.418 10.5469H12.4219V8.20312C12.4219 7.8148 12.1071 7.5 11.7188 7.5H3.28125C2.89292 7.5 2.57812 7.8148 2.57812 8.20312V10.5469H1.58203C1.48509 10.5469 1.40625 10.468 1.40625 10.3711V4.86328Z" fill="white"/>
<path d="M2.81265 6.79688C3.20098 6.79688 3.51577 6.48208 3.51577 6.09375C3.51577 5.70542 3.20098 5.39062 2.81265 5.39062H2.81235C2.42405 5.39062 2.10938 5.70542 2.10938 6.09375C2.10938 6.48208 2.42432 6.79688 2.81265 6.79688Z" fill="white"/>
</svg>
