<svg width="28" height="28" viewBox="0 0 28 28" fill="none" xmlns="http://www.w3.org/2000/svg">
<path d="M22.717 11.5316C22.7733 11.3214 22.7438 11.0975 22.635 10.9091L20.9944 8.06745C20.8856 7.87905 20.7064 7.74156 20.4963 7.68523C20.2863 7.62896 20.0623 7.65838 19.8739 7.76721L18.789 8.39355C18.1091 7.81687 17.3197 7.36597 16.4612 7.06393V5.79688C16.4612 5.34384 16.0939 4.97656 15.6408 4.97656H12.3596C11.9066 4.97656 11.5393 5.34384 11.5393 5.79688V7.06393C10.6807 7.36597 9.89127 7.81687 9.21145 8.39355L8.12656 7.76721C7.93816 7.65838 7.714 7.62891 7.5041 7.68523C7.29394 7.74151 7.11478 7.87899 7.00601 8.06745L5.36539 10.9091C5.25661 11.0975 5.22714 11.3215 5.28341 11.5316C5.33974 11.7417 5.47722 11.9209 5.66562 12.0297L6.76041 12.6617C6.66345 13.1333 6.61735 13.5688 6.61735 14C6.61735 14.4312 6.66345 14.8667 6.7603 15.3383L5.66551 15.9703C5.47711 16.0791 5.33963 16.2583 5.2833 16.4684C5.22703 16.6786 5.2565 16.9025 5.36528 17.0909L7.0059 19.9326C7.11467 20.121 7.29389 20.2584 7.504 20.3148C7.71421 20.3711 7.9381 20.3416 8.12645 20.2328L9.21134 19.6065C9.89121 20.1831 10.6806 20.634 11.5392 20.9361V22.2031C11.5392 22.6562 11.9064 23.0234 12.3595 23.0234H15.6407C16.0938 23.0234 16.461 22.6562 16.461 22.2031V20.9361C17.3196 20.634 18.109 20.1831 18.7889 19.6065L19.8738 20.2328C20.0622 20.3416 20.2862 20.371 20.4962 20.3148C20.7064 20.2585 20.8855 20.121 20.9943 19.9326L22.6349 17.0909C22.7437 16.9025 22.7732 16.6785 22.7169 16.4684C22.6606 16.2583 22.5231 16.0791 22.3347 15.9703L21.2399 15.3383C21.3369 14.8667 21.383 14.4312 21.383 14C21.383 13.5688 21.3369 13.1333 21.24 12.6617L22.3348 12.0297C22.5232 11.9209 22.6606 11.7417 22.717 11.5316V11.5316ZM19.5077 12.4776C19.6678 13.0543 19.7423 13.5381 19.7423 14C19.7423 14.4619 19.6678 14.9457 19.5077 15.5224C19.4078 15.8828 19.5641 16.2652 19.888 16.4522L20.804 16.981L19.9837 18.4017L19.0853 17.8831C18.7615 17.6961 18.3521 17.7518 18.0901 18.0185C17.3764 18.7448 16.4581 19.2694 15.4343 19.5355C15.0729 19.6295 14.8204 19.9559 14.8204 20.3295V21.3828H13.1798V20.3295C13.1798 19.9559 12.9274 19.6295 12.5659 19.5355C11.5421 19.2694 10.6238 18.7449 9.91014 18.0185C9.64802 17.7517 9.23852 17.6961 8.91488 17.8831L8.01647 18.4017L7.19616 16.981L8.11218 16.4522C8.43609 16.2652 8.59244 15.8828 8.49247 15.5224C8.33251 14.9457 8.25797 14.4619 8.25797 14C8.25797 13.5381 8.33251 13.0543 8.49258 12.4776C8.59255 12.1172 8.4362 11.7348 8.11228 11.5478L7.19627 11.019L8.01658 9.59826L8.91499 10.1169C9.23885 10.3038 9.64813 10.2482 9.91025 9.98145C10.6239 9.2552 11.5422 8.73064 12.566 8.46448C12.9275 8.37047 13.1799 8.04409 13.1799 7.67052V6.61719H14.8205V7.67052C14.8205 8.04409 15.0729 8.37047 15.4344 8.46448C16.4582 8.73064 17.3765 9.25515 18.0902 9.98145C18.3522 10.2482 18.7617 10.3038 19.0854 10.1169L19.9838 9.59826L20.8042 11.019L19.8881 11.5478C19.5641 11.7348 19.4078 12.1172 19.5077 12.4776V12.4776Z" fill="white"/>
<path d="M14 9.89844C11.7384 9.89844 9.89844 11.7384 9.89844 14C9.89844 16.2616 11.7384 18.1016 14 18.1016C16.2616 18.1016 18.1016 16.2616 18.1016 14C18.1016 11.7384 16.2616 9.89844 14 9.89844ZM14 16.4609C12.643 16.4609 11.5391 15.357 11.5391 14C11.5391 12.643 12.643 11.5391 14 11.5391C15.357 11.5391 16.4609 12.643 16.4609 14C16.4609 15.357 15.357 16.4609 14 16.4609Z" fill="white"/>
<path d="M25.0208 6.45941C25.3544 6.12582 25.219 5.61985 25.219 5.61985L24.0589 2.13954C23.9156 1.7097 23.451 1.47738 23.0212 1.62072C22.5915 1.764 22.3592 2.22857 22.5024 2.65836L22.601 2.95416C21.8649 2.39389 21.0717 1.90012 20.2366 1.48591C18.2768 0.513844 16.1202 0 14 0C10.2807 0 6.77064 1.46185 4.11627 4.11622C1.4618 6.77064 0 10.2808 0 14C0 15.7178 0.360883 17.4775 1.07248 19.2305C1.20187 19.5492 1.50883 19.7424 1.8328 19.7424C1.93555 19.7424 2.04006 19.723 2.14112 19.682C2.56091 19.5115 2.76303 19.0331 2.59262 18.6133C1.96087 17.0574 1.64062 15.5052 1.64062 14C1.64062 7.18501 7.18501 1.64063 14 1.64063C16.5015 1.64063 19.0266 2.47275 21.1246 3.91595C20.7236 3.83354 20.3151 4.0617 20.1824 4.45977C20.0391 4.88956 20.2714 5.35413 20.7012 5.49741L24.1815 6.65749C24.1815 6.65749 24.6719 6.80827 25.0208 6.45941Z" fill="white"/>
<path d="M2.78059 22.3803L3.94068 25.8606C4.0553 26.2044 4.37528 26.4218 4.71882 26.4218C4.80479 26.4218 4.89229 26.4082 4.97832 26.3795C5.40811 26.2362 5.64036 25.7717 5.49714 25.3419L5.39853 25.0461C6.13463 25.6063 6.92787 26.1001 7.76295 26.5144C9.72295 27.4864 11.8795 28.0002 13.9998 28.0002C17.7191 28.0002 21.2291 26.5384 23.8835 23.884C26.538 21.2296 27.9998 17.7195 27.9998 14.0002C27.9998 12.2824 27.6389 10.5227 26.9273 8.76975C26.7569 8.34997 26.2784 8.1479 25.8587 8.31825C25.4389 8.48871 25.2368 8.96712 25.4072 9.3869C26.0389 10.9429 26.3592 12.495 26.3592 14.0002C26.3592 20.8152 20.8148 26.3596 13.9998 26.3596C11.4984 26.3596 8.97318 25.5275 6.87521 24.0842C7.27623 24.1666 7.68469 23.9385 7.81742 23.5404C7.96064 23.1106 7.72839 22.646 7.2986 22.5028L3.81828 21.3427C3.332 21.1806 2.97872 21.5409 2.97872 21.5409C2.63796 21.8816 2.78059 22.3803 2.78059 22.3803V22.3803Z" fill="white"/>
</svg>
