<svg width="18" height="18" viewBox="0 0 18 18" fill="none" xmlns="http://www.w3.org/2000/svg">
<path d="M0.875 0.875V13.0625H5.75V17.125L9.8125 13.0625H17.125V0.875H0.875ZM15.5 11.4375H9.8125H9.13975L8.66363 11.9136L7.375 13.2023V13.0625V11.4375H5.75H2.5V2.5H15.5V11.4375Z" fill="white"/>
<path d="M4.9375 8.1875C5.6106 8.1875 6.15625 7.64185 6.15625 6.96875C6.15625 6.29565 5.6106 5.75 4.9375 5.75C4.2644 5.75 3.71875 6.29565 3.71875 6.96875C3.71875 7.64185 4.2644 8.1875 4.9375 8.1875Z" fill="white"/>
<path d="M9 8.1875C9.6731 8.1875 10.2188 7.64185 10.2188 6.96875C10.2188 6.29565 9.6731 5.75 9 5.75C8.3269 5.75 7.78125 6.29565 7.78125 6.96875C7.78125 7.64185 8.3269 8.1875 9 8.1875Z" fill="white"/>
<path d="M13.0625 8.1875C13.7356 8.1875 14.2812 7.64185 14.2812 6.96875C14.2812 6.29565 13.7356 5.75 13.0625 5.75C12.3894 5.75 11.8438 6.29565 11.8438 6.96875C11.8438 7.64185 12.3894 8.1875 13.0625 8.1875Z" fill="white"/>
</svg>
