<svg width="21" height="21" viewBox="0 0 21 21" fill="none" xmlns="http://www.w3.org/2000/svg">
<path d="M10.5 0C6.62274 0 3.23212 2.11636 1.41098 5.25L1.3125 5.42496C0.475739 6.92886 0 8.66241 0 10.5C0 12.3376 0.475739 14.0711 1.3125 15.575L1.41098 15.75C3.22656 18.8836 6.62274 21 10.5 21C15.9961 21 20.5134 16.7562 20.9618 11.375V9.625C20.5134 4.24384 15.9961 0 10.5 0V0ZM7.04913 2.46094C6.58984 3.24301 6.20703 4.18359 5.9118 5.25H3.51645C4.42969 4.04132 5.63837 3.06805 7.04913 2.46094ZM2.48273 14C2.01254 12.928 1.75 11.7469 1.75 10.5C1.75 9.25308 2.01254 8.07196 2.48828 7H5.52899C5.34848 8.0882 5.25 9.25864 5.25 10.5C5.25 11.7414 5.34848 12.9118 5.52899 14H2.48273ZM3.51645 15.75H5.9118C6.20703 16.8164 6.58984 17.757 7.04913 18.5391C5.63837 17.9319 4.42969 16.9587 3.51645 15.75ZM10.5 19.25C9.51007 19.25 8.45477 17.8993 7.76562 15.75H13.2344C12.5452 17.8993 11.4899 19.25 10.5 19.25ZM7.31723 14C7.11493 12.9391 7 11.7578 7 10.5C7 9.24219 7.11493 8.06085 7.31723 7H11.375V5.25H7.76562C8.45477 3.10074 9.51562 1.75 10.5 1.75C12.053 1.75 13.7812 5.06415 13.9782 9.625H8.75V11.375H13.9782C13.9398 12.3102 13.8359 13.1906 13.6774 14H7.31723ZM13.9509 18.5391C14.9626 16.8109 15.6242 14.3008 15.7336 11.375H19.2062C18.8836 14.596 16.8109 17.3086 13.9509 18.5391ZM15.7336 9.625C15.6242 6.70477 14.9679 4.18915 13.9509 2.46094C16.8109 3.69141 18.8836 6.40399 19.2062 9.625H15.7336Z" fill="#E7EDF8"/>
</svg>
