<svg width="15" height="15" viewBox="0 0 15 15" fill="none" xmlns="http://www.w3.org/2000/svg">
<path d="M12.2644 4.3985C11.9272 4.35654 11.6096 4.59869 11.5675 4.94186C11.5247 5.28442 11.7682 5.59662 12.1106 5.63904C13.045 5.755 13.75 6.55502 13.75 7.5C13.75 7.99973 13.5547 8.47122 13.2034 8.82538C12.8462 9.17969 12.3747 9.375 11.875 9.375H6.875V6.25C6.875 5.905 6.595 5.625 6.25 5.625C5.905 5.625 5.625 5.905 5.625 6.25V9.375H3.75C2.37152 9.375 1.25 8.25348 1.25 6.875C1.25 6.20789 1.51001 5.57999 1.98257 5.10788C2.45499 4.63531 3.08289 4.375 3.75 4.375H5C5.345 4.375 5.625 4.095 5.625 3.75V3.4375C5.625 2.85217 5.85251 2.30408 6.26846 1.89056C6.67435 1.48224 7.21786 1.25473 7.79785 1.25H7.80975C8.95493 1.25 9.95529 2.25906 9.99756 3.45932C10.0096 3.80432 10.2859 4.08005 10.6441 4.06219C10.9891 4.04999 11.2587 3.76068 11.2469 3.41599C11.1803 1.52786 9.64127 0 7.80869 0C7.80212 0 7.79526 0 7.7887 0C6.87622 0.0074768 6.02127 0.365906 5.38437 1.00693C4.80774 1.58005 4.4606 2.32285 4.38904 3.125H3.75C2.74902 3.125 1.80725 3.51532 1.09879 4.22379C0.39032 4.93225 0 5.87372 0 6.875C0 8.94287 1.68213 10.625 3.75 10.625H5.625V12.8662L5.44189 12.6831C5.19775 12.4391 4.80225 12.4391 4.55811 12.6831C4.31412 12.9272 4.31412 13.3228 4.55811 13.5669L5.80811 14.8169C5.81726 14.8259 5.82809 14.8325 5.83755 14.841C5.84839 14.8506 5.85968 14.8596 5.87128 14.8685C5.9137 14.901 5.9584 14.9294 6.00632 14.9496C6.00784 14.9503 6.00906 14.9516 6.01059 14.9525C6.0112 14.9529 6.01151 14.9529 6.01212 14.9529C6.04568 14.9666 6.08032 14.9762 6.11526 14.9841C6.12 14.985 6.12473 14.9872 6.12976 14.9884C6.16943 14.9959 6.20972 15 6.25 15C6.29028 15 6.33057 14.9959 6.37024 14.9881C6.3797 14.9863 6.3887 14.9821 6.39816 14.98C6.42807 14.9728 6.45782 14.9654 6.48651 14.9535C6.49719 14.949 6.5065 14.9425 6.51688 14.9374C6.54343 14.9249 6.56998 14.9126 6.595 14.8962C6.62933 14.8735 6.66214 14.8468 6.6922 14.8169L7.9422 13.5669C8.18619 13.3228 8.18619 12.9272 7.9422 12.6831C7.69806 12.4391 7.30255 12.4391 7.05841 12.6831L6.875 12.8659V10.625H11.875C12.7069 10.625 13.4915 10.3009 14.0875 9.70901C14.6759 9.11621 15 8.3316 15 7.5C15 5.92529 13.8237 4.59213 12.2644 4.3985Z" fill="white"/>
</svg>
