<svg width="6" height="6" viewBox="0 0 6 6" fill="none" xmlns="http://www.w3.org/2000/svg">
<path d="M0.532305 3.93292C0.418305 3.19155 0.304243 2.45017 0.190118 1.7088C0.184552 1.67237 0.189956 1.6351 0.205642 1.60176C0.221329 1.56841 0.246587 1.54048 0.2782 1.52154C0.309812 1.5026 0.346348 1.49349 0.383153 1.49539C0.419958 1.49728 0.455367 1.51009 0.484868 1.53217L1.55099 2.33167C1.57869 2.35246 1.61035 2.36738 1.64401 2.37551C1.67767 2.38364 1.71264 2.38483 1.74678 2.37898C1.78092 2.37314 1.8135 2.36039 1.84254 2.34152C1.87158 2.32265 1.89647 2.29805 1.91568 2.26924L2.80331 0.937237C2.82494 0.904867 2.85423 0.878333 2.88857 0.859982C2.92291 0.841632 2.96124 0.832031 3.00018 0.832031C3.03912 0.832031 3.07745 0.841632 3.11179 0.859982C3.14613 0.878333 3.17542 0.904867 3.19706 0.937237L4.08468 2.26849C4.10389 2.2973 4.12878 2.3219 4.15782 2.34077C4.18686 2.35964 4.21944 2.37239 4.25358 2.37823C4.28772 2.38408 4.32269 2.38289 4.35635 2.37476C4.39001 2.36663 4.42167 2.35171 4.44937 2.33092L5.51549 1.53142C5.54499 1.50934 5.5804 1.49653 5.61721 1.49464C5.65401 1.49274 5.69055 1.50185 5.72216 1.52079C5.75377 1.53973 5.77903 1.56766 5.79472 1.60101C5.8104 1.63435 5.81581 1.67162 5.81024 1.70805C5.69612 2.44942 5.58206 3.1908 5.46806 3.93217L0.532305 3.93292Z" fill="white"/>
<path d="M0.532227 4.34375H5.46835V4.90906C5.46835 4.94287 5.46169 4.97635 5.44876 5.00758C5.43582 5.03881 5.41686 5.06719 5.39295 5.0911C5.36905 5.115 5.34067 5.13397 5.30943 5.1469C5.2782 5.15984 5.24472 5.1665 5.21092 5.1665H0.789664C0.721387 5.1665 0.655907 5.13938 0.607628 5.0911C0.559349 5.04282 0.532227 4.97734 0.532227 4.90906V4.34375Z" fill="white"/>
</svg>
