<svg width="16" height="16" viewBox="0 0 16 16" fill="none" xmlns="http://www.w3.org/2000/svg">
<g clip-path="url(#clip0_1203_666)">
<path d="M13.6667 13.3343C13.612 13.3343 13.5574 13.325 13.5054 13.3076L0.338696 8.80764C0.149363 8.7423 0.0173631 8.57164 0.00136315 8.3723C-0.0133035 8.17297 0.0913632 7.98364 0.26803 7.89097L15.268 0.0576359C15.4354 -0.0283641 15.6374 -0.0150308 15.7894 0.0936359C15.9427 0.202969 16.022 0.388303 15.9947 0.574969L14.1614 12.9083C14.1394 13.055 14.0534 13.1843 13.926 13.2616C13.8474 13.3096 13.7574 13.3343 13.6667 13.3343ZM1.76403 8.23764L13.26 12.167L14.8607 1.39897L1.76403 8.23764Z" fill="white"/>
<path d="M6.3335 15.3333C6.2815 15.3333 6.22883 15.3253 6.17816 15.3086C5.97216 15.2406 5.8335 15.0493 5.8335 14.8333V10.3333C5.8335 10.2073 5.8815 10.0846 5.9675 9.99197L15.1342 0.158633C15.3222 -0.0440333 15.6402 -0.0540333 15.8415 0.133967C16.0435 0.321967 16.0542 0.638633 15.8662 0.8413L6.8335 10.53V13.3086L8.50216 11.0373C8.6655 10.816 8.97883 10.7666 9.2015 10.9306C9.42416 11.094 9.4715 11.4073 9.30816 11.63L6.73683 15.13C6.64016 15.26 6.4895 15.3333 6.3335 15.3333Z" fill="white"/>
</g>
<defs>
<clipPath id="clip0_1203_666">
<rect width="16" height="16" fill="white"/>
</clipPath>
</defs>
</svg>
