<svg width="15" height="15" viewBox="0 0 15 15" fill="none" xmlns="http://www.w3.org/2000/svg">
<path d="M9.93416 7.22062C9.8279 7.00875 9.61166 6.87501 9.37479 6.87501H8.12479V0.62499C8.12479 0.27999 7.84541 0 7.4998 0C7.15418 0 6.87481 0.27999 6.87481 0.62499V6.87498H5.6248C5.38793 6.87498 5.17166 7.00872 5.06543 7.2206C4.96043 7.43247 4.98293 7.6856 5.12482 7.87497L6.99982 10.375C7.00793 10.3856 7.02044 10.3893 7.0292 10.3993C7.07045 10.4481 7.1192 10.4856 7.17358 10.52C7.19608 10.5337 7.21357 10.5518 7.23794 10.5631C7.31795 10.6006 7.40543 10.625 7.49983 10.625C7.59422 10.625 7.6817 10.6006 7.76233 10.5631C7.78608 10.5518 7.80419 10.5337 7.82607 10.52C7.88045 10.4856 7.9292 10.4481 7.97045 10.3993C7.97857 10.3893 7.99169 10.3856 7.99983 10.375L9.87483 7.87497C10.0173 7.68563 10.0398 7.4325 9.93416 7.22062Z" fill="white"/>
<path d="M14.375 9.375C14.0294 9.375 13.75 9.65499 13.75 9.99999V11.875C13.75 12.9087 12.9088 13.75 11.875 13.75H3.12501C2.09127 13.75 1.25001 12.9087 1.25001 11.875V9.99999C1.25001 9.65499 0.970635 9.375 0.62502 9.375C0.279375 9.375 0 9.65499 0 9.99999V11.875C0 13.5981 1.40188 15 3.12501 15H11.875C13.5981 15 15 13.5981 15 11.875V9.99999C15 9.65499 14.7206 9.375 14.375 9.375Z" fill="white"/>
</svg>
