<svg width="17" height="17" viewBox="0 0 17 17" fill="none" xmlns="http://www.w3.org/2000/svg">
<g clip-path="url(#clip0_1352_327)">
<path d="M14.875 2.125H14.1667V0.70829C14.1667 0.317375 13.8493 0 13.4583 0H12.75C12.359 0 12.0417 0.317375 12.0417 0.70829V2.125H4.95829V0.70829C4.95829 0.317375 4.64104 0 4.25 0H3.54171C3.15067 0 2.83329 0.317375 2.83329 0.70829V2.125H2.125C0.953423 2.125 0 3.07842 0 4.25V14.875C0 16.0466 0.953423 17 2.125 17H14.875C16.0466 17 17 16.0466 17 14.875V4.25C17 3.07842 16.0466 2.125 14.875 2.125ZM15.5833 14.875C15.5833 15.2653 15.2653 15.5833 14.875 15.5833H2.125C1.73473 15.5833 1.41671 15.2653 1.41671 14.875V7.11169H15.5833V14.875Z" fill="white"/>
</g>
<defs>
<clipPath id="clip0_1352_327">
<rect width="17" height="17" fill="white"/>
</clipPath>
</defs>
</svg>
