<svg width="17" height="17" viewBox="0 0 17 17" fill="none" xmlns="http://www.w3.org/2000/svg">
<path fill-rule="evenodd" clip-rule="evenodd" d="M5.10471 3.45443C5.50323 3.05591 6.04373 2.83203 6.60731 2.83203H9.20801C9.59922 2.83203 9.91634 3.14917 9.91634 3.54036C9.91634 3.93156 9.59922 4.2487 9.20801 4.2487H6.60731C6.41945 4.2487 6.23928 4.32333 6.10644 4.45616L5.51964 5.04297C5.12112 5.44148 4.58062 5.66536 4.01704 5.66536H2.83301C2.44181 5.66536 2.12467 5.9825 2.12467 6.3737V13.457C2.12467 13.8482 2.44181 14.1654 2.83301 14.1654H12.7497C13.1409 14.1654 13.458 13.8482 13.458 13.457V8.4987C13.458 8.10748 13.7751 7.79036 14.1663 7.79036C14.5576 7.79036 14.8747 8.10748 14.8747 8.4987V13.457C14.8747 14.6307 13.9233 15.582 12.7497 15.582H2.83301C1.65941 15.582 0.708008 14.6307 0.708008 13.457V6.3737C0.708008 5.20009 1.65941 4.2487 2.83301 4.2487H4.01704C4.2049 4.2487 4.38507 4.17407 4.51791 4.04123L5.10471 3.45443Z" fill="white"/>
<path fill-rule="evenodd" clip-rule="evenodd" d="M4.25 9.91667C4.25 7.96068 5.83566 6.375 7.79167 6.375C9.74766 6.375 11.3333 7.96068 11.3333 9.91667C11.3333 11.8727 9.74766 13.4583 7.79167 13.4583C5.83566 13.4583 4.25 11.8727 4.25 9.91667ZM7.79167 7.79167C6.61806 7.79167 5.66667 8.74303 5.66667 9.91667C5.66667 11.0903 6.61806 12.0417 7.79167 12.0417C8.9653 12.0417 9.91667 11.0903 9.91667 9.91667C9.91667 8.74303 8.9653 7.79167 7.79167 7.79167Z" fill="white"/>
<path fill-rule="evenodd" clip-rule="evenodd" d="M11.333 3.54036C11.333 3.14917 11.6501 2.83203 12.0413 2.83203H16.2913C16.6826 2.83203 16.9997 3.14917 16.9997 3.54036C16.9997 3.93156 16.6826 4.2487 16.2913 4.2487H12.0413C11.6501 4.2487 11.333 3.93156 11.333 3.54036Z" fill="white"/>
<path fill-rule="evenodd" clip-rule="evenodd" d="M14.1663 0.707031C14.5576 0.707031 14.8747 1.02417 14.8747 1.41536V5.66536C14.8747 6.05656 14.5576 6.3737 14.1663 6.3737C13.7751 6.3737 13.458 6.05656 13.458 5.66536V1.41536C13.458 1.02417 13.7751 0.707031 14.1663 0.707031Z" fill="white"/>
</svg>
