<svg width="39" height="38" viewBox="0 0 39 38" fill="none" xmlns="http://www.w3.org/2000/svg">
<path d="M38.8785 17.5443L38.8793 17.5439L33.6344 7.32294C33.4409 6.94576 33.0453 6.70752 32.6125 6.70752H22.9373V3.34912C22.9373 1.50241 21.3953 0 19.5 0C17.6047 0 16.0627 1.50241 16.0627 3.34912V6.70752H6.38754C5.95474 6.70752 5.55918 6.94576 5.36555 7.32294L0.12058 17.5439L0.121418 17.5443C0.0444082 17.6942 0 17.8627 0 18.0418C0 21.4736 2.86543 24.2655 6.38754 24.2655C9.90966 24.2655 12.7751 21.4736 12.7751 18.0418C12.7751 17.8627 12.7307 17.6942 12.6536 17.5443L12.6544 17.5439L8.23624 8.93408H16.0627V31.3018H14.9106C11.75 31.3018 9.17871 33.8072 9.17871 36.8867C9.17871 37.5015 9.69028 38 10.3213 38H28.6787C29.3097 38 29.8213 37.5015 29.8213 36.8867C29.8213 33.8072 27.25 31.3018 24.0894 31.3018H22.9373V8.93408H30.7637L26.3455 17.5439L26.3463 17.5443C26.2692 17.6942 26.2248 17.8627 26.2248 18.0418C26.2248 21.4736 29.0903 24.2655 32.6124 24.2655C36.1345 24.2655 38.9999 21.4736 38.9999 18.0418C39 17.8627 38.9556 17.6942 38.8785 17.5443ZM6.38754 10.3102L9.78382 16.9285H2.99127L6.38754 10.3102ZM6.38754 22.039C4.52179 22.039 2.94298 20.8191 2.44702 19.155H10.3281C9.83211 20.8191 8.2533 22.039 6.38754 22.039ZM11.6585 35.7734C12.1309 34.4671 13.4104 33.5283 14.9106 33.5283H24.0894C25.5896 33.5283 26.8691 34.4671 27.3415 35.7734H11.6585ZM18.3479 31.3018V8.93408H20.6521V31.3018H18.3479ZM18.3479 6.70752V3.34912C18.3479 2.73014 18.8647 2.22656 19.5 2.22656C20.1353 2.22656 20.6521 2.73014 20.6521 3.34912V6.70752H18.3479ZM36.0087 16.9285H29.2163L32.6125 10.3102L36.0087 16.9285ZM32.6125 22.039C30.7467 22.039 29.1679 20.8191 28.6719 19.155H36.553C36.0569 20.8191 34.4781 22.039 32.6125 22.039Z" fill="#FC892E"/>
</svg>
