<svg width="11" height="12" viewBox="0 0 11 12" fill="none" xmlns="http://www.w3.org/2000/svg">
<path d="M1.57317 7.51299C1.3918 6.16503 1.21034 4.81708 1.02878 3.46912C1.01992 3.40289 1.02852 3.33513 1.05348 3.2745C1.07843 3.21387 1.11862 3.16309 1.16891 3.12865C1.2192 3.09421 1.27733 3.07765 1.33588 3.0811C1.39443 3.08454 1.45077 3.10783 1.4977 3.14799L3.19381 4.60162C3.23788 4.63942 3.28823 4.66654 3.34179 4.68133C3.39535 4.69611 3.45098 4.69826 3.50529 4.68764C3.5596 4.67701 3.61144 4.65383 3.65764 4.61952C3.70384 4.58522 3.74343 4.5405 3.77399 4.4881L5.18612 2.06628C5.22055 2.00743 5.26714 1.95918 5.32177 1.92582C5.3764 1.89246 5.43739 1.875 5.49933 1.875C5.56128 1.875 5.62226 1.89246 5.67689 1.92582C5.73153 1.95918 5.77812 2.00743 5.81254 2.06628L7.22467 4.48674C7.25523 4.53913 7.29483 4.58385 7.34103 4.61816C7.38723 4.65247 7.43907 4.67565 7.49338 4.68627C7.54768 4.6969 7.60332 4.69475 7.65688 4.67996C7.71043 4.66517 7.76079 4.63805 7.80486 4.60026L9.50097 3.14662C9.5479 3.10646 9.60423 3.08318 9.66278 3.07973C9.72134 3.07629 9.77946 3.09284 9.82976 3.12729C9.88005 3.16173 9.92023 3.2125 9.94519 3.27314C9.97014 3.33377 9.97874 3.40152 9.96989 3.46776C9.78832 4.81571 9.60686 6.16367 9.4255 7.51162L1.57317 7.51299Z" fill="#F7B422"/>
<path d="M1.57324 8.25977H9.42617V9.28761C9.42617 9.34907 9.41558 9.40994 9.395 9.46673C9.37441 9.52352 9.34425 9.57512 9.30621 9.61858C9.26818 9.66204 9.22303 9.69652 9.17334 9.72004C9.12365 9.74357 9.0704 9.75567 9.01661 9.75567H1.9828C1.87418 9.75567 1.77001 9.70636 1.6932 9.61858C1.61639 9.5308 1.57324 9.41175 1.57324 9.28761V8.25977Z" fill="#F7B422"/>
</svg>
