<svg width="25" height="27" viewBox="0 0 25 27" fill="none" xmlns="http://www.w3.org/2000/svg">
<path fill-rule="evenodd" clip-rule="evenodd" d="M23.5835 7.00479C23.3153 6.73641 22.9443 6.56974 22.5358 6.56974H16.1583V3.01025C16.1583 1.78384 15.1598 0.7854 13.9335 0.7854H2.96008C1.73377 0.7854 0.735229 1.78384 0.735229 3.01025V23.9628C0.735229 25.1356 1.69514 26.0979 2.87025 26.0979H14.0231C15.1984 26.0979 16.158 25.1382 16.158 23.9628V18.8306H22.5357C22.9443 18.8306 23.3153 18.6638 23.5835 18.3954C23.8522 18.1269 24.0188 17.7561 24.0188 17.3474V8.05294C24.0188 7.64424 23.8523 7.27336 23.5835 7.00479ZM5.40517 2.2686H11.4861V3.11512C11.4861 3.46361 11.1982 3.7516 10.8498 3.7516H6.04174C5.69305 3.7516 5.40547 3.46361 5.40547 3.11512V2.2686H5.40517ZM14.6749 23.9628C14.6749 24.3194 14.3795 24.6148 14.0231 24.6148H2.87025C2.51483 24.6148 2.21853 24.3236 2.21853 23.9628V21.3069C2.6198 21.5246 3.07872 21.6485 3.56546 21.6485H13.3262C13.8134 21.6485 14.2733 21.5241 14.6749 21.3058V23.9628ZM13.3262 20.1653H3.56546C3.19151 20.1653 2.85342 20.0154 2.6098 19.7731C2.38332 19.5483 2.23705 19.2428 2.21853 18.904V3.01025C2.21853 2.60263 2.55266 2.2686 2.96008 2.2686H3.92217V3.11512C3.92217 4.28251 4.87456 5.23479 6.04174 5.23479H10.8498C12.017 5.23479 12.9694 4.28251 12.9694 3.11512V2.2686H13.9334C14.3408 2.2686 14.6749 2.60263 14.6749 3.01025V6.56974H7.75361C7.345 6.56974 6.97383 6.73641 6.70545 7.00479C6.43698 7.27336 6.27031 7.64424 6.27031 8.05294V17.3474C6.27031 17.7561 6.43698 18.1269 6.70545 18.3954C6.97383 18.6638 7.345 18.8306 7.75361 18.8306H14.6749C14.6749 19.5712 14.069 20.1653 13.3262 20.1653ZM22.5357 17.3472C22.5358 17.3474 22.536 17.3474 22.5357 17.3474C22.5357 17.3477 22.5357 17.3476 22.5357 17.3474H7.75371C7.75371 17.0692 7.75361 10.7315 7.75371 8.05294C11.027 8.05294 22.536 8.05294 22.5357 8.05304V17.3472Z" fill="#104CBA" fill-opacity="0.65"/>
<path fill-rule="evenodd" clip-rule="evenodd" d="M8.44685 22.4148C8.03834 22.4148 7.7052 22.7479 7.7052 23.1564C7.7052 23.5648 8.03834 23.898 8.44685 23.898C8.85535 23.898 9.1884 23.5648 9.1884 23.1564C9.1884 22.7479 8.85535 22.4148 8.44685 22.4148Z" fill="#104CBA" fill-opacity="0.65"/>
<path fill-rule="evenodd" clip-rule="evenodd" d="M9.97824 12.2553H10.3738C10.7834 12.2553 11.1153 11.9231 11.1153 11.5136C11.1153 11.104 10.7834 10.7721 10.3738 10.7721H9.97824C9.56885 10.7721 9.23669 11.104 9.23669 11.5136C9.23669 11.9231 9.56885 12.2553 9.97824 12.2553Z" fill="#104CBA" fill-opacity="0.65"/>
<path fill-rule="evenodd" clip-rule="evenodd" d="M9.97824 15.2214H17.1963C17.606 15.2214 17.9378 14.8895 17.9378 14.4799C17.9378 14.0705 17.606 13.7383 17.1963 13.7383H9.97824C9.56885 13.7383 9.23669 14.0705 9.23669 14.4799C9.23669 14.8895 9.56885 15.2214 9.97824 15.2214Z" fill="#104CBA" fill-opacity="0.65"/>
<path fill-rule="evenodd" clip-rule="evenodd" d="M13.3401 12.2553H13.7355C14.1452 12.2553 14.4772 11.9231 14.4772 11.5136C14.4772 11.104 14.1452 10.7721 13.7355 10.7721H13.3401C12.9306 10.7721 12.5984 11.104 12.5984 11.5136C12.5984 11.9231 12.9306 12.2553 13.3401 12.2553Z" fill="#104CBA" fill-opacity="0.65"/>
<path fill-rule="evenodd" clip-rule="evenodd" d="M16.7019 12.2553H17.0974C17.5069 12.2553 17.839 11.9231 17.839 11.5136C17.839 11.104 17.5069 10.7721 17.0974 10.7721H16.7019C16.2925 10.7721 15.9603 11.104 15.9603 11.5136C15.9603 11.9231 16.2925 12.2553 16.7019 12.2553Z" fill="#104CBA" fill-opacity="0.65"/>
<path fill-rule="evenodd" clip-rule="evenodd" d="M20.0638 12.2553H20.4592C20.8689 12.2553 21.2009 11.9231 21.2009 11.5136C21.2009 11.104 20.8689 10.7721 20.4592 10.7721H20.0638C19.6544 10.7721 19.3221 11.104 19.3221 11.5136C19.3221 11.9231 19.6544 12.2553 20.0638 12.2553Z" fill="#104CBA" fill-opacity="0.65"/>
</svg>
