<svg width="77" height="77" viewBox="0 0 77 77" fill="none" xmlns="http://www.w3.org/2000/svg">
<path d="M34.9927 50.3066L31.7322 52.4802V47.6719H27.2205V52.4802L23.96 50.3066L21.4575 54.0606L25.9354 57.046L23.3696 59.612L26.5597 62.8021L29.4763 59.8855L32.393 62.8021L35.5831 59.612L33.0173 57.046L37.4952 54.0606L34.9927 50.3066Z" fill="#F8485E"/>
<path d="M53.0396 50.3066L49.7791 52.4802V47.6719H45.2674V52.4802L42.0069 50.3066L39.5044 54.0606L43.9823 57.046L41.4165 59.612L44.6065 62.8021L47.5232 59.8855L50.4399 62.8021L53.63 59.612L51.0642 57.046L55.5421 54.0606L53.0396 50.3066Z" fill="#F8485E"/>
<path d="M71.0864 50.3066L67.826 52.4802V47.6719H63.3142V52.4802L60.0538 50.3066L57.5513 54.0606L62.0292 57.046L59.4633 59.612L62.6534 62.8021L65.5701 59.8855L68.4868 62.8021L71.6769 59.612L69.1111 57.046L73.5889 54.0606L71.0864 50.3066Z" fill="#F8485E"/>
<path d="M24.9648 72.4883H33.9883V77H24.9648V72.4883Z" fill="#F8485E"/>
<path d="M16.9458 50.3066L13.6853 52.4802V47.6719H9.17361V52.4802L5.91314 50.3066L3.41064 54.0606L7.88852 57.046L5.32271 59.612L8.51279 62.8021L11.4295 59.8855L14.3461 62.8021L17.5362 59.612L14.9704 57.046L19.4483 54.0606L16.9458 50.3066Z" fill="#F8485E"/>
<path d="M6.91797 72.4883H15.9414V77H6.91797V72.4883Z" fill="#F8485E"/>
<path d="M43.0117 72.4883H52.0352V77H43.0117V72.4883Z" fill="#F8485E"/>
<path d="M61.0586 72.4883H70.082V77H61.0586V72.4883Z" fill="#F8485E"/>
<path d="M38.5 0C32.2806 0 27.2207 5.05989 27.2207 11.2793V18.3477H22.709V40.9062H54.291V18.3477H49.7793V11.2793C49.7793 5.05989 44.7194 0 38.5 0ZM31.7324 11.2793C31.7324 7.54765 34.7684 4.51172 38.5 4.51172C42.2316 4.51172 45.2676 7.54765 45.2676 11.2793V18.3477H31.7324V11.2793ZM49.7793 36.3945H27.2207V22.8594H49.7793V36.3945Z" fill="#F8485E"/>
<path d="M36.2441 27.3711H40.7559V31.8828H36.2441V27.3711Z" fill="#F8485E"/>
</svg>
