<svg width="25" height="22" viewBox="0 0 25 22" fill="none" xmlns="http://www.w3.org/2000/svg">
<path d="M24.2416 21.5388H0.758789V3.47461H24.2482V21.5388H24.2416ZM2.56059 19.737H22.4332V5.28301H2.56059V19.737Z" fill="#F8485E"/>
<path d="M20.6312 14.3118H4.36875C2.37555 14.3118 0.751953 12.6882 0.751953 10.695V7.98242H2.56035V10.695C2.56035 11.6916 3.37215 12.5034 4.36875 12.5034H20.6312C21.6278 12.5034 22.4396 11.6916 22.4396 10.695V7.98242H24.248V10.695C24.2414 12.6948 22.6244 14.3118 20.6312 14.3118Z" fill="#F8485E"/>
<path d="M16.1164 5.28272H8.88281V2.57012C8.88281 1.57352 9.69461 0.761719 10.6912 0.761719H14.308C15.3046 0.761719 16.1164 1.57352 16.1164 2.57012V5.28272ZM10.6912 3.47432H14.308V2.57012H10.6912V3.47432Z" fill="#F8485E"/>
<path d="M18.823 8.89258H17.0146V11.6052H18.823V8.89258Z" fill="#F8485E"/>
<path d="M7.98516 8.89258H6.17676V11.6052H7.98516V8.89258Z" fill="#F8485E"/>
</svg>
