<svg width="31" height="23" viewBox="0 0 31 23" fill="none" xmlns="http://www.w3.org/2000/svg">
<path d="M26.2193 0.219727H4.67565C4.10851 0.219727 3.65118 0.678349 3.65118 1.24549C3.65118 1.81263 4.10851 2.26867 4.67565 2.26867H26.2193C27.6559 2.26867 28.825 3.44042 28.825 4.87701V4.97648H4.67565C4.10851 4.97648 3.65118 5.43252 3.65118 5.99966C3.65118 6.56551 4.10851 7.02414 4.67565 7.02414H28.825V18.1176C28.825 19.5529 27.6559 20.7247 26.2193 20.7247H4.77513C3.33854 20.7247 2.16938 19.5529 2.16938 18.1176V4.77495C2.16938 4.20781 1.71075 3.74918 1.1449 3.74918C0.577763 3.74918 0.119141 4.20781 0.119141 4.77495V18.1176C0.119141 20.6859 2.20813 22.7736 4.77513 22.7736H26.2193C28.7863 22.7736 30.8766 20.6859 30.8766 18.1176V4.87701C30.8766 2.30872 28.7863 0.219727 26.2193 0.219727V0.219727ZM25.6211 14.8543C26.187 14.8543 26.6469 14.3957 26.6469 13.8298C26.6469 13.2614 26.187 12.8054 25.6211 12.8054H15.4475C14.8803 12.8054 14.4217 13.2614 14.4217 13.8298C14.4217 14.3957 14.8803 14.8543 15.4475 14.8543H25.6211ZM6.20267 12.2408H9.38073V15.4176H6.20267V12.2408V12.2408ZM10.4052 17.4691C10.9723 17.4691 11.431 17.0105 11.431 16.442V11.215C11.431 10.6492 10.9723 10.1893 10.4052 10.1893H5.1782C4.61106 10.1893 4.15373 10.6492 4.15373 11.215V16.442C4.15373 17.0105 4.61106 17.4691 5.1782 17.4691H10.4052Z" fill="#FD625E"/>
</svg>
