<svg width="23" height="23" viewBox="0 0 23 23" fill="none" xmlns="http://www.w3.org/2000/svg">
<path d="M11.3203 12.6006C11.8165 12.6006 12.2188 12.1983 12.2188 11.7021C12.2188 11.206 11.8165 10.8037 11.3203 10.8037C10.8241 10.8037 10.4219 11.206 10.4219 11.7021C10.4219 12.1983 10.8241 12.6006 11.3203 12.6006Z" fill="#1D2C38"/>
<path d="M7.95117 12.6006C8.44737 12.6006 8.84961 12.1983 8.84961 11.7021C8.84961 11.206 8.44737 10.8037 7.95117 10.8037C7.45498 10.8037 7.05273 11.206 7.05273 11.7021C7.05273 12.1983 7.45498 12.6006 7.95117 12.6006Z" fill="#1D2C38"/>
<path d="M11.3203 19.4287C11.8165 19.4287 12.2188 19.0265 12.2188 18.5303C12.2188 18.0341 11.8165 17.6318 11.3203 17.6318C10.8241 17.6318 10.4219 18.0341 10.4219 18.5303C10.4219 19.0265 10.8241 19.4287 11.3203 19.4287Z" fill="#1D2C38"/>
<path d="M11.3203 16.0147C11.8165 16.0147 12.2188 15.6124 12.2188 15.1162C12.2188 14.62 11.8165 14.2178 11.3203 14.2178C10.8241 14.2178 10.4219 14.62 10.4219 15.1162C10.4219 15.6124 10.8241 16.0147 11.3203 16.0147Z" fill="#1D2C38"/>
<path d="M7.95117 16.0147C8.44737 16.0147 8.84961 15.6124 8.84961 15.1162C8.84961 14.62 8.44737 14.2178 7.95117 14.2178C7.45498 14.2178 7.05273 14.62 7.05273 15.1162C7.05273 15.6124 7.45498 16.0147 7.95117 16.0147Z" fill="#1D2C38"/>
<path d="M22.1016 13.0498C22.5978 13.0498 23 12.6476 23 12.1514V8.1084C23 6.1268 21.3878 4.51465 19.4062 4.51465H15.7541C15.4222 3.15729 14.3175 2.10046 12.9344 1.83816C12.9935 1.82589 13.0546 1.81934 13.1172 1.81934C13.6134 1.81929 14.0156 1.41706 14.0156 0.920854C14.0156 0.424691 13.6133 0.0224609 13.1172 0.0224609H13.1171H6.15439C5.00007 0.0225508 4.01332 0.752262 3.63009 1.77441H3.59375C1.61216 1.77441 0 3.38657 0 5.36816V19.3838C0 21.3654 1.61216 22.9775 3.59375 22.9775H12.2637C13.9512 22.9775 15.37 21.8081 15.7541 20.2373H19.4062C21.3878 20.2373 23 18.6251 23 16.6436C23 16.1473 22.5978 15.7451 22.1016 15.7451C21.6054 15.7451 21.2031 16.1473 21.2031 16.6436C21.2031 17.6344 20.397 18.4404 19.4062 18.4404H15.8574V6.31152H19.4062C20.397 6.31152 21.2031 7.1176 21.2031 8.1084V12.1514C21.2031 12.6476 21.6054 13.0498 22.1016 13.0498ZM5.25622 2.71777C5.25622 2.22242 5.65921 1.81938 6.15448 1.81934H10.576C10.4763 2.10055 10.4221 2.40292 10.4221 2.71786L10.4221 4.06543H5.25613L5.25622 2.71777ZM14.0605 7.43457H4.49219C3.99598 7.43457 3.59375 7.8368 3.59375 8.33301C3.59375 8.82922 3.99598 9.23145 4.49219 9.23145H14.0605V19.3838C14.0605 20.3746 13.2545 21.1807 12.2637 21.1807H3.59375C2.60295 21.1807 1.79688 20.3746 1.79688 19.3838V5.36816C1.79688 4.42265 2.53112 3.64595 3.45925 3.57686L3.45916 4.96378C3.45916 5.20209 3.55377 5.43065 3.72227 5.59915C3.89077 5.76765 4.11929 5.8623 4.3576 5.8623H11.3207C11.559 5.8623 11.7875 5.76765 11.956 5.59915C12.1245 5.43065 12.2191 5.20209 12.2191 4.96378L12.219 3.57129H12.2637C13.2545 3.57129 14.0605 4.37737 14.0605 5.36816V7.43457Z" fill="#1D2C38"/>
<path d="M4.53711 19.4287C5.0333 19.4287 5.43555 19.0265 5.43555 18.5303C5.43555 18.0341 5.0333 17.6318 4.53711 17.6318C4.04092 17.6318 3.63867 18.0341 3.63867 18.5303C3.63867 19.0265 4.04092 19.4287 4.53711 19.4287Z" fill="#1D2C38"/>
<path d="M7.95117 19.4287C8.44737 19.4287 8.84961 19.0265 8.84961 18.5303C8.84961 18.0341 8.44737 17.6318 7.95117 17.6318C7.45498 17.6318 7.05273 18.0341 7.05273 18.5303C7.05273 19.0265 7.45498 19.4287 7.95117 19.4287Z" fill="#1D2C38"/>
<path d="M18.0586 9.00684V13.499C18.0586 13.9952 18.4608 14.3975 18.957 14.3975C19.4532 14.3975 19.8555 13.9952 19.8555 13.499V9.00684C19.8555 8.51063 19.4532 8.1084 18.957 8.1084C18.4608 8.1084 18.0586 8.51063 18.0586 9.00684Z" fill="#1D2C38"/>
<path d="M4.53711 16.0147C5.0333 16.0147 5.43555 15.6124 5.43555 15.1162C5.43555 14.62 5.0333 14.2178 4.53711 14.2178C4.04092 14.2178 3.63867 14.62 3.63867 15.1162C3.63867 15.6124 4.04092 16.0147 4.53711 16.0147Z" fill="#1D2C38"/>
<path d="M4.53711 12.6006C5.0333 12.6006 5.43555 12.1983 5.43555 11.7021C5.43555 11.206 5.0333 10.8037 4.53711 10.8037C4.04092 10.8037 3.63867 11.206 3.63867 11.7021C3.63867 12.1983 4.04092 12.6006 4.53711 12.6006Z" fill="#1D2C38"/>
</svg>
