<svg width="23" height="23" viewBox="0 0 23 23" fill="none" xmlns="http://www.w3.org/2000/svg">
<g clip-path="url(#clip0_1181_3477)">
<path d="M21.2031 9.70314V5.21094C21.2031 4.2202 20.397 3.41406 19.4063 3.41406H3.59375C2.60301 3.41406 1.79688 4.2202 1.79688 5.21094V14.1953C1.79688 15.1861 2.60301 15.9922 3.59375 15.9922H19.4063C20.397 15.9922 21.2031 15.1861 21.2031 14.1953C21.2031 13.6991 21.6053 13.2969 22.1016 13.2969C22.5978 13.2969 23 13.6991 23 14.1953C23 16.177 21.3879 17.7891 19.4063 17.7891H12.3984V19.5805H15.543C16.0392 19.5805 16.4414 19.9827 16.4414 20.479C16.4414 20.9752 16.0392 21.3774 15.543 21.3774H7.45703C6.96079 21.3774 6.55859 20.9752 6.55859 20.479C6.55859 19.9827 6.96079 19.5805 7.45703 19.5805H10.6016V17.7891H3.59375C1.6121 17.7891 0 16.177 0 14.1953V5.21094C0 3.22929 1.6121 1.61719 3.59375 1.61719H19.4063C21.3879 1.61719 23 3.22929 23 5.21094V9.70314C23 10.1994 22.5978 10.6016 22.1016 10.6016C21.6053 10.6016 21.2031 10.1994 21.2031 9.70314ZM18.4629 11.5C18.9591 11.5 19.3613 11.0978 19.3613 10.6016V7.50196C19.3613 6.26345 18.3537 5.25586 17.1152 5.25586H13.9707C13.4745 5.25586 13.0723 5.65806 13.0723 6.1543C13.0723 6.65055 13.4745 7.05274 13.9707 7.05274H16.3837L12.9182 10.5182C12.7431 10.6933 12.4581 10.6933 12.283 10.5182L10.5954 8.83084C10.1641 8.39935 9.59152 8.16561 8.98052 8.17316C8.37056 8.18035 7.80272 8.4276 7.38158 8.86927L3.75203 12.6769C3.4095 13.0361 3.42319 13.6049 3.78239 13.9472C3.95628 14.113 4.17931 14.1953 4.40217 14.1953C4.63924 14.1953 4.87595 14.102 5.05248 13.9168L8.68203 10.109C8.79574 9.98986 8.93121 9.97074 9.00192 9.96986C9.07247 9.96881 9.20846 9.98495 9.3248 10.1013L11.0122 11.7888C11.888 12.6645 13.313 12.6645 14.1886 11.7888L17.5645 8.41321V10.6016C17.5645 11.0978 17.9666 11.5 18.4629 11.5Z" fill="#1D2C38"/>
</g>
<defs>
<clipPath id="clip0_1181_3477">
<rect width="23" height="23" fill="white"/>
</clipPath>
</defs>
</svg>
