<svg width="23" height="23" viewBox="0 0 23 23" fill="none" xmlns="http://www.w3.org/2000/svg">
<g clip-path="url(#clip0_1181_3448)">
<path d="M13.5674 0C8.36568 0 4.13377 4.23191 4.13377 9.43359C4.13377 11.7221 4.95314 13.8226 6.31365 15.4579L0.266307 21.4641C-0.0857454 21.8138 -0.087722 22.3826 0.26195 22.7347C0.43755 22.9115 0.668403 23 0.899392 23C1.12831 23 1.35728 22.9131 1.53252 22.739L7.58804 16.7247C9.21677 18.0628 11.2998 18.8672 13.5674 18.8672C15.1857 18.8672 16.7826 18.4502 18.1855 17.6612C18.618 17.418 18.7714 16.8702 18.5282 16.4377C18.285 16.0053 17.7372 15.8517 17.3047 16.0951C16.1702 16.7331 14.8779 17.0703 13.5674 17.0703C9.35647 17.0703 5.93064 13.6445 5.93064 9.43359C5.93064 5.22271 9.35647 1.79688 13.5674 1.79688C17.7782 1.79688 21.2041 5.22271 21.2041 9.43359C21.2041 10.7602 20.859 12.0665 20.2061 13.2111C19.9601 13.6421 20.1103 14.1908 20.5413 14.4367C20.9723 14.6825 21.521 14.5324 21.7668 14.1014C22.5742 12.686 23.001 11.0719 23.001 9.43359C23.001 4.23191 18.769 0 13.5674 0Z" fill="#1D2C38"/>
<path d="M13.6113 15.0488C14.1075 15.0488 14.5097 14.6466 14.5097 14.1504V13.6301C15.7456 13.4574 16.6669 12.4409 16.6669 11.1743V10.9538C16.6669 10.2748 16.4012 9.64068 15.9187 9.16806C15.4428 8.702 14.8093 8.44531 14.1348 8.44531H13.3115C12.9157 8.44531 12.5813 8.0956 12.5813 7.68164V7.35398C12.5813 6.95175 12.8952 6.64844 13.3115 6.64844H14.09C14.3189 6.64844 14.5555 6.80162 14.5555 7.05795C14.5555 7.55415 14.9577 7.95638 15.4539 7.95638C15.9502 7.95638 16.3524 7.55415 16.3524 7.05795C16.3524 5.98121 15.5573 5.08273 14.5097 4.89024V4.3125C14.5097 3.81629 14.1075 3.41406 13.6113 3.41406C13.115 3.41406 12.7128 3.81629 12.7128 4.3125V4.9211C12.2681 5.02608 11.8608 5.24777 11.5305 5.57099C11.0494 6.04172 10.7845 6.67499 10.7845 7.35398V7.68164C10.7845 9.09354 11.9181 10.2422 13.3115 10.2422H14.1348C14.5471 10.2422 14.87 10.5548 14.87 10.9538V11.1743C14.87 11.5648 14.5539 11.8594 14.1348 11.8594H12.7968C12.5761 11.8594 12.3525 11.7205 12.3525 11.4551C12.3525 10.9589 11.9503 10.5566 11.4541 10.5566C10.9579 10.5566 10.5557 10.9589 10.5557 11.4551C10.5557 12.6617 11.4966 13.6122 12.7129 13.6542V14.1504C12.7129 14.6466 13.1151 15.0488 13.6113 15.0488Z" fill="#1D2C38"/>
</g>
<defs>
<clipPath id="clip0_1181_3448">
<rect width="23" height="23" fill="white"/>
</clipPath>
</defs>
</svg>
