<svg width="23" height="23" viewBox="0 0 23 23" fill="none" xmlns="http://www.w3.org/2000/svg">
<g clip-path="url(#clip0_1181_3473)">
<path d="M11.5 0.00134277C5.14873 0.00134277 0 5.15008 0 11.5013C0 14.5728 1.19613 17.4605 3.36799 19.6325C5.47341 21.7379 8.81669 23.0004 11.4629 23.0004C11.7476 23.0004 12.5316 22.966 13.0383 22.8982C13.5223 22.8334 13.8813 22.3973 13.83 21.9118C13.7765 21.4058 13.3166 21.0472 12.8158 21.1153C12.6624 21.1361 12.5079 21.1532 12.3526 21.1667V1.98445C13.94 2.64048 15.3489 4.98159 15.949 8.12143C16.0421 8.60875 16.5126 8.92817 17 8.83519C17.4873 8.74207 17.8069 8.27146 17.7138 7.78414C17.3434 5.84609 16.6954 4.14341 15.8283 2.81944C19.0049 4.40987 21.1928 7.69309 21.2015 11.4787C21.247 12.6893 22.9411 12.7053 22.9983 11.5014V11.4996C22.9983 5.14927 17.8503 0.00134277 11.5 0.00134277ZM7.03531 2.88812C5.6759 5.0668 5.02198 7.62073 4.87046 10.603H1.83797C2.14778 7.24391 4.17719 4.37537 7.03531 2.88812ZM1.83797 12.3997H4.87046C5.0222 15.3828 5.67563 17.9351 7.03531 20.1146C4.17719 18.6273 2.14778 15.7588 1.83797 12.3997ZM10.5558 21.016C7.8712 19.7143 6.83861 15.6067 6.66887 12.3997H10.5558V21.016ZM10.5558 10.603H6.66887C6.83767 7.39973 7.87174 3.28677 10.5558 1.98674V10.603ZM22.86 17.1956C22.5855 17.8676 21.9681 18.3016 21.2487 18.3283C21.2375 18.3288 21.2264 18.329 21.2153 18.329H20.3843L22.0112 21.7129C22.2262 22.16 22.0379 22.6968 21.5908 22.9118C21.1536 23.1248 20.6075 22.9431 20.3919 22.4914L18.1459 17.8199C18.0121 17.5415 18.0307 17.2139 18.1951 16.9524C18.3595 16.6909 18.6467 16.5322 18.9556 16.5322H21.1874C21.1949 16.524 21.2021 16.5047 21.2017 16.4938L16.467 12.2222C16.4648 12.2207 16.4633 12.2199 16.4628 12.2197C16.4578 12.2187 16.4461 12.2245 16.4405 12.2295C16.4403 12.2311 16.4402 12.2335 16.4402 12.2368V18.9421C16.4402 18.9664 16.4776 18.9966 16.4977 19.0028C17.6809 19.0655 17.6683 20.7535 16.4852 20.7995H16.4792C15.4841 20.7929 14.6434 19.9424 14.6434 18.9421V12.2368C14.6434 11.525 15.0449 10.896 15.6912 10.595C16.3395 10.2931 17.082 10.3914 17.6291 10.8514C17.6371 10.8581 22.4846 15.2326 22.5008 15.2497C22.9981 15.775 23.1358 16.5206 22.86 17.1956Z" fill="#1D2C38"/>
</g>
<defs>
<clipPath id="clip0_1181_3473">
<rect width="23" height="23" fill="white"/>
</clipPath>
</defs>
</svg>
