<svg width="23" height="23" viewBox="0 0 23 23" fill="none" xmlns="http://www.w3.org/2000/svg">
<g clip-path="url(#clip0_1181_3471)">
<path d="M22.1016 6.19923C22.5978 6.19923 23 5.797 23 5.30079V3.59375C23 1.61216 21.3878 0 19.4063 0H3.59375C1.61216 0 0 1.61216 0 3.59375V19.4063C0 21.3879 1.61216 23 3.59375 23H19.4063C20.9556 23 22.3259 22.0131 22.8159 20.5441C22.9729 20.0734 22.7186 19.5645 22.2479 19.4075C21.7772 19.2504 21.2684 19.5048 21.1114 19.9755C20.8664 20.7098 20.1812 21.2032 19.4063 21.2032H3.59375C2.60295 21.2032 1.79688 20.3971 1.79688 19.4063V8.83039C2.078 8.93008 2.38046 8.98439 2.69531 8.98439H19.4063C20.3971 8.98439 21.2031 9.79047 21.2031 10.7813V12.4434H18.1934C14.6168 12.5918 14.6196 17.6868 18.1934 17.834H22.1016C22.5978 17.834 23 17.4317 23 16.9356V10.7813C23 8.79967 21.3878 7.18751 19.4063 7.18751H2.69531C1.50313 7.13801 1.50407 5.43973 2.69531 5.39063H18.5078C19.6999 5.34319 19.699 3.64079 18.5078 3.59375H2.69531C2.38046 3.59375 2.078 3.64802 1.79688 3.7477V3.59375C1.79688 2.60296 2.60295 1.79688 3.59375 1.79688H19.4063C20.3971 1.79688 21.2031 2.60296 21.2031 3.59375V5.30079C21.2031 5.797 21.6054 6.19923 22.1016 6.19923ZM21.2031 16.0371H18.1934C17.0012 15.9876 17.0021 14.2893 18.1934 14.2403H21.2031V16.0371Z" fill="#1D2C38"/>
</g>
<defs>
<clipPath id="clip0_1181_3471">
<rect width="23" height="23" fill="white"/>
</clipPath>
</defs>
</svg>
