<svg width="23" height="23" viewBox="0 0 23 23" fill="none" xmlns="http://www.w3.org/2000/svg">
<path d="M7.28908 14.2678H4.5444C4.04739 14.2678 3.64453 14.6707 3.64453 15.1676C3.64453 15.6647 4.04743 16.0675 4.5444 16.0675H7.28908C7.78609 16.0675 8.18895 15.6646 8.18895 15.1676C8.189 14.6706 7.78609 14.2678 7.28908 14.2678Z" fill="#1D2C38"/>
<path d="M11.1136 10.6683H4.5444C4.04739 10.6683 3.64453 11.0712 3.64453 11.5682C3.64453 12.0652 4.04743 12.4681 4.5444 12.4681H11.1136C11.6106 12.4681 12.0135 12.0652 12.0135 11.5682C12.0135 11.0712 11.6106 10.6683 11.1136 10.6683Z" fill="#1D2C38"/>
<path d="M11.1136 7.06879H10.9286H4.5444C4.04739 7.06879 3.64453 7.47169 3.64453 7.96866C3.64453 8.46563 4.04743 8.86854 4.5444 8.86854H10.9286H11.1136C11.6106 8.86854 12.0135 8.46563 12.0135 7.96866C12.0135 7.47169 11.6106 7.06879 11.1136 7.06879Z" fill="#1D2C38"/>
<path d="M12.0585 1.39868H3.59958C1.61476 1.39868 0 3.01344 0 4.99827V18.0467C0 19.0084 0.374513 19.9124 1.05458 20.5923C1.73448 21.2721 2.63817 21.6463 3.59958 21.6463C3.59985 21.6463 3.60026 21.6463 3.60048 21.6463L12.0595 21.6443C14.0438 21.6438 15.6582 20.0291 15.6582 18.0447V4.99827C15.6581 3.01344 14.0434 1.39868 12.0585 1.39868ZM13.8583 4.99827V18.0447C13.8583 19.0369 13.0511 19.8443 12.0589 19.8445L3.59999 19.8465C3.59985 19.8465 3.59972 19.8465 3.59958 19.8465C3.11892 19.8465 2.66701 19.6593 2.32708 19.3194C1.98707 18.9795 1.79979 18.5276 1.79979 18.0467V4.99822C1.79979 4.00581 2.60717 3.19843 3.59958 3.19843H12.0586C13.0509 3.19848 13.8583 4.00586 13.8583 4.99827Z" fill="#1D2C38"/>
<path d="M22.0961 14.4472C22.0962 14.4472 22.0964 14.4472 22.0965 14.4472C22.5933 14.4472 22.9962 14.0445 22.9963 13.5477L22.9998 4.05343C22.9998 2.56481 21.7887 1.35376 20.3002 1.35376C18.8115 1.35376 17.6005 2.56485 17.6005 4.05293L17.5928 18.1056C17.5927 18.284 17.6456 18.4585 17.7449 18.6067L19.4888 21.2113C19.6535 21.4573 19.9286 21.6065 20.2246 21.6105C20.2286 21.6105 20.2327 21.6106 20.2366 21.6106C20.5281 21.6106 20.8018 21.4693 20.9707 21.2311L22.8275 18.6122C23.115 18.2068 23.0194 17.6451 22.6139 17.3576C22.2085 17.0702 21.6468 17.1658 21.3593 17.5713L20.2578 19.1248L19.3927 17.8328L19.3991 6.25815H21.1993L21.1966 13.5469C21.1964 14.0439 21.5992 14.447 22.0961 14.4472ZM19.4 4.45831L19.4002 4.05334C19.4002 3.55713 19.804 3.15346 20.3001 3.15346C20.7963 3.15346 21.2 3.55713 21.2 4.05298L21.1999 4.45831H19.4Z" fill="#1D2C38"/>
</svg>
