<svg width="23" height="23" viewBox="0 0 23 23" fill="none" xmlns="http://www.w3.org/2000/svg">
<path d="M22.9417 19.7082C22.8406 19.2225 22.3647 18.9107 21.879 19.0118C21.3932 19.113 21.0814 19.5888 21.1826 20.0745C21.2408 20.3543 21.1715 20.6411 20.9923 20.8615C20.8884 20.9891 20.6571 21.2032 20.2736 21.2032H16.2168C15.7206 21.2032 15.3184 21.6054 15.3184 22.1016C15.3184 22.5978 15.7206 23 16.2168 23H20.2736C21.0969 23 21.867 22.6338 22.3863 21.9952C22.9082 21.3534 23.1107 20.5198 22.9417 19.7082Z" fill="#1D2C38"/>
<path d="M12.4122 12.2533C15.3638 12.5252 18.0488 14.1072 19.7211 16.6012C19.9974 17.0133 20.5556 17.1235 20.9676 16.8471C21.3798 16.5707 21.4898 16.0126 21.2135 15.6005C19.7393 13.4018 17.5984 11.8033 15.1575 11C16.6451 9.88461 17.6094 8.1075 17.6094 6.10938C17.6094 2.74064 14.8687 0 11.5 0C8.13129 0 5.39061 2.74064 5.39061 6.10938C5.39061 8.1088 6.35607 9.88695 7.84527 11.0021C6.48095 11.4513 5.20068 12.1497 4.08024 13.0713C2.02587 14.7611 0.597489 17.1182 0.0582913 19.7082C-0.110705 20.5198 0.0917581 21.3533 0.61366 21.9951C1.13296 22.6338 1.90305 23 2.72643 23H6.64842C7.14463 23 7.54686 22.5978 7.54686 22.1016C7.54686 21.6054 7.14463 21.2031 6.64842 21.2031H2.72634C2.34279 21.2031 2.11145 20.9891 2.00763 20.8615C1.82844 20.6411 1.75908 20.3543 1.81734 20.0745C2.69709 15.8488 6.26371 12.6982 10.4957 12.2632L8.7805 20.0666C8.71478 20.3659 8.80606 20.678 9.02272 20.8947L10.8197 22.6919C10.9881 22.8604 11.2167 22.9551 11.4551 22.9551C11.6934 22.9551 11.9219 22.8604 12.0904 22.6919L13.8872 20.8947C14.1038 20.678 14.1951 20.3659 14.1293 20.0666L12.4122 12.2533ZM7.18748 6.10938C7.18748 3.73144 9.12204 1.79688 11.5 1.79688C13.8779 1.79688 15.8125 3.73144 15.8125 6.10938C15.8125 8.41553 13.9929 10.3046 11.714 10.4166C11.6428 10.4153 11.5715 10.4144 11.5 10.4144C11.4299 10.4144 11.3598 10.4155 11.2898 10.4167C9.00911 10.3067 7.18748 8.41683 7.18748 6.10938ZM11.455 20.7859L10.6412 19.972L11.455 16.2693L12.2688 19.972L11.455 20.7859Z" fill="#1D2C38"/>
</svg>
