<svg width="23" height="23" viewBox="0 0 23 23" fill="none" xmlns="http://www.w3.org/2000/svg">
<g clip-path="url(#clip0_1181_3469)">
<path d="M17.9733 19.6821C18.2676 20.0817 18.1825 20.6441 17.7829 20.9383C15.9525 22.287 13.78 23 11.5 23C8.66817 23 6.00585 21.8973 4.00349 19.895C2.00113 17.8926 0.898438 15.2303 0.898438 12.3984C0.898438 10.5144 1.39925 8.66378 2.34664 7.04642C2.95361 6.01041 3.73431 5.08617 4.64573 4.3125H3.2793C2.78305 4.3125 2.38086 3.91031 2.38086 3.41406C2.38086 2.91782 2.78305 2.51562 3.2793 2.51562H5.61524C6.85375 2.51562 7.86133 3.52321 7.86133 4.76172V7.09766C7.86133 7.5939 7.45914 7.99609 6.96289 7.99609C6.46665 7.99609 6.06446 7.5939 6.06446 7.09766V5.4731C3.96208 7.12977 2.69531 9.68786 2.69531 12.3984C2.69531 17.2533 6.64511 21.2031 11.5 21.2031C13.3936 21.2031 15.1976 20.6114 16.7171 19.4919C17.1165 19.1974 17.6789 19.2827 17.9733 19.6821ZM18.9965 4.90192C17.2074 3.11295 14.8913 2.04272 12.3984 1.83495V0.898438C12.3984 0.402191 11.9963 0 11.5 0C11.0038 0 10.6016 0.402191 10.6016 0.898438V2.69531C10.6016 3.19156 11.0038 3.59375 11.5 3.59375C16.3549 3.59375 20.3047 7.54354 20.3047 12.3984C20.3047 13.8814 19.9293 15.347 19.2194 16.6371C18.98 17.0717 19.1385 17.6181 19.5733 17.8573C19.7107 17.933 19.8592 17.9689 20.0057 17.9689C20.3226 17.9689 20.6299 17.8008 20.7936 17.5036C21.6492 15.9487 22.1016 14.1834 22.1016 12.3984C22.1016 9.5666 20.9989 6.90428 18.9965 4.90192ZM11.5 14.1953C12.4907 14.1953 13.2969 13.3892 13.2969 12.3984C13.2969 12.1715 13.2542 11.9545 13.177 11.7543L16.0101 8.25334C16.3223 7.86765 16.2626 7.30191 15.8769 6.98991C15.4912 6.67774 14.9255 6.7374 14.6135 7.1231L11.7806 10.6235C11.6892 10.6093 11.5955 10.6016 11.5 10.6016C10.5093 10.6016 9.70313 11.4075 9.70313 12.3984C9.70313 13.3892 10.5093 14.1953 11.5 14.1953ZM17.5732 2.17257L20.0418 4.22985C20.2099 4.36988 20.4138 4.43814 20.6165 4.43814C20.8739 4.43814 21.1296 4.32794 21.3072 4.11474C21.625 3.7336 21.5734 3.16717 21.1923 2.84938L18.7237 0.792274C18.3423 0.474487 17.7759 0.526077 17.4583 0.907211C17.1405 1.28852 17.1921 1.85496 17.5732 2.17257Z" fill="#1D2C38"/>
</g>
<defs>
<clipPath id="clip0_1181_3469">
<rect width="23" height="23" fill="white"/>
</clipPath>
</defs>
</svg>
