<svg width="23" height="23" viewBox="0 0 23 23" fill="none" xmlns="http://www.w3.org/2000/svg">
<g clip-path="url(#clip0_1181_3475)">
<path d="M13.3177 15.1205C12.7553 14.7281 12.1543 14.4084 11.5257 14.1642C12.3619 13.4042 12.9166 12.3396 13.0131 11.1477C14.2811 9.9122 15.9432 9.23487 17.725 9.23487C19.116 9.23487 20.4515 9.65373 21.5875 10.446C21.9946 10.7299 22.5544 10.6303 22.8383 10.2231C23.1221 9.81622 23.0224 9.25627 22.6155 8.97253C22.0531 8.58016 21.4519 8.26062 20.8233 8.01618C21.746 7.17758 22.3261 5.96838 22.3261 4.62634C22.3261 2.10001 20.2709 0.0448303 17.7446 0.0448303C15.2185 0.0448303 13.1633 2.10001 13.1633 4.62634C13.1633 5.96294 13.7387 7.16776 14.655 8.00601C14.5295 8.05426 14.4048 8.10533 14.2812 8.15972C13.719 8.40714 13.1905 8.71142 12.699 9.06869C12.0211 7.38465 10.3708 6.19281 8.44701 6.19281C5.92085 6.19281 3.8655 8.24799 3.8655 10.7741C3.8655 12.1071 4.43773 13.3085 5.34915 14.1464C2.91232 15.0594 0.936454 17.0204 0.132071 19.5213C-0.134652 20.3506 0.00660606 21.2301 0.519698 21.9342C1.03279 22.6383 1.82664 23.042 2.69771 23.042H10.5132C11.0093 23.042 11.4115 22.6398 11.4115 22.1436C11.4115 21.6475 11.0093 21.2453 10.5132 21.2453H2.69771C2.40729 21.2453 2.14268 21.1107 1.97159 20.876C1.8005 20.6412 1.75347 20.3479 1.84226 20.0714C2.73017 17.3108 5.43812 15.3828 8.42735 15.3828C9.81818 15.3828 11.1539 15.8017 12.2899 16.594C12.6969 16.8779 13.2568 16.7781 13.5407 16.3711C13.8245 15.9642 13.7248 15.4043 13.3177 15.1205ZM17.7446 1.84153C19.2802 1.84153 20.5294 3.09074 20.5294 4.62634C20.5294 6.16175 19.2802 7.41114 17.7446 7.41114C16.2092 7.41114 14.9598 6.16175 14.9598 4.62634C14.9598 3.09074 16.2092 1.84153 17.7446 1.84153ZM8.44701 7.98934C9.9826 7.98934 11.2318 9.23873 11.2318 10.7741C11.2318 12.3097 9.9826 13.5589 8.44701 13.5589C6.91142 13.5589 5.6622 12.3097 5.6622 10.7741C5.6622 9.23873 6.91142 7.98934 8.44701 7.98934ZM22.9999 18.775C22.9999 19.271 22.5978 19.6732 22.1015 19.6732H19.6312V22.1436C19.6312 22.6398 19.229 23.042 18.7329 23.042C18.2366 23.042 17.8345 22.6398 17.8345 22.1436V19.6732H15.3641C14.868 19.6732 14.4658 19.271 14.4658 18.775C14.4658 18.2787 14.868 17.8765 15.3641 17.8765H17.8345V15.4062C17.8345 14.9101 18.2366 14.5079 18.7329 14.5079C19.229 14.5079 19.6312 14.9101 19.6312 15.4062V17.8765H22.1015C22.5978 17.8765 22.9999 18.2787 22.9999 18.775Z" fill="#1D2C38"/>
</g>
<defs>
<clipPath id="clip0_1181_3475">
<rect width="23" height="23" fill="white"/>
</clipPath>
</defs>
</svg>
